%TF.GenerationSoftware,Altium Limited,Altium Designer,22.7.1 (60)*%
G04 Layer_Physical_Order=1*
G04 Layer_Color=255*
%FSLAX45Y45*%
%MOMM*%
%TF.SameCoordinates,C4916FE7-F214-4651-8B13-81D0A890374D*%
%TF.FilePolarity,Positive*%
%TF.FileFunction,Copper,L1,Top,Signal*%
%TF.Part,Single*%
G01*
G75*
%TA.AperFunction,SMDPad,CuDef*%
G04:AMPARAMS|DCode=10|XSize=1.56mm|YSize=0.28mm|CornerRadius=0.07mm|HoleSize=0mm|Usage=FLASHONLY|Rotation=90.000|XOffset=0mm|YOffset=0mm|HoleType=Round|Shape=RoundedRectangle|*
%AMROUNDEDRECTD10*
21,1,1.56000,0.14000,0,0,90.0*
21,1,1.42000,0.28000,0,0,90.0*
1,1,0.14000,0.07000,0.71000*
1,1,0.14000,0.07000,-0.71000*
1,1,0.14000,-0.07000,-0.71000*
1,1,0.14000,-0.07000,0.71000*
%
%ADD10ROUNDEDRECTD10*%
G04:AMPARAMS|DCode=11|XSize=1.56mm|YSize=0.28mm|CornerRadius=0.07mm|HoleSize=0mm|Usage=FLASHONLY|Rotation=180.000|XOffset=0mm|YOffset=0mm|HoleType=Round|Shape=RoundedRectangle|*
%AMROUNDEDRECTD11*
21,1,1.56000,0.14000,0,0,180.0*
21,1,1.42000,0.28000,0,0,180.0*
1,1,0.14000,-0.71000,0.07000*
1,1,0.14000,0.71000,0.07000*
1,1,0.14000,0.71000,-0.07000*
1,1,0.14000,-0.71000,-0.07000*
%
%ADD11ROUNDEDRECTD11*%
%ADD12R,0.59000X0.35000*%
%ADD13R,0.35000X0.59000*%
%ADD14R,0.35000X0.50000*%
G04:AMPARAMS|DCode=15|XSize=2.2mm|YSize=2.2mm|CornerRadius=0.55mm|HoleSize=0mm|Usage=FLASHONLY|Rotation=90.000|XOffset=0mm|YOffset=0mm|HoleType=Round|Shape=RoundedRectangle|*
%AMROUNDEDRECTD15*
21,1,2.20000,1.10000,0,0,90.0*
21,1,1.10000,2.20000,0,0,90.0*
1,1,1.10000,0.55000,0.55000*
1,1,1.10000,0.55000,-0.55000*
1,1,1.10000,-0.55000,-0.55000*
1,1,1.10000,-0.55000,0.55000*
%
%ADD15ROUNDEDRECTD15*%
G04:AMPARAMS|DCode=16|XSize=1.4mm|YSize=2.2mm|CornerRadius=0.35mm|HoleSize=0mm|Usage=FLASHONLY|Rotation=90.000|XOffset=0mm|YOffset=0mm|HoleType=Round|Shape=RoundedRectangle|*
%AMROUNDEDRECTD16*
21,1,1.40000,1.50000,0,0,90.0*
21,1,0.70000,2.20000,0,0,90.0*
1,1,0.70000,0.75000,0.35000*
1,1,0.70000,0.75000,-0.35000*
1,1,0.70000,-0.75000,-0.35000*
1,1,0.70000,-0.75000,0.35000*
%
%ADD16ROUNDEDRECTD16*%
%ADD17R,1.50000X3.00000*%
%ADD18R,3.00000X1.50000*%
%ADD19R,0.80000X1.50000*%
%ADD20R,1.50000X2.00000*%
%ADD21R,2.60000X1.60000*%
G04:AMPARAMS|DCode=22|XSize=2.3mm|YSize=2.5mm|CornerRadius=0.575mm|HoleSize=0mm|Usage=FLASHONLY|Rotation=270.000|XOffset=0mm|YOffset=0mm|HoleType=Round|Shape=RoundedRectangle|*
%AMROUNDEDRECTD22*
21,1,2.30000,1.35000,0,0,270.0*
21,1,1.15000,2.50000,0,0,270.0*
1,1,1.15000,-0.67500,-0.57500*
1,1,1.15000,-0.67500,0.57500*
1,1,1.15000,0.67500,0.57500*
1,1,1.15000,0.67500,-0.57500*
%
%ADD22ROUNDEDRECTD22*%
%ADD23R,1.16000X2.72000*%
%ADD24R,1.40000X1.70000*%
%ADD25R,1.70000X1.40000*%
%ADD26R,1.00000X1.70000*%
%ADD27R,0.80000X1.00000*%
%ADD28R,0.80000X1.45000*%
%ADD29R,1.70000X1.00000*%
%ADD30R,1.21920X0.53340*%
%ADD31R,1.30000X2.80000*%
%ADD32R,1.00000X0.80000*%
%ADD33R,2.40000X1.90000*%
%ADD34R,1.30000X1.90000*%
%ADD35O,1.00000X2.50000*%
%ADD36R,2.10000X1.40000*%
%TA.AperFunction,Conductor*%
%ADD37C,0.25400*%
%ADD38C,0.20000*%
%ADD39C,0.40000*%
%ADD40C,0.60000*%
%ADD41C,0.30000*%
%ADD42C,0.70000*%
%ADD43C,0.50000*%
%ADD44C,0.90000*%
%ADD45C,1.20000*%
%ADD46C,1.40000*%
%ADD47C,1.00000*%
%TA.AperFunction,ComponentPad*%
%ADD48O,1.80000X1.60000*%
%ADD49C,0.80000*%
%ADD50R,1.50800X1.50800*%
%ADD51C,1.50800*%
%ADD52O,1.50000X4.00000*%
%ADD53C,1.20000*%
%ADD54R,1.30000X1.30000*%
%ADD55C,1.30000*%
%ADD56O,2.30000X1.80000*%
%TA.AperFunction,ViaPad*%
%ADD57C,5.00000*%
%ADD58C,0.60000*%
%ADD59C,0.90000*%
G36*
X7150000Y9899999D02*
X7150000Y9900000D01*
X7164774Y9900000D01*
X7193753Y9894235D01*
X7221052Y9882928D01*
X7245619Y9866513D01*
X7266513Y9845620D01*
X7282928Y9821052D01*
X7294235Y9793753D01*
X7300000Y9764774D01*
X7299999Y9750000D01*
X7300000Y250000D01*
X7299999Y250000D01*
X7300000Y235226D01*
X7294235Y206246D01*
X7282928Y178948D01*
X7266512Y154380D01*
X7245619Y133487D01*
X7221051Y117072D01*
X7193753Y105764D01*
X7164773Y100000D01*
X7150000Y100000D01*
X250000D01*
X250000Y100000D01*
X235226Y100000D01*
X206246Y105765D01*
X178948Y117072D01*
X154380Y133487D01*
X133487Y154380D01*
X117072Y178948D01*
X105764Y206246D01*
X100000Y235226D01*
X100000Y250000D01*
X100000Y9749999D01*
X100000Y9764772D01*
X105764Y9793752D01*
X117071Y9821051D01*
X133486Y9845619D01*
X154380Y9866512D01*
X178948Y9882928D01*
X206246Y9894235D01*
X235226Y9900000D01*
X250000Y9900000D01*
X7149999Y9900000D01*
X7150000Y9899999D01*
D02*
G37*
%LPC*%
G36*
X2955400Y9850400D02*
X2754601D01*
Y9499601D01*
X2955400D01*
Y9850400D01*
D02*
G37*
G36*
X4225400Y9850400D02*
X4024601D01*
Y9499600D01*
X4225400D01*
Y9850400D01*
D02*
G37*
G36*
X3971400D02*
X3770601D01*
Y9499600D01*
X3971400D01*
Y9850400D01*
D02*
G37*
G36*
X3717400D02*
X3516601D01*
Y9499600D01*
X3717400D01*
Y9850400D01*
D02*
G37*
G36*
X3463400D02*
X3262601D01*
Y9499600D01*
X3463400D01*
Y9850400D01*
D02*
G37*
G36*
X3209400D02*
X3008601D01*
Y9499600D01*
X3209400D01*
Y9850400D01*
D02*
G37*
G36*
X2701400D02*
X2500601D01*
Y9499600D01*
X2701400D01*
Y9850400D01*
D02*
G37*
G36*
X2193400D02*
X1992601D01*
Y9499600D01*
X2193400D01*
Y9850400D01*
D02*
G37*
G36*
X7011675Y9875400D02*
X6968325D01*
X6925510Y9868619D01*
X6884283Y9855223D01*
X6845659Y9835543D01*
X6810589Y9810063D01*
X6779937Y9779411D01*
X6754457Y9744341D01*
X6734777Y9705717D01*
X6721381Y9664490D01*
X6714600Y9621675D01*
Y9578326D01*
X6721381Y9535511D01*
X6734777Y9494283D01*
X6754457Y9455659D01*
X6779937Y9420589D01*
X6810589Y9389937D01*
X6845659Y9364457D01*
X6884283Y9344777D01*
X6925510Y9331381D01*
X6968325Y9324600D01*
X7011675D01*
X7054490Y9331381D01*
X7095717Y9344777D01*
X7134341Y9364457D01*
X7169411Y9389937D01*
X7200063Y9420589D01*
X7225543Y9455659D01*
X7245223Y9494283D01*
X7258619Y9535511D01*
X7265400Y9578326D01*
Y9621675D01*
X7258619Y9664490D01*
X7245223Y9705717D01*
X7225543Y9744341D01*
X7200063Y9779411D01*
X7169411Y9810063D01*
X7134341Y9835543D01*
X7095717Y9855223D01*
X7054490Y9868619D01*
X7011675Y9875400D01*
D02*
G37*
G36*
X411675D02*
X368325D01*
X325510Y9868619D01*
X284283Y9855223D01*
X245659Y9835543D01*
X210589Y9810063D01*
X179937Y9779411D01*
X154457Y9744341D01*
X134777Y9705717D01*
X121381Y9664490D01*
X114600Y9621675D01*
Y9578326D01*
X121381Y9535511D01*
X134777Y9494283D01*
X154457Y9455659D01*
X179937Y9420589D01*
X210589Y9389937D01*
X245659Y9364457D01*
X284283Y9344777D01*
X325510Y9331381D01*
X368325Y9324600D01*
X411675D01*
X454490Y9331381D01*
X495717Y9344777D01*
X534341Y9364457D01*
X569411Y9389937D01*
X600063Y9420589D01*
X625543Y9455659D01*
X645223Y9494283D01*
X658619Y9535511D01*
X665400Y9578326D01*
Y9621675D01*
X658619Y9664490D01*
X645223Y9705717D01*
X625543Y9744341D01*
X600063Y9779411D01*
X569411Y9810063D01*
X534341Y9835543D01*
X495717Y9855223D01*
X454490Y9868619D01*
X411675Y9875400D01*
D02*
G37*
G36*
X4345000Y9316094D02*
X4235000D01*
X4214012Y9313331D01*
X4194454Y9305230D01*
X4177658Y9292342D01*
X4164771Y9275547D01*
X4156670Y9255989D01*
X4153907Y9235000D01*
Y9125001D01*
X4156670Y9104012D01*
X4164771Y9084454D01*
X4177658Y9067659D01*
X4194454Y9054771D01*
X4214012Y9046670D01*
X4235000Y9043907D01*
X4345000D01*
X4365989Y9046670D01*
X4385547Y9054771D01*
X4402342Y9067659D01*
X4415229Y9084454D01*
X4423331Y9104012D01*
X4426094Y9125001D01*
Y9235000D01*
X4423331Y9255989D01*
X4415229Y9275547D01*
X4402342Y9292342D01*
X4385547Y9305230D01*
X4365989Y9313331D01*
X4345000Y9316094D01*
D02*
G37*
G36*
X5545000Y9316094D02*
X5435000D01*
X5414012Y9313331D01*
X5394453Y9305229D01*
X5377658Y9292342D01*
X5364771Y9275547D01*
X5356670Y9255989D01*
X5353906Y9235000D01*
Y9125000D01*
X5356670Y9104012D01*
X5364771Y9084453D01*
X5377658Y9067658D01*
X5394453Y9054771D01*
X5414012Y9046670D01*
X5435000Y9043906D01*
X5545000D01*
X5565989Y9046670D01*
X5585547Y9054771D01*
X5602342Y9067658D01*
X5615229Y9084453D01*
X5623331Y9104012D01*
X5626094Y9125000D01*
Y9235000D01*
X5623331Y9255989D01*
X5615229Y9275547D01*
X5602342Y9292342D01*
X5585547Y9305229D01*
X5565989Y9313331D01*
X5545000Y9316094D01*
D02*
G37*
G36*
X6145000Y9316093D02*
X6035001D01*
X6014012Y9313330D01*
X5994454Y9305229D01*
X5977659Y9292342D01*
X5964771Y9275547D01*
X5956670Y9255988D01*
X5953907Y9235000D01*
Y9125000D01*
X5956670Y9104011D01*
X5964771Y9084453D01*
X5977659Y9067658D01*
X5994454Y9054771D01*
X6014012Y9046669D01*
X6035001Y9043906D01*
X6145000D01*
X6165989Y9046669D01*
X6185547Y9054771D01*
X6202342Y9067658D01*
X6215230Y9084453D01*
X6223331Y9104011D01*
X6226094Y9125000D01*
Y9235000D01*
X6223331Y9255988D01*
X6215230Y9275547D01*
X6202342Y9292342D01*
X6185547Y9305229D01*
X6165989Y9313330D01*
X6145000Y9316093D01*
D02*
G37*
G36*
X5245000D02*
X5135000D01*
X5114012Y9313330D01*
X5094453Y9305229D01*
X5077658Y9292342D01*
X5064771Y9275546D01*
X5056670Y9255988D01*
X5053906Y9235000D01*
Y9125000D01*
X5056670Y9104011D01*
X5064771Y9084453D01*
X5077658Y9067658D01*
X5094453Y9054771D01*
X5114012Y9046669D01*
X5135000Y9043906D01*
X5245000D01*
X5265988Y9046669D01*
X5285547Y9054771D01*
X5302342Y9067658D01*
X5315229Y9084453D01*
X5323330Y9104011D01*
X5326094Y9125000D01*
Y9235000D01*
X5323330Y9255988D01*
X5315229Y9275546D01*
X5302342Y9292342D01*
X5285547Y9305229D01*
X5265988Y9313330D01*
X5245000Y9316093D01*
D02*
G37*
G36*
X4945000D02*
X4835000D01*
X4814012Y9313330D01*
X4794453Y9305229D01*
X4777658Y9292342D01*
X4764771Y9275546D01*
X4756670Y9255988D01*
X4753906Y9235000D01*
Y9125000D01*
X4756670Y9104011D01*
X4764771Y9084453D01*
X4777658Y9067658D01*
X4794453Y9054771D01*
X4814012Y9046669D01*
X4835000Y9043906D01*
X4945000D01*
X4965989Y9046669D01*
X4985547Y9054771D01*
X5002342Y9067658D01*
X5015229Y9084453D01*
X5023331Y9104011D01*
X5026094Y9125000D01*
Y9235000D01*
X5023331Y9255988D01*
X5015229Y9275546D01*
X5002342Y9292342D01*
X4985547Y9305229D01*
X4965989Y9313330D01*
X4945000Y9316093D01*
D02*
G37*
G36*
X4645000D02*
X4535000D01*
X4514012Y9313330D01*
X4494453Y9305229D01*
X4477658Y9292342D01*
X4464771Y9275546D01*
X4456670Y9255988D01*
X4453907Y9235000D01*
Y9125000D01*
X4456670Y9104011D01*
X4464771Y9084453D01*
X4477658Y9067658D01*
X4494453Y9054771D01*
X4514012Y9046669D01*
X4535000Y9043906D01*
X4645000D01*
X4665989Y9046669D01*
X4685547Y9054771D01*
X4702342Y9067658D01*
X4715229Y9084453D01*
X4723331Y9104011D01*
X4726094Y9125000D01*
Y9235000D01*
X4723331Y9255988D01*
X4715229Y9275546D01*
X4702342Y9292342D01*
X4685547Y9305229D01*
X4665989Y9313330D01*
X4645000Y9316093D01*
D02*
G37*
G36*
X4045000D02*
X3935001D01*
X3914012Y9313330D01*
X3894453Y9305229D01*
X3877658Y9292342D01*
X3864771Y9275546D01*
X3856670Y9255988D01*
X3853907Y9235000D01*
Y9125000D01*
X3856670Y9104011D01*
X3864771Y9084453D01*
X3877658Y9067658D01*
X3894453Y9054771D01*
X3914012Y9046669D01*
X3935001Y9043906D01*
X4045000D01*
X4065989Y9046669D01*
X4085547Y9054771D01*
X4102342Y9067658D01*
X4115230Y9084453D01*
X4123331Y9104011D01*
X4126094Y9125000D01*
Y9235000D01*
X4123331Y9255988D01*
X4115230Y9275546D01*
X4102342Y9292342D01*
X4085547Y9305229D01*
X4065989Y9313330D01*
X4045000Y9316093D01*
D02*
G37*
G36*
X6145000Y9016093D02*
X6035001D01*
X6014012Y9013330D01*
X5994454Y9005229D01*
X5977659Y8992342D01*
X5964771Y8975547D01*
X5956670Y8955988D01*
X5953907Y8935000D01*
Y8825000D01*
X5956670Y8804011D01*
X5964771Y8784453D01*
X5977659Y8767658D01*
X5994454Y8754771D01*
X6014012Y8746669D01*
X6035001Y8743906D01*
X6145000D01*
X6165989Y8746669D01*
X6185547Y8754771D01*
X6202342Y8767658D01*
X6215230Y8784453D01*
X6223331Y8804011D01*
X6226094Y8825000D01*
Y8935000D01*
X6223331Y8955988D01*
X6215230Y8975547D01*
X6202342Y8992342D01*
X6185547Y9005229D01*
X6165989Y9013330D01*
X6145000Y9016093D01*
D02*
G37*
G36*
X5845000D02*
X5735000D01*
X5714011Y9013330D01*
X5694453Y9005229D01*
X5677658Y8992342D01*
X5664771Y8975546D01*
X5656669Y8955988D01*
X5653906Y8935000D01*
Y8825000D01*
X5656669Y8804011D01*
X5664771Y8784453D01*
X5677658Y8767658D01*
X5694453Y8754771D01*
X5714011Y8746669D01*
X5735000Y8743906D01*
X5845000D01*
X5865988Y8746669D01*
X5885547Y8754771D01*
X5902342Y8767658D01*
X5915229Y8784453D01*
X5923330Y8804011D01*
X5926094Y8825000D01*
Y8935000D01*
X5923330Y8955988D01*
X5915229Y8975546D01*
X5902342Y8992342D01*
X5885547Y9005229D01*
X5865988Y9013330D01*
X5845000Y9016093D01*
D02*
G37*
G36*
X5545000D02*
X5435000D01*
X5414012Y9013330D01*
X5394453Y9005229D01*
X5377658Y8992342D01*
X5364771Y8975546D01*
X5356669Y8955988D01*
X5353906Y8935000D01*
Y8825000D01*
X5356669Y8804011D01*
X5364771Y8784453D01*
X5377658Y8767658D01*
X5394453Y8754771D01*
X5414012Y8746669D01*
X5435000Y8743906D01*
X5545000D01*
X5565988Y8746669D01*
X5585547Y8754771D01*
X5602342Y8767658D01*
X5615229Y8784453D01*
X5623330Y8804011D01*
X5626094Y8825000D01*
Y8935000D01*
X5623330Y8955988D01*
X5615229Y8975546D01*
X5602342Y8992342D01*
X5585547Y9005229D01*
X5565988Y9013330D01*
X5545000Y9016093D01*
D02*
G37*
G36*
X5245000D02*
X5135000D01*
X5114012Y9013330D01*
X5094453Y9005229D01*
X5077658Y8992342D01*
X5064771Y8975546D01*
X5056670Y8955988D01*
X5053906Y8935000D01*
Y8825000D01*
X5056670Y8804011D01*
X5064771Y8784453D01*
X5077658Y8767658D01*
X5094453Y8754771D01*
X5114012Y8746669D01*
X5135000Y8743906D01*
X5245000D01*
X5265988Y8746669D01*
X5285547Y8754771D01*
X5302342Y8767658D01*
X5315229Y8784453D01*
X5323330Y8804011D01*
X5326094Y8825000D01*
Y8935000D01*
X5323330Y8955988D01*
X5315229Y8975546D01*
X5302342Y8992342D01*
X5285547Y9005229D01*
X5265988Y9013330D01*
X5245000Y9016093D01*
D02*
G37*
G36*
X4945000D02*
X4835000D01*
X4814012Y9013330D01*
X4794453Y9005229D01*
X4777658Y8992342D01*
X4764771Y8975546D01*
X4756670Y8955988D01*
X4753906Y8935000D01*
Y8825000D01*
X4756670Y8804011D01*
X4764771Y8784453D01*
X4777658Y8767658D01*
X4794453Y8754771D01*
X4814012Y8746669D01*
X4835000Y8743906D01*
X4945000D01*
X4965989Y8746669D01*
X4985547Y8754771D01*
X5002342Y8767658D01*
X5015229Y8784453D01*
X5023331Y8804011D01*
X5026094Y8825000D01*
Y8935000D01*
X5023331Y8955988D01*
X5015229Y8975546D01*
X5002342Y8992342D01*
X4985547Y9005229D01*
X4965989Y9013330D01*
X4945000Y9016093D01*
D02*
G37*
G36*
X4645000D02*
X4535000D01*
X4514012Y9013330D01*
X4494453Y9005229D01*
X4477658Y8992342D01*
X4464771Y8975546D01*
X4456670Y8955988D01*
X4453907Y8935000D01*
Y8825000D01*
X4456670Y8804011D01*
X4464771Y8784453D01*
X4477658Y8767658D01*
X4494453Y8754771D01*
X4514012Y8746669D01*
X4535000Y8743906D01*
X4645000D01*
X4665989Y8746669D01*
X4685547Y8754771D01*
X4702342Y8767658D01*
X4715229Y8784453D01*
X4723331Y8804011D01*
X4726094Y8825000D01*
Y8935000D01*
X4723331Y8955988D01*
X4715229Y8975546D01*
X4702342Y8992342D01*
X4685547Y9005229D01*
X4665989Y9013330D01*
X4645000Y9016093D01*
D02*
G37*
G36*
X4045000D02*
X3935001D01*
X3914012Y9013330D01*
X3894453Y9005229D01*
X3877658Y8992342D01*
X3864771Y8975546D01*
X3856670Y8955988D01*
X3853907Y8935000D01*
Y8825000D01*
X3856670Y8804011D01*
X3864771Y8784453D01*
X3877658Y8767658D01*
X3894453Y8754771D01*
X3914012Y8746669D01*
X3935001Y8743906D01*
X4045000D01*
X4065989Y8746669D01*
X4085547Y8754771D01*
X4102342Y8767658D01*
X4115230Y8784453D01*
X4123331Y8804011D01*
X4126094Y8825000D01*
Y8935000D01*
X4123331Y8955988D01*
X4115230Y8975546D01*
X4102342Y8992342D01*
X4085547Y9005229D01*
X4065989Y9013330D01*
X4045000Y9016093D01*
D02*
G37*
G36*
X2145000Y8942395D02*
X2094999D01*
X2064874Y8938429D01*
X2036802Y8926801D01*
X2012695Y8908304D01*
X1994198Y8884198D01*
X1982570Y8856125D01*
X1978604Y8826000D01*
X1982570Y8795874D01*
X1994198Y8767802D01*
X2012695Y8743696D01*
X2036802Y8725198D01*
X2064874Y8713570D01*
X2094999Y8709604D01*
X2145000D01*
X2175125Y8713570D01*
X2203198Y8725198D01*
X2227304Y8743696D01*
X2245801Y8767802D01*
X2257429Y8795874D01*
X2261395Y8826000D01*
X2257429Y8856125D01*
X2245801Y8884198D01*
X2227304Y8908304D01*
X2203198Y8926801D01*
X2175125Y8938429D01*
X2145000Y8942395D01*
D02*
G37*
G36*
Y8688395D02*
X2094999D01*
X2064874Y8684429D01*
X2036802Y8672801D01*
X2012695Y8654304D01*
X1994198Y8630198D01*
X1982570Y8602125D01*
X1978604Y8572000D01*
X1982570Y8541874D01*
X1994198Y8513802D01*
X2012695Y8489696D01*
X2036802Y8471198D01*
X2064874Y8459570D01*
X2094999Y8455604D01*
X2145000D01*
X2175125Y8459570D01*
X2203198Y8471198D01*
X2227304Y8489696D01*
X2245801Y8513802D01*
X2257429Y8541874D01*
X2261395Y8572000D01*
X2257429Y8602125D01*
X2245801Y8630198D01*
X2227304Y8654304D01*
X2203198Y8672801D01*
X2175125Y8684429D01*
X2145000Y8688395D01*
D02*
G37*
G36*
X5845000Y8716094D02*
X5735000D01*
X5714012Y8713331D01*
X5694453Y8705229D01*
X5677658Y8692342D01*
X5664771Y8675547D01*
X5656670Y8655989D01*
X5653906Y8635000D01*
Y8525000D01*
X5656670Y8504012D01*
X5664771Y8484453D01*
X5677658Y8467658D01*
X5694453Y8454771D01*
X5714012Y8446670D01*
X5735000Y8443907D01*
X5845000D01*
X5865989Y8446670D01*
X5885547Y8454771D01*
X5902342Y8467658D01*
X5915229Y8484453D01*
X5923331Y8504012D01*
X5926094Y8525000D01*
Y8635000D01*
X5923331Y8655989D01*
X5915229Y8675547D01*
X5902342Y8692342D01*
X5885547Y8705229D01*
X5865989Y8713331D01*
X5845000Y8716094D01*
D02*
G37*
G36*
X6145000Y8716094D02*
X6035001D01*
X6014012Y8713330D01*
X5994454Y8705229D01*
X5977659Y8692342D01*
X5964771Y8675547D01*
X5956670Y8655988D01*
X5953907Y8635000D01*
Y8525000D01*
X5956670Y8504011D01*
X5964771Y8484453D01*
X5977659Y8467658D01*
X5994454Y8454771D01*
X6014012Y8446669D01*
X6035001Y8443906D01*
X6145000D01*
X6165989Y8446669D01*
X6185547Y8454771D01*
X6202342Y8467658D01*
X6215230Y8484453D01*
X6223331Y8504011D01*
X6226094Y8525000D01*
Y8635000D01*
X6223331Y8655988D01*
X6215230Y8675547D01*
X6202342Y8692342D01*
X6185547Y8705229D01*
X6165989Y8713330D01*
X6145000Y8716094D01*
D02*
G37*
G36*
X5545000D02*
X5435000D01*
X5414012Y8713330D01*
X5394453Y8705229D01*
X5377658Y8692342D01*
X5364771Y8675547D01*
X5356669Y8655988D01*
X5353906Y8635000D01*
Y8525000D01*
X5356669Y8504011D01*
X5364771Y8484453D01*
X5377658Y8467658D01*
X5394453Y8454771D01*
X5414012Y8446669D01*
X5435000Y8443906D01*
X5545000D01*
X5565988Y8446669D01*
X5585547Y8454771D01*
X5602342Y8467658D01*
X5615229Y8484453D01*
X5623330Y8504011D01*
X5626094Y8525000D01*
Y8635000D01*
X5623330Y8655988D01*
X5615229Y8675547D01*
X5602342Y8692342D01*
X5585547Y8705229D01*
X5565988Y8713330D01*
X5545000Y8716094D01*
D02*
G37*
G36*
X5245000D02*
X5135000D01*
X5114012Y8713330D01*
X5094453Y8705229D01*
X5077658Y8692342D01*
X5064771Y8675547D01*
X5056670Y8655988D01*
X5053906Y8635000D01*
Y8525000D01*
X5056670Y8504011D01*
X5064771Y8484453D01*
X5077658Y8467658D01*
X5094453Y8454771D01*
X5114012Y8446669D01*
X5135000Y8443906D01*
X5245000D01*
X5265988Y8446669D01*
X5285547Y8454771D01*
X5302342Y8467658D01*
X5315229Y8484453D01*
X5323330Y8504011D01*
X5326094Y8525000D01*
Y8635000D01*
X5323330Y8655988D01*
X5315229Y8675547D01*
X5302342Y8692342D01*
X5285547Y8705229D01*
X5265988Y8713330D01*
X5245000Y8716094D01*
D02*
G37*
G36*
X4945000D02*
X4835000D01*
X4814012Y8713330D01*
X4794453Y8705229D01*
X4777658Y8692342D01*
X4764771Y8675547D01*
X4756670Y8655988D01*
X4753906Y8635000D01*
Y8525000D01*
X4756670Y8504011D01*
X4764771Y8484453D01*
X4777658Y8467658D01*
X4794453Y8454771D01*
X4814012Y8446669D01*
X4835000Y8443906D01*
X4945000D01*
X4965989Y8446669D01*
X4985547Y8454771D01*
X5002342Y8467658D01*
X5015229Y8484453D01*
X5023331Y8504011D01*
X5026094Y8525000D01*
Y8635000D01*
X5023331Y8655988D01*
X5015229Y8675547D01*
X5002342Y8692342D01*
X4985547Y8705229D01*
X4965989Y8713330D01*
X4945000Y8716094D01*
D02*
G37*
G36*
X4645000D02*
X4535000D01*
X4514012Y8713330D01*
X4494453Y8705229D01*
X4477658Y8692342D01*
X4464771Y8675547D01*
X4456670Y8655988D01*
X4453907Y8635000D01*
Y8525000D01*
X4456670Y8504011D01*
X4464771Y8484453D01*
X4477658Y8467658D01*
X4494453Y8454771D01*
X4514012Y8446669D01*
X4535000Y8443906D01*
X4645000D01*
X4665989Y8446669D01*
X4685547Y8454771D01*
X4702342Y8467658D01*
X4715229Y8484453D01*
X4723331Y8504011D01*
X4726094Y8525000D01*
Y8635000D01*
X4723331Y8655988D01*
X4715229Y8675547D01*
X4702342Y8692342D01*
X4685547Y8705229D01*
X4665989Y8713330D01*
X4645000Y8716094D01*
D02*
G37*
G36*
X4345000D02*
X4235000D01*
X4214012Y8713330D01*
X4194453Y8705229D01*
X4177658Y8692342D01*
X4164771Y8675547D01*
X4156670Y8655988D01*
X4153907Y8635000D01*
Y8525000D01*
X4156670Y8504011D01*
X4164771Y8484453D01*
X4177658Y8467658D01*
X4194453Y8454771D01*
X4214012Y8446669D01*
X4235000Y8443906D01*
X4345000D01*
X4365989Y8446669D01*
X4385547Y8454771D01*
X4402342Y8467658D01*
X4415229Y8484453D01*
X4423331Y8504011D01*
X4426094Y8525000D01*
Y8635000D01*
X4423331Y8655988D01*
X4415229Y8675547D01*
X4402342Y8692342D01*
X4385547Y8705229D01*
X4365989Y8713330D01*
X4345000Y8716094D01*
D02*
G37*
G36*
X7160000Y8474310D02*
X7140000D01*
X7112485Y8470688D01*
X7086845Y8460068D01*
X7064828Y8443173D01*
X7047933Y8421156D01*
X7037313Y8395516D01*
X7033691Y8368001D01*
X7037313Y8340486D01*
X7047933Y8314846D01*
X7064828Y8292829D01*
X7086845Y8275934D01*
X7112485Y8265314D01*
X7140000Y8261692D01*
X7160000D01*
X7187515Y8265314D01*
X7213154Y8275934D01*
X7235172Y8292829D01*
X7252067Y8314846D01*
X7262687Y8340486D01*
X7266309Y8368001D01*
X7262687Y8395516D01*
X7252067Y8421156D01*
X7235172Y8443173D01*
X7213154Y8460068D01*
X7187515Y8470688D01*
X7160000Y8474310D01*
D02*
G37*
G36*
X2145000Y8434395D02*
X2094999D01*
X2064874Y8430429D01*
X2036802Y8418801D01*
X2012695Y8400304D01*
X1994198Y8376198D01*
X1982570Y8348125D01*
X1978604Y8318000D01*
X1982570Y8287874D01*
X1994198Y8259802D01*
X2012695Y8235696D01*
X2036802Y8217198D01*
X2064874Y8205570D01*
X2094999Y8201604D01*
X2145000D01*
X2175125Y8205570D01*
X2203198Y8217198D01*
X2227304Y8235696D01*
X2245801Y8259802D01*
X2257429Y8287874D01*
X2261395Y8318000D01*
X2257429Y8348125D01*
X2245801Y8376198D01*
X2227304Y8400304D01*
X2203198Y8418801D01*
X2175125Y8430429D01*
X2145000Y8434395D01*
D02*
G37*
G36*
X6145000Y8416094D02*
X6035001D01*
X6014012Y8413330D01*
X5994454Y8405229D01*
X5977659Y8392342D01*
X5964771Y8375547D01*
X5956670Y8355988D01*
X5953907Y8335000D01*
Y8225000D01*
X5956670Y8204012D01*
X5964771Y8184453D01*
X5977659Y8167658D01*
X5994454Y8154771D01*
X6014012Y8146670D01*
X6035001Y8143906D01*
X6145000D01*
X6165989Y8146670D01*
X6185547Y8154771D01*
X6202342Y8167658D01*
X6215230Y8184453D01*
X6223331Y8204012D01*
X6226094Y8225000D01*
Y8335000D01*
X6223331Y8355988D01*
X6215230Y8375547D01*
X6202342Y8392342D01*
X6185547Y8405229D01*
X6165989Y8413330D01*
X6145000Y8416094D01*
D02*
G37*
G36*
X5845000D02*
X5735000D01*
X5714011Y8413330D01*
X5694453Y8405229D01*
X5677658Y8392342D01*
X5664771Y8375547D01*
X5656669Y8355988D01*
X5653906Y8335000D01*
Y8225000D01*
X5656669Y8204012D01*
X5664771Y8184453D01*
X5677658Y8167658D01*
X5694453Y8154771D01*
X5714011Y8146670D01*
X5735000Y8143906D01*
X5845000D01*
X5865988Y8146670D01*
X5885547Y8154771D01*
X5902342Y8167658D01*
X5915229Y8184453D01*
X5923330Y8204012D01*
X5926094Y8225000D01*
Y8335000D01*
X5923330Y8355988D01*
X5915229Y8375547D01*
X5902342Y8392342D01*
X5885547Y8405229D01*
X5865988Y8413330D01*
X5845000Y8416094D01*
D02*
G37*
G36*
X5545000D02*
X5435000D01*
X5414012Y8413330D01*
X5394453Y8405229D01*
X5377658Y8392342D01*
X5364771Y8375547D01*
X5356669Y8355988D01*
X5353906Y8335000D01*
Y8225000D01*
X5356669Y8204012D01*
X5364771Y8184453D01*
X5377658Y8167658D01*
X5394453Y8154771D01*
X5414012Y8146670D01*
X5435000Y8143906D01*
X5545000D01*
X5565988Y8146670D01*
X5585547Y8154771D01*
X5602342Y8167658D01*
X5615229Y8184453D01*
X5623330Y8204012D01*
X5626094Y8225000D01*
Y8335000D01*
X5623330Y8355988D01*
X5615229Y8375547D01*
X5602342Y8392342D01*
X5585547Y8405229D01*
X5565988Y8413330D01*
X5545000Y8416094D01*
D02*
G37*
G36*
X5245000D02*
X5135000D01*
X5114012Y8413330D01*
X5094453Y8405229D01*
X5077658Y8392342D01*
X5064771Y8375547D01*
X5056670Y8355988D01*
X5053906Y8335000D01*
Y8225000D01*
X5056670Y8204012D01*
X5064771Y8184453D01*
X5077658Y8167658D01*
X5094453Y8154771D01*
X5114012Y8146670D01*
X5135000Y8143906D01*
X5245000D01*
X5265988Y8146670D01*
X5285547Y8154771D01*
X5302342Y8167658D01*
X5315229Y8184453D01*
X5323330Y8204012D01*
X5326094Y8225000D01*
Y8335000D01*
X5323330Y8355988D01*
X5315229Y8375547D01*
X5302342Y8392342D01*
X5285547Y8405229D01*
X5265988Y8413330D01*
X5245000Y8416094D01*
D02*
G37*
G36*
X4645000D02*
X4535000D01*
X4514012Y8413330D01*
X4494453Y8405229D01*
X4477658Y8392342D01*
X4464771Y8375547D01*
X4456670Y8355988D01*
X4453907Y8335000D01*
Y8225000D01*
X4456670Y8204012D01*
X4464771Y8184453D01*
X4477658Y8167658D01*
X4494453Y8154771D01*
X4514012Y8146670D01*
X4535000Y8143906D01*
X4645000D01*
X4665989Y8146670D01*
X4685547Y8154771D01*
X4702342Y8167658D01*
X4715229Y8184453D01*
X4723331Y8204012D01*
X4726094Y8225000D01*
Y8335000D01*
X4723331Y8355988D01*
X4715229Y8375547D01*
X4702342Y8392342D01*
X4685547Y8405229D01*
X4665989Y8413330D01*
X4645000Y8416094D01*
D02*
G37*
G36*
X4345000D02*
X4235000D01*
X4214012Y8413330D01*
X4194453Y8405229D01*
X4177658Y8392342D01*
X4164771Y8375547D01*
X4156670Y8355988D01*
X4153907Y8335000D01*
Y8225000D01*
X4156670Y8204012D01*
X4164771Y8184453D01*
X4177658Y8167658D01*
X4194453Y8154771D01*
X4214012Y8146670D01*
X4235000Y8143906D01*
X4345000D01*
X4365989Y8146670D01*
X4385547Y8154771D01*
X4402342Y8167658D01*
X4415229Y8184453D01*
X4423331Y8204012D01*
X4426094Y8225000D01*
Y8335000D01*
X4423331Y8355988D01*
X4415229Y8375547D01*
X4402342Y8392342D01*
X4385547Y8405229D01*
X4365989Y8413330D01*
X4345000Y8416094D01*
D02*
G37*
G36*
X4045000D02*
X3935001D01*
X3914012Y8413330D01*
X3894453Y8405229D01*
X3877658Y8392342D01*
X3864771Y8375547D01*
X3856670Y8355988D01*
X3853907Y8335000D01*
Y8225000D01*
X3856670Y8204012D01*
X3864771Y8184453D01*
X3877658Y8167658D01*
X3894453Y8154771D01*
X3914012Y8146670D01*
X3935001Y8143906D01*
X4045000D01*
X4065989Y8146670D01*
X4085547Y8154771D01*
X4102342Y8167658D01*
X4115230Y8184453D01*
X4123331Y8204012D01*
X4126094Y8225000D01*
Y8335000D01*
X4123331Y8355988D01*
X4115230Y8375547D01*
X4102342Y8392342D01*
X4085547Y8405229D01*
X4065989Y8413330D01*
X4045000Y8416094D01*
D02*
G37*
G36*
X2145000Y8180395D02*
X2094999D01*
X2064874Y8176429D01*
X2036802Y8164801D01*
X2012695Y8146304D01*
X1994198Y8122198D01*
X1982570Y8094125D01*
X1978604Y8064000D01*
X1982570Y8033874D01*
X1994198Y8005802D01*
X2012695Y7981696D01*
X2036802Y7963198D01*
X2064874Y7951570D01*
X2094999Y7947604D01*
X2145000D01*
X2175125Y7951570D01*
X2203198Y7963198D01*
X2227304Y7981696D01*
X2245801Y8005802D01*
X2257429Y8033874D01*
X2261395Y8064000D01*
X2257429Y8094125D01*
X2245801Y8122198D01*
X2227304Y8146304D01*
X2203198Y8164801D01*
X2175125Y8176429D01*
X2145000Y8180395D01*
D02*
G37*
G36*
X6145000Y8116094D02*
X6035001D01*
X6014012Y8113330D01*
X5994454Y8105229D01*
X5977659Y8092342D01*
X5964771Y8075547D01*
X5956670Y8055988D01*
X5953907Y8035000D01*
Y7925000D01*
X5956670Y7904012D01*
X5964771Y7884453D01*
X5977659Y7867658D01*
X5994454Y7854771D01*
X6014012Y7846670D01*
X6035001Y7843906D01*
X6145000D01*
X6165989Y7846670D01*
X6185547Y7854771D01*
X6202342Y7867658D01*
X6215230Y7884453D01*
X6223331Y7904012D01*
X6226094Y7925000D01*
Y8035000D01*
X6223331Y8055988D01*
X6215230Y8075547D01*
X6202342Y8092342D01*
X6185547Y8105229D01*
X6165989Y8113330D01*
X6145000Y8116094D01*
D02*
G37*
G36*
X5845000D02*
X5735000D01*
X5714011Y8113330D01*
X5694453Y8105229D01*
X5677658Y8092342D01*
X5664771Y8075547D01*
X5656669Y8055988D01*
X5653906Y8035000D01*
Y7925000D01*
X5656669Y7904012D01*
X5664771Y7884453D01*
X5677658Y7867658D01*
X5694453Y7854771D01*
X5714011Y7846670D01*
X5735000Y7843906D01*
X5845000D01*
X5865988Y7846670D01*
X5885547Y7854771D01*
X5902342Y7867658D01*
X5915229Y7884453D01*
X5923330Y7904012D01*
X5926094Y7925000D01*
Y8035000D01*
X5923330Y8055988D01*
X5915229Y8075547D01*
X5902342Y8092342D01*
X5885547Y8105229D01*
X5865988Y8113330D01*
X5845000Y8116094D01*
D02*
G37*
G36*
X5545000D02*
X5435000D01*
X5414012Y8113330D01*
X5394453Y8105229D01*
X5377658Y8092342D01*
X5364771Y8075547D01*
X5356669Y8055988D01*
X5353906Y8035000D01*
Y7925000D01*
X5356669Y7904012D01*
X5364771Y7884453D01*
X5377658Y7867658D01*
X5394453Y7854771D01*
X5414012Y7846670D01*
X5435000Y7843906D01*
X5545000D01*
X5565988Y7846670D01*
X5585547Y7854771D01*
X5602342Y7867658D01*
X5615229Y7884453D01*
X5623330Y7904012D01*
X5626094Y7925000D01*
Y8035000D01*
X5623330Y8055988D01*
X5615229Y8075547D01*
X5602342Y8092342D01*
X5585547Y8105229D01*
X5565988Y8113330D01*
X5545000Y8116094D01*
D02*
G37*
G36*
X4945000D02*
X4835000D01*
X4814012Y8113330D01*
X4794453Y8105229D01*
X4777658Y8092342D01*
X4764771Y8075547D01*
X4756670Y8055988D01*
X4753906Y8035000D01*
Y7925000D01*
X4756670Y7904012D01*
X4764771Y7884453D01*
X4777658Y7867658D01*
X4794453Y7854771D01*
X4814012Y7846670D01*
X4835000Y7843906D01*
X4945000D01*
X4965989Y7846670D01*
X4985547Y7854771D01*
X5002342Y7867658D01*
X5015229Y7884453D01*
X5023331Y7904012D01*
X5026094Y7925000D01*
Y8035000D01*
X5023331Y8055988D01*
X5015229Y8075547D01*
X5002342Y8092342D01*
X4985547Y8105229D01*
X4965989Y8113330D01*
X4945000Y8116094D01*
D02*
G37*
G36*
X4345000D02*
X4235000D01*
X4214012Y8113330D01*
X4194453Y8105229D01*
X4177658Y8092342D01*
X4164771Y8075547D01*
X4156670Y8055988D01*
X4153907Y8035000D01*
Y7925000D01*
X4156670Y7904012D01*
X4164771Y7884453D01*
X4177658Y7867658D01*
X4194453Y7854771D01*
X4214012Y7846670D01*
X4235000Y7843906D01*
X4345000D01*
X4365989Y7846670D01*
X4385547Y7854771D01*
X4402342Y7867658D01*
X4415229Y7884453D01*
X4423331Y7904012D01*
X4426094Y7925000D01*
Y8035000D01*
X4423331Y8055988D01*
X4415229Y8075547D01*
X4402342Y8092342D01*
X4385547Y8105229D01*
X4365989Y8113330D01*
X4345000Y8116094D01*
D02*
G37*
G36*
X4045000D02*
X3935001D01*
X3914012Y8113330D01*
X3894453Y8105229D01*
X3877658Y8092342D01*
X3864771Y8075547D01*
X3856670Y8055988D01*
X3853907Y8035000D01*
Y7925000D01*
X3856670Y7904012D01*
X3864771Y7884453D01*
X3877658Y7867658D01*
X3894453Y7854771D01*
X3914012Y7846670D01*
X3935001Y7843906D01*
X4045000D01*
X4065989Y7846670D01*
X4085547Y7854771D01*
X4102342Y7867658D01*
X4115230Y7884453D01*
X4123331Y7904012D01*
X4126094Y7925000D01*
Y8035000D01*
X4123331Y8055988D01*
X4115230Y8075547D01*
X4102342Y8092342D01*
X4085547Y8105229D01*
X4065989Y8113330D01*
X4045000Y8116094D01*
D02*
G37*
G36*
X7160000Y7966310D02*
X7140000D01*
X7112485Y7962688D01*
X7086845Y7952068D01*
X7064828Y7935173D01*
X7047933Y7913156D01*
X7037313Y7887516D01*
X7033691Y7860001D01*
X7037313Y7832486D01*
X7047933Y7806846D01*
X7064828Y7784829D01*
X7086845Y7767934D01*
X7112485Y7757314D01*
X7140000Y7753692D01*
X7160000D01*
X7187515Y7757314D01*
X7213154Y7767934D01*
X7235172Y7784829D01*
X7252067Y7806846D01*
X7262687Y7832486D01*
X7266309Y7860001D01*
X7262687Y7887516D01*
X7252067Y7913156D01*
X7235172Y7935173D01*
X7213154Y7952068D01*
X7187515Y7962688D01*
X7160000Y7966310D01*
D02*
G37*
G36*
X2145000Y7926395D02*
X2094999D01*
X2064874Y7922429D01*
X2036802Y7910801D01*
X2012695Y7892304D01*
X1994198Y7868198D01*
X1982570Y7840125D01*
X1978604Y7810000D01*
X1982570Y7779874D01*
X1994198Y7751802D01*
X2012695Y7727696D01*
X2036802Y7709198D01*
X2064874Y7697570D01*
X2094999Y7693604D01*
X2145000D01*
X2175125Y7697570D01*
X2203198Y7709198D01*
X2227304Y7727696D01*
X2245801Y7751802D01*
X2257429Y7779874D01*
X2261395Y7810000D01*
X2257429Y7840125D01*
X2245801Y7868198D01*
X2227304Y7892304D01*
X2203198Y7910801D01*
X2175125Y7922429D01*
X2145000Y7926395D01*
D02*
G37*
G36*
X7160000Y7712310D02*
X7140000D01*
X7112485Y7708688D01*
X7086845Y7698068D01*
X7064828Y7681173D01*
X7050489Y7662486D01*
X6956002D01*
X6956001Y7662487D01*
X6934385Y7658187D01*
X6916060Y7645942D01*
X6916059Y7645942D01*
X6820059Y7549941D01*
X6807814Y7531616D01*
X6803514Y7510000D01*
X6803515Y7509999D01*
Y6460000D01*
Y6300936D01*
X6802428Y6294781D01*
X6800738Y6289710D01*
X6798779Y6286070D01*
X6796597Y6283403D01*
X6793929Y6281221D01*
X6790290Y6279262D01*
X6785220Y6277572D01*
X6779064Y6276485D01*
X4439829D01*
X4431343Y6289186D01*
X4435400Y6298980D01*
Y6321020D01*
X4426966Y6341381D01*
X4418846Y6349501D01*
Y6409600D01*
X4479400D01*
Y6760400D01*
X4278601D01*
Y6409600D01*
X4341153D01*
Y6349501D01*
X4333034Y6341381D01*
X4324600Y6321020D01*
Y6298980D01*
X4328657Y6289186D01*
X4320171Y6276485D01*
X4251426D01*
X4244272Y6289186D01*
X4250400Y6303980D01*
Y6326020D01*
X4241966Y6346382D01*
X4226381Y6361966D01*
X4206020Y6370400D01*
X4183980D01*
X4179406Y6368505D01*
X4168847Y6375561D01*
Y6409600D01*
X4225400D01*
Y6760400D01*
X4024601D01*
Y6409600D01*
X4091154D01*
Y6330000D01*
X4094111Y6315134D01*
X4102532Y6302531D01*
X4115878Y6289185D01*
X4114645Y6282493D01*
X4111204Y6276485D01*
X3939829D01*
X3931343Y6289186D01*
X3935400Y6298980D01*
Y6321020D01*
X3926966Y6341382D01*
X3918847Y6349501D01*
Y6409600D01*
X3971400D01*
Y6760400D01*
X3909847D01*
Y6789000D01*
X3906890Y6803866D01*
X3898469Y6816468D01*
X3737469Y6977469D01*
X3724866Y6985890D01*
X3710000Y6988847D01*
X3499501D01*
X3491381Y6996966D01*
X3471020Y7005400D01*
X3448980D01*
X3428618Y6996966D01*
X3413034Y6981382D01*
X3404600Y6961020D01*
Y6938980D01*
X3413034Y6918619D01*
X3428618Y6903034D01*
X3448980Y6894600D01*
X3471020D01*
X3491381Y6903034D01*
X3499501Y6911154D01*
X3693909D01*
X3831963Y6773100D01*
X3831692Y6760400D01*
X3770600D01*
Y6409600D01*
X3841154D01*
Y6349501D01*
X3833034Y6341382D01*
X3824600Y6321020D01*
Y6298980D01*
X3828657Y6289186D01*
X3820171Y6276485D01*
X3629383D01*
X3624122Y6289185D01*
X3647469Y6312532D01*
X3655890Y6325134D01*
X3658847Y6340000D01*
Y6409600D01*
X3717400D01*
Y6760400D01*
X3516601D01*
Y6409600D01*
X3581154D01*
Y6368490D01*
X3570594Y6361434D01*
X3561020Y6365400D01*
X3538980D01*
X3518619Y6356966D01*
X3503034Y6341382D01*
X3494600Y6321020D01*
Y6298980D01*
X3498657Y6289186D01*
X3490171Y6276485D01*
X3367204D01*
X3361943Y6289185D01*
X3387468Y6314711D01*
X3395889Y6327313D01*
X3398846Y6342179D01*
Y6409600D01*
X3463400D01*
Y6760400D01*
X3262601D01*
Y6409600D01*
X3321153D01*
Y6358270D01*
X3311730Y6348847D01*
X3299501D01*
X3291382Y6356966D01*
X3271020Y6365400D01*
X3248980D01*
X3228619Y6356966D01*
X3213034Y6341382D01*
X3204600Y6321020D01*
Y6298980D01*
X3208657Y6289186D01*
X3200171Y6276485D01*
X2120001D01*
X2120000Y6276486D01*
X2098384Y6272186D01*
X2080059Y6259941D01*
X2080058Y6259940D01*
X2000059Y6179941D01*
X1987814Y6161616D01*
X1983514Y6140000D01*
X1983515Y6139999D01*
Y4781810D01*
X1980400Y4770400D01*
X1970814Y4770400D01*
X1943847D01*
Y4810000D01*
X1940889Y4824866D01*
X1932469Y4837469D01*
X1920400Y4849537D01*
Y4945400D01*
X1789600D01*
Y4794600D01*
X1865463D01*
X1866153Y4793909D01*
Y4770400D01*
X1829600D01*
Y4549600D01*
X1980400Y4549600D01*
X1983515Y4538190D01*
Y4198987D01*
X1982984Y4196765D01*
X1982098Y4194804D01*
X1981057Y4193376D01*
X1979490Y4191962D01*
X1976842Y4190362D01*
X1972684Y4188709D01*
X1966817Y4187265D01*
X1960832Y4186485D01*
X1803397D01*
X1732474Y4257408D01*
X1735602Y4262827D01*
X1740400Y4280732D01*
Y4299269D01*
X1735602Y4317173D01*
X1726334Y4333227D01*
X1713227Y4346334D01*
X1697173Y4355602D01*
X1679268Y4360400D01*
X1660732D01*
X1642827Y4355602D01*
X1626773Y4346334D01*
X1613666Y4333227D01*
X1604398Y4317173D01*
X1599600Y4299269D01*
Y4280732D01*
X1604398Y4262827D01*
X1613666Y4246773D01*
X1619255Y4241185D01*
Y4234261D01*
X1619255Y4234260D01*
X1623555Y4212644D01*
X1635799Y4194319D01*
X1740058Y4090060D01*
X1740058Y4090059D01*
X1758384Y4077815D01*
X1780000Y4073515D01*
X1780001Y4073515D01*
X1959064D01*
X1965219Y4072428D01*
X1970290Y4070738D01*
X1973930Y4068779D01*
X1976597Y4066597D01*
X1978779Y4063929D01*
X1980738Y4060290D01*
X1982428Y4055220D01*
X1983515Y4049064D01*
Y3992793D01*
X1970815Y3987533D01*
X1961381Y3996966D01*
X1941020Y4005400D01*
X1918980D01*
X1898619Y3996966D01*
X1890499Y3988846D01*
X1430400D01*
Y4030400D01*
X1209601D01*
Y3879600D01*
X1430400D01*
Y3911153D01*
X1890499D01*
X1898619Y3903034D01*
X1918980Y3894600D01*
X1941020D01*
X1961381Y3903034D01*
X1970815Y3912467D01*
X1983515Y3907207D01*
Y3880001D01*
X1983514Y3880000D01*
X1987814Y3858384D01*
X2000059Y3840059D01*
X2280058Y3560059D01*
X2280059Y3560059D01*
X2298384Y3547814D01*
X2320000Y3543514D01*
X2320001Y3543515D01*
X2500000D01*
X2505457Y3544600D01*
X2511020D01*
X2516160Y3546729D01*
X2521616Y3547814D01*
X2526242Y3550905D01*
X2531382Y3553034D01*
X2535315Y3556967D01*
X2539941Y3560059D01*
X2543033Y3564685D01*
X2546966Y3568618D01*
X2549095Y3573758D01*
X2552186Y3578384D01*
X2553271Y3583840D01*
X2555400Y3588980D01*
Y3594543D01*
X2556485Y3600000D01*
X2555400Y3605456D01*
Y3611020D01*
X2553271Y3616160D01*
X2552186Y3621616D01*
X2549095Y3626241D01*
X2546966Y3631381D01*
X2543033Y3635315D01*
X2539941Y3639941D01*
X2535315Y3643032D01*
X2531382Y3646966D01*
X2526242Y3649095D01*
X2521616Y3652185D01*
X2516160Y3653271D01*
X2511020Y3655400D01*
X2505457D01*
X2500000Y3656485D01*
X2343397D01*
X2096485Y3903397D01*
Y4135314D01*
X2097016Y4137535D01*
X2097902Y4139496D01*
X2098943Y4140924D01*
X2100510Y4142339D01*
X2103158Y4143938D01*
X2107316Y4145591D01*
X2113183Y4147035D01*
X2119168Y4147815D01*
X2359601D01*
Y4128900D01*
X2580400D01*
Y4279700D01*
X2359601D01*
Y4260785D01*
X2120936D01*
X2114781Y4261872D01*
X2109710Y4263562D01*
X2106070Y4265522D01*
X2103403Y4267704D01*
X2101221Y4270371D01*
X2099262Y4274010D01*
X2097572Y4279081D01*
X2096485Y4285236D01*
Y6116603D01*
X2143397Y6163515D01*
X3249064D01*
X3255219Y6162428D01*
X3260290Y6160738D01*
X3263929Y6158779D01*
X3266596Y6156597D01*
X3268779Y6153929D01*
X3270738Y6150290D01*
X3272428Y6145220D01*
X3273515Y6139064D01*
Y5930002D01*
X3273514Y5930000D01*
X3277814Y5908384D01*
X3290059Y5890059D01*
X3350058Y5830060D01*
X3350059Y5830059D01*
X3368384Y5817815D01*
X3390000Y5813515D01*
X3390001Y5813515D01*
X3459601D01*
Y5794600D01*
X3468515D01*
Y5715000D01*
X3472815Y5693384D01*
X3485059Y5675059D01*
X3503385Y5662814D01*
X3513793Y5660744D01*
X3566153Y5608384D01*
Y5574973D01*
X3564965Y5569000D01*
Y5427000D01*
X3567480Y5414358D01*
X3574641Y5403641D01*
X3585358Y5396480D01*
X3598000Y5393965D01*
X3612000D01*
X3624642Y5396480D01*
X3635359Y5403641D01*
X3642520Y5414358D01*
X3645035Y5427000D01*
Y5569000D01*
X3643846Y5574973D01*
Y5611420D01*
X3647766Y5617286D01*
X3661138Y5620321D01*
X3666153Y5617367D01*
Y5574973D01*
X3664965Y5569000D01*
Y5427000D01*
X3667480Y5414358D01*
X3674641Y5403641D01*
X3685358Y5396480D01*
X3698000Y5393965D01*
X3712000D01*
X3724642Y5396480D01*
X3730000Y5400060D01*
X3735358Y5396480D01*
X3748000Y5393965D01*
X3762000D01*
X3774642Y5396480D01*
X3780000Y5400060D01*
X3785358Y5396480D01*
X3798000Y5393965D01*
X3812000D01*
X3824642Y5396480D01*
X3830000Y5400060D01*
X3835358Y5396480D01*
X3848000Y5393965D01*
X3862000D01*
X3874642Y5396480D01*
X3880000Y5400060D01*
X3885358Y5396480D01*
X3898000Y5393965D01*
X3912000D01*
X3924642Y5396480D01*
X3930000Y5400060D01*
X3935358Y5396480D01*
X3948000Y5393965D01*
X3962000D01*
X3974642Y5396480D01*
X3980000Y5400060D01*
X3985358Y5396480D01*
X3998000Y5393965D01*
X4002657D01*
X4008034Y5381381D01*
X3999600Y5361020D01*
Y5338980D01*
X4008034Y5318619D01*
X4023619Y5303034D01*
X4043980Y5294600D01*
X4066020D01*
X4086381Y5303034D01*
X4101966Y5318619D01*
X4110400Y5338980D01*
Y5361020D01*
X4101966Y5381381D01*
X4107343Y5393965D01*
X4112000D01*
X4124642Y5396480D01*
X4130000Y5400060D01*
X4135358Y5396480D01*
X4148000Y5393965D01*
X4162000D01*
X4174642Y5396480D01*
X4180000Y5400060D01*
X4185358Y5396480D01*
X4198000Y5393965D01*
X4212000D01*
X4224642Y5396480D01*
X4230000Y5400060D01*
X4235358Y5396480D01*
X4248000Y5393965D01*
X4262000D01*
X4274642Y5396480D01*
X4280000Y5400060D01*
X4285358Y5396480D01*
X4298000Y5393965D01*
X4303034Y5381381D01*
X4294600Y5361020D01*
Y5338980D01*
X4303034Y5318619D01*
X4318618Y5303034D01*
X4338980Y5294600D01*
X4361020D01*
X4381381Y5303034D01*
X4396966Y5318619D01*
X4405400Y5338980D01*
Y5361020D01*
X4396966Y5381381D01*
X4393846Y5384501D01*
Y5421026D01*
X4395035Y5427000D01*
Y5569000D01*
X4392520Y5581642D01*
X4385359Y5592359D01*
X4374642Y5599520D01*
X4362000Y5602035D01*
X4348000D01*
X4335358Y5599520D01*
X4330000Y5595940D01*
X4324642Y5599520D01*
X4312000Y5602035D01*
X4298000D01*
X4296080Y5603611D01*
X4295700Y5614949D01*
X4305136Y5624600D01*
X4314543D01*
X4334905Y5633034D01*
X4350489Y5648619D01*
X4358923Y5668980D01*
Y5691020D01*
X4350489Y5711382D01*
X4334905Y5726966D01*
X4314543Y5735400D01*
X4292503D01*
X4272142Y5726966D01*
X4256557Y5711382D01*
X4248123Y5691020D01*
Y5679537D01*
X4230355Y5661769D01*
X4191276Y5700848D01*
X4185446Y5704744D01*
X4182696Y5711382D01*
X4167112Y5726966D01*
X4146750Y5735400D01*
X4124711D01*
X4104349Y5726966D01*
X4088764Y5711382D01*
X4080330Y5691020D01*
Y5668980D01*
X4088764Y5648619D01*
X4104349Y5633034D01*
X4124711Y5624600D01*
X4146750D01*
X4154457Y5627792D01*
X4164919Y5617330D01*
X4164496Y5604083D01*
X4162000Y5602035D01*
X4148000D01*
X4135358Y5599520D01*
X4130000Y5595940D01*
X4124642Y5599520D01*
X4112000Y5602035D01*
X4098000D01*
X4085358Y5599520D01*
X4080000Y5595940D01*
X4074642Y5599520D01*
X4062000Y5602035D01*
X4048000D01*
X4043593Y5605651D01*
Y5635246D01*
X4056966Y5648619D01*
X4065400Y5668980D01*
Y5691020D01*
X4056966Y5711382D01*
X4041382Y5726966D01*
X4021020Y5735400D01*
X3998980D01*
X3978619Y5726966D01*
X3977827Y5726174D01*
X3966093Y5731034D01*
Y5793812D01*
X3966982Y5794406D01*
X3979601Y5794600D01*
Y5794600D01*
X4010323D01*
X4011655Y5787904D01*
X4019479Y5776194D01*
X4031195Y5764478D01*
X4042905Y5756654D01*
X4056717Y5753907D01*
X4685049D01*
X4840378Y5598578D01*
X4852088Y5590754D01*
X4860951Y5588991D01*
Y5573700D01*
X5076751D01*
Y5674500D01*
X5069944D01*
Y5706149D01*
X5067197Y5719962D01*
X5059373Y5731671D01*
X5011750Y5779293D01*
Y5879500D01*
X4998399D01*
X4995522Y5883806D01*
X4990400Y5888928D01*
Y6035400D01*
X4966192D01*
Y6151531D01*
X4966602Y6163515D01*
X5261477D01*
X5267268Y6162833D01*
X5273387Y6161474D01*
X5277762Y6159903D01*
X5280497Y6158412D01*
X5281949Y6157228D01*
X5282691Y6156310D01*
X5283246Y6155200D01*
X5283711Y6153444D01*
Y5890400D01*
X5164600D01*
Y5861093D01*
X5141750D01*
Y5879500D01*
X5055951D01*
Y5778700D01*
X5141750D01*
Y5788907D01*
X5164600D01*
Y5759600D01*
X5283711D01*
Y5529174D01*
X5220826Y5466290D01*
X4960001D01*
X4960000Y5466290D01*
X4942286Y5462766D01*
X4927268Y5452732D01*
X4899175Y5424639D01*
X4897082Y5424222D01*
X4880410Y5413083D01*
X4869271Y5396412D01*
X4865359Y5376747D01*
Y5338557D01*
X4859851Y5330313D01*
X4855245Y5307157D01*
X4850571Y5303969D01*
X4843430Y5301011D01*
X4799499Y5344941D01*
X4781174Y5357186D01*
X4759558Y5361486D01*
X4759557Y5361485D01*
X4732279D01*
X4710663Y5357186D01*
X4701839Y5351290D01*
X4655000D01*
X4637286Y5347766D01*
X4631420Y5343847D01*
X4624973D01*
X4619000Y5345035D01*
X4477000D01*
X4464358Y5342520D01*
X4453641Y5335359D01*
X4446480Y5324642D01*
X4443965Y5312000D01*
Y5298000D01*
X4446480Y5285358D01*
X4453641Y5274641D01*
X4464358Y5267480D01*
X4477000Y5264965D01*
X4619000D01*
X4624973Y5266154D01*
X4631420D01*
X4637286Y5262234D01*
X4655000Y5258711D01*
X4701839D01*
X4710663Y5252814D01*
X4732279Y5248515D01*
X4736161D01*
X4796463Y5188213D01*
X4796463Y5188212D01*
X4814788Y5175968D01*
X4836405Y5171668D01*
X4849601D01*
Y5159133D01*
X4839041Y5152078D01*
X4831020Y5155400D01*
X4808980D01*
X4788619Y5146966D01*
X4773034Y5131381D01*
X4766873Y5116508D01*
X4753127D01*
X4746966Y5131381D01*
X4731381Y5146966D01*
X4711020Y5155400D01*
X4688980D01*
X4668619Y5146966D01*
X4663824Y5142171D01*
X4652789Y5147627D01*
X4652034Y5148342D01*
Y5162000D01*
X4649520Y5174642D01*
X4645940Y5180000D01*
X4649520Y5185358D01*
X4652034Y5198000D01*
Y5212000D01*
X4649520Y5224642D01*
X4642359Y5235359D01*
X4631641Y5242520D01*
X4619000Y5245035D01*
X4477000D01*
X4464491Y5242547D01*
X4445801D01*
X4441382Y5246966D01*
X4421020Y5255400D01*
X4398980D01*
X4378619Y5246966D01*
X4363034Y5231381D01*
X4354600Y5211020D01*
Y5188980D01*
X4363034Y5168619D01*
X4378619Y5153034D01*
X4398980Y5144600D01*
X4421020D01*
X4431265Y5148844D01*
X4433086Y5148723D01*
X4445340Y5140958D01*
X4445390Y5140837D01*
X4446480Y5135358D01*
X4449492Y5130850D01*
X4449925Y5129797D01*
X4446480Y5124642D01*
X4443965Y5112000D01*
Y5098000D01*
X4446480Y5085358D01*
X4450060Y5080000D01*
X4446480Y5074642D01*
X4443965Y5062000D01*
Y5048000D01*
X4446480Y5035358D01*
X4450060Y5030000D01*
X4446480Y5024642D01*
X4443965Y5012000D01*
Y4998000D01*
X4446480Y4985358D01*
X4450060Y4980000D01*
X4446480Y4974642D01*
X4443965Y4962000D01*
Y4948000D01*
X4446480Y4935358D01*
X4450060Y4930000D01*
X4446480Y4924642D01*
X4443965Y4912000D01*
Y4898000D01*
X4446480Y4885358D01*
X4450060Y4880000D01*
X4446480Y4874642D01*
X4443965Y4862000D01*
Y4848000D01*
X4446480Y4835358D01*
X4450060Y4830000D01*
X4446480Y4824642D01*
X4443965Y4812000D01*
Y4798000D01*
X4446480Y4785358D01*
X4450060Y4780000D01*
X4446480Y4774642D01*
X4443965Y4762000D01*
Y4748000D01*
X4446480Y4735358D01*
X4450060Y4730000D01*
X4446480Y4724642D01*
X4443965Y4712000D01*
Y4698000D01*
X4446480Y4685358D01*
X4450060Y4680000D01*
X4446480Y4674642D01*
X4443965Y4662000D01*
Y4648000D01*
X4446480Y4635358D01*
X4450060Y4630000D01*
X4446480Y4624642D01*
X4443965Y4612000D01*
Y4598000D01*
X4446480Y4585358D01*
X4450060Y4580000D01*
X4446480Y4574642D01*
X4443965Y4562000D01*
Y4548000D01*
X4446480Y4535358D01*
X4453641Y4524641D01*
X4464358Y4517480D01*
X4477000Y4514965D01*
X4509153D01*
Y4422000D01*
X4512110Y4407134D01*
X4520531Y4394531D01*
X5461154Y3453909D01*
Y3435400D01*
X5434601D01*
Y3284600D01*
X5565400D01*
Y3435400D01*
X5538847D01*
Y3469999D01*
X5535890Y3484865D01*
X5527469Y3497468D01*
X4586846Y4438091D01*
Y4514965D01*
X4619000D01*
X4631641Y4517480D01*
X4642359Y4524641D01*
X4649520Y4535358D01*
X4652034Y4548000D01*
Y4555068D01*
X4664734Y4560329D01*
X4824311Y4400752D01*
X4836914Y4392331D01*
X4849601Y4389807D01*
Y4309600D01*
X5000401D01*
Y4530400D01*
X5000401D01*
X5005100Y4541153D01*
X5034902D01*
X5039601Y4530400D01*
X5039601Y4528453D01*
Y4309600D01*
X5076154D01*
Y4276091D01*
X5075464Y4275400D01*
X4999601D01*
Y4124600D01*
X5130401D01*
Y4220463D01*
X5142470Y4232532D01*
X5150890Y4245134D01*
X5153847Y4260000D01*
Y4309600D01*
X5190401D01*
Y4528453D01*
X5190401Y4530400D01*
X5195100Y4541153D01*
X5228428D01*
X5243294Y4544111D01*
X5255896Y4552531D01*
X5629518Y4926153D01*
X5969600D01*
Y4889600D01*
X6190400D01*
Y5040400D01*
X5969600D01*
Y5003846D01*
X5858736D01*
X5853509Y5009221D01*
X5850958Y5016546D01*
X5852186Y5018384D01*
X5853271Y5023840D01*
X5855400Y5028980D01*
Y5034544D01*
X5856485Y5040000D01*
Y5049064D01*
X5857572Y5055219D01*
X5859262Y5060290D01*
X5861221Y5063929D01*
X5863404Y5066596D01*
X5866071Y5068779D01*
X5869710Y5070738D01*
X5874780Y5072428D01*
X5880936Y5073515D01*
X6244851D01*
X6244853Y5073514D01*
X6266469Y5077814D01*
X6284794Y5090059D01*
X6389940Y5195206D01*
X6389941Y5195206D01*
X6402186Y5213531D01*
X6406485Y5235147D01*
Y5510000D01*
Y6139064D01*
X6407572Y6145219D01*
X6409262Y6150290D01*
X6411221Y6153930D01*
X6413403Y6156597D01*
X6416071Y6158779D01*
X6419710Y6160738D01*
X6424780Y6162428D01*
X6430936Y6163515D01*
X6779064D01*
X6785219Y6162428D01*
X6790290Y6160738D01*
X6793930Y6158779D01*
X6796597Y6156597D01*
X6798779Y6153929D01*
X6800738Y6150290D01*
X6802428Y6145220D01*
X6803515Y6139064D01*
Y6107151D01*
X6803514Y6107149D01*
X6807814Y6085533D01*
X6820059Y6067208D01*
X6855205Y6032062D01*
X6855206Y6032061D01*
X6873531Y6019817D01*
X6895147Y6015517D01*
X6895149Y6015517D01*
X7045489D01*
X7059828Y5996830D01*
X7081845Y5979935D01*
X7107485Y5969315D01*
X7135000Y5965693D01*
X7155000D01*
X7182515Y5969315D01*
X7208154Y5979935D01*
X7230172Y5996830D01*
X7247067Y6018847D01*
X7257687Y6044487D01*
X7261309Y6072002D01*
X7257687Y6099517D01*
X7247067Y6125157D01*
X7230172Y6147174D01*
X7208154Y6164069D01*
X7182515Y6174689D01*
X7155000Y6178311D01*
X7135000D01*
X7107485Y6174689D01*
X7081845Y6164069D01*
X7059828Y6147174D01*
X7045489Y6128487D01*
X6918544D01*
X6916485Y6130547D01*
Y6220000D01*
Y6379059D01*
X6917573Y6385222D01*
X6919263Y6390291D01*
X6921222Y6393931D01*
X6923404Y6396597D01*
X6926071Y6398779D01*
X6929710Y6400739D01*
X6934780Y6402429D01*
X6940942Y6403516D01*
X7040489D01*
X7054828Y6384829D01*
X7076845Y6367935D01*
X7102485Y6357314D01*
X7130000Y6353692D01*
X7150000D01*
X7177515Y6357314D01*
X7203155Y6367935D01*
X7225172Y6384829D01*
X7242067Y6406846D01*
X7252687Y6432487D01*
X7256309Y6460001D01*
X7252687Y6487516D01*
X7242067Y6513156D01*
X7225172Y6535173D01*
X7203155Y6552068D01*
X7177515Y6562688D01*
X7150000Y6566311D01*
X7130000D01*
X7102485Y6562688D01*
X7076845Y6552068D01*
X7054828Y6535173D01*
X7040489Y6516487D01*
X6940938D01*
X6934782Y6517573D01*
X6929711Y6519263D01*
X6926072Y6521223D01*
X6923405Y6523405D01*
X6921223Y6526072D01*
X6919263Y6529711D01*
X6917573Y6534781D01*
X6916485Y6540945D01*
Y7486603D01*
X6979398Y7549516D01*
X7050489D01*
X7064828Y7530829D01*
X7086845Y7513934D01*
X7112485Y7503314D01*
X7140000Y7499692D01*
X7160000D01*
X7187515Y7503314D01*
X7213154Y7513934D01*
X7235172Y7530829D01*
X7252067Y7552846D01*
X7262687Y7578486D01*
X7266309Y7606001D01*
X7262687Y7633516D01*
X7252067Y7659156D01*
X7235172Y7681173D01*
X7213154Y7698068D01*
X7187515Y7708688D01*
X7160000Y7712310D01*
D02*
G37*
G36*
X1170000Y8525898D02*
X620000D01*
X617486Y8525397D01*
X614921Y8525395D01*
X612577Y8524421D01*
X610089Y8523926D01*
X607958Y8522502D01*
X605590Y8521518D01*
X603797Y8519722D01*
X601688Y8518312D01*
X600263Y8516181D01*
X598452Y8514365D01*
X578452Y8484366D01*
X577483Y8482020D01*
X576074Y8479911D01*
X575574Y8477396D01*
X574595Y8475026D01*
X574598Y8472488D01*
X574102Y8470000D01*
Y7590727D01*
X549273Y7565897D01*
X381817D01*
X380000Y7566137D01*
X360296D01*
X360294Y7566137D01*
X358475Y7565897D01*
X350000D01*
X345868Y7565076D01*
X341690Y7564528D01*
X331690Y7561140D01*
X330939Y7560707D01*
X330090Y7560538D01*
X327675Y7558925D01*
X317226Y7554597D01*
X299386Y7540908D01*
X299386Y7540907D01*
X229092Y7470613D01*
X215403Y7452774D01*
X206798Y7431999D01*
X203863Y7409706D01*
Y6570294D01*
X206798Y6548001D01*
X215403Y6527226D01*
X229092Y6509387D01*
X299386Y6439093D01*
X299386Y6439092D01*
X317226Y6425403D01*
X338001Y6416798D01*
X360294Y6413863D01*
X360296Y6413863D01*
X1050000D01*
X1072294Y6416798D01*
X1093068Y6425403D01*
X1110908Y6439092D01*
X1124596Y6456931D01*
X1133202Y6477706D01*
X1136137Y6500000D01*
X1133202Y6522294D01*
X1124596Y6543068D01*
X1110908Y6560908D01*
X1093068Y6574596D01*
X1072294Y6583202D01*
X1050000Y6586137D01*
X395973D01*
X376137Y6605974D01*
Y7374026D01*
X396213Y7394103D01*
X1449273D01*
X1891688Y6951688D01*
X1900089Y6946074D01*
X1910000Y6944103D01*
X2469273D01*
X2484102Y6929273D01*
Y6370000D01*
X2486074Y6360090D01*
X2491688Y6351688D01*
X2521687Y6321688D01*
X2530089Y6316074D01*
X2539999Y6314103D01*
X2930000D01*
X2939911Y6316074D01*
X2948312Y6321688D01*
X2978312Y6351688D01*
X2983926Y6360090D01*
X2985898Y6370000D01*
Y6740000D01*
Y7140000D01*
X2983926Y7149911D01*
X2978312Y7158312D01*
X2948312Y7188313D01*
X2939910Y7193926D01*
X2929999Y7195898D01*
X2010727D01*
X1628312Y7578313D01*
X1619911Y7583926D01*
X1610000Y7585898D01*
X1240727D01*
X1225897Y7600727D01*
Y8470000D01*
X1223926Y8479911D01*
X1218312Y8488312D01*
X1188312Y8518312D01*
X1179911Y8523926D01*
X1170000Y8525898D01*
D02*
G37*
G36*
X6145000Y7816094D02*
X6035001D01*
X6014012Y7813331D01*
X5994454Y7805229D01*
X5977659Y7792342D01*
X5964771Y7775547D01*
X5956670Y7755989D01*
X5953907Y7735000D01*
Y7625000D01*
X5956670Y7604012D01*
X5964771Y7584453D01*
X5977659Y7567658D01*
X5994454Y7554771D01*
X6014012Y7546670D01*
X6035001Y7543906D01*
X6145000D01*
X6165989Y7546670D01*
X6185547Y7554771D01*
X6202342Y7567658D01*
X6215230Y7584453D01*
X6223331Y7604012D01*
X6226094Y7625000D01*
Y7735000D01*
X6223331Y7755989D01*
X6215230Y7775547D01*
X6202342Y7792342D01*
X6185547Y7805229D01*
X6165989Y7813331D01*
X6145000Y7816094D01*
D02*
G37*
G36*
X5845000D02*
X5735000D01*
X5714011Y7813331D01*
X5694453Y7805229D01*
X5677658Y7792342D01*
X5664771Y7775547D01*
X5656669Y7755989D01*
X5653906Y7735000D01*
Y7625000D01*
X5656669Y7604012D01*
X5664771Y7584453D01*
X5677658Y7567658D01*
X5694453Y7554771D01*
X5714011Y7546670D01*
X5735000Y7543906D01*
X5845000D01*
X5865988Y7546670D01*
X5885547Y7554771D01*
X5902342Y7567658D01*
X5915229Y7584453D01*
X5923330Y7604012D01*
X5926094Y7625000D01*
Y7735000D01*
X5923330Y7755989D01*
X5915229Y7775547D01*
X5902342Y7792342D01*
X5885547Y7805229D01*
X5865988Y7813331D01*
X5845000Y7816094D01*
D02*
G37*
G36*
X5545000D02*
X5435000D01*
X5414012Y7813331D01*
X5394453Y7805229D01*
X5377658Y7792342D01*
X5364771Y7775547D01*
X5356669Y7755989D01*
X5353906Y7735000D01*
Y7625000D01*
X5356669Y7604012D01*
X5364771Y7584453D01*
X5377658Y7567658D01*
X5394453Y7554771D01*
X5414012Y7546670D01*
X5435000Y7543906D01*
X5545000D01*
X5565988Y7546670D01*
X5585547Y7554771D01*
X5602342Y7567658D01*
X5615229Y7584453D01*
X5623330Y7604012D01*
X5626094Y7625000D01*
Y7735000D01*
X5623330Y7755989D01*
X5615229Y7775547D01*
X5602342Y7792342D01*
X5585547Y7805229D01*
X5565988Y7813331D01*
X5545000Y7816094D01*
D02*
G37*
G36*
X5245000D02*
X5135000D01*
X5114012Y7813331D01*
X5094453Y7805229D01*
X5077658Y7792342D01*
X5064771Y7775547D01*
X5056670Y7755989D01*
X5053906Y7735000D01*
Y7625000D01*
X5056670Y7604012D01*
X5064771Y7584453D01*
X5077658Y7567658D01*
X5094453Y7554771D01*
X5114012Y7546670D01*
X5135000Y7543906D01*
X5245000D01*
X5265988Y7546670D01*
X5285547Y7554771D01*
X5302342Y7567658D01*
X5315229Y7584453D01*
X5323330Y7604012D01*
X5326094Y7625000D01*
Y7735000D01*
X5323330Y7755989D01*
X5315229Y7775547D01*
X5302342Y7792342D01*
X5285547Y7805229D01*
X5265988Y7813331D01*
X5245000Y7816094D01*
D02*
G37*
G36*
X4945000D02*
X4835000D01*
X4814012Y7813331D01*
X4794453Y7805229D01*
X4777658Y7792342D01*
X4764771Y7775547D01*
X4756670Y7755989D01*
X4753906Y7735000D01*
Y7625000D01*
X4756670Y7604012D01*
X4764771Y7584453D01*
X4777658Y7567658D01*
X4794453Y7554771D01*
X4814012Y7546670D01*
X4835000Y7543906D01*
X4945000D01*
X4965989Y7546670D01*
X4985547Y7554771D01*
X5002342Y7567658D01*
X5015229Y7584453D01*
X5023331Y7604012D01*
X5026094Y7625000D01*
Y7735000D01*
X5023331Y7755989D01*
X5015229Y7775547D01*
X5002342Y7792342D01*
X4985547Y7805229D01*
X4965989Y7813331D01*
X4945000Y7816094D01*
D02*
G37*
G36*
X4645000D02*
X4535000D01*
X4514012Y7813331D01*
X4494453Y7805229D01*
X4477658Y7792342D01*
X4464771Y7775547D01*
X4456670Y7755989D01*
X4453907Y7735000D01*
Y7625000D01*
X4456670Y7604012D01*
X4464771Y7584453D01*
X4477658Y7567658D01*
X4494453Y7554771D01*
X4514012Y7546670D01*
X4535000Y7543906D01*
X4645000D01*
X4665989Y7546670D01*
X4685547Y7554771D01*
X4702342Y7567658D01*
X4715229Y7584453D01*
X4723331Y7604012D01*
X4726094Y7625000D01*
Y7735000D01*
X4723331Y7755989D01*
X4715229Y7775547D01*
X4702342Y7792342D01*
X4685547Y7805229D01*
X4665989Y7813331D01*
X4645000Y7816094D01*
D02*
G37*
G36*
X4345000D02*
X4235000D01*
X4214012Y7813331D01*
X4194453Y7805229D01*
X4177658Y7792342D01*
X4164771Y7775547D01*
X4156670Y7755989D01*
X4153907Y7735000D01*
Y7625000D01*
X4156670Y7604012D01*
X4164771Y7584453D01*
X4177658Y7567658D01*
X4194453Y7554771D01*
X4214012Y7546670D01*
X4235000Y7543906D01*
X4345000D01*
X4365989Y7546670D01*
X4385547Y7554771D01*
X4402342Y7567658D01*
X4415229Y7584453D01*
X4423331Y7604012D01*
X4426094Y7625000D01*
Y7735000D01*
X4423331Y7755989D01*
X4415229Y7775547D01*
X4402342Y7792342D01*
X4385547Y7805229D01*
X4365989Y7813331D01*
X4345000Y7816094D01*
D02*
G37*
G36*
X4045000D02*
X3935001D01*
X3914012Y7813331D01*
X3894453Y7805229D01*
X3877658Y7792342D01*
X3864771Y7775547D01*
X3856670Y7755989D01*
X3853907Y7735000D01*
Y7625000D01*
X3856670Y7604012D01*
X3864771Y7584453D01*
X3877658Y7567658D01*
X3894453Y7554771D01*
X3914012Y7546670D01*
X3935001Y7543906D01*
X4045000D01*
X4065989Y7546670D01*
X4085547Y7554771D01*
X4102342Y7567658D01*
X4115230Y7584453D01*
X4123331Y7604012D01*
X4126094Y7625000D01*
Y7735000D01*
X4123331Y7755989D01*
X4115230Y7775547D01*
X4102342Y7792342D01*
X4085547Y7805229D01*
X4065989Y7813331D01*
X4045000Y7816094D01*
D02*
G37*
G36*
X2145000Y7672395D02*
X2094999D01*
X2064874Y7668429D01*
X2036802Y7656801D01*
X2012695Y7638304D01*
X1994198Y7614198D01*
X1982570Y7586125D01*
X1978604Y7556000D01*
X1982570Y7525874D01*
X1994198Y7497802D01*
X2012695Y7473696D01*
X2036802Y7455198D01*
X2064874Y7443570D01*
X2094999Y7439604D01*
X2145000D01*
X2175125Y7443570D01*
X2203198Y7455198D01*
X2227304Y7473696D01*
X2245801Y7497802D01*
X2257429Y7525874D01*
X2261395Y7556000D01*
X2257429Y7586125D01*
X2245801Y7614198D01*
X2227304Y7638304D01*
X2203198Y7656801D01*
X2175125Y7668429D01*
X2145000Y7672395D01*
D02*
G37*
G36*
X6145000Y7516094D02*
X6035001D01*
X6014012Y7513331D01*
X5994454Y7505229D01*
X5977659Y7492342D01*
X5964771Y7475547D01*
X5956670Y7455989D01*
X5953907Y7435000D01*
Y7325000D01*
X5956670Y7304012D01*
X5964771Y7284453D01*
X5977659Y7267658D01*
X5994454Y7254771D01*
X6014012Y7246670D01*
X6035001Y7243907D01*
X6145000D01*
X6165989Y7246670D01*
X6185547Y7254771D01*
X6202342Y7267658D01*
X6215230Y7284453D01*
X6223331Y7304012D01*
X6226094Y7325000D01*
Y7435000D01*
X6223331Y7455989D01*
X6215230Y7475547D01*
X6202342Y7492342D01*
X6185547Y7505229D01*
X6165989Y7513331D01*
X6145000Y7516094D01*
D02*
G37*
G36*
X5845000D02*
X5735000D01*
X5714011Y7513331D01*
X5694453Y7505229D01*
X5677658Y7492342D01*
X5664771Y7475547D01*
X5656669Y7455989D01*
X5653906Y7435000D01*
Y7325000D01*
X5656669Y7304012D01*
X5664771Y7284454D01*
X5677658Y7267658D01*
X5694453Y7254771D01*
X5714011Y7246670D01*
X5735000Y7243907D01*
X5845000D01*
X5865988Y7246670D01*
X5885547Y7254771D01*
X5902342Y7267658D01*
X5915229Y7284454D01*
X5923330Y7304012D01*
X5926094Y7325000D01*
Y7435000D01*
X5923330Y7455989D01*
X5915229Y7475547D01*
X5902342Y7492342D01*
X5885547Y7505229D01*
X5865988Y7513331D01*
X5845000Y7516094D01*
D02*
G37*
G36*
X5545000D02*
X5435000D01*
X5414012Y7513331D01*
X5394453Y7505229D01*
X5377658Y7492342D01*
X5364771Y7475547D01*
X5356669Y7455989D01*
X5353906Y7435000D01*
Y7325000D01*
X5356669Y7304012D01*
X5364771Y7284454D01*
X5377658Y7267658D01*
X5394453Y7254771D01*
X5414012Y7246670D01*
X5435000Y7243907D01*
X5545000D01*
X5565988Y7246670D01*
X5585547Y7254771D01*
X5602342Y7267658D01*
X5615229Y7284454D01*
X5623330Y7304012D01*
X5626094Y7325000D01*
Y7435000D01*
X5623330Y7455989D01*
X5615229Y7475547D01*
X5602342Y7492342D01*
X5585547Y7505229D01*
X5565988Y7513331D01*
X5545000Y7516094D01*
D02*
G37*
G36*
X5245000D02*
X5135000D01*
X5114012Y7513331D01*
X5094453Y7505229D01*
X5077658Y7492342D01*
X5064771Y7475547D01*
X5056670Y7455989D01*
X5053906Y7435000D01*
Y7325000D01*
X5056670Y7304012D01*
X5064771Y7284454D01*
X5077658Y7267658D01*
X5094453Y7254771D01*
X5114012Y7246670D01*
X5135000Y7243907D01*
X5245000D01*
X5265988Y7246670D01*
X5285547Y7254771D01*
X5302342Y7267658D01*
X5315229Y7284454D01*
X5323330Y7304012D01*
X5326094Y7325000D01*
Y7435000D01*
X5323330Y7455989D01*
X5315229Y7475547D01*
X5302342Y7492342D01*
X5285547Y7505229D01*
X5265988Y7513331D01*
X5245000Y7516094D01*
D02*
G37*
G36*
X4945000D02*
X4835000D01*
X4814012Y7513331D01*
X4794453Y7505229D01*
X4777658Y7492342D01*
X4764771Y7475547D01*
X4756670Y7455989D01*
X4753906Y7435000D01*
Y7325000D01*
X4756670Y7304012D01*
X4764771Y7284454D01*
X4777658Y7267658D01*
X4794453Y7254771D01*
X4814012Y7246670D01*
X4835000Y7243907D01*
X4945000D01*
X4965989Y7246670D01*
X4985547Y7254771D01*
X5002342Y7267658D01*
X5015229Y7284454D01*
X5023331Y7304012D01*
X5026094Y7325000D01*
Y7435000D01*
X5023331Y7455989D01*
X5015229Y7475547D01*
X5002342Y7492342D01*
X4985547Y7505229D01*
X4965989Y7513331D01*
X4945000Y7516094D01*
D02*
G37*
G36*
X4645000D02*
X4535000D01*
X4514012Y7513331D01*
X4494453Y7505229D01*
X4477658Y7492342D01*
X4464771Y7475547D01*
X4456670Y7455989D01*
X4453907Y7435000D01*
Y7325000D01*
X4456670Y7304012D01*
X4464771Y7284454D01*
X4477658Y7267658D01*
X4494453Y7254771D01*
X4514012Y7246670D01*
X4535000Y7243907D01*
X4645000D01*
X4665989Y7246670D01*
X4685547Y7254771D01*
X4702342Y7267658D01*
X4715229Y7284454D01*
X4723331Y7304012D01*
X4726094Y7325000D01*
Y7435000D01*
X4723331Y7455989D01*
X4715229Y7475547D01*
X4702342Y7492342D01*
X4685547Y7505229D01*
X4665989Y7513331D01*
X4645000Y7516094D01*
D02*
G37*
G36*
X4345000D02*
X4235000D01*
X4214012Y7513331D01*
X4194453Y7505229D01*
X4177658Y7492342D01*
X4164771Y7475547D01*
X4156670Y7455989D01*
X4153907Y7435000D01*
Y7325000D01*
X4156670Y7304012D01*
X4164771Y7284454D01*
X4177658Y7267658D01*
X4194453Y7254771D01*
X4214012Y7246670D01*
X4235000Y7243907D01*
X4345000D01*
X4365989Y7246670D01*
X4385547Y7254771D01*
X4402342Y7267658D01*
X4415229Y7284454D01*
X4423331Y7304012D01*
X4426094Y7325000D01*
Y7435000D01*
X4423331Y7455989D01*
X4415229Y7475547D01*
X4402342Y7492342D01*
X4385547Y7505229D01*
X4365989Y7513331D01*
X4345000Y7516094D01*
D02*
G37*
G36*
X4045000D02*
X3935001D01*
X3914012Y7513331D01*
X3894453Y7505229D01*
X3877658Y7492342D01*
X3864771Y7475547D01*
X3856670Y7455989D01*
X3853907Y7435000D01*
Y7325000D01*
X3856670Y7304012D01*
X3864771Y7284454D01*
X3877658Y7267658D01*
X3894453Y7254771D01*
X3914012Y7246670D01*
X3935001Y7243907D01*
X4045000D01*
X4065989Y7246670D01*
X4085547Y7254771D01*
X4102342Y7267658D01*
X4115230Y7284454D01*
X4123331Y7304012D01*
X4126094Y7325000D01*
Y7435000D01*
X4123331Y7455989D01*
X4115230Y7475547D01*
X4102342Y7492342D01*
X4085547Y7505229D01*
X4065989Y7513331D01*
X4045000Y7516094D01*
D02*
G37*
G36*
X7150000Y7328311D02*
X7130000D01*
X7102485Y7324688D01*
X7076845Y7314068D01*
X7054828Y7297173D01*
X7037933Y7275156D01*
X7027313Y7249516D01*
X7023691Y7222001D01*
X7027313Y7194487D01*
X7037933Y7168846D01*
X7054828Y7146829D01*
X7076845Y7129935D01*
X7102485Y7119314D01*
X7130000Y7115692D01*
X7150000D01*
X7177515Y7119314D01*
X7203155Y7129935D01*
X7225172Y7146829D01*
X7242067Y7168846D01*
X7252687Y7194487D01*
X7256309Y7222001D01*
X7252687Y7249516D01*
X7242067Y7275156D01*
X7225172Y7297173D01*
X7203155Y7314068D01*
X7177515Y7324688D01*
X7150000Y7328311D01*
D02*
G37*
G36*
X6760400Y7214400D02*
X6409600D01*
Y7013600D01*
X6760400D01*
Y7214400D01*
D02*
G37*
G36*
X4065001Y7176584D02*
X3915000D01*
X3891433Y7171896D01*
X3871454Y7158546D01*
X3858105Y7138567D01*
X3853417Y7115000D01*
Y7045000D01*
X3858105Y7021434D01*
X3871454Y7001454D01*
X3891433Y6988105D01*
X3915000Y6983417D01*
X4065001D01*
X4088567Y6988105D01*
X4108547Y7001454D01*
X4121896Y7021434D01*
X4126584Y7045000D01*
Y7115000D01*
X4121896Y7138567D01*
X4108547Y7158546D01*
X4088567Y7171896D01*
X4065001Y7176584D01*
D02*
G37*
G36*
X515771Y7320799D02*
X489230D01*
X463593Y7313929D01*
X440608Y7300659D01*
X421841Y7281891D01*
X408570Y7258906D01*
X401701Y7233269D01*
Y7206728D01*
X408570Y7181092D01*
X421841Y7158106D01*
X440608Y7139339D01*
X463593Y7126068D01*
X489230Y7119199D01*
X515771D01*
X521802Y7120815D01*
X592558Y7050059D01*
X610883Y7037814D01*
X632499Y7033515D01*
X632501Y7033515D01*
X879600D01*
Y6979600D01*
X1030400D01*
Y7200400D01*
X879600D01*
Y7146485D01*
X655897D01*
X601685Y7200697D01*
X603301Y7206728D01*
Y7233269D01*
X596431Y7258906D01*
X583161Y7281891D01*
X564393Y7300659D01*
X541408Y7313929D01*
X515771Y7320799D01*
D02*
G37*
G36*
X6145000Y7216094D02*
X6035001D01*
X6014012Y7213331D01*
X5994454Y7205229D01*
X5977659Y7192342D01*
X5964771Y7175547D01*
X5956670Y7155989D01*
X5953907Y7135000D01*
Y7025000D01*
X5956670Y7004012D01*
X5964771Y6984453D01*
X5977659Y6967658D01*
X5994454Y6954771D01*
X6014012Y6946670D01*
X6035001Y6943907D01*
X6145000D01*
X6165989Y6946670D01*
X6185547Y6954771D01*
X6202342Y6967658D01*
X6215230Y6984453D01*
X6223331Y7004012D01*
X6226094Y7025000D01*
Y7135000D01*
X6223331Y7155989D01*
X6215230Y7175547D01*
X6202342Y7192342D01*
X6185547Y7205229D01*
X6165989Y7213331D01*
X6145000Y7216094D01*
D02*
G37*
G36*
X5845000D02*
X5735000D01*
X5714011Y7213331D01*
X5694453Y7205229D01*
X5677658Y7192342D01*
X5664771Y7175547D01*
X5656669Y7155989D01*
X5653906Y7135000D01*
Y7025000D01*
X5656669Y7004012D01*
X5664771Y6984454D01*
X5677658Y6967658D01*
X5694453Y6954771D01*
X5714011Y6946670D01*
X5735000Y6943907D01*
X5845000D01*
X5865988Y6946670D01*
X5885547Y6954771D01*
X5902342Y6967658D01*
X5915229Y6984454D01*
X5923330Y7004012D01*
X5926094Y7025000D01*
Y7135000D01*
X5923330Y7155989D01*
X5915229Y7175547D01*
X5902342Y7192342D01*
X5885547Y7205229D01*
X5865988Y7213331D01*
X5845000Y7216094D01*
D02*
G37*
G36*
X5545000D02*
X5435000D01*
X5414012Y7213331D01*
X5394453Y7205229D01*
X5377658Y7192342D01*
X5364771Y7175547D01*
X5356669Y7155989D01*
X5353906Y7135000D01*
Y7025000D01*
X5356669Y7004012D01*
X5364771Y6984454D01*
X5377658Y6967658D01*
X5394453Y6954771D01*
X5414012Y6946670D01*
X5435000Y6943907D01*
X5545000D01*
X5565988Y6946670D01*
X5585547Y6954771D01*
X5602342Y6967658D01*
X5615229Y6984454D01*
X5623330Y7004012D01*
X5626094Y7025000D01*
Y7135000D01*
X5623330Y7155989D01*
X5615229Y7175547D01*
X5602342Y7192342D01*
X5585547Y7205229D01*
X5565988Y7213331D01*
X5545000Y7216094D01*
D02*
G37*
G36*
X5245000D02*
X5135000D01*
X5114012Y7213331D01*
X5094453Y7205229D01*
X5077658Y7192342D01*
X5064771Y7175547D01*
X5056670Y7155989D01*
X5053906Y7135000D01*
Y7025000D01*
X5056670Y7004012D01*
X5064771Y6984454D01*
X5077658Y6967658D01*
X5094453Y6954771D01*
X5114012Y6946670D01*
X5135000Y6943907D01*
X5245000D01*
X5265988Y6946670D01*
X5285547Y6954771D01*
X5302342Y6967658D01*
X5315229Y6984454D01*
X5323330Y7004012D01*
X5326094Y7025000D01*
Y7135000D01*
X5323330Y7155989D01*
X5315229Y7175547D01*
X5302342Y7192342D01*
X5285547Y7205229D01*
X5265988Y7213331D01*
X5245000Y7216094D01*
D02*
G37*
G36*
X4945000D02*
X4835000D01*
X4814012Y7213331D01*
X4794453Y7205229D01*
X4777658Y7192342D01*
X4764771Y7175547D01*
X4756670Y7155989D01*
X4753906Y7135000D01*
Y7025000D01*
X4756670Y7004012D01*
X4764771Y6984454D01*
X4777658Y6967658D01*
X4794453Y6954771D01*
X4814012Y6946670D01*
X4835000Y6943907D01*
X4945000D01*
X4965989Y6946670D01*
X4985547Y6954771D01*
X5002342Y6967658D01*
X5015229Y6984454D01*
X5023331Y7004012D01*
X5026094Y7025000D01*
Y7135000D01*
X5023331Y7155989D01*
X5015229Y7175547D01*
X5002342Y7192342D01*
X4985547Y7205229D01*
X4965989Y7213331D01*
X4945000Y7216094D01*
D02*
G37*
G36*
X4645000D02*
X4535000D01*
X4514012Y7213331D01*
X4494453Y7205229D01*
X4477658Y7192342D01*
X4464771Y7175547D01*
X4456670Y7155989D01*
X4453907Y7135000D01*
Y7025000D01*
X4456670Y7004012D01*
X4464771Y6984454D01*
X4477658Y6967658D01*
X4494453Y6954771D01*
X4514012Y6946670D01*
X4535000Y6943907D01*
X4645000D01*
X4665989Y6946670D01*
X4685547Y6954771D01*
X4702342Y6967658D01*
X4715229Y6984454D01*
X4723331Y7004012D01*
X4726094Y7025000D01*
Y7135000D01*
X4723331Y7155989D01*
X4715229Y7175547D01*
X4702342Y7192342D01*
X4685547Y7205229D01*
X4665989Y7213331D01*
X4645000Y7216094D01*
D02*
G37*
G36*
X515771Y7070799D02*
X489230D01*
X463593Y7063929D01*
X440608Y7050659D01*
X421841Y7031891D01*
X408570Y7008906D01*
X401701Y6983269D01*
Y6956728D01*
X408570Y6931092D01*
X421841Y6908106D01*
X440608Y6889339D01*
X463593Y6876068D01*
X489230Y6869199D01*
X515771D01*
X541408Y6876068D01*
X564393Y6889339D01*
X583161Y6908106D01*
X596431Y6931092D01*
X603301Y6956728D01*
Y6983269D01*
X596431Y7008906D01*
X583161Y7031891D01*
X564393Y7050659D01*
X541408Y7063929D01*
X515771Y7070799D01*
D02*
G37*
G36*
X1220400Y7200400D02*
X1069600D01*
Y6979600D01*
X1088515D01*
Y6960400D01*
X1069600D01*
Y6739600D01*
X1220400D01*
Y6770299D01*
X1440400D01*
Y6809213D01*
X1506291D01*
X1508384Y6807814D01*
X1513841Y6806729D01*
X1518980Y6804600D01*
X1524543D01*
X1530000Y6803514D01*
X1535457Y6804600D01*
X1541020D01*
X1546159Y6806729D01*
X1551616Y6807814D01*
X1556242Y6810905D01*
X1561381Y6813034D01*
X1565315Y6816968D01*
X1569941Y6820059D01*
X1573032Y6824685D01*
X1576966Y6828619D01*
X1579095Y6833758D01*
X1582186Y6838384D01*
X1583271Y6843841D01*
X1585400Y6848980D01*
Y6854543D01*
X1586486Y6860000D01*
X1585400Y6865457D01*
Y6871020D01*
X1583271Y6876159D01*
X1582186Y6881616D01*
X1579095Y6886241D01*
X1576966Y6891381D01*
X1573032Y6895315D01*
X1569941Y6899941D01*
X1564243Y6905640D01*
X1545917Y6917884D01*
X1524301Y6922184D01*
X1524300Y6922184D01*
X1440400D01*
Y6961098D01*
X1219600D01*
Y6960400D01*
X1201485D01*
Y6979600D01*
X1220400D01*
Y7200400D01*
D02*
G37*
G36*
X7150000Y6820311D02*
X7130000D01*
X7102485Y6816688D01*
X7076845Y6806068D01*
X7054828Y6789173D01*
X7037933Y6767156D01*
X7027313Y6741516D01*
X7023691Y6714001D01*
X7027313Y6686487D01*
X7037933Y6660846D01*
X7054828Y6638829D01*
X7076845Y6621935D01*
X7102485Y6611314D01*
X7130000Y6607692D01*
X7150000D01*
X7177515Y6611314D01*
X7203155Y6621935D01*
X7225172Y6638829D01*
X7242067Y6660846D01*
X7252687Y6686487D01*
X7256309Y6714001D01*
X7252687Y6741516D01*
X7242067Y6767156D01*
X7225172Y6789173D01*
X7203155Y6806068D01*
X7177515Y6816688D01*
X7150000Y6820311D01*
D02*
G37*
G36*
X3209400Y6760400D02*
X3008601D01*
Y6409600D01*
X3209400D01*
Y6760400D01*
D02*
G37*
G36*
X7155000Y5924311D02*
X7135000D01*
X7107485Y5920689D01*
X7081845Y5910069D01*
X7059828Y5893174D01*
X7042933Y5871157D01*
X7032313Y5845517D01*
X7028691Y5818002D01*
X7032313Y5790487D01*
X7042933Y5764847D01*
X7059828Y5742830D01*
X7081845Y5725935D01*
X7107485Y5715315D01*
X7135000Y5711693D01*
X7155000D01*
X7182515Y5715315D01*
X7208154Y5725935D01*
X7230172Y5742830D01*
X7247067Y5764847D01*
X7257687Y5790487D01*
X7261309Y5818002D01*
X7257687Y5845517D01*
X7247067Y5871157D01*
X7230172Y5893174D01*
X7208154Y5910069D01*
X7182515Y5920689D01*
X7155000Y5924311D01*
D02*
G37*
G36*
X2365401Y5840400D02*
X2184601D01*
Y5599600D01*
X2365401D01*
Y5840400D01*
D02*
G37*
G36*
Y5520400D02*
X2184601D01*
Y5279600D01*
X2365401D01*
Y5520400D01*
D02*
G37*
G36*
X7155000Y5416311D02*
X7135000D01*
X7107485Y5412689D01*
X7081845Y5402069D01*
X7059828Y5385174D01*
X7042933Y5363157D01*
X7032313Y5337517D01*
X7028691Y5310002D01*
X7032313Y5282487D01*
X7042933Y5256847D01*
X7059828Y5234830D01*
X7081845Y5217935D01*
X7107485Y5207315D01*
X7135000Y5203693D01*
X7155000D01*
X7182515Y5207315D01*
X7208154Y5217935D01*
X7230172Y5234830D01*
X7247067Y5256847D01*
X7257687Y5282487D01*
X7261309Y5310002D01*
X7257687Y5337517D01*
X7247067Y5363157D01*
X7230172Y5385174D01*
X7208154Y5402069D01*
X7182515Y5412689D01*
X7155000Y5416311D01*
D02*
G37*
G36*
X2720400Y6005400D02*
X2589600D01*
Y5854600D01*
X2644457D01*
X2645652Y5848594D01*
X2654073Y5835991D01*
X2715991Y5774072D01*
X2728594Y5765651D01*
X2734601Y5764457D01*
Y5599600D01*
X2855463D01*
X3249483Y5205580D01*
X3244622Y5193847D01*
X3030399D01*
Y5265400D01*
X2899599D01*
Y5114600D01*
X2890664Y5105601D01*
X2780463Y4995401D01*
X2544601D01*
Y4938847D01*
X2475401D01*
Y4965401D01*
X2324601D01*
Y4834601D01*
X2475401D01*
Y4861154D01*
X2544601D01*
Y4754601D01*
X2835401D01*
Y4940464D01*
X2872579Y4977642D01*
X2873100Y4978017D01*
X2884600Y4971703D01*
X2884601Y4964232D01*
Y4844601D01*
X3035401D01*
Y4920464D01*
X3056090Y4941153D01*
X3143521D01*
X3148782Y4928453D01*
X3122918Y4902590D01*
X3114497Y4889987D01*
X3111540Y4875121D01*
Y4869887D01*
X3103034Y4861381D01*
X3094600Y4841020D01*
Y4818980D01*
X3103034Y4798619D01*
X3118619Y4783034D01*
X3138980Y4774600D01*
X3161020D01*
X3181381Y4783034D01*
X3191703Y4793356D01*
X3200000Y4797209D01*
X3208297Y4793356D01*
X3218619Y4783034D01*
X3238980Y4774600D01*
X3261020D01*
X3281382Y4783034D01*
X3295582Y4797235D01*
X3297371Y4797345D01*
X3301955Y4796640D01*
X3308773Y4793938D01*
X3310480Y4785358D01*
X3317641Y4774641D01*
X3328358Y4767480D01*
X3341000Y4764965D01*
X3483000D01*
X3490247Y4766407D01*
X3505246D01*
X3518619Y4753034D01*
X3538980Y4744600D01*
X3543069D01*
X3547930Y4732867D01*
X3528230Y4713167D01*
X3514885Y4717782D01*
X3513520Y4724642D01*
X3506359Y4735359D01*
X3495642Y4742520D01*
X3483000Y4745035D01*
X3341000D01*
X3328491Y4742547D01*
X3313700D01*
X3298834Y4739589D01*
X3286231Y4731169D01*
X3072531Y4517468D01*
X3064110Y4504866D01*
X3061153Y4490000D01*
Y4246617D01*
X2960434Y4145897D01*
X2860000D01*
X2850089Y4143926D01*
X2841687Y4138312D01*
X2799273Y4095898D01*
X2610727D01*
X2608312Y4098312D01*
X2599910Y4103926D01*
X2590000Y4105898D01*
X2390000D01*
X2380089Y4103926D01*
X2371688Y4098312D01*
X2363075Y4089700D01*
X2359601D01*
Y4086226D01*
X2341688Y4068312D01*
X2336074Y4059911D01*
X2334103Y4050000D01*
Y3970000D01*
X2336074Y3960089D01*
X2341688Y3951688D01*
X2371688Y3921688D01*
X2380089Y3916074D01*
X2390000Y3914102D01*
X2569273D01*
X2574102Y3909273D01*
Y3890000D01*
X2576074Y3880090D01*
X2581687Y3871688D01*
X2611688Y3841688D01*
X2620090Y3836074D01*
X2630000Y3834102D01*
X2790000D01*
X2799910Y3836074D01*
X2808312Y3841688D01*
X2838312Y3871688D01*
X2843926Y3880090D01*
X2845898Y3890000D01*
Y3969273D01*
X2860727Y3984103D01*
X2970000D01*
X2979911Y3986074D01*
X2988313Y3991688D01*
X3018312Y4021688D01*
X3023926Y4030089D01*
X3025898Y4040000D01*
Y4080434D01*
X3132731Y4187268D01*
X3142766Y4202285D01*
X3146289Y4220000D01*
X3142766Y4237714D01*
X3138846Y4243580D01*
Y4473909D01*
X3298812Y4633875D01*
X3301053Y4633393D01*
X3310480Y4624641D01*
X3307965Y4612000D01*
Y4598000D01*
X3304557Y4593847D01*
X3295000D01*
X3280134Y4590889D01*
X3267531Y4582469D01*
X3182531Y4497469D01*
X3174110Y4484866D01*
X3171153Y4470000D01*
Y4126091D01*
X2472529Y3427466D01*
X2464108Y3414864D01*
X2461151Y3399998D01*
Y2848232D01*
X2446222Y2836776D01*
X2434136Y2821026D01*
X2426538Y2802684D01*
X2423947Y2783000D01*
Y2633000D01*
X2426538Y2613317D01*
X2434136Y2594975D01*
X2446222Y2579224D01*
X2461972Y2567138D01*
X2475472Y2561547D01*
X2472946Y2548847D01*
X2322929D01*
X2299329Y2572446D01*
X2299774Y2579224D01*
X2311859Y2594975D01*
X2319457Y2613317D01*
X2322048Y2633000D01*
Y2783000D01*
X2319457Y2802684D01*
X2311859Y2821026D01*
X2299774Y2836776D01*
X2284023Y2848862D01*
X2265681Y2856460D01*
X2245998Y2859051D01*
X2226314Y2856460D01*
X2207972Y2848862D01*
X2192222Y2836776D01*
X2180136Y2821026D01*
X2172538Y2802684D01*
X2169947Y2783000D01*
Y2633000D01*
X2172538Y2613317D01*
X2180136Y2594975D01*
X2192222Y2579224D01*
X2207972Y2567138D01*
X2212967Y2565069D01*
Y2565024D01*
X2215924Y2550158D01*
X2224345Y2537556D01*
X2279369Y2482531D01*
X2291972Y2474111D01*
X2306838Y2471154D01*
X2660000D01*
X2674866Y2474111D01*
X2687469Y2482531D01*
X2757468Y2552531D01*
X2765889Y2565134D01*
X2768846Y2580000D01*
Y3383909D01*
X3631169Y4246232D01*
X3639589Y4258834D01*
X3642546Y4273700D01*
Y4278491D01*
X3645035Y4291000D01*
Y4433000D01*
X3642520Y4445642D01*
X3635359Y4456359D01*
X3624642Y4463520D01*
X3612000Y4466035D01*
X3598000D01*
X3585358Y4463520D01*
X3574641Y4456359D01*
X3567480Y4445642D01*
X3564965Y4433000D01*
Y4361262D01*
X3564853Y4360700D01*
Y4289791D01*
X2702531Y3427469D01*
X2694110Y3414866D01*
X2691153Y3400000D01*
Y2596091D01*
X2643909Y2548847D01*
X2527050D01*
X2524524Y2561547D01*
X2538023Y2567138D01*
X2553774Y2579224D01*
X2565859Y2594975D01*
X2573457Y2613317D01*
X2576048Y2633000D01*
Y2783000D01*
X2573457Y2802684D01*
X2565859Y2821026D01*
X2553774Y2836776D01*
X2538844Y2848232D01*
Y3383907D01*
X3237469Y4082531D01*
X3245889Y4095134D01*
X3248846Y4110000D01*
Y4453909D01*
X3311091Y4516154D01*
X3335027D01*
X3341000Y4514965D01*
X3483000D01*
X3495642Y4517480D01*
X3506359Y4524641D01*
X3513520Y4535358D01*
X3516035Y4548000D01*
Y4562000D01*
X3519443Y4566153D01*
X3655000D01*
X3669866Y4569110D01*
X3682468Y4577531D01*
X3804089Y4699152D01*
X3812510Y4711755D01*
X3815467Y4726620D01*
Y4817119D01*
X3816966Y4818619D01*
X3825400Y4838980D01*
Y4861020D01*
X3816966Y4881381D01*
X3801382Y4896966D01*
X3781020Y4905400D01*
X3758980D01*
X3757815Y4904917D01*
X3750621Y4915684D01*
X3766091Y4931153D01*
X3830499D01*
X3838618Y4923034D01*
X3858980Y4914600D01*
X3881020D01*
X3901381Y4923034D01*
X3916966Y4938619D01*
X3925400Y4958980D01*
Y4981020D01*
X3916966Y5001381D01*
X3901381Y5016966D01*
X3881020Y5025400D01*
X3858980D01*
X3838618Y5016966D01*
X3830499Y5008846D01*
X3750000D01*
X3735134Y5005889D01*
X3722531Y4997469D01*
X3649832Y4924769D01*
X3641411Y4912166D01*
X3638454Y4897300D01*
Y4823391D01*
X3617133Y4802070D01*
X3605400Y4806931D01*
Y4811020D01*
X3596966Y4831381D01*
X3581381Y4846966D01*
X3561020Y4855400D01*
X3538980D01*
X3528735Y4851156D01*
X3516035Y4859642D01*
Y4862000D01*
X3513520Y4874642D01*
X3509940Y4880000D01*
X3513520Y4885358D01*
X3516035Y4898000D01*
Y4912000D01*
X3513520Y4924642D01*
X3510076Y4929797D01*
X3510508Y4930850D01*
X3513520Y4935358D01*
X3514610Y4940837D01*
X3514659Y4940958D01*
X3526913Y4948723D01*
X3528735Y4948844D01*
X3538980Y4944600D01*
X3561020D01*
X3581381Y4953034D01*
X3596966Y4968618D01*
X3605400Y4988980D01*
Y5011020D01*
X3596966Y5031381D01*
X3581381Y5046966D01*
X3561020Y5055400D01*
X3538980D01*
X3528735Y5051156D01*
X3516035Y5059642D01*
Y5062000D01*
X3513520Y5074642D01*
X3509940Y5080000D01*
X3513520Y5085358D01*
X3516035Y5098000D01*
Y5112000D01*
X3513520Y5124642D01*
X3509940Y5130000D01*
X3513520Y5135358D01*
X3516035Y5148000D01*
Y5162000D01*
X3513520Y5174642D01*
X3509940Y5180000D01*
X3513520Y5185358D01*
X3516035Y5198000D01*
Y5212000D01*
X3513520Y5224642D01*
X3509940Y5230000D01*
X3513520Y5235358D01*
X3516035Y5248000D01*
Y5262000D01*
X3513520Y5274642D01*
X3509940Y5280000D01*
X3513520Y5285358D01*
X3516035Y5298000D01*
Y5312000D01*
X3513520Y5324642D01*
X3506359Y5335359D01*
X3495642Y5342520D01*
X3483000Y5345035D01*
X3471054D01*
X3463998Y5355595D01*
X3465400Y5358980D01*
Y5381020D01*
X3456966Y5401381D01*
X3441381Y5416966D01*
X3421020Y5425400D01*
X3398980D01*
X3378619Y5416966D01*
X3363034Y5401381D01*
X3354600Y5381020D01*
Y5358980D01*
X3356002Y5355595D01*
X3348947Y5345035D01*
X3341000D01*
X3328358Y5342520D01*
X3317641Y5335359D01*
X3310480Y5324642D01*
X3307965Y5312000D01*
Y5298000D01*
X3310480Y5285358D01*
X3311065Y5284483D01*
X3306783Y5274034D01*
X3293995Y5270942D01*
X2916147Y5648790D01*
Y5667700D01*
X2915401Y5671454D01*
Y5840400D01*
X2759538D01*
X2720400Y5879538D01*
Y6005400D01*
D02*
G37*
G36*
X2915401Y5520400D02*
X2734601D01*
Y5355544D01*
X2728594Y5354349D01*
X2715991Y5345928D01*
X2654073Y5284009D01*
X2645652Y5271407D01*
X2644457Y5265400D01*
X2589600D01*
Y5114600D01*
X2720400D01*
Y5151154D01*
X2749600D01*
Y5114600D01*
X2880399D01*
Y5265400D01*
X2776949D01*
X2770161Y5278100D01*
X2771163Y5279600D01*
X2915401D01*
Y5520400D01*
D02*
G37*
G36*
X6440400Y4850400D02*
X6219600D01*
Y4826387D01*
X6190400D01*
Y4850400D01*
X5969600D01*
Y4699600D01*
X6028363D01*
Y4680400D01*
X6014100D01*
Y4484600D01*
X6144900D01*
Y4680400D01*
X6131137D01*
Y4699600D01*
X6190400D01*
Y4723613D01*
X6219600D01*
Y4699600D01*
X6280363D01*
Y4680400D01*
X6268100D01*
Y4484600D01*
X6398900D01*
Y4680400D01*
X6383137D01*
Y4699600D01*
X6440400D01*
Y4850400D01*
D02*
G37*
G36*
X1385900Y4980399D02*
X874101D01*
Y4958550D01*
X675000D01*
X655316Y4955959D01*
X636974Y4948361D01*
X621224Y4936275D01*
X495749Y4810800D01*
X489230D01*
X463593Y4803931D01*
X440608Y4790660D01*
X421841Y4771893D01*
X408570Y4748907D01*
X401701Y4723271D01*
Y4696730D01*
X408570Y4671093D01*
X421841Y4648108D01*
X440608Y4629340D01*
X463593Y4616070D01*
X489230Y4609200D01*
X515771D01*
X541408Y4616070D01*
X564393Y4629340D01*
X583161Y4648108D01*
X596431Y4671093D01*
X603301Y4696730D01*
Y4703248D01*
X706501Y4806449D01*
X874101D01*
Y4784599D01*
X1385900D01*
Y4843872D01*
X1386362Y4844474D01*
X1393960Y4862816D01*
X1396551Y4882499D01*
X1393960Y4902183D01*
X1386362Y4920525D01*
X1385900Y4921126D01*
Y4980399D01*
D02*
G37*
G36*
X3035401Y4825401D02*
X2884601D01*
Y4694601D01*
X2884601Y4694601D01*
X2884600D01*
X2879207Y4684144D01*
X2780463Y4585401D01*
X2544601D01*
Y4473847D01*
X2475401D01*
Y4500401D01*
X2324601D01*
Y4369601D01*
X2475401D01*
Y4396154D01*
X2544601D01*
Y4344601D01*
X2835401D01*
Y4530464D01*
X2974248Y4669311D01*
X2974248Y4669311D01*
X2987468Y4682531D01*
X2995533Y4694601D01*
X3035401D01*
Y4825401D01*
D02*
G37*
G36*
X4261020Y4755400D02*
X4238980D01*
X4218618Y4746966D01*
X4203034Y4731381D01*
X4194600Y4711020D01*
Y4695644D01*
X4102827Y4603871D01*
X4091093Y4608731D01*
Y4662746D01*
X4096966Y4668619D01*
X4105400Y4688980D01*
Y4711020D01*
X4096966Y4731381D01*
X4081381Y4746966D01*
X4061020Y4755400D01*
X4038980D01*
X4018619Y4746966D01*
X4003034Y4731381D01*
X3994600Y4711020D01*
Y4688980D01*
X4003034Y4668619D01*
X4018619Y4653034D01*
X4018907Y4652915D01*
Y4471703D01*
X4012000Y4466035D01*
X3998000D01*
X3985358Y4463520D01*
X3980000Y4459940D01*
X3974642Y4463520D01*
X3962000Y4466035D01*
X3948000D01*
X3935358Y4463520D01*
X3930000Y4459940D01*
X3924642Y4463520D01*
X3912000Y4466035D01*
X3898000D01*
X3890938Y4464630D01*
X3885949Y4471595D01*
X3883890Y4476177D01*
X3891876Y4495457D01*
Y4517496D01*
X3883442Y4537858D01*
X3872386Y4548914D01*
X3870504Y4559138D01*
X3873120Y4564773D01*
X3885619Y4577271D01*
X3894053Y4597633D01*
Y4619672D01*
X3885619Y4640034D01*
X3870034Y4655619D01*
X3849673Y4664053D01*
X3827633D01*
X3807271Y4655619D01*
X3799152Y4647499D01*
X3795840D01*
X3780974Y4644542D01*
X3768371Y4636121D01*
X3726231Y4593982D01*
X3717810Y4581379D01*
X3714853Y4566513D01*
Y4468377D01*
X3712000Y4466035D01*
X3698000D01*
X3685358Y4463520D01*
X3674641Y4456359D01*
X3667480Y4445642D01*
X3664965Y4433000D01*
Y4291000D01*
X3666153Y4285027D01*
Y4221617D01*
X3643794Y4199257D01*
X3633385Y4197186D01*
X3615060Y4184942D01*
X3602815Y4166617D01*
X3598516Y4145001D01*
Y4065400D01*
X3589601D01*
Y3914600D01*
X3597816D01*
Y3890400D01*
X3558901D01*
Y3749483D01*
X3510059Y3700641D01*
X3497814Y3682315D01*
X3493514Y3660699D01*
X3493515Y3660698D01*
Y3600000D01*
X3494600Y3594543D01*
Y3588980D01*
X3496729Y3583840D01*
X3497814Y3578384D01*
X3500905Y3573758D01*
X3503034Y3568618D01*
X3506968Y3564685D01*
X3510059Y3560059D01*
X3514685Y3556967D01*
X3518619Y3553034D01*
X3523759Y3550905D01*
X3528384Y3547814D01*
X3533840Y3546729D01*
X3538980Y3544600D01*
X3544544D01*
X3550000Y3543515D01*
X3555456Y3544600D01*
X3561020D01*
X3566160Y3546729D01*
X3571616Y3547814D01*
X3576242Y3550905D01*
X3581381Y3553034D01*
X3585315Y3556967D01*
X3589941Y3560059D01*
X3593032Y3564685D01*
X3596966Y3568618D01*
X3599095Y3573758D01*
X3602186Y3578384D01*
X3603271Y3583840D01*
X3605400Y3588980D01*
Y3594543D01*
X3606485Y3600000D01*
Y3637302D01*
X3638783Y3669600D01*
X3749701D01*
Y3890400D01*
X3710786D01*
Y3914600D01*
X3720401D01*
Y3974543D01*
X3721486Y3980000D01*
X3720401Y3985457D01*
Y4065400D01*
X3711486D01*
Y4136023D01*
X3737732Y4162269D01*
X3747766Y4177286D01*
X3751290Y4195000D01*
X3747766Y4212714D01*
X3743846Y4218580D01*
Y4254557D01*
X3748000Y4257966D01*
X3762000D01*
X3774641Y4260480D01*
X3788047Y4254983D01*
X3792374Y4246136D01*
X3791153Y4240000D01*
Y3740000D01*
X3794111Y3725135D01*
X3802531Y3712532D01*
X4191153Y3323910D01*
Y1900000D01*
X4194110Y1885134D01*
X4202531Y1872532D01*
X4642532Y1432531D01*
X4655134Y1424110D01*
X4670000Y1421153D01*
X5053909D01*
X5062930Y1412133D01*
X5058069Y1400400D01*
X4949600D01*
Y1199600D01*
X4937212Y1198846D01*
X4730400D01*
Y1235400D01*
X4599600D01*
Y1084600D01*
X4730400D01*
Y1121153D01*
X5366245D01*
X5381111Y1124111D01*
X5393713Y1132531D01*
X5455169Y1193986D01*
X5458919Y1199600D01*
X6080400D01*
Y1261153D01*
X6213910D01*
X6232930Y1242133D01*
X6228069Y1230400D01*
X6214600D01*
Y1099600D01*
X6365400D01*
Y1230400D01*
X6327925D01*
Y1240921D01*
X6324968Y1255787D01*
X6316547Y1268390D01*
X6257469Y1327469D01*
X6244866Y1335889D01*
X6230000Y1338846D01*
X6080400D01*
Y1400400D01*
X6048846D01*
Y1410000D01*
X6045889Y1424866D01*
X6037468Y1437469D01*
X5777469Y1697469D01*
X5764866Y1705889D01*
X5750000Y1708846D01*
X4996091D01*
X4817071Y1887866D01*
X4821931Y1899600D01*
X5025401D01*
Y2090399D01*
X4764601D01*
Y1956930D01*
X4752868Y1952069D01*
X4628846Y2076091D01*
Y3320000D01*
X4625889Y3334866D01*
X4617469Y3347469D01*
X4307070Y3657867D01*
X4311931Y3669600D01*
X4461101D01*
Y3890400D01*
X4335183D01*
X4323683Y3901900D01*
X4328944Y3914600D01*
X4420400D01*
Y4058230D01*
X4421071Y4058779D01*
X4424710Y4060738D01*
X4429780Y4062428D01*
X4435936Y4063515D01*
X4536603D01*
X4760058Y3840060D01*
X4760059Y3840059D01*
X4778384Y3827815D01*
X4800000Y3823515D01*
X4800001Y3823515D01*
X4892700D01*
X4898156Y3824600D01*
X4903720D01*
X4908860Y3826729D01*
X4914316Y3827815D01*
X4918941Y3830905D01*
X4924081Y3833034D01*
X4928015Y3836968D01*
X4932641Y3840059D01*
X4935732Y3844685D01*
X4939666Y3848619D01*
X4941795Y3853759D01*
X4944885Y3858384D01*
X4945971Y3863840D01*
X4948100Y3868980D01*
Y3874544D01*
X4949185Y3880000D01*
X4948100Y3885457D01*
Y3891020D01*
X4945971Y3896160D01*
X4944885Y3901616D01*
X4941795Y3906242D01*
X4939666Y3911382D01*
X4935732Y3915315D01*
X4932641Y3919941D01*
X4928015Y3923033D01*
X4924081Y3926966D01*
X4918941Y3929095D01*
X4914316Y3932186D01*
X4908860Y3933271D01*
X4903720Y3935400D01*
X4898156D01*
X4892700Y3936485D01*
X4823397D01*
X4599942Y4159941D01*
X4581616Y4172185D01*
X4560000Y4176485D01*
X4559999Y4176485D01*
X4434897D01*
X4428771Y4177386D01*
X4423217Y4178929D01*
X4419294Y4180689D01*
X4416694Y4182462D01*
X4414923Y4184266D01*
X4413514Y4186447D01*
X4412274Y4189547D01*
X4411485Y4193270D01*
Y4200000D01*
X4407185Y4221616D01*
X4401289Y4230440D01*
Y4235000D01*
X4397766Y4252714D01*
X4393846Y4258580D01*
Y4285027D01*
X4395035Y4291000D01*
Y4433000D01*
X4392520Y4445642D01*
X4385359Y4456359D01*
X4374642Y4463520D01*
X4362000Y4466035D01*
X4348000D01*
X4335358Y4463520D01*
X4324641Y4456359D01*
X4317480Y4445642D01*
X4314965Y4433000D01*
Y4291000D01*
X4316153Y4285027D01*
Y4258580D01*
X4313258Y4254247D01*
X4305221Y4252443D01*
X4299185Y4252210D01*
X4293846Y4258510D01*
Y4285027D01*
X4295035Y4291000D01*
Y4433000D01*
X4292520Y4445642D01*
X4285359Y4456359D01*
X4274642Y4463520D01*
X4262000Y4466035D01*
X4248000D01*
X4235358Y4463520D01*
X4230000Y4459940D01*
X4224642Y4463520D01*
X4212000Y4466035D01*
X4198000D01*
X4185358Y4463520D01*
X4180000Y4459940D01*
X4174642Y4463520D01*
X4162000Y4466035D01*
X4148000D01*
X4141093Y4471703D01*
Y4540050D01*
X4245644Y4644600D01*
X4261020D01*
X4281381Y4653034D01*
X4296966Y4668619D01*
X4305400Y4688980D01*
Y4711020D01*
X4296966Y4731381D01*
X4281381Y4746966D01*
X4261020Y4755400D01*
D02*
G37*
G36*
X1790400Y4770400D02*
X1639600D01*
Y4604537D01*
X1547312Y4512249D01*
X1543227Y4516334D01*
X1527173Y4525602D01*
X1509269Y4530400D01*
X1490732D01*
X1472827Y4525602D01*
X1456773Y4516334D01*
X1443666Y4503227D01*
X1434398Y4487173D01*
X1429600Y4469268D01*
Y4450732D01*
X1434398Y4432827D01*
X1443666Y4416773D01*
X1456773Y4403666D01*
X1472827Y4394398D01*
X1490732Y4389600D01*
X1509269D01*
X1527173Y4394398D01*
X1543227Y4403666D01*
X1556334Y4416773D01*
X1565602Y4432827D01*
X1565980Y4434234D01*
X1577226Y4436471D01*
X1589829Y4444892D01*
X1694537Y4549600D01*
X1790400D01*
Y4770400D01*
D02*
G37*
G36*
X6998300Y4810800D02*
X6796700D01*
Y4609200D01*
X6821449D01*
Y4526502D01*
X6816840Y4521893D01*
X6803570Y4498907D01*
X6796700Y4473271D01*
Y4446730D01*
X6803570Y4421093D01*
X6816840Y4398108D01*
X6835608Y4379340D01*
X6858593Y4366070D01*
X6884230Y4359200D01*
X6910771D01*
X6936407Y4366070D01*
X6959392Y4379340D01*
X6978160Y4398108D01*
X6991431Y4421093D01*
X6998300Y4446730D01*
Y4473271D01*
X6991431Y4498907D01*
X6978160Y4521893D01*
X6973551Y4526502D01*
Y4609200D01*
X6998300D01*
Y4810800D01*
D02*
G37*
G36*
X1385900Y4435399D02*
X1255101D01*
Y4239599D01*
X1269113D01*
Y4220400D01*
X1209601D01*
Y4196387D01*
X1170401D01*
Y4220400D01*
X1117888D01*
Y4239599D01*
X1131900D01*
Y4435399D01*
X1001101D01*
Y4239599D01*
X1015113D01*
Y4220400D01*
X949601D01*
Y4069600D01*
X1170401D01*
Y4093613D01*
X1209601D01*
Y4069600D01*
X1430400D01*
Y4220400D01*
X1371888D01*
Y4239599D01*
X1385900D01*
Y4435399D01*
D02*
G37*
G36*
X6910771Y4310800D02*
X6884230D01*
X6858593Y4303931D01*
X6835608Y4290660D01*
X6816840Y4271893D01*
X6803570Y4248907D01*
X6796700Y4223271D01*
Y4216752D01*
X6693499Y4113551D01*
X6525900D01*
Y4135400D01*
X6014100D01*
Y4076127D01*
X6013638Y4075526D01*
X6006041Y4057184D01*
X6003450Y4037500D01*
X6006041Y4017817D01*
X6013638Y3999475D01*
X6014100Y3998873D01*
Y3939600D01*
X6525900D01*
Y3961450D01*
X6725000D01*
X6744683Y3964041D01*
X6763025Y3971638D01*
X6778776Y3983724D01*
X6904252Y4109200D01*
X6910771D01*
X6936407Y4116070D01*
X6959392Y4129340D01*
X6978160Y4148108D01*
X6991431Y4171093D01*
X6998300Y4196730D01*
Y4223271D01*
X6991431Y4248907D01*
X6978160Y4271893D01*
X6959392Y4290660D01*
X6936407Y4303931D01*
X6910771Y4310800D01*
D02*
G37*
G36*
X515771Y4560800D02*
X489230D01*
X463593Y4553931D01*
X440608Y4540660D01*
X421841Y4521893D01*
X408570Y4498907D01*
X401701Y4473271D01*
Y4446730D01*
X408570Y4421093D01*
X421841Y4398108D01*
X426450Y4393498D01*
Y4310800D01*
X401701D01*
Y4109200D01*
X603301D01*
Y4310800D01*
X578551D01*
Y4393498D01*
X583161Y4398108D01*
X596431Y4421093D01*
X603301Y4446730D01*
Y4473271D01*
X596431Y4498907D01*
X583161Y4521893D01*
X564393Y4540660D01*
X541408Y4553931D01*
X515771Y4560800D01*
D02*
G37*
G36*
X6900836Y3805884D02*
X6900000Y3805746D01*
X6899164Y3805884D01*
X6896064Y3805784D01*
X6895678Y3805694D01*
X6895285Y3805747D01*
X6892085Y3805547D01*
X6891248Y3805326D01*
X6890385Y3805385D01*
X6887285Y3804985D01*
X6886504Y3804722D01*
X6885679Y3804726D01*
X6882579Y3804126D01*
X6882116Y3803937D01*
X6881615Y3803920D01*
X6878615Y3803220D01*
X6877870Y3802883D01*
X6877057Y3802805D01*
X6874057Y3801905D01*
X6873363Y3801536D01*
X6872586Y3801415D01*
X6869586Y3800315D01*
X6869125Y3800034D01*
X6868597Y3799929D01*
X6865697Y3798729D01*
X6865235Y3798421D01*
X6864695Y3798290D01*
X6861895Y3796990D01*
X6861289Y3796547D01*
X6860571Y3796329D01*
X6857771Y3794829D01*
X6857061Y3794244D01*
X6856201Y3793915D01*
X6853501Y3792215D01*
X6853085Y3791821D01*
X6852558Y3791592D01*
X6849958Y3789792D01*
X6849553Y3789374D01*
X6849029Y3789119D01*
X6846530Y3787219D01*
X6845957Y3786572D01*
X6845206Y3786143D01*
X6842906Y3784142D01*
X6842525Y3783650D01*
X6841999Y3783315D01*
X6839699Y3781115D01*
X6839364Y3780636D01*
X6838885Y3780301D01*
X6836685Y3778001D01*
X6836350Y3777475D01*
X6835858Y3777094D01*
X6833858Y3774794D01*
X6833428Y3774043D01*
X6832781Y3773470D01*
X6830881Y3770970D01*
X6830626Y3770446D01*
X6830207Y3770041D01*
X6828407Y3767441D01*
X6828179Y3766916D01*
X6827784Y3766499D01*
X6827333Y3765781D01*
X6820000Y3763698D01*
X6812667Y3765781D01*
X6812215Y3766498D01*
X6811821Y3766914D01*
X6811593Y3767441D01*
X6809793Y3770041D01*
X6809374Y3770446D01*
X6809118Y3770970D01*
X6807219Y3773470D01*
X6806572Y3774043D01*
X6806142Y3774794D01*
X6804142Y3777094D01*
X6803649Y3777475D01*
X6803315Y3778001D01*
X6801115Y3780301D01*
X6800637Y3780636D01*
X6800301Y3781115D01*
X6798000Y3783315D01*
X6797475Y3783650D01*
X6797093Y3784142D01*
X6794793Y3786142D01*
X6794043Y3786572D01*
X6793470Y3787218D01*
X6790970Y3789119D01*
X6790447Y3789374D01*
X6790042Y3789792D01*
X6787442Y3791592D01*
X6786916Y3791821D01*
X6786499Y3792215D01*
X6783798Y3793915D01*
X6782939Y3794244D01*
X6782228Y3794829D01*
X6779428Y3796329D01*
X6778711Y3796547D01*
X6778105Y3796990D01*
X6775305Y3798290D01*
X6774765Y3798421D01*
X6774303Y3798729D01*
X6771403Y3799929D01*
X6770874Y3800034D01*
X6770414Y3800315D01*
X6767414Y3801415D01*
X6766637Y3801536D01*
X6765943Y3801905D01*
X6762943Y3802805D01*
X6762129Y3802883D01*
X6761385Y3803220D01*
X6758385Y3803920D01*
X6757884Y3803937D01*
X6757420Y3804126D01*
X6754320Y3804726D01*
X6753495Y3804722D01*
X6752714Y3804985D01*
X6749615Y3805385D01*
X6748752Y3805326D01*
X6747915Y3805547D01*
X6744714Y3805747D01*
X6744321Y3805694D01*
X6743935Y3805784D01*
X6740835Y3805884D01*
X6740000Y3805746D01*
X6739164Y3805884D01*
X6736064Y3805784D01*
X6735678Y3805694D01*
X6735285Y3805747D01*
X6732085Y3805547D01*
X6731248Y3805326D01*
X6730385Y3805385D01*
X6727285Y3804985D01*
X6726503Y3804721D01*
X6725679Y3804726D01*
X6722579Y3804126D01*
X6722116Y3803937D01*
X6721615Y3803920D01*
X6718615Y3803220D01*
X6717870Y3802883D01*
X6717057Y3802805D01*
X6714057Y3801905D01*
X6713363Y3801536D01*
X6712586Y3801415D01*
X6709586Y3800315D01*
X6709126Y3800035D01*
X6708597Y3799930D01*
X6705697Y3798730D01*
X6705234Y3798420D01*
X6704693Y3798289D01*
X6701894Y3796989D01*
X6701289Y3796547D01*
X6700572Y3796329D01*
X6697771Y3794829D01*
X6697061Y3794244D01*
X6696201Y3793915D01*
X6693501Y3792215D01*
X6693085Y3791821D01*
X6692558Y3791592D01*
X6689958Y3789792D01*
X6689554Y3789374D01*
X6689031Y3789119D01*
X6686530Y3787220D01*
X6685957Y3786572D01*
X6685206Y3786143D01*
X6682906Y3784142D01*
X6682524Y3783649D01*
X6681998Y3783314D01*
X6679698Y3781114D01*
X6679363Y3780636D01*
X6678885Y3780301D01*
X6676685Y3778001D01*
X6676350Y3777475D01*
X6675858Y3777094D01*
X6673858Y3774794D01*
X6673429Y3774044D01*
X6672782Y3773471D01*
X6670882Y3770972D01*
X6670626Y3770446D01*
X6670206Y3770040D01*
X6668406Y3767440D01*
X6668178Y3766914D01*
X6667784Y3766499D01*
X6666084Y3763798D01*
X6665756Y3762940D01*
X6665172Y3762230D01*
X6663672Y3759431D01*
X6663454Y3758712D01*
X6663010Y3758105D01*
X6661710Y3755305D01*
X6661579Y3754765D01*
X6661270Y3754302D01*
X6660070Y3751401D01*
X6659965Y3750874D01*
X6659685Y3750416D01*
X6658585Y3747416D01*
X6658464Y3746637D01*
X6658094Y3745941D01*
X6657194Y3742941D01*
X6657117Y3742128D01*
X6656780Y3741385D01*
X6656080Y3738385D01*
X6656063Y3737884D01*
X6655874Y3737421D01*
X6655274Y3734320D01*
X6655278Y3733496D01*
X6655015Y3732714D01*
X6654615Y3729614D01*
X6654674Y3728751D01*
X6654453Y3727915D01*
X6654253Y3724715D01*
X6654306Y3724321D01*
X6654216Y3723935D01*
X6654116Y3720836D01*
X6654185Y3720416D01*
X6654102Y3720000D01*
Y3660000D01*
X6654185Y3659583D01*
X6654116Y3659164D01*
X6654216Y3656064D01*
X6654306Y3655678D01*
X6654253Y3655285D01*
X6654453Y3652085D01*
X6654674Y3651248D01*
X6654615Y3650386D01*
X6655015Y3647286D01*
X6655278Y3646504D01*
X6655274Y3645679D01*
X6655874Y3642579D01*
X6656063Y3642116D01*
X6656080Y3641615D01*
X6656780Y3638615D01*
X6657117Y3637872D01*
X6657194Y3637059D01*
X6658094Y3634059D01*
X6658464Y3633363D01*
X6658585Y3632584D01*
X6659685Y3629584D01*
X6659965Y3629126D01*
X6660070Y3628599D01*
X6661270Y3625699D01*
X6661579Y3625236D01*
X6661710Y3624695D01*
X6663010Y3621895D01*
X6663453Y3621288D01*
X6663672Y3620569D01*
X6665172Y3617769D01*
X6665756Y3617060D01*
X6666084Y3616202D01*
X6667784Y3613502D01*
X6668178Y3613086D01*
X6668406Y3612560D01*
X6670206Y3609960D01*
X6670626Y3609554D01*
X6670882Y3609028D01*
X6672782Y3606528D01*
X6673429Y3605956D01*
X6673857Y3605206D01*
X6675858Y3602906D01*
X6676350Y3602525D01*
X6676685Y3601999D01*
X6678885Y3599699D01*
X6679363Y3599364D01*
X6679698Y3598886D01*
X6681998Y3596686D01*
X6682524Y3596351D01*
X6682906Y3595858D01*
X6685206Y3593858D01*
X6685957Y3593428D01*
X6686530Y3592781D01*
X6689031Y3590881D01*
X6689554Y3590626D01*
X6689958Y3590208D01*
X6692558Y3588408D01*
X6693084Y3588179D01*
X6693501Y3587785D01*
X6696201Y3586085D01*
X6697061Y3585756D01*
X6697771Y3585171D01*
X6700572Y3583671D01*
X6701289Y3583453D01*
X6701894Y3583011D01*
X6704694Y3581711D01*
X6705234Y3581580D01*
X6705697Y3581270D01*
X6708597Y3580070D01*
X6709126Y3579965D01*
X6709586Y3579685D01*
X6712586Y3578585D01*
X6713363Y3578464D01*
X6714057Y3578095D01*
X6717057Y3577195D01*
X6717870Y3577117D01*
X6718615Y3576780D01*
X6721615Y3576080D01*
X6722116Y3576063D01*
X6722579Y3575874D01*
X6725679Y3575274D01*
X6726503Y3575279D01*
X6727285Y3575015D01*
X6730385Y3574615D01*
X6731249Y3574674D01*
X6732085Y3574453D01*
X6735285Y3574253D01*
X6735678Y3574306D01*
X6736064Y3574216D01*
X6739164Y3574116D01*
X6740000Y3574254D01*
X6740835Y3574116D01*
X6743935Y3574216D01*
X6744321Y3574306D01*
X6744714Y3574253D01*
X6747915Y3574453D01*
X6748752Y3574674D01*
X6749615Y3574615D01*
X6752714Y3575015D01*
X6753496Y3575278D01*
X6754321Y3575274D01*
X6757420Y3575874D01*
X6757884Y3576063D01*
X6758385Y3576080D01*
X6761385Y3576780D01*
X6762130Y3577117D01*
X6762943Y3577195D01*
X6765943Y3578095D01*
X6766637Y3578464D01*
X6767414Y3578585D01*
X6770414Y3579685D01*
X6770874Y3579966D01*
X6771403Y3580071D01*
X6774303Y3581271D01*
X6774765Y3581579D01*
X6775305Y3581710D01*
X6778105Y3583010D01*
X6778711Y3583453D01*
X6779428Y3583671D01*
X6782228Y3585171D01*
X6782939Y3585756D01*
X6783798Y3586085D01*
X6786498Y3587785D01*
X6786915Y3588179D01*
X6787442Y3588408D01*
X6790042Y3590208D01*
X6790447Y3590626D01*
X6790970Y3590881D01*
X6793470Y3592781D01*
X6794043Y3593428D01*
X6794793Y3593857D01*
X6797093Y3595858D01*
X6797475Y3596350D01*
X6798000Y3596685D01*
X6800301Y3598885D01*
X6800636Y3599364D01*
X6801115Y3599699D01*
X6803315Y3601999D01*
X6803649Y3602525D01*
X6804142Y3602906D01*
X6806142Y3605206D01*
X6806571Y3605957D01*
X6807218Y3606530D01*
X6809118Y3609030D01*
X6809374Y3609554D01*
X6809793Y3609959D01*
X6811593Y3612559D01*
X6811821Y3613084D01*
X6812215Y3613501D01*
X6812667Y3614219D01*
X6820000Y3616302D01*
X6827333Y3614219D01*
X6827784Y3613502D01*
X6828178Y3613085D01*
X6828407Y3612559D01*
X6830207Y3609959D01*
X6830626Y3609554D01*
X6830881Y3609030D01*
X6832781Y3606530D01*
X6833428Y3605957D01*
X6833857Y3605206D01*
X6835858Y3602906D01*
X6836350Y3602525D01*
X6836685Y3601999D01*
X6838885Y3599699D01*
X6839363Y3599364D01*
X6839699Y3598885D01*
X6841999Y3596685D01*
X6842525Y3596350D01*
X6842906Y3595858D01*
X6845206Y3593858D01*
X6845957Y3593428D01*
X6846530Y3592781D01*
X6849029Y3590881D01*
X6849553Y3590626D01*
X6849958Y3590208D01*
X6852558Y3588408D01*
X6853084Y3588179D01*
X6853501Y3587785D01*
X6856201Y3586085D01*
X6857061Y3585756D01*
X6857771Y3585171D01*
X6860571Y3583671D01*
X6861289Y3583453D01*
X6861895Y3583010D01*
X6864695Y3581710D01*
X6865235Y3581579D01*
X6865697Y3581271D01*
X6868597Y3580071D01*
X6869125Y3579966D01*
X6869586Y3579685D01*
X6872586Y3578585D01*
X6873363Y3578464D01*
X6874057Y3578095D01*
X6877057Y3577195D01*
X6877870Y3577117D01*
X6878615Y3576780D01*
X6881615Y3576080D01*
X6882116Y3576063D01*
X6882579Y3575874D01*
X6885679Y3575274D01*
X6886504Y3575278D01*
X6887285Y3575015D01*
X6890385Y3574615D01*
X6891248Y3574674D01*
X6892085Y3574453D01*
X6895285Y3574253D01*
X6895678Y3574306D01*
X6896064Y3574216D01*
X6899164Y3574116D01*
X6900000Y3574254D01*
X6900836Y3574116D01*
X6903935Y3574216D01*
X6904321Y3574306D01*
X6904714Y3574253D01*
X6907915Y3574453D01*
X6908752Y3574674D01*
X6909614Y3574615D01*
X6912714Y3575015D01*
X6913497Y3575279D01*
X6914321Y3575274D01*
X6917421Y3575874D01*
X6917884Y3576063D01*
X6918385Y3576080D01*
X6921385Y3576780D01*
X6922130Y3577117D01*
X6922943Y3577195D01*
X6925943Y3578095D01*
X6926637Y3578464D01*
X6927414Y3578585D01*
X6930414Y3579685D01*
X6930874Y3579965D01*
X6931402Y3580070D01*
X6934302Y3581270D01*
X6934765Y3581580D01*
X6935306Y3581711D01*
X6938106Y3583011D01*
X6938711Y3583453D01*
X6939428Y3583671D01*
X6942228Y3585171D01*
X6942939Y3585756D01*
X6943798Y3586085D01*
X6946498Y3587785D01*
X6946915Y3588179D01*
X6947442Y3588408D01*
X6950042Y3590208D01*
X6950446Y3590626D01*
X6950969Y3590881D01*
X6953469Y3592780D01*
X6954042Y3593428D01*
X6954794Y3593857D01*
X6957094Y3595858D01*
X6957475Y3596351D01*
X6958002Y3596686D01*
X6960302Y3598886D01*
X6960637Y3599364D01*
X6961115Y3599699D01*
X6963315Y3601999D01*
X6963649Y3602525D01*
X6964142Y3602906D01*
X6966142Y3605206D01*
X6966571Y3605956D01*
X6967217Y3606528D01*
X6969118Y3609028D01*
X6969374Y3609554D01*
X6969794Y3609960D01*
X6971594Y3612560D01*
X6971821Y3613085D01*
X6972215Y3613501D01*
X6973915Y3616202D01*
X6974244Y3617060D01*
X6974827Y3617769D01*
X6976327Y3620569D01*
X6976546Y3621288D01*
X6976990Y3621895D01*
X6978290Y3624695D01*
X6978421Y3625235D01*
X6978730Y3625698D01*
X6979930Y3628599D01*
X6980035Y3629126D01*
X6980314Y3629584D01*
X6981414Y3632584D01*
X6981536Y3633363D01*
X6981906Y3634059D01*
X6982805Y3637059D01*
X6982883Y3637872D01*
X6983220Y3638615D01*
X6983920Y3641615D01*
X6983937Y3642116D01*
X6984126Y3642579D01*
X6984726Y3645680D01*
X6984721Y3646504D01*
X6984985Y3647286D01*
X6985385Y3650386D01*
X6985326Y3651249D01*
X6985547Y3652085D01*
X6985747Y3655285D01*
X6985694Y3655678D01*
X6985784Y3656065D01*
X6985884Y3659164D01*
X6985815Y3659583D01*
X6985897Y3660000D01*
Y3720000D01*
X6985815Y3720416D01*
X6985884Y3720836D01*
X6985784Y3723936D01*
X6985694Y3724322D01*
X6985747Y3724715D01*
X6985547Y3727915D01*
X6985326Y3728752D01*
X6985384Y3729614D01*
X6984985Y3732714D01*
X6984721Y3733496D01*
X6984726Y3734321D01*
X6984126Y3737421D01*
X6983937Y3737884D01*
X6983920Y3738385D01*
X6983220Y3741385D01*
X6982883Y3742128D01*
X6982805Y3742941D01*
X6981906Y3745941D01*
X6981536Y3746637D01*
X6981414Y3747416D01*
X6980314Y3750416D01*
X6980035Y3750874D01*
X6979930Y3751401D01*
X6978730Y3754301D01*
X6978421Y3754764D01*
X6978290Y3755305D01*
X6976990Y3758105D01*
X6976546Y3758712D01*
X6976327Y3759431D01*
X6974827Y3762230D01*
X6974244Y3762940D01*
X6973915Y3763798D01*
X6972215Y3766498D01*
X6971821Y3766914D01*
X6971594Y3767440D01*
X6969794Y3770040D01*
X6969374Y3770446D01*
X6969117Y3770972D01*
X6967217Y3773471D01*
X6966571Y3774044D01*
X6966142Y3774794D01*
X6964142Y3777094D01*
X6963649Y3777475D01*
X6963315Y3778001D01*
X6961115Y3780301D01*
X6960637Y3780636D01*
X6960302Y3781114D01*
X6958002Y3783314D01*
X6957475Y3783649D01*
X6957094Y3784142D01*
X6954794Y3786142D01*
X6954042Y3786572D01*
X6953469Y3787219D01*
X6950969Y3789119D01*
X6950446Y3789374D01*
X6950042Y3789792D01*
X6947442Y3791592D01*
X6946915Y3791821D01*
X6946499Y3792215D01*
X6943798Y3793915D01*
X6942939Y3794244D01*
X6942228Y3794829D01*
X6939428Y3796329D01*
X6938711Y3796547D01*
X6938106Y3796989D01*
X6935306Y3798289D01*
X6934765Y3798420D01*
X6934302Y3798730D01*
X6931402Y3799930D01*
X6930874Y3800035D01*
X6930414Y3800315D01*
X6927414Y3801415D01*
X6926637Y3801536D01*
X6925943Y3801905D01*
X6922943Y3802805D01*
X6922129Y3802883D01*
X6921385Y3803220D01*
X6918385Y3803920D01*
X6917884Y3803937D01*
X6917421Y3804126D01*
X6914321Y3804726D01*
X6913497Y3804721D01*
X6912714Y3804985D01*
X6909614Y3805385D01*
X6908751Y3805326D01*
X6907915Y3805547D01*
X6904714Y3805747D01*
X6904321Y3805694D01*
X6903935Y3805784D01*
X6900836Y3805884D01*
D02*
G37*
G36*
X6820835Y3545884D02*
X6820000Y3545746D01*
X6819164Y3545884D01*
X6816064Y3545784D01*
X6815678Y3545694D01*
X6815285Y3545747D01*
X6812085Y3545547D01*
X6811248Y3545326D01*
X6810385Y3545385D01*
X6807285Y3544985D01*
X6806504Y3544722D01*
X6805679Y3544726D01*
X6802579Y3544126D01*
X6802115Y3543937D01*
X6801615Y3543920D01*
X6798615Y3543220D01*
X6797870Y3542883D01*
X6797057Y3542805D01*
X6794057Y3541905D01*
X6793363Y3541536D01*
X6792586Y3541415D01*
X6789586Y3540315D01*
X6789125Y3540034D01*
X6788597Y3539929D01*
X6785697Y3538729D01*
X6785235Y3538421D01*
X6784695Y3538290D01*
X6781894Y3536990D01*
X6781288Y3536547D01*
X6780571Y3536328D01*
X6777771Y3534828D01*
X6777061Y3534244D01*
X6776201Y3533915D01*
X6773501Y3532215D01*
X6773085Y3531821D01*
X6772558Y3531592D01*
X6769958Y3529792D01*
X6769554Y3529374D01*
X6769031Y3529119D01*
X6766531Y3527220D01*
X6765957Y3526572D01*
X6765206Y3526143D01*
X6762906Y3524142D01*
X6762524Y3523649D01*
X6761998Y3523314D01*
X6759698Y3521114D01*
X6759363Y3520636D01*
X6758886Y3520302D01*
X6756686Y3518002D01*
X6756351Y3517475D01*
X6755857Y3517094D01*
X6753857Y3514794D01*
X6753428Y3514043D01*
X6752781Y3513470D01*
X6750881Y3510970D01*
X6750625Y3510445D01*
X6750206Y3510040D01*
X6748406Y3507440D01*
X6748179Y3506914D01*
X6747785Y3506499D01*
X6747333Y3505781D01*
X6740000Y3503699D01*
X6732667Y3505781D01*
X6732215Y3506498D01*
X6731821Y3506914D01*
X6731594Y3507440D01*
X6729794Y3510040D01*
X6729374Y3510446D01*
X6729117Y3510972D01*
X6727217Y3513472D01*
X6726571Y3514044D01*
X6726142Y3514794D01*
X6724142Y3517094D01*
X6723649Y3517475D01*
X6723315Y3518001D01*
X6721115Y3520301D01*
X6720637Y3520636D01*
X6720302Y3521114D01*
X6718002Y3523314D01*
X6717475Y3523649D01*
X6717094Y3524142D01*
X6714794Y3526142D01*
X6714042Y3526572D01*
X6713469Y3527219D01*
X6710969Y3529119D01*
X6710446Y3529374D01*
X6710042Y3529792D01*
X6707442Y3531592D01*
X6706915Y3531821D01*
X6706499Y3532215D01*
X6703798Y3533915D01*
X6702939Y3534244D01*
X6702228Y3534829D01*
X6699428Y3536329D01*
X6698711Y3536547D01*
X6698106Y3536989D01*
X6695306Y3538289D01*
X6694765Y3538420D01*
X6694302Y3538730D01*
X6691402Y3539930D01*
X6690874Y3540035D01*
X6690414Y3540315D01*
X6687414Y3541415D01*
X6686637Y3541536D01*
X6685943Y3541905D01*
X6682943Y3542805D01*
X6682129Y3542883D01*
X6681385Y3543220D01*
X6678385Y3543920D01*
X6677884Y3543937D01*
X6677420Y3544126D01*
X6674321Y3544726D01*
X6673497Y3544721D01*
X6672714Y3544985D01*
X6669614Y3545385D01*
X6668751Y3545326D01*
X6667915Y3545547D01*
X6664714Y3545747D01*
X6664321Y3545694D01*
X6663935Y3545784D01*
X6660836Y3545884D01*
X6660000Y3545746D01*
X6659164Y3545884D01*
X6656064Y3545784D01*
X6655678Y3545694D01*
X6655285Y3545747D01*
X6652085Y3545547D01*
X6651248Y3545326D01*
X6650385Y3545385D01*
X6647285Y3544985D01*
X6646504Y3544722D01*
X6645679Y3544726D01*
X6642579Y3544126D01*
X6642115Y3543937D01*
X6641615Y3543920D01*
X6638615Y3543220D01*
X6637870Y3542883D01*
X6637057Y3542805D01*
X6634057Y3541905D01*
X6633363Y3541536D01*
X6632586Y3541415D01*
X6629586Y3540315D01*
X6629125Y3540034D01*
X6628597Y3539929D01*
X6625697Y3538729D01*
X6625235Y3538421D01*
X6624695Y3538290D01*
X6621895Y3536990D01*
X6621288Y3536547D01*
X6620571Y3536328D01*
X6617771Y3534828D01*
X6617061Y3534244D01*
X6616201Y3533915D01*
X6613501Y3532215D01*
X6613085Y3531821D01*
X6612559Y3531593D01*
X6609959Y3529793D01*
X6609554Y3529374D01*
X6609029Y3529119D01*
X6606530Y3527219D01*
X6605957Y3526572D01*
X6605206Y3526143D01*
X6602906Y3524142D01*
X6602525Y3523649D01*
X6601998Y3523314D01*
X6599698Y3521114D01*
X6599363Y3520636D01*
X6598886Y3520302D01*
X6596686Y3518002D01*
X6596351Y3517475D01*
X6595858Y3517094D01*
X6593858Y3514794D01*
X6593428Y3514043D01*
X6592781Y3513470D01*
X6590881Y3510970D01*
X6590626Y3510446D01*
X6590207Y3510041D01*
X6588407Y3507441D01*
X6588179Y3506916D01*
X6587784Y3506499D01*
X6586084Y3503798D01*
X6585755Y3502939D01*
X6585171Y3502229D01*
X6583672Y3499429D01*
X6583453Y3498712D01*
X6583010Y3498105D01*
X6581710Y3495305D01*
X6581579Y3494765D01*
X6581271Y3494303D01*
X6580070Y3491403D01*
X6579966Y3490875D01*
X6579685Y3490414D01*
X6578585Y3487414D01*
X6578463Y3486637D01*
X6578095Y3485943D01*
X6577195Y3482943D01*
X6577117Y3482130D01*
X6576780Y3481385D01*
X6576080Y3478385D01*
X6576063Y3477884D01*
X6575874Y3477421D01*
X6575274Y3474320D01*
X6575278Y3473496D01*
X6575015Y3472714D01*
X6574615Y3469614D01*
X6574674Y3468751D01*
X6574452Y3467915D01*
X6574253Y3464715D01*
X6574306Y3464321D01*
X6574216Y3463935D01*
X6574116Y3460836D01*
X6574185Y3460416D01*
X6574102Y3460000D01*
Y3400000D01*
X6574185Y3399583D01*
X6574116Y3399164D01*
X6574216Y3396064D01*
X6574306Y3395678D01*
X6574253Y3395285D01*
X6574452Y3392085D01*
X6574674Y3391248D01*
X6574615Y3390386D01*
X6575015Y3387286D01*
X6575278Y3386504D01*
X6575274Y3385679D01*
X6575874Y3382579D01*
X6576063Y3382116D01*
X6576080Y3381615D01*
X6576780Y3378615D01*
X6577117Y3377870D01*
X6577195Y3377057D01*
X6578095Y3374057D01*
X6578463Y3373363D01*
X6578585Y3372586D01*
X6579685Y3369586D01*
X6579966Y3369126D01*
X6580070Y3368597D01*
X6581271Y3365697D01*
X6581579Y3365235D01*
X6581710Y3364695D01*
X6583010Y3361895D01*
X6583453Y3361288D01*
X6583672Y3360571D01*
X6585171Y3357771D01*
X6585755Y3357061D01*
X6586084Y3356202D01*
X6587784Y3353502D01*
X6588178Y3353085D01*
X6588407Y3352559D01*
X6590207Y3349959D01*
X6590626Y3349554D01*
X6590881Y3349030D01*
X6592781Y3346530D01*
X6593428Y3345957D01*
X6593857Y3345206D01*
X6595858Y3342906D01*
X6596351Y3342525D01*
X6596686Y3341998D01*
X6598886Y3339698D01*
X6599363Y3339364D01*
X6599698Y3338886D01*
X6601998Y3336686D01*
X6602525Y3336351D01*
X6602906Y3335858D01*
X6605206Y3333858D01*
X6605957Y3333428D01*
X6606530Y3332781D01*
X6609029Y3330881D01*
X6609554Y3330626D01*
X6609959Y3330207D01*
X6612559Y3328407D01*
X6613084Y3328179D01*
X6613501Y3327785D01*
X6616201Y3326085D01*
X6617061Y3325756D01*
X6617771Y3325172D01*
X6620571Y3323672D01*
X6621288Y3323453D01*
X6621895Y3323010D01*
X6624695Y3321710D01*
X6625235Y3321579D01*
X6625697Y3321271D01*
X6628597Y3320071D01*
X6629125Y3319966D01*
X6629586Y3319685D01*
X6632586Y3318585D01*
X6633363Y3318464D01*
X6634057Y3318095D01*
X6637057Y3317195D01*
X6637870Y3317117D01*
X6638615Y3316780D01*
X6641615Y3316080D01*
X6642115Y3316063D01*
X6642579Y3315874D01*
X6645679Y3315274D01*
X6646504Y3315278D01*
X6647285Y3315015D01*
X6650385Y3314615D01*
X6651249Y3314674D01*
X6652085Y3314453D01*
X6655285Y3314253D01*
X6655678Y3314306D01*
X6656064Y3314216D01*
X6659164Y3314116D01*
X6660000Y3314254D01*
X6660836Y3314116D01*
X6663935Y3314216D01*
X6664321Y3314306D01*
X6664714Y3314253D01*
X6667915Y3314453D01*
X6668752Y3314674D01*
X6669614Y3314615D01*
X6672714Y3315015D01*
X6673497Y3315279D01*
X6674321Y3315274D01*
X6677421Y3315874D01*
X6677884Y3316063D01*
X6678385Y3316080D01*
X6681385Y3316780D01*
X6682130Y3317117D01*
X6682943Y3317195D01*
X6685943Y3318095D01*
X6686637Y3318464D01*
X6687414Y3318585D01*
X6690414Y3319685D01*
X6690874Y3319965D01*
X6691402Y3320070D01*
X6694302Y3321270D01*
X6694765Y3321580D01*
X6695306Y3321711D01*
X6698106Y3323011D01*
X6698711Y3323453D01*
X6699428Y3323671D01*
X6702228Y3325171D01*
X6702939Y3325756D01*
X6703798Y3326085D01*
X6706498Y3327785D01*
X6706915Y3328179D01*
X6707442Y3328408D01*
X6710042Y3330208D01*
X6710446Y3330626D01*
X6710969Y3330881D01*
X6713469Y3332780D01*
X6714042Y3333428D01*
X6714794Y3333857D01*
X6717094Y3335858D01*
X6717475Y3336351D01*
X6718002Y3336686D01*
X6720302Y3338886D01*
X6720637Y3339364D01*
X6721115Y3339699D01*
X6723315Y3341999D01*
X6723649Y3342525D01*
X6724142Y3342906D01*
X6726142Y3345206D01*
X6726570Y3345956D01*
X6727217Y3346528D01*
X6729118Y3349028D01*
X6729374Y3349554D01*
X6729794Y3349960D01*
X6731594Y3352560D01*
X6731821Y3353085D01*
X6732215Y3353501D01*
X6732667Y3354219D01*
X6740000Y3356301D01*
X6747333Y3354219D01*
X6747785Y3353502D01*
X6748178Y3353086D01*
X6748406Y3352560D01*
X6750206Y3349960D01*
X6750625Y3349555D01*
X6750881Y3349030D01*
X6752781Y3346530D01*
X6753428Y3345957D01*
X6753857Y3345206D01*
X6755857Y3342906D01*
X6756351Y3342525D01*
X6756686Y3341998D01*
X6758886Y3339698D01*
X6759363Y3339364D01*
X6759698Y3338886D01*
X6761998Y3336686D01*
X6762524Y3336351D01*
X6762906Y3335858D01*
X6765206Y3333858D01*
X6765957Y3333428D01*
X6766531Y3332781D01*
X6769031Y3330881D01*
X6769554Y3330626D01*
X6769958Y3330208D01*
X6772558Y3328408D01*
X6773084Y3328179D01*
X6773501Y3327785D01*
X6776201Y3326085D01*
X6777061Y3325756D01*
X6777771Y3325172D01*
X6780571Y3323672D01*
X6781288Y3323453D01*
X6781894Y3323010D01*
X6784695Y3321710D01*
X6785235Y3321579D01*
X6785697Y3321271D01*
X6788597Y3320071D01*
X6789125Y3319966D01*
X6789586Y3319685D01*
X6792586Y3318585D01*
X6793363Y3318464D01*
X6794057Y3318095D01*
X6797057Y3317195D01*
X6797870Y3317117D01*
X6798615Y3316780D01*
X6801615Y3316080D01*
X6802115Y3316063D01*
X6802579Y3315874D01*
X6805679Y3315274D01*
X6806504Y3315278D01*
X6807285Y3315015D01*
X6810385Y3314615D01*
X6811249Y3314674D01*
X6812085Y3314453D01*
X6815285Y3314253D01*
X6815678Y3314306D01*
X6816064Y3314216D01*
X6819164Y3314116D01*
X6820000Y3314254D01*
X6820835Y3314116D01*
X6823936Y3314216D01*
X6824322Y3314306D01*
X6824715Y3314253D01*
X6827914Y3314453D01*
X6828752Y3314674D01*
X6829614Y3314615D01*
X6832714Y3315015D01*
X6833496Y3315278D01*
X6834321Y3315274D01*
X6837420Y3315874D01*
X6837884Y3316063D01*
X6838385Y3316080D01*
X6841385Y3316780D01*
X6842130Y3317117D01*
X6842943Y3317195D01*
X6845943Y3318095D01*
X6846637Y3318464D01*
X6847414Y3318585D01*
X6850414Y3319685D01*
X6850874Y3319966D01*
X6851403Y3320071D01*
X6854303Y3321271D01*
X6854765Y3321579D01*
X6855305Y3321710D01*
X6858105Y3323010D01*
X6858711Y3323453D01*
X6859429Y3323672D01*
X6862229Y3325172D01*
X6862939Y3325756D01*
X6863798Y3326085D01*
X6866498Y3327785D01*
X6866915Y3328179D01*
X6867442Y3328408D01*
X6870042Y3330208D01*
X6870446Y3330626D01*
X6870969Y3330881D01*
X6873469Y3332780D01*
X6874042Y3333428D01*
X6874793Y3333857D01*
X6877093Y3335858D01*
X6877475Y3336351D01*
X6878001Y3336686D01*
X6880301Y3338886D01*
X6880636Y3339364D01*
X6881114Y3339698D01*
X6883314Y3341998D01*
X6883649Y3342525D01*
X6884142Y3342906D01*
X6886142Y3345206D01*
X6886571Y3345957D01*
X6887218Y3346530D01*
X6889119Y3349030D01*
X6889374Y3349555D01*
X6889794Y3349960D01*
X6891594Y3352560D01*
X6891821Y3353085D01*
X6892215Y3353501D01*
X6893915Y3356202D01*
X6894244Y3357060D01*
X6894827Y3357770D01*
X6896327Y3360569D01*
X6896546Y3361288D01*
X6896990Y3361895D01*
X6898289Y3364695D01*
X6898421Y3365235D01*
X6898730Y3365698D01*
X6899930Y3368599D01*
X6900034Y3369126D01*
X6900314Y3369584D01*
X6901414Y3372584D01*
X6901536Y3373363D01*
X6901905Y3374059D01*
X6902805Y3377059D01*
X6902883Y3377872D01*
X6903220Y3378615D01*
X6903920Y3381615D01*
X6903936Y3382115D01*
X6904125Y3382577D01*
X6904725Y3385678D01*
X6904721Y3386504D01*
X6904985Y3387288D01*
X6905385Y3390388D01*
X6905326Y3391249D01*
X6905547Y3392083D01*
X6905747Y3395283D01*
X6905694Y3395679D01*
X6905784Y3396067D01*
X6905884Y3399167D01*
X6905815Y3399585D01*
X6905897Y3400000D01*
Y3460000D01*
X6905814Y3460416D01*
X6905884Y3460834D01*
X6905784Y3463933D01*
X6905694Y3464321D01*
X6905747Y3464717D01*
X6905547Y3467917D01*
X6905326Y3468751D01*
X6905385Y3469612D01*
X6904985Y3472712D01*
X6904721Y3473496D01*
X6904725Y3474322D01*
X6904125Y3477423D01*
X6903936Y3477885D01*
X6903920Y3478385D01*
X6903220Y3481385D01*
X6902883Y3482128D01*
X6902805Y3482941D01*
X6901905Y3485941D01*
X6901536Y3486637D01*
X6901414Y3487416D01*
X6900314Y3490416D01*
X6900034Y3490874D01*
X6899930Y3491401D01*
X6898730Y3494301D01*
X6898421Y3494764D01*
X6898289Y3495305D01*
X6896990Y3498105D01*
X6896546Y3498712D01*
X6896327Y3499431D01*
X6894827Y3502230D01*
X6894244Y3502940D01*
X6893915Y3503798D01*
X6892215Y3506498D01*
X6891821Y3506914D01*
X6891594Y3507440D01*
X6889794Y3510040D01*
X6889374Y3510445D01*
X6889119Y3510970D01*
X6887219Y3513470D01*
X6886572Y3514043D01*
X6886142Y3514794D01*
X6884142Y3517094D01*
X6883649Y3517475D01*
X6883314Y3518002D01*
X6881114Y3520302D01*
X6880636Y3520636D01*
X6880301Y3521114D01*
X6878001Y3523314D01*
X6877475Y3523649D01*
X6877093Y3524142D01*
X6874793Y3526142D01*
X6874042Y3526572D01*
X6873469Y3527219D01*
X6870969Y3529119D01*
X6870446Y3529374D01*
X6870042Y3529792D01*
X6867442Y3531592D01*
X6866915Y3531821D01*
X6866499Y3532215D01*
X6863798Y3533915D01*
X6862939Y3534244D01*
X6862229Y3534828D01*
X6859429Y3536328D01*
X6858711Y3536547D01*
X6858105Y3536990D01*
X6855305Y3538290D01*
X6854765Y3538421D01*
X6854303Y3538729D01*
X6851403Y3539929D01*
X6850875Y3540034D01*
X6850414Y3540315D01*
X6847414Y3541415D01*
X6846637Y3541536D01*
X6845943Y3541905D01*
X6842943Y3542805D01*
X6842130Y3542883D01*
X6841385Y3543220D01*
X6838385Y3543920D01*
X6837884Y3543937D01*
X6837420Y3544126D01*
X6834320Y3544726D01*
X6833496Y3544722D01*
X6832714Y3544985D01*
X6829614Y3545385D01*
X6828751Y3545326D01*
X6827914Y3545547D01*
X6824715Y3545747D01*
X6824321Y3545694D01*
X6823935Y3545784D01*
X6820835Y3545884D01*
D02*
G37*
G36*
X7185000Y3786266D02*
X7158790Y3782816D01*
X7134367Y3772699D01*
X7113394Y3756606D01*
X7097301Y3735633D01*
X7087184Y3711210D01*
X7083734Y3685000D01*
Y3435000D01*
X7087184Y3408790D01*
X7097301Y3384367D01*
X7113394Y3363394D01*
X7134367Y3347301D01*
X7158790Y3337184D01*
X7185000Y3333734D01*
X7211210Y3337184D01*
X7235633Y3347301D01*
X7256606Y3363394D01*
X7272699Y3384367D01*
X7282816Y3408790D01*
X7286266Y3435000D01*
Y3685000D01*
X7282816Y3711210D01*
X7272699Y3735633D01*
X7256606Y3756606D01*
X7235633Y3772699D01*
X7211210Y3782816D01*
X7185000Y3786266D01*
D02*
G37*
G36*
X6455000D02*
X6428790Y3782816D01*
X6404367Y3772699D01*
X6383394Y3756606D01*
X6367301Y3735633D01*
X6357184Y3711210D01*
X6353734Y3685000D01*
Y3435000D01*
X6357184Y3408790D01*
X6367301Y3384367D01*
X6383394Y3363394D01*
X6404367Y3347301D01*
X6428790Y3337184D01*
X6455000Y3333734D01*
X6481210Y3337184D01*
X6505633Y3347301D01*
X6526606Y3363394D01*
X6542699Y3384367D01*
X6552815Y3408790D01*
X6556266Y3435000D01*
Y3685000D01*
X6552815Y3711210D01*
X6542699Y3735633D01*
X6526606Y3756606D01*
X6505633Y3772699D01*
X6481210Y3782816D01*
X6455000Y3786266D01*
D02*
G37*
G36*
X1100401Y3575400D02*
X969601D01*
Y3424600D01*
X996154D01*
Y3390400D01*
X964601D01*
Y3169600D01*
X1115401D01*
Y3390400D01*
X1073847D01*
Y3424600D01*
X1100401D01*
Y3575400D01*
D02*
G37*
G36*
X4115401Y3310399D02*
X3854601D01*
Y3119600D01*
X4115401D01*
Y3310399D01*
D02*
G37*
G36*
X5715400Y3435400D02*
X5584600D01*
Y3284600D01*
X5611154D01*
Y3255400D01*
X5584600D01*
Y3104600D01*
X5715400D01*
Y3255400D01*
X5688847D01*
Y3284600D01*
X5715400D01*
Y3309157D01*
X5726961Y3311910D01*
Y3311910D01*
X5899680D01*
Y3416050D01*
X5726961D01*
Y3416050D01*
X5715400Y3418802D01*
Y3435400D01*
D02*
G37*
G36*
X7000800Y3010800D02*
X6799200D01*
Y2976485D01*
X6765149D01*
X6765147Y2976486D01*
X6743531Y2972186D01*
X6725206Y2959941D01*
X6725205Y2959940D01*
X6690059Y2924794D01*
X6677814Y2906469D01*
X6673514Y2884853D01*
X6673515Y2884851D01*
Y1790936D01*
X6672428Y1784781D01*
X6670738Y1779710D01*
X6668779Y1776070D01*
X6666597Y1773403D01*
X6663929Y1771221D01*
X6660290Y1769262D01*
X6655220Y1767572D01*
X6649064Y1766485D01*
X6360001D01*
X6360000Y1766485D01*
X6338384Y1762185D01*
X6320059Y1749941D01*
X6320058Y1749940D01*
X6210059Y1639941D01*
X6197814Y1621616D01*
X6193514Y1600000D01*
X6193515Y1599999D01*
Y1450000D01*
X6194600Y1444543D01*
Y1438980D01*
X6196729Y1433840D01*
X6197814Y1428384D01*
X6200905Y1423758D01*
X6203034Y1418618D01*
X6206968Y1414685D01*
X6210059Y1410059D01*
X6214685Y1406967D01*
X6218618Y1403034D01*
X6223758Y1400905D01*
X6228384Y1397814D01*
X6233840Y1396729D01*
X6238980Y1394600D01*
X6244544D01*
X6250000Y1393515D01*
X6255456Y1394600D01*
X6261020D01*
X6266160Y1396729D01*
X6271616Y1397814D01*
X6276241Y1400905D01*
X6281381Y1403034D01*
X6285315Y1406967D01*
X6289941Y1410059D01*
X6293032Y1414685D01*
X6296966Y1418618D01*
X6299095Y1423758D01*
X6302186Y1428384D01*
X6303271Y1433840D01*
X6305400Y1438980D01*
Y1444543D01*
X6306485Y1450000D01*
Y1576603D01*
X6383397Y1653515D01*
X6799200D01*
Y1609200D01*
X7000800D01*
Y1810800D01*
X6799200D01*
Y1809175D01*
X6786500Y1803587D01*
X6786485Y1803600D01*
Y2848448D01*
X6786500Y2848460D01*
X6799200Y2842346D01*
Y2809200D01*
X7000800D01*
Y3010800D01*
D02*
G37*
G36*
X5025401Y2860399D02*
X4764601D01*
Y2669599D01*
X5025401D01*
Y2860399D01*
D02*
G37*
G36*
X3851020Y2945400D02*
X3828980D01*
X3808619Y2936966D01*
X3793034Y2921382D01*
X3784600Y2901020D01*
Y2878980D01*
X3793034Y2858619D01*
X3801154Y2850499D01*
Y2835399D01*
X3689601D01*
Y2684600D01*
X3820401D01*
Y2721153D01*
X3854601D01*
Y2669599D01*
X4115401D01*
Y2860399D01*
X3899133D01*
X3892078Y2870959D01*
X3895400Y2878980D01*
Y2901020D01*
X3886966Y2921382D01*
X3871382Y2936966D01*
X3851020Y2945400D01*
D02*
G37*
G36*
X6913270Y2760800D02*
X6886729D01*
X6861093Y2753930D01*
X6838107Y2740660D01*
X6819340Y2721892D01*
X6806069Y2698907D01*
X6799200Y2673270D01*
Y2646730D01*
X6806069Y2621093D01*
X6819340Y2598108D01*
X6838107Y2579340D01*
X6861093Y2566070D01*
X6886729Y2559200D01*
X6913270D01*
X6938907Y2566070D01*
X6961892Y2579340D01*
X6980660Y2598108D01*
X6993930Y2621093D01*
X7000800Y2646730D01*
Y2673270D01*
X6993930Y2698907D01*
X6980660Y2721892D01*
X6961892Y2740660D01*
X6938907Y2753930D01*
X6913270Y2760800D01*
D02*
G37*
G36*
X1800401Y3555400D02*
X1669601D01*
Y3404600D01*
X1679216D01*
Y3380400D01*
X1640301D01*
Y3341008D01*
X1500000D01*
X1495385Y3340400D01*
X1490732D01*
X1486236Y3339196D01*
X1481622Y3338588D01*
X1477322Y3336807D01*
X1472827Y3335602D01*
X1468796Y3333275D01*
X1464496Y3331494D01*
X1460804Y3328661D01*
X1456773Y3326334D01*
X1453483Y3323044D01*
X1449790Y3320210D01*
X1446957Y3316517D01*
X1443666Y3313227D01*
X1441339Y3309196D01*
X1438506Y3305504D01*
X1436725Y3301205D01*
X1434398Y3297173D01*
X1433193Y3292677D01*
X1431412Y3288378D01*
X1430805Y3283764D01*
X1429600Y3279269D01*
Y3274615D01*
X1428993Y3270000D01*
X1429600Y3265385D01*
Y3260732D01*
X1430805Y3256236D01*
X1431412Y3251622D01*
X1433193Y3247323D01*
X1434398Y3242827D01*
X1436725Y3238795D01*
X1438506Y3234496D01*
X1441339Y3230805D01*
X1443666Y3226773D01*
X1446957Y3223483D01*
X1449790Y3219790D01*
X1453483Y3216956D01*
X1456773Y3213666D01*
X1460804Y3211339D01*
X1464496Y3208506D01*
X1468796Y3206725D01*
X1472827Y3204398D01*
X1477322Y3203193D01*
X1481622Y3201412D01*
X1486236Y3200805D01*
X1490732Y3199600D01*
X1495385D01*
X1500000Y3198993D01*
X1640301D01*
Y3159600D01*
X1681513D01*
Y2833245D01*
X1672136Y2821026D01*
X1664538Y2802684D01*
X1661947Y2783000D01*
Y2633000D01*
X1664538Y2613317D01*
X1672136Y2594975D01*
X1684222Y2579224D01*
X1699972Y2567138D01*
X1718314Y2559541D01*
X1737998Y2556949D01*
X1757681Y2559541D01*
X1776023Y2567138D01*
X1791774Y2579224D01*
X1803859Y2594975D01*
X1811457Y2613317D01*
X1814048Y2633000D01*
Y2783000D01*
X1811457Y2802684D01*
X1803859Y2821026D01*
X1794483Y2833245D01*
Y3159600D01*
X1831101D01*
Y3380400D01*
X1792186D01*
Y3404600D01*
X1800401D01*
Y3555400D01*
D02*
G37*
G36*
X1305401Y3390400D02*
X1154601D01*
Y3169600D01*
X1191151D01*
Y2848232D01*
X1176222Y2836776D01*
X1164136Y2821026D01*
X1156538Y2802684D01*
X1153947Y2783000D01*
Y2633000D01*
X1156538Y2613317D01*
X1164136Y2594975D01*
X1176222Y2579224D01*
X1191972Y2567138D01*
X1210314Y2559541D01*
X1229998Y2556949D01*
X1249681Y2559541D01*
X1268023Y2567138D01*
X1283774Y2579224D01*
X1295859Y2594975D01*
X1303457Y2613317D01*
X1306048Y2633000D01*
Y2783000D01*
X1303457Y2802684D01*
X1295859Y2821026D01*
X1283774Y2836776D01*
X1268844Y2848232D01*
Y3169600D01*
X1305401D01*
Y3390400D01*
D02*
G37*
G36*
X1483998Y2859051D02*
X1464314Y2856460D01*
X1445972Y2848862D01*
X1430222Y2836776D01*
X1418136Y2821026D01*
X1410538Y2802684D01*
X1407947Y2783000D01*
Y2633000D01*
X1410538Y2613317D01*
X1418136Y2594975D01*
X1430222Y2579224D01*
X1432611Y2577391D01*
Y2530359D01*
X1424600Y2511020D01*
Y2488980D01*
X1433034Y2468619D01*
X1448619Y2453034D01*
X1468980Y2444600D01*
X1491020D01*
X1511382Y2453034D01*
X1526966Y2468619D01*
X1535400Y2488980D01*
Y2511020D01*
X1535385Y2511056D01*
Y2577391D01*
X1537774Y2579224D01*
X1549859Y2594975D01*
X1557457Y2613317D01*
X1560048Y2633000D01*
Y2783000D01*
X1557457Y2802684D01*
X1549859Y2821026D01*
X1537774Y2836776D01*
X1522023Y2848862D01*
X1503681Y2856460D01*
X1483998Y2859051D01*
D02*
G37*
G36*
X4115401Y2540400D02*
X3854601D01*
Y2349600D01*
X4115401D01*
Y2540400D01*
D02*
G37*
G36*
X6113040Y3322070D02*
X5940320D01*
Y3217930D01*
X5985123D01*
Y3075400D01*
X5904601D01*
Y2744600D01*
X5971153D01*
Y2292719D01*
X5970494Y2292338D01*
X5953663Y2275507D01*
X5941761Y2254893D01*
X5935601Y2231901D01*
Y2208098D01*
X5941761Y2185107D01*
X5953663Y2164493D01*
X5970494Y2147662D01*
X5991108Y2135761D01*
X6014099Y2129600D01*
X6037902D01*
X6060894Y2135761D01*
X6081508Y2147662D01*
X6098339Y2164493D01*
X6110240Y2185107D01*
X6116401Y2208098D01*
Y2231901D01*
X6110240Y2254893D01*
X6098339Y2275507D01*
X6081508Y2292338D01*
X6060894Y2304239D01*
X6048846Y2307467D01*
Y2744600D01*
X6085400D01*
Y3075400D01*
X6062816D01*
Y3217930D01*
X6113040D01*
Y3322070D01*
D02*
G37*
G36*
X5615400Y3075400D02*
X5434601D01*
Y2883949D01*
X5433417Y2878000D01*
X5434601Y2872050D01*
Y2853318D01*
X5427459Y2848546D01*
X5386454Y2807541D01*
X5373105Y2787562D01*
X5368417Y2763995D01*
Y2674135D01*
X5364398Y2667173D01*
X5359600Y2649269D01*
Y2630732D01*
X5364398Y2612827D01*
X5373666Y2596773D01*
X5386773Y2583666D01*
X5402827Y2574398D01*
X5420732Y2569600D01*
X5439269D01*
X5457173Y2574398D01*
X5473227Y2583666D01*
X5474454Y2584893D01*
X5487154Y2579633D01*
Y2310400D01*
X5435601D01*
Y2129600D01*
X5616401D01*
Y2310400D01*
X5564847D01*
Y2744600D01*
X5615400D01*
Y3075400D01*
D02*
G37*
G36*
X4115401Y2090399D02*
X3854601D01*
Y2033846D01*
X3820401D01*
Y2065399D01*
X3689601D01*
Y1914600D01*
X3771258D01*
X3777944Y1901900D01*
X3775848Y1898847D01*
X2533996D01*
X2519130Y1895890D01*
X2506527Y1887469D01*
X1964529Y1345471D01*
X1956108Y1332868D01*
X1953151Y1318002D01*
Y1298232D01*
X1938222Y1286776D01*
X1926136Y1271026D01*
X1918538Y1252684D01*
X1915947Y1233000D01*
Y1083000D01*
X1918538Y1063317D01*
X1926136Y1044975D01*
X1938222Y1029224D01*
X1953972Y1017138D01*
X1972314Y1009541D01*
X1991998Y1006949D01*
X2011681Y1009541D01*
X2030023Y1017138D01*
X2045774Y1029224D01*
X2057859Y1044975D01*
X2065457Y1063317D01*
X2068048Y1083000D01*
Y1233000D01*
X2065457Y1252684D01*
X2057859Y1271026D01*
X2045774Y1286776D01*
X2038479Y1292374D01*
X2037522Y1308590D01*
X2550086Y1821154D01*
X3800000D01*
X3814866Y1824111D01*
X3827469Y1832532D01*
X3867469Y1872531D01*
X3875890Y1885134D01*
X3878767Y1899600D01*
X4115401D01*
Y2090399D01*
D02*
G37*
G36*
X6913270Y1560800D02*
X6886729D01*
X6861093Y1553930D01*
X6838107Y1540660D01*
X6819340Y1521892D01*
X6806069Y1498907D01*
X6799200Y1473270D01*
Y1446729D01*
X6806069Y1421093D01*
X6819340Y1398107D01*
X6838107Y1379340D01*
X6861093Y1366069D01*
X6886729Y1359200D01*
X6913270D01*
X6938907Y1366069D01*
X6961892Y1379340D01*
X6980660Y1398107D01*
X6993930Y1421093D01*
X7000800Y1446729D01*
Y1473270D01*
X6993930Y1498907D01*
X6980660Y1521892D01*
X6961892Y1540660D01*
X6938907Y1553930D01*
X6913270Y1560800D01*
D02*
G37*
G36*
X2245998Y1309051D02*
X2226314Y1306460D01*
X2207972Y1298862D01*
X2192222Y1286776D01*
X2180136Y1271026D01*
X2172538Y1252684D01*
X2169947Y1233000D01*
Y1083000D01*
X2172538Y1063317D01*
X2180136Y1044975D01*
X2192222Y1029224D01*
X2207972Y1017138D01*
X2226314Y1009541D01*
X2245998Y1006949D01*
X2265681Y1009541D01*
X2284023Y1017138D01*
X2299774Y1029224D01*
X2311859Y1044975D01*
X2319457Y1063317D01*
X2322048Y1083000D01*
Y1233000D01*
X2319457Y1252684D01*
X2311859Y1271026D01*
X2299774Y1286776D01*
X2284023Y1298862D01*
X2265681Y1306460D01*
X2245998Y1309051D01*
D02*
G37*
G36*
X1737998D02*
X1718314Y1306460D01*
X1699972Y1298862D01*
X1684222Y1286776D01*
X1672136Y1271026D01*
X1664538Y1252684D01*
X1661947Y1233000D01*
Y1083000D01*
X1664538Y1063317D01*
X1672136Y1044975D01*
X1684222Y1029224D01*
X1699972Y1017138D01*
X1718314Y1009541D01*
X1737998Y1006949D01*
X1757681Y1009541D01*
X1776023Y1017138D01*
X1791774Y1029224D01*
X1803859Y1044975D01*
X1811457Y1063317D01*
X1814048Y1083000D01*
Y1233000D01*
X1811457Y1252684D01*
X1803859Y1271026D01*
X1791774Y1286776D01*
X1776023Y1298862D01*
X1757681Y1306460D01*
X1737998Y1309051D01*
D02*
G37*
G36*
X1483998D02*
X1464314Y1306460D01*
X1445972Y1298862D01*
X1430222Y1286776D01*
X1418136Y1271026D01*
X1410538Y1252684D01*
X1407947Y1233000D01*
Y1083000D01*
X1410538Y1063317D01*
X1418136Y1044975D01*
X1430222Y1029224D01*
X1445972Y1017138D01*
X1464314Y1009541D01*
X1483998Y1006949D01*
X1503681Y1009541D01*
X1522023Y1017138D01*
X1537774Y1029224D01*
X1549859Y1044975D01*
X1557457Y1063317D01*
X1560048Y1083000D01*
Y1233000D01*
X1557457Y1252684D01*
X1549859Y1271026D01*
X1537774Y1286776D01*
X1522023Y1298862D01*
X1503681Y1306460D01*
X1483998Y1309051D01*
D02*
G37*
G36*
X1229998D02*
X1210314Y1306460D01*
X1191972Y1298862D01*
X1176222Y1286776D01*
X1164136Y1271026D01*
X1156538Y1252684D01*
X1153947Y1233000D01*
Y1083000D01*
X1156538Y1063317D01*
X1164136Y1044975D01*
X1176222Y1029224D01*
X1191972Y1017138D01*
X1210314Y1009541D01*
X1229998Y1006949D01*
X1249681Y1009541D01*
X1268023Y1017138D01*
X1283774Y1029224D01*
X1295859Y1044975D01*
X1303457Y1063317D01*
X1306048Y1083000D01*
Y1233000D01*
X1303457Y1252684D01*
X1295859Y1271026D01*
X1283774Y1286776D01*
X1268023Y1298862D01*
X1249681Y1306460D01*
X1229998Y1309051D01*
D02*
G37*
G36*
X4580400Y1235400D02*
X4449600D01*
Y1121770D01*
X4448929Y1121221D01*
X4445290Y1119262D01*
X4440220Y1117572D01*
X4434064Y1116485D01*
X4350000D01*
X4344544Y1115400D01*
X4338980D01*
X4333840Y1113271D01*
X4328384Y1112185D01*
X4323758Y1109095D01*
X4318618Y1106966D01*
X4314685Y1103032D01*
X4310059Y1099941D01*
X4306968Y1095315D01*
X4303034Y1091381D01*
X4300905Y1086241D01*
X4297814Y1081616D01*
X4296729Y1076160D01*
X4294600Y1071020D01*
Y1065456D01*
X4293515Y1060000D01*
X4294600Y1054543D01*
Y1048980D01*
X4296729Y1043840D01*
X4297814Y1038384D01*
X4300905Y1033758D01*
X4303034Y1028618D01*
X4306968Y1024685D01*
X4310059Y1020059D01*
X4314685Y1016967D01*
X4318618Y1013034D01*
X4323758Y1010905D01*
X4328384Y1007814D01*
X4333840Y1006729D01*
X4338980Y1004600D01*
X4344544D01*
X4350000Y1003515D01*
X4434064D01*
X4440219Y1002428D01*
X4445290Y1000738D01*
X4448930Y998779D01*
X4449600Y998230D01*
Y884600D01*
X4580400D01*
Y1035400D01*
X4571485D01*
Y1084600D01*
X4580400D01*
Y1235400D01*
D02*
G37*
G36*
X6003876Y1085400D02*
X5976124D01*
X5949317Y1078217D01*
X5925283Y1064341D01*
X5905659Y1044717D01*
X5891783Y1020683D01*
X5884600Y993876D01*
Y966124D01*
X5891783Y939317D01*
X5905659Y915283D01*
X5925283Y895659D01*
X5949317Y881783D01*
X5976124Y874600D01*
X6003876D01*
X6030683Y881783D01*
X6054717Y895659D01*
X6074341Y915283D01*
X6088217Y939317D01*
X6095400Y966124D01*
Y993876D01*
X6088217Y1020683D01*
X6074341Y1044717D01*
X6054717Y1064341D01*
X6030683Y1078217D01*
X6003876Y1085400D01*
D02*
G37*
G36*
X5003876D02*
X4976124D01*
X4949317Y1078217D01*
X4925283Y1064341D01*
X4905659Y1044717D01*
X4891783Y1020683D01*
X4884600Y993876D01*
Y966124D01*
X4891783Y939317D01*
X4905659Y915283D01*
X4925283Y895659D01*
X4949317Y881783D01*
X4976124Y874600D01*
X5003876D01*
X5030683Y881783D01*
X5054717Y895659D01*
X5074341Y915283D01*
X5088217Y939317D01*
X5095400Y966124D01*
Y993876D01*
X5088217Y1020683D01*
X5074341Y1044717D01*
X5054717Y1064341D01*
X5030683Y1078217D01*
X5003876Y1085400D01*
D02*
G37*
G36*
X6300400Y615400D02*
X6099600D01*
Y364600D01*
X6300400D01*
Y615400D01*
D02*
G37*
G36*
X4880400D02*
X4679600D01*
Y364600D01*
X4880400D01*
Y615400D01*
D02*
G37*
G36*
X7011675Y675400D02*
X6968325D01*
X6925510Y668619D01*
X6884283Y655223D01*
X6845659Y635543D01*
X6810589Y610063D01*
X6779937Y579411D01*
X6754457Y544341D01*
X6734777Y505717D01*
X6721381Y464490D01*
X6714600Y421675D01*
Y378325D01*
X6721381Y335510D01*
X6734777Y294283D01*
X6754457Y255659D01*
X6779937Y220589D01*
X6810589Y189937D01*
X6845659Y164457D01*
X6884283Y144777D01*
X6925510Y131381D01*
X6968325Y124600D01*
X7011675D01*
X7054490Y131381D01*
X7095717Y144777D01*
X7134341Y164457D01*
X7169411Y189937D01*
X7200063Y220589D01*
X7225543Y255659D01*
X7245223Y294283D01*
X7258619Y335510D01*
X7265400Y378325D01*
Y421675D01*
X7258619Y464490D01*
X7245223Y505717D01*
X7225543Y544341D01*
X7200063Y579411D01*
X7169411Y610063D01*
X7134341Y635543D01*
X7095717Y655223D01*
X7054490Y668619D01*
X7011675Y675400D01*
D02*
G37*
G36*
X411675D02*
X368325D01*
X325510Y668619D01*
X284283Y655223D01*
X245659Y635543D01*
X210589Y610063D01*
X179937Y579411D01*
X154457Y544341D01*
X134777Y505717D01*
X121381Y464490D01*
X114600Y421675D01*
Y378325D01*
X121381Y335510D01*
X134777Y294283D01*
X154457Y255659D01*
X179937Y220589D01*
X210589Y189937D01*
X245659Y164457D01*
X284283Y144777D01*
X325510Y131381D01*
X368325Y124600D01*
X411675D01*
X454490Y131381D01*
X495717Y144777D01*
X534341Y164457D01*
X569411Y189937D01*
X600063Y220589D01*
X625543Y255659D01*
X645223Y294283D01*
X658619Y335510D01*
X665400Y378325D01*
Y421675D01*
X658619Y464490D01*
X645223Y505717D01*
X625543Y544341D01*
X600063Y579411D01*
X569411Y610063D01*
X534341Y635543D01*
X495717Y655223D01*
X454490Y668619D01*
X411675Y675400D01*
D02*
G37*
%LPD*%
G36*
X6890601Y6538601D02*
X6892401Y6528401D01*
X6895401Y6519401D01*
X6899601Y6511601D01*
X6905001Y6505001D01*
X6911601Y6499601D01*
X6919401Y6495401D01*
X6928401Y6492401D01*
X6938601Y6490601D01*
X6950001Y6490001D01*
X6950001Y6430001D01*
X6950000D01*
Y6430001D01*
X6938600Y6429400D01*
X6928400Y6427600D01*
X6919400Y6424600D01*
X6911600Y6420400D01*
X6905000Y6415001D01*
X6899601Y6408401D01*
X6895401Y6400601D01*
X6892401Y6391601D01*
X6890601Y6381402D01*
X6890001Y6370001D01*
X6890000Y6370003D01*
X6890000Y6370000D01*
X6830000Y6460000D01*
X6890000Y6550000D01*
Y6549998D01*
X6890001Y6550001D01*
X6890601Y6538601D01*
D02*
G37*
G36*
X5410000Y6190000D02*
X5398600Y6189600D01*
X5388400Y6188400D01*
X5379400Y6186400D01*
X5371600Y6183600D01*
X5365000Y6180000D01*
X5359600Y6175600D01*
X5355400Y6170400D01*
X5352400Y6164400D01*
X5350600Y6157600D01*
X5350121Y6151530D01*
X5350000Y6137639D01*
X5310000D01*
X5309668Y6154209D01*
X5309400Y6157600D01*
X5307600Y6164400D01*
X5304600Y6170400D01*
X5300400Y6175600D01*
X5295000Y6180000D01*
X5288400Y6183600D01*
X5280600Y6186400D01*
X5271600Y6188400D01*
X5261400Y6189600D01*
X5250000Y6190000D01*
X5330000Y6250000D01*
X5410000Y6190000D01*
D02*
G37*
G36*
X5925044Y6197030D02*
X5923985Y6194214D01*
X5923051Y6190351D01*
X5922242Y6185443D01*
X5920997Y6172487D01*
X5920063Y6145206D01*
X5920000Y6134019D01*
X5890000D01*
X5889938Y6145206D01*
X5886949Y6190351D01*
X5886015Y6194214D01*
X5884957Y6197030D01*
X5883774Y6198800D01*
X5926227D01*
X5925044Y6197030D01*
D02*
G37*
G36*
X4945044D02*
X4943985Y6194214D01*
X4943051Y6190351D01*
X4942242Y6185443D01*
X4940996Y6172487D01*
X4940063Y6145206D01*
X4940000Y6134019D01*
X4910000D01*
X4909938Y6145206D01*
X4906949Y6190351D01*
X4906015Y6194214D01*
X4904957Y6197030D01*
X4903774Y6198800D01*
X4946227D01*
X4945044Y6197030D01*
D02*
G37*
G36*
X4375000Y6190000D02*
X4363600Y6189700D01*
X4353400Y6188800D01*
X4344400Y6187300D01*
X4336600Y6185200D01*
X4330000Y6182500D01*
X4324600Y6179200D01*
X4320400Y6175300D01*
X4317400Y6170800D01*
X4315782Y6166214D01*
X4315062Y6145206D01*
X4315000Y6134019D01*
X4285000D01*
X4284938Y6145206D01*
X4283392Y6168557D01*
X4282600Y6170800D01*
X4279600Y6175300D01*
X4275400Y6179200D01*
X4270000Y6182500D01*
X4263400Y6185200D01*
X4255600Y6187300D01*
X4246600Y6188800D01*
X4236400Y6189700D01*
X4225000Y6190000D01*
X4300000Y6250000D01*
X4375000Y6190000D01*
D02*
G37*
G36*
X4215044Y6197030D02*
X4213986Y6194214D01*
X4213052Y6190351D01*
X4212243Y6185443D01*
X4210997Y6172487D01*
X4210063Y6145206D01*
X4210001Y6134019D01*
X4180001D01*
X4179939Y6145206D01*
X4176950Y6190351D01*
X4176016Y6194214D01*
X4174958Y6197030D01*
X4173775Y6198800D01*
X4216227D01*
X4215044Y6197030D01*
D02*
G37*
G36*
X6890000Y6220000D02*
X6830000Y6130000D01*
X6829400Y6141400D01*
X6827600Y6151600D01*
X6824600Y6160600D01*
X6820400Y6168400D01*
X6815000Y6175000D01*
X6808400Y6180400D01*
X6800600Y6184600D01*
X6791600Y6187600D01*
X6781400Y6189400D01*
X6770000Y6190000D01*
Y6250000D01*
X6781400Y6250600D01*
X6791600Y6252400D01*
X6800600Y6255400D01*
X6808400Y6259600D01*
X6815000Y6265000D01*
X6820400Y6271600D01*
X6824600Y6279400D01*
X6827600Y6288400D01*
X6829400Y6298600D01*
X6830000Y6310000D01*
X6890000Y6220000D01*
D02*
G37*
G36*
X6440000Y6190000D02*
X6428600Y6189400D01*
X6418400Y6187600D01*
X6409400Y6184600D01*
X6401600Y6180400D01*
X6395000Y6175000D01*
X6389600Y6168400D01*
X6385400Y6160600D01*
X6382400Y6151600D01*
X6380600Y6141400D01*
X6380000Y6130000D01*
X6320000D01*
X6319400Y6141400D01*
X6317600Y6151600D01*
X6314600Y6160600D01*
X6310400Y6168400D01*
X6305000Y6175000D01*
X6298400Y6180400D01*
X6290600Y6184600D01*
X6281600Y6187600D01*
X6271400Y6189400D01*
X6260000Y6190000D01*
X6350000Y6250000D01*
X6440000Y6190000D01*
D02*
G37*
G36*
X3420000D02*
X3408600Y6189400D01*
X3398400Y6187600D01*
X3389400Y6184600D01*
X3381600Y6180400D01*
X3375000Y6175000D01*
X3369600Y6168400D01*
X3365400Y6160600D01*
X3362400Y6151600D01*
X3360600Y6141400D01*
X3360000Y6130000D01*
X3300000D01*
X3299400Y6141400D01*
X3297600Y6151600D01*
X3294600Y6160600D01*
X3290400Y6168400D01*
X3285000Y6175000D01*
X3278400Y6180400D01*
X3270600Y6184600D01*
X3261600Y6187600D01*
X3251400Y6189400D01*
X3240000Y6190000D01*
X3330000Y6250000D01*
X3420000Y6190000D01*
D02*
G37*
G36*
X4153810Y6147850D02*
Y6125400D01*
X4129601D01*
Y5996093D01*
X4110401D01*
Y6125400D01*
X3979601D01*
Y6086093D01*
X3970000D01*
X3956188Y6083346D01*
X3944478Y6075522D01*
X3814478Y5945522D01*
X3811547Y5941135D01*
X3798847Y5944987D01*
Y6030000D01*
X3795890Y6044866D01*
X3787469Y6057468D01*
X3767468Y6077469D01*
X3754866Y6085890D01*
X3740401Y6088767D01*
Y6125400D01*
X3609601D01*
Y5974600D01*
X3721154D01*
Y5733787D01*
X3708453Y5728179D01*
X3691020Y5735400D01*
X3668980D01*
X3648619Y5726966D01*
X3633034Y5711382D01*
X3626886Y5696538D01*
X3612867Y5692597D01*
X3581486Y5723978D01*
Y5794600D01*
X3590400D01*
Y5945400D01*
X3459601D01*
Y5926485D01*
X3413397D01*
X3386485Y5953398D01*
Y6139064D01*
X3387572Y6145219D01*
X3389262Y6150290D01*
X3391221Y6153930D01*
X3393403Y6156597D01*
X3396071Y6158779D01*
X3399710Y6160738D01*
X3404780Y6162428D01*
X3410936Y6163515D01*
X4152772D01*
X4153810Y6147850D01*
D02*
G37*
G36*
X4708284Y5974142D02*
X4705739Y5971314D01*
X4703759Y5968485D01*
X4702345Y5965657D01*
X4701496Y5962829D01*
X4701213Y5960000D01*
X4701496Y5957171D01*
X4702345Y5954343D01*
X4703759Y5951515D01*
X4705739Y5948686D01*
X4708284Y5945858D01*
X4690000Y5935858D01*
X4687113Y5938545D01*
X4684109Y5940949D01*
X4680988Y5943070D01*
X4677749Y5944909D01*
X4674394Y5946465D01*
X4670921Y5947737D01*
X4667331Y5948727D01*
X4663624Y5949434D01*
X4659800Y5949859D01*
X4655858Y5950000D01*
Y5970000D01*
X4659800Y5970141D01*
X4663624Y5970566D01*
X4667331Y5971273D01*
X4670921Y5972263D01*
X4674394Y5973535D01*
X4677749Y5975091D01*
X4680988Y5976930D01*
X4684109Y5979051D01*
X4687113Y5981455D01*
X4690000Y5984142D01*
X4708284Y5974142D01*
D02*
G37*
G36*
X4592859Y5911207D02*
X4583034Y5901381D01*
X4574600Y5881020D01*
Y5858980D01*
X4583034Y5838619D01*
X4577598Y5826094D01*
X4348335D01*
X4343474Y5837827D01*
X4344266Y5838618D01*
X4352700Y5858980D01*
Y5881020D01*
X4344266Y5901381D01*
X4334441Y5911207D01*
X4339702Y5923907D01*
X4587599D01*
X4592859Y5911207D01*
D02*
G37*
G36*
X4640200Y5816200D02*
X4640800Y5812800D01*
X4641800Y5809800D01*
X4643200Y5807200D01*
X4645000Y5805000D01*
X4647200Y5803200D01*
X4649800Y5801800D01*
X4652800Y5800800D01*
X4656200Y5800200D01*
X4660000Y5800000D01*
X4630000Y5780000D01*
X4600000Y5800000D01*
X4603800Y5800200D01*
X4607200Y5800800D01*
X4610200Y5801800D01*
X4612800Y5803200D01*
X4615000Y5805000D01*
X4616800Y5807200D01*
X4618200Y5809800D01*
X4619200Y5812800D01*
X4619800Y5816200D01*
X4620000Y5820000D01*
X4640000D01*
X4640200Y5816200D01*
D02*
G37*
G36*
X4883809Y6147850D02*
Y6035400D01*
X4859600D01*
Y5884600D01*
X4901891D01*
X4903223Y5877903D01*
X4911047Y5866194D01*
X4925951Y5851290D01*
Y5783054D01*
X4913892Y5777153D01*
X4731044Y5960000D01*
X4765644Y5994600D01*
X4781020D01*
X4801382Y6003034D01*
X4816966Y6018619D01*
X4825400Y6038980D01*
Y6061020D01*
X4816966Y6081382D01*
X4801382Y6096966D01*
X4781020Y6105400D01*
X4758980D01*
X4738619Y6096966D01*
X4723034Y6081382D01*
X4714600Y6061020D01*
Y6045644D01*
X4669428Y6000472D01*
X4668716Y5999902D01*
X4667294Y5998936D01*
X4665890Y5998138D01*
X4664474Y5997482D01*
X4663011Y5996946D01*
X4661452Y5996516D01*
X4659764Y5996194D01*
X4658858Y5996093D01*
X4339702D01*
X4334441Y6008793D01*
X4344266Y6018619D01*
X4352700Y6038980D01*
Y6061020D01*
X4344266Y6081382D01*
X4341191Y6084456D01*
Y6151531D01*
X4341452Y6159148D01*
X4341730Y6159318D01*
X4344901Y6160615D01*
X4349907Y6161963D01*
X4356675Y6163091D01*
X4361477Y6163515D01*
X4882772D01*
X4883809Y6147850D01*
D02*
G37*
G36*
X5863809D02*
Y6075400D01*
X5839600D01*
Y5975644D01*
X5824179Y5960223D01*
X5816355Y5948513D01*
X5813607Y5934701D01*
Y5924600D01*
X5806801D01*
Y5814801D01*
X5868688D01*
X5868854Y5813962D01*
X5876678Y5802252D01*
X5890137Y5788793D01*
X5884877Y5776093D01*
X5784427D01*
X5784426Y5776094D01*
X5775800Y5774378D01*
X5763100Y5782437D01*
Y5796100D01*
X5653301D01*
Y5792047D01*
X5488847D01*
Y5830499D01*
X5496966Y5838618D01*
X5505400Y5858980D01*
Y5881020D01*
X5496966Y5901381D01*
X5481381Y5916966D01*
X5461020Y5925400D01*
X5438980D01*
X5418619Y5916966D01*
X5403034Y5901381D01*
X5394600Y5881020D01*
Y5858980D01*
X5403034Y5838618D01*
X5411154Y5830499D01*
Y5753201D01*
Y5356091D01*
X5063909Y5008846D01*
X4930000D01*
X4915134Y5005889D01*
X4902531Y4997469D01*
X4887533Y4982470D01*
X4879112Y4969867D01*
X4876234Y4955400D01*
X4849601D01*
Y4941929D01*
X4837868Y4937069D01*
X4792468Y4982469D01*
X4782216Y4989319D01*
X4778134Y5003197D01*
X4819537Y5044600D01*
X4831020D01*
X4851381Y5053034D01*
X4866966Y5068619D01*
X4875400Y5088980D01*
Y5111020D01*
X4870893Y5121900D01*
X4879379Y5134600D01*
X4980401D01*
Y5285400D01*
X4978330D01*
Y5306747D01*
X4973642Y5330313D01*
X4968134Y5338557D01*
Y5362671D01*
X4979174Y5373711D01*
X5239999D01*
X5240000Y5373710D01*
X5257714Y5377234D01*
X5272732Y5387268D01*
X5362731Y5477268D01*
X5362732Y5477268D01*
X5372766Y5492286D01*
X5376290Y5510000D01*
X5376289Y5510001D01*
Y5820000D01*
Y6153445D01*
X5376754Y6155200D01*
X5377309Y6156310D01*
X5378051Y6157228D01*
X5379503Y6158412D01*
X5382238Y6159903D01*
X5386613Y6161474D01*
X5392732Y6162833D01*
X5398523Y6163515D01*
X5862772D01*
X5863809Y6147850D01*
D02*
G37*
G36*
X5350000Y5820000D02*
X5310000Y5760000D01*
X5309600Y5767600D01*
X5308400Y5774400D01*
X5306400Y5780400D01*
X5303600Y5785600D01*
X5300000Y5790000D01*
X5295600Y5793600D01*
X5290400Y5796400D01*
X5284400Y5798400D01*
X5277600Y5799600D01*
X5270000Y5800000D01*
Y5840000D01*
X5277600Y5840400D01*
X5284400Y5841600D01*
X5290400Y5843600D01*
X5295600Y5846400D01*
X5300000Y5850000D01*
X5303600Y5854400D01*
X5306400Y5859600D01*
X5308400Y5865600D01*
X5309600Y5872400D01*
X5310000Y5880000D01*
X5350000Y5820000D01*
D02*
G37*
G36*
X5462954Y5786475D02*
X5463716Y5782157D01*
X5464986Y5778347D01*
X5466764Y5775045D01*
X5469050Y5772251D01*
X5471844Y5769965D01*
X5475146Y5768187D01*
X5478956Y5766917D01*
X5483274Y5766155D01*
X5488100Y5765901D01*
Y5740501D01*
X5483274Y5740247D01*
X5478956Y5739485D01*
X5475146Y5738215D01*
X5471844Y5736437D01*
X5469050Y5734151D01*
X5466764Y5731357D01*
X5464986Y5728055D01*
X5463716Y5724245D01*
X5462954Y5719927D01*
X5462700Y5715101D01*
X5437300Y5753201D01*
X5462700Y5791301D01*
X5462954Y5786475D01*
D02*
G37*
G36*
X6275219Y6162428D02*
X6280290Y6160738D01*
X6283930Y6158779D01*
X6286597Y6156597D01*
X6288779Y6153929D01*
X6290738Y6150290D01*
X6292428Y6145220D01*
X6293515Y6139064D01*
Y5590937D01*
X6292428Y5584781D01*
X6290738Y5579710D01*
X6288779Y5576071D01*
X6286597Y5573404D01*
X6283929Y5571222D01*
X6280290Y5569262D01*
X6275220Y5567572D01*
X6269064Y5566486D01*
X5998354D01*
X5987638Y5578857D01*
X5988046Y5581801D01*
X5992600D01*
Y5691601D01*
X5983294D01*
Y5702800D01*
X5980546Y5716612D01*
X5972722Y5728322D01*
X5939837Y5761207D01*
X5945098Y5773907D01*
X6036301D01*
Y5710301D01*
X6124600D01*
Y5708980D01*
X6133034Y5688619D01*
X6148619Y5673034D01*
X6168980Y5664600D01*
X6191020D01*
X6211382Y5673034D01*
X6226966Y5688619D01*
X6235400Y5708980D01*
Y5731020D01*
X6226966Y5751381D01*
X6211382Y5766966D01*
X6191020Y5775400D01*
X6168980D01*
X6166038Y5774181D01*
X6165674Y5774546D01*
X6153965Y5782370D01*
X6146100Y5783934D01*
Y5796100D01*
X6134743D01*
X6129883Y5807834D01*
X6175644Y5853595D01*
X6191020D01*
X6211382Y5862029D01*
X6226966Y5877613D01*
X6235400Y5897975D01*
Y5920015D01*
X6226966Y5940376D01*
X6211382Y5955961D01*
X6191020Y5964395D01*
X6168980D01*
X6148619Y5955961D01*
X6133034Y5940376D01*
X6124600Y5920015D01*
Y5904639D01*
X6066055Y5846093D01*
X6042600D01*
Y5924600D01*
X6034938D01*
X6033046Y5934112D01*
X6025222Y5945821D01*
X5984235Y5986809D01*
X5972526Y5994633D01*
X5970400Y5995055D01*
Y6075400D01*
X5946192D01*
Y6151531D01*
X5946602Y6163515D01*
X6269064D01*
X6275219Y6162428D01*
D02*
G37*
G36*
X6380000Y5510000D02*
X6320000Y5420001D01*
X6319400Y5431401D01*
X6317600Y5441600D01*
X6314600Y5450600D01*
X6310400Y5458401D01*
X6305000Y5465000D01*
X6298400Y5470401D01*
X6290600Y5474600D01*
X6281600Y5477600D01*
X6271400Y5479401D01*
X6260000Y5480000D01*
Y5540000D01*
X6271400Y5540600D01*
X6281600Y5542400D01*
X6290600Y5545400D01*
X6298400Y5549600D01*
X6305000Y5555000D01*
X6310400Y5561600D01*
X6314600Y5569400D01*
X6317600Y5578400D01*
X6319400Y5588600D01*
X6320000Y5600000D01*
X6380000Y5510000D01*
D02*
G37*
G36*
X5653301Y5710301D02*
X5714033D01*
X5716107Y5707774D01*
Y5691601D01*
X5706801D01*
Y5581801D01*
X5792600D01*
Y5681548D01*
X5805078Y5692138D01*
X5806783Y5691820D01*
X5806800Y5691600D01*
X5806801D01*
Y5581801D01*
X5834601D01*
Y5434601D01*
X5965401D01*
Y5453515D01*
X6269064D01*
X6275219Y5452429D01*
X6280290Y5450739D01*
X6283930Y5448779D01*
X6286597Y5446597D01*
X6288779Y5443930D01*
X6290738Y5440291D01*
X6292428Y5435220D01*
X6293515Y5429064D01*
Y5258544D01*
X6221455Y5186485D01*
X5621704D01*
X5606324Y5183426D01*
X5600068Y5195130D01*
X5627469Y5222531D01*
X5635889Y5235134D01*
X5638846Y5250000D01*
Y5600499D01*
X5646966Y5608618D01*
X5655400Y5628980D01*
Y5651020D01*
X5646966Y5671381D01*
X5631381Y5686966D01*
X5611020Y5695400D01*
X5588980D01*
X5568619Y5686966D01*
X5553034Y5671381D01*
X5544600Y5651020D01*
Y5628980D01*
X5553034Y5608618D01*
X5561153Y5600499D01*
Y5266091D01*
X5277133Y4982070D01*
X5265400Y4986931D01*
Y4991020D01*
X5256966Y5011381D01*
X5241381Y5026966D01*
X5221020Y5035400D01*
X5216931D01*
X5212070Y5047133D01*
X5477469Y5312531D01*
X5485889Y5325134D01*
X5488847Y5340000D01*
Y5714354D01*
X5653301D01*
Y5710301D01*
D02*
G37*
G36*
X5621723Y5100000D02*
X5620969Y5099576D01*
X5619403Y5098304D01*
X5613831Y5093219D01*
X5577608Y5057620D01*
X5549324Y5085904D01*
X5591704Y5130019D01*
X5621723Y5100000D01*
D02*
G37*
G36*
X5890000D02*
X5878600Y5099400D01*
X5868400Y5097600D01*
X5859400Y5094600D01*
X5851600Y5090400D01*
X5845000Y5085000D01*
X5839600Y5078400D01*
X5835400Y5070600D01*
X5832400Y5061600D01*
X5830600Y5051400D01*
X5830000Y5040000D01*
X5770000D01*
X5769400Y5051400D01*
X5767600Y5061600D01*
X5764600Y5070600D01*
X5760400Y5078400D01*
X5755000Y5085000D01*
X5748400Y5090400D01*
X5740600Y5094600D01*
X5731600Y5097600D01*
X5721400Y5099400D01*
X5710000Y5100000D01*
X5800000Y5160000D01*
X5890000Y5100000D01*
D02*
G37*
G36*
X5725219Y5072428D02*
X5730290Y5070738D01*
X5733930Y5068779D01*
X5736597Y5066596D01*
X5738779Y5063929D01*
X5740738Y5060290D01*
X5742428Y5055220D01*
X5743515Y5049064D01*
Y5040000D01*
X5744600Y5034544D01*
Y5028980D01*
X5746729Y5023840D01*
X5747815Y5018384D01*
X5749042Y5016546D01*
X5746491Y5009221D01*
X5741264Y5003846D01*
X5613428D01*
X5598562Y5000889D01*
X5585959Y4992469D01*
X5212337Y4618846D01*
X5130400D01*
Y4648809D01*
X5181704D01*
X5197467Y4651944D01*
X5210831Y4660874D01*
X5566638Y5016681D01*
X5569418Y5017234D01*
X5584435Y5027268D01*
X5627997Y5070830D01*
X5630729Y5073515D01*
X5719064D01*
X5725219Y5072428D01*
D02*
G37*
G36*
X2070600Y4282900D02*
X2072400Y4272700D01*
X2075400Y4263700D01*
X2079600Y4255900D01*
X2085000Y4249300D01*
X2091600Y4243900D01*
X2099400Y4239700D01*
X2108400Y4236700D01*
X2118600Y4234900D01*
X2130000Y4234300D01*
Y4174300D01*
X2118600Y4173857D01*
X2108400Y4172528D01*
X2099400Y4170313D01*
X2091600Y4167212D01*
X2085000Y4163225D01*
X2079600Y4158352D01*
X2075400Y4152593D01*
X2072400Y4145948D01*
X2070600Y4138417D01*
X2070000Y4130000D01*
X2010000Y4040000D01*
X2009400Y4051400D01*
X2007600Y4061600D01*
X2004600Y4070600D01*
X2000400Y4078400D01*
X1995000Y4085000D01*
X1988400Y4090400D01*
X1980600Y4094600D01*
X1971600Y4097600D01*
X1961400Y4099400D01*
X1950000Y4100000D01*
Y4160000D01*
X1961400Y4160443D01*
X1971600Y4161772D01*
X1980600Y4163987D01*
X1988400Y4167088D01*
X1995000Y4171075D01*
X2000400Y4175948D01*
X2004600Y4181707D01*
X2007600Y4188352D01*
X2009400Y4195883D01*
X2010000Y4204300D01*
X2070000Y4294300D01*
X2070600Y4282900D01*
D02*
G37*
%LPC*%
G36*
X5611020Y5925400D02*
X5588980D01*
X5568619Y5916966D01*
X5553034Y5901381D01*
X5544600Y5881020D01*
Y5858980D01*
X5553034Y5838618D01*
X5568619Y5823034D01*
X5588980Y5814600D01*
X5611020D01*
X5631381Y5823034D01*
X5642104Y5833757D01*
X5706801D01*
Y5814801D01*
X5792600D01*
Y5924600D01*
X5706801D01*
Y5905943D01*
X5642404D01*
X5631381Y5916966D01*
X5611020Y5925400D01*
D02*
G37*
G36*
X6092600Y5691601D02*
X6006801D01*
Y5581801D01*
X6092600D01*
Y5691601D01*
D02*
G37*
%LPD*%
G36*
X1200000Y8470000D02*
Y7590000D01*
X1230000Y7560000D01*
X1610000D01*
X2000000Y7170000D01*
X2929999D01*
X2960000Y7140000D01*
Y6740000D01*
Y6370000D01*
X2930000Y6340000D01*
X2539999D01*
X2510000Y6370000D01*
Y6940000D01*
X2480000Y6970000D01*
X1910000D01*
X1460000Y7420000D01*
X340000D01*
Y7536612D01*
X350000Y7540000D01*
X560000D01*
X600000Y7580000D01*
Y8470000D01*
X620000Y8500000D01*
X1170000D01*
X1200000Y8470000D01*
D02*
G37*
G36*
X3000000Y4100000D02*
Y4040000D01*
X2970000Y4010000D01*
X2850000D01*
X2820000Y3980000D01*
Y3890000D01*
X2790000Y3860000D01*
X2630000D01*
X2600000Y3890000D01*
Y3920000D01*
X2580000Y3940000D01*
X2390000D01*
X2360000Y3970000D01*
Y4050000D01*
X2390000Y4080000D01*
X2590000D01*
X2600000Y4070000D01*
X2810000D01*
X2860000Y4120000D01*
X2980000D01*
X3000000Y4100000D01*
D02*
G37*
G36*
X4375031Y4232659D02*
X4375494Y4226646D01*
X4375772Y4224978D01*
X4376111Y4223477D01*
X4376512Y4222145D01*
X4376975Y4220981D01*
X4377500Y4219985D01*
X4378087Y4219157D01*
X4331913D01*
X4332500Y4219985D01*
X4333024Y4220981D01*
X4333487Y4222145D01*
X4333889Y4223477D01*
X4334228Y4224978D01*
X4334506Y4226646D01*
X4334877Y4230487D01*
X4334969Y4232659D01*
X4335000Y4235000D01*
X4375000D01*
X4375031Y4232659D01*
D02*
G37*
G36*
X4385600Y4190500D02*
X4387400Y4182000D01*
X4390400Y4174500D01*
X4394600Y4168000D01*
X4400000Y4162500D01*
X4406600Y4158000D01*
X4414400Y4154500D01*
X4423400Y4152000D01*
X4433600Y4150500D01*
X4445000Y4150000D01*
Y4090000D01*
X4433600Y4089400D01*
X4423400Y4087600D01*
X4414400Y4084600D01*
X4406600Y4080400D01*
X4400000Y4075000D01*
X4394600Y4068400D01*
X4390400Y4060600D01*
X4387400Y4051600D01*
X4385600Y4041400D01*
X4385000Y4030000D01*
X4325000Y4120000D01*
X4385000Y4200000D01*
X4385600Y4190500D01*
D02*
G37*
G36*
X4551153Y3303910D02*
Y2060000D01*
X4554111Y2045134D01*
X4562531Y2032531D01*
X4952531Y1642531D01*
X4965134Y1634111D01*
X4980000Y1631153D01*
X5733910D01*
X5952930Y1412133D01*
X5948070Y1400400D01*
X5715125D01*
X5711447Y1413100D01*
X5716966Y1418618D01*
X5725400Y1438980D01*
Y1461020D01*
X5716966Y1481381D01*
X5701382Y1496966D01*
X5681020Y1505400D01*
X5658980D01*
X5638619Y1496966D01*
X5623034Y1481381D01*
X5614600Y1461020D01*
Y1438980D01*
X5623034Y1418618D01*
X5628553Y1413100D01*
X5624875Y1400400D01*
X5600626D01*
Y1428221D01*
X5597669Y1443087D01*
X5589248Y1455690D01*
X5457469Y1587469D01*
X5444866Y1595889D01*
X5430000Y1598846D01*
X4826091D01*
X4418846Y2006091D01*
Y3360000D01*
X4415889Y3374866D01*
X4407468Y3387469D01*
X3943846Y3851091D01*
Y3893256D01*
X3956546Y3898517D01*
X4551153Y3303910D01*
D02*
G37*
G36*
X4341153Y3343910D02*
Y1990000D01*
X4344110Y1975134D01*
X4352531Y1962532D01*
X4782532Y1532531D01*
X4795134Y1524110D01*
X4810000Y1521153D01*
X5413910D01*
X5521963Y1413100D01*
X5520592Y1400400D01*
X5385125D01*
X5381447Y1413100D01*
X5386966Y1418618D01*
X5395400Y1438980D01*
Y1461020D01*
X5386966Y1481381D01*
X5371381Y1496966D01*
X5351020Y1505400D01*
X5328980D01*
X5308619Y1496966D01*
X5293034Y1481381D01*
X5284600Y1461020D01*
Y1438980D01*
X5293034Y1418618D01*
X5298553Y1413100D01*
X5294875Y1400400D01*
X5279600D01*
Y1199600D01*
X5267212Y1198846D01*
X5202788D01*
X5190400Y1199600D01*
Y1400400D01*
X5163846D01*
Y1405000D01*
X5160889Y1419866D01*
X5152468Y1432469D01*
X5097469Y1487468D01*
X5084866Y1495889D01*
X5070000Y1498846D01*
X4686091D01*
X4268846Y1916091D01*
Y3340000D01*
X4265889Y3354866D01*
X4257468Y3367469D01*
X3868846Y3756091D01*
Y3798256D01*
X3881546Y3803517D01*
X4341153Y3343910D01*
D02*
G37*
G36*
X6903100Y3779900D02*
X6906300Y3779700D01*
X6909400Y3779300D01*
X6912500Y3778700D01*
X6915500Y3778000D01*
X6918500Y3777100D01*
X6921500Y3776000D01*
X6924400Y3774800D01*
X6927200Y3773500D01*
X6930000Y3772000D01*
X6932700Y3770300D01*
X6935300Y3768500D01*
X6937800Y3766600D01*
X6940100Y3764600D01*
X6942400Y3762400D01*
X6944600Y3760100D01*
X6946600Y3757800D01*
X6948500Y3755300D01*
X6950300Y3752700D01*
X6952000Y3750000D01*
X6953500Y3747200D01*
X6954800Y3744400D01*
X6956000Y3741500D01*
X6957100Y3738500D01*
X6958000Y3735500D01*
X6958700Y3732500D01*
X6959300Y3729400D01*
X6959700Y3726300D01*
X6959900Y3723100D01*
X6960000Y3720000D01*
Y3660000D01*
X6959900Y3656900D01*
X6959700Y3653700D01*
X6959300Y3650600D01*
X6958700Y3647500D01*
X6958000Y3644500D01*
X6957100Y3641500D01*
X6956000Y3638500D01*
X6954800Y3635600D01*
X6953500Y3632800D01*
X6952000Y3630000D01*
X6950300Y3627300D01*
X6948500Y3624700D01*
X6946600Y3622200D01*
X6944600Y3619900D01*
X6942400Y3617600D01*
X6940100Y3615400D01*
X6937800Y3613400D01*
X6935300Y3611500D01*
X6932700Y3609700D01*
X6930000Y3608000D01*
X6927200Y3606500D01*
X6924400Y3605200D01*
X6921500Y3604000D01*
X6918500Y3602900D01*
X6915500Y3602000D01*
X6912500Y3601300D01*
X6909400Y3600700D01*
X6906300Y3600300D01*
X6903100Y3600100D01*
X6900000Y3600000D01*
X6896900Y3600100D01*
X6893700Y3600300D01*
X6890600Y3600700D01*
X6887500Y3601300D01*
X6884500Y3602000D01*
X6881500Y3602900D01*
X6878500Y3604000D01*
X6875600Y3605200D01*
X6872800Y3606500D01*
X6870000Y3608000D01*
X6867300Y3609700D01*
X6864700Y3611500D01*
X6862200Y3613400D01*
X6859900Y3615400D01*
X6857600Y3617600D01*
X6855400Y3619900D01*
X6853400Y3622200D01*
X6851500Y3624700D01*
X6849700Y3627300D01*
X6848000Y3630000D01*
X6846500Y3632800D01*
X6845200Y3635600D01*
X6844000Y3638500D01*
X6842900Y3641500D01*
X6842000Y3644500D01*
X6841300Y3647500D01*
X6840700Y3650600D01*
X6840300Y3653700D01*
X6840100Y3656900D01*
X6840000Y3660000D01*
Y3720000D01*
X6840100Y3723100D01*
X6840300Y3726300D01*
X6840700Y3729400D01*
X6841300Y3732500D01*
X6842000Y3735500D01*
X6842900Y3738500D01*
X6844000Y3741500D01*
X6845200Y3744400D01*
X6846500Y3747200D01*
X6848000Y3750000D01*
X6849700Y3752700D01*
X6851500Y3755300D01*
X6853400Y3757800D01*
X6855400Y3760100D01*
X6857600Y3762400D01*
X6859900Y3764600D01*
X6862200Y3766600D01*
X6864700Y3768500D01*
X6867300Y3770300D01*
X6870000Y3772000D01*
X6872800Y3773500D01*
X6875600Y3774800D01*
X6878500Y3776000D01*
X6881500Y3777100D01*
X6884500Y3778000D01*
X6887500Y3778700D01*
X6890600Y3779300D01*
X6893700Y3779700D01*
X6896900Y3779900D01*
X6900000Y3780000D01*
X6903100Y3779900D01*
D02*
G37*
G36*
X6743100D02*
X6746300Y3779700D01*
X6749400Y3779300D01*
X6752500Y3778700D01*
X6755500Y3778000D01*
X6758500Y3777100D01*
X6761500Y3776000D01*
X6764400Y3774800D01*
X6767200Y3773500D01*
X6770000Y3772000D01*
X6772700Y3770300D01*
X6775300Y3768500D01*
X6777800Y3766600D01*
X6780100Y3764600D01*
X6782400Y3762400D01*
X6784600Y3760100D01*
X6786600Y3757800D01*
X6788500Y3755300D01*
X6790300Y3752700D01*
X6792000Y3750000D01*
X6793500Y3747200D01*
X6794800Y3744400D01*
X6796000Y3741500D01*
X6797100Y3738500D01*
X6798000Y3735500D01*
X6798700Y3732500D01*
X6799300Y3729400D01*
X6799700Y3726300D01*
X6799900Y3723100D01*
X6800000Y3720000D01*
Y3660000D01*
X6799900Y3656900D01*
X6799700Y3653700D01*
X6799300Y3650600D01*
X6798700Y3647500D01*
X6798000Y3644500D01*
X6797100Y3641500D01*
X6796000Y3638500D01*
X6794800Y3635600D01*
X6793500Y3632800D01*
X6792000Y3630000D01*
X6790300Y3627300D01*
X6788500Y3624700D01*
X6786600Y3622200D01*
X6784600Y3619900D01*
X6782400Y3617600D01*
X6780100Y3615400D01*
X6777800Y3613400D01*
X6775300Y3611500D01*
X6772700Y3609700D01*
X6770000Y3608000D01*
X6767200Y3606500D01*
X6764400Y3605200D01*
X6761500Y3604000D01*
X6758500Y3602900D01*
X6755500Y3602000D01*
X6752500Y3601300D01*
X6749400Y3600700D01*
X6746300Y3600300D01*
X6743100Y3600100D01*
X6740000Y3600000D01*
X6736900Y3600100D01*
X6733700Y3600300D01*
X6730600Y3600700D01*
X6727500Y3601300D01*
X6724500Y3602000D01*
X6721500Y3602900D01*
X6718500Y3604000D01*
X6715600Y3605200D01*
X6712800Y3606500D01*
X6710000Y3608000D01*
X6707300Y3609700D01*
X6704700Y3611500D01*
X6702200Y3613400D01*
X6699900Y3615400D01*
X6697600Y3617600D01*
X6695400Y3619900D01*
X6693400Y3622200D01*
X6691500Y3624700D01*
X6689700Y3627300D01*
X6688000Y3630000D01*
X6686500Y3632800D01*
X6685200Y3635600D01*
X6684000Y3638500D01*
X6682900Y3641500D01*
X6682000Y3644500D01*
X6681300Y3647500D01*
X6680700Y3650600D01*
X6680300Y3653700D01*
X6680100Y3656900D01*
X6680000Y3660000D01*
Y3720000D01*
X6680100Y3723100D01*
X6680300Y3726300D01*
X6680700Y3729400D01*
X6681300Y3732500D01*
X6682000Y3735500D01*
X6682900Y3738500D01*
X6684000Y3741500D01*
X6685200Y3744400D01*
X6686500Y3747200D01*
X6688000Y3750000D01*
X6689700Y3752700D01*
X6691500Y3755300D01*
X6693400Y3757800D01*
X6695400Y3760100D01*
X6697600Y3762400D01*
X6699900Y3764600D01*
X6702200Y3766600D01*
X6704700Y3768500D01*
X6707300Y3770300D01*
X6710000Y3772000D01*
X6712800Y3773500D01*
X6715600Y3774800D01*
X6718500Y3776000D01*
X6721500Y3777100D01*
X6724500Y3778000D01*
X6727500Y3778700D01*
X6730600Y3779300D01*
X6733700Y3779700D01*
X6736900Y3779900D01*
X6740000Y3780000D01*
X6743100Y3779900D01*
D02*
G37*
G36*
X6823100Y3519900D02*
X6826300Y3519700D01*
X6829400Y3519300D01*
X6832500Y3518700D01*
X6835500Y3518000D01*
X6838500Y3517100D01*
X6841500Y3516000D01*
X6844400Y3514800D01*
X6847200Y3513500D01*
X6850000Y3512000D01*
X6852700Y3510300D01*
X6855300Y3508500D01*
X6857800Y3506600D01*
X6860100Y3504600D01*
X6862400Y3502400D01*
X6864600Y3500100D01*
X6866600Y3497800D01*
X6868500Y3495300D01*
X6870300Y3492700D01*
X6872000Y3490000D01*
X6873500Y3487200D01*
X6874800Y3484400D01*
X6876000Y3481500D01*
X6877100Y3478500D01*
X6878000Y3475500D01*
X6878700Y3472500D01*
X6879300Y3469400D01*
X6879700Y3466300D01*
X6879900Y3463100D01*
X6880000Y3460000D01*
Y3400000D01*
X6879900Y3396900D01*
X6879700Y3393700D01*
X6879300Y3390600D01*
X6878700Y3387500D01*
X6878000Y3384500D01*
X6877100Y3381500D01*
X6876000Y3378500D01*
X6874800Y3375600D01*
X6873500Y3372800D01*
X6872000Y3370000D01*
X6870300Y3367300D01*
X6868500Y3364700D01*
X6866600Y3362200D01*
X6864600Y3359900D01*
X6862400Y3357600D01*
X6860100Y3355400D01*
X6857800Y3353400D01*
X6855300Y3351500D01*
X6852700Y3349700D01*
X6850000Y3348000D01*
X6847200Y3346500D01*
X6844400Y3345200D01*
X6841500Y3344000D01*
X6838500Y3342900D01*
X6835500Y3342000D01*
X6832500Y3341300D01*
X6829400Y3340700D01*
X6826300Y3340300D01*
X6823100Y3340100D01*
X6820000Y3340000D01*
X6816900Y3340100D01*
X6813700Y3340300D01*
X6810600Y3340700D01*
X6807500Y3341300D01*
X6804500Y3342000D01*
X6801500Y3342900D01*
X6798500Y3344000D01*
X6795600Y3345200D01*
X6792800Y3346500D01*
X6790000Y3348000D01*
X6787300Y3349700D01*
X6784700Y3351500D01*
X6782200Y3353400D01*
X6779900Y3355400D01*
X6777600Y3357600D01*
X6775400Y3359900D01*
X6773400Y3362200D01*
X6771500Y3364700D01*
X6769700Y3367300D01*
X6768000Y3370000D01*
X6766500Y3372800D01*
X6765200Y3375600D01*
X6764000Y3378500D01*
X6762900Y3381500D01*
X6762000Y3384500D01*
X6761300Y3387500D01*
X6760700Y3390600D01*
X6760300Y3393700D01*
X6760100Y3396900D01*
X6760000Y3400000D01*
Y3460000D01*
X6760100Y3463100D01*
X6760300Y3466300D01*
X6760700Y3469400D01*
X6761300Y3472500D01*
X6762000Y3475500D01*
X6762900Y3478500D01*
X6764000Y3481500D01*
X6765200Y3484400D01*
X6766500Y3487200D01*
X6768000Y3490000D01*
X6769700Y3492700D01*
X6771500Y3495300D01*
X6773400Y3497800D01*
X6775400Y3500100D01*
X6777600Y3502400D01*
X6779900Y3504600D01*
X6782200Y3506600D01*
X6784700Y3508500D01*
X6787300Y3510300D01*
X6790000Y3512000D01*
X6792800Y3513500D01*
X6795600Y3514800D01*
X6798500Y3516000D01*
X6801500Y3517100D01*
X6804500Y3518000D01*
X6807500Y3518700D01*
X6810600Y3519300D01*
X6813700Y3519700D01*
X6816900Y3519900D01*
X6820000Y3520000D01*
X6823100Y3519900D01*
D02*
G37*
G36*
X6663100D02*
X6666300Y3519700D01*
X6669400Y3519300D01*
X6672500Y3518700D01*
X6675500Y3518000D01*
X6678500Y3517100D01*
X6681500Y3516000D01*
X6684400Y3514800D01*
X6687200Y3513500D01*
X6690000Y3512000D01*
X6692700Y3510300D01*
X6695300Y3508500D01*
X6697800Y3506600D01*
X6700100Y3504600D01*
X6702400Y3502400D01*
X6704600Y3500100D01*
X6706600Y3497800D01*
X6708500Y3495300D01*
X6710300Y3492700D01*
X6712000Y3490000D01*
X6713500Y3487200D01*
X6714800Y3484400D01*
X6716000Y3481500D01*
X6717100Y3478500D01*
X6718000Y3475500D01*
X6718700Y3472500D01*
X6719300Y3469400D01*
X6719700Y3466300D01*
X6719900Y3463100D01*
X6720000Y3460000D01*
Y3400000D01*
X6719900Y3396900D01*
X6719700Y3393700D01*
X6719300Y3390600D01*
X6718700Y3387500D01*
X6718000Y3384500D01*
X6717100Y3381500D01*
X6716000Y3378500D01*
X6714800Y3375600D01*
X6713500Y3372800D01*
X6712000Y3370000D01*
X6710300Y3367300D01*
X6708500Y3364700D01*
X6706600Y3362200D01*
X6704600Y3359900D01*
X6702400Y3357600D01*
X6700100Y3355400D01*
X6697800Y3353400D01*
X6695300Y3351500D01*
X6692700Y3349700D01*
X6690000Y3348000D01*
X6687200Y3346500D01*
X6684400Y3345200D01*
X6681500Y3344000D01*
X6678500Y3342900D01*
X6675500Y3342000D01*
X6672500Y3341300D01*
X6669400Y3340700D01*
X6666300Y3340300D01*
X6663100Y3340100D01*
X6660000Y3340000D01*
X6656900Y3340100D01*
X6653700Y3340300D01*
X6650600Y3340700D01*
X6647500Y3341300D01*
X6644500Y3342000D01*
X6641500Y3342900D01*
X6638500Y3344000D01*
X6635600Y3345200D01*
X6632800Y3346500D01*
X6630000Y3348000D01*
X6627300Y3349700D01*
X6624700Y3351500D01*
X6622200Y3353400D01*
X6619900Y3355400D01*
X6617600Y3357600D01*
X6615400Y3359900D01*
X6613400Y3362200D01*
X6611500Y3364700D01*
X6609700Y3367300D01*
X6608000Y3370000D01*
X6606500Y3372800D01*
X6605200Y3375600D01*
X6604000Y3378500D01*
X6602900Y3381500D01*
X6602000Y3384500D01*
X6601300Y3387500D01*
X6600700Y3390600D01*
X6600300Y3393700D01*
X6600100Y3396900D01*
X6600000Y3400000D01*
Y3460000D01*
X6600100Y3463100D01*
X6600300Y3466300D01*
X6600700Y3469400D01*
X6601300Y3472500D01*
X6602000Y3475500D01*
X6602900Y3478500D01*
X6604000Y3481500D01*
X6605200Y3484400D01*
X6606500Y3487200D01*
X6608000Y3490000D01*
X6609700Y3492700D01*
X6611500Y3495300D01*
X6613400Y3497800D01*
X6615400Y3500100D01*
X6617600Y3502400D01*
X6619900Y3504600D01*
X6622200Y3506600D01*
X6624700Y3508500D01*
X6627300Y3510300D01*
X6630000Y3512000D01*
X6632800Y3513500D01*
X6635600Y3514800D01*
X6638500Y3516000D01*
X6641500Y3517100D01*
X6644500Y3518000D01*
X6647500Y3518700D01*
X6650600Y3519300D01*
X6653700Y3519700D01*
X6656900Y3519900D01*
X6660000Y3520000D01*
X6663100Y3519900D01*
D02*
G37*
G36*
X6760600Y1788600D02*
X6762400Y1778400D01*
X6765400Y1769400D01*
X6769600Y1761600D01*
X6775000Y1755000D01*
X6781600Y1749600D01*
X6789400Y1745400D01*
X6798400Y1742400D01*
X6808600Y1740600D01*
X6820000Y1740000D01*
X6730000Y1680000D01*
X6640000Y1740000D01*
X6651400Y1740600D01*
X6661600Y1742400D01*
X6670600Y1745400D01*
X6678400Y1749600D01*
X6685000Y1755000D01*
X6690400Y1761600D01*
X6694600Y1769400D01*
X6697600Y1778400D01*
X6699400Y1788600D01*
X6700000Y1800000D01*
X6760000D01*
X6760600Y1788600D01*
D02*
G37*
G36*
X3852954Y2793274D02*
X3853716Y2788956D01*
X3854986Y2785146D01*
X3856764Y2781844D01*
X3859050Y2779050D01*
X3861844Y2776764D01*
X3865146Y2774986D01*
X3868956Y2773716D01*
X3873274Y2772954D01*
X3878100Y2772700D01*
X3840000Y2747300D01*
X3801900Y2772700D01*
X3806726Y2772954D01*
X3811044Y2773716D01*
X3814854Y2774986D01*
X3818156Y2776764D01*
X3820950Y2779050D01*
X3823236Y2781844D01*
X3825014Y2785146D01*
X3826284Y2788956D01*
X3827046Y2793274D01*
X3827300Y2798100D01*
X3852700D01*
X3852954Y2793274D01*
D02*
G37*
G36*
X3878100Y1982300D02*
X3873274Y1982046D01*
X3868956Y1981284D01*
X3865146Y1980014D01*
X3861844Y1978236D01*
X3859050Y1975950D01*
X3856764Y1973156D01*
X3854986Y1969854D01*
X3853716Y1966044D01*
X3852954Y1961726D01*
X3852700Y1956900D01*
X3827300D01*
X3827046Y1961726D01*
X3826284Y1966044D01*
X3825014Y1969854D01*
X3823236Y1973156D01*
X3820950Y1975950D01*
X3818156Y1978236D01*
X3814854Y1980014D01*
X3811044Y1981284D01*
X3806726Y1982046D01*
X3801900Y1982300D01*
X3840000Y2007700D01*
X3878100Y1982300D01*
D02*
G37*
G36*
X4545000Y1060000D02*
X4485000Y970000D01*
X4484400Y981400D01*
X4482600Y991600D01*
X4479600Y1000600D01*
X4475400Y1008400D01*
X4470000Y1015000D01*
X4463400Y1020400D01*
X4455600Y1024600D01*
X4446600Y1027600D01*
X4436400Y1029400D01*
X4425000Y1030000D01*
Y1090000D01*
X4436400Y1090600D01*
X4446600Y1092400D01*
X4455600Y1095400D01*
X4463400Y1099600D01*
X4470000Y1105000D01*
X4475400Y1111600D01*
X4479600Y1119400D01*
X4482600Y1128400D01*
X4484400Y1138600D01*
X4485000Y1150000D01*
X4545000Y1060000D01*
D02*
G37*
D10*
X4355000Y5498000D02*
D03*
X4305000D02*
D03*
X4255000D02*
D03*
X4205000D02*
D03*
X4155000D02*
D03*
X4105000D02*
D03*
X4055000D02*
D03*
X4005000D02*
D03*
X3955000D02*
D03*
X3905000D02*
D03*
X3855000D02*
D03*
X3805000D02*
D03*
X3755000D02*
D03*
X3705000D02*
D03*
X3655000D02*
D03*
X3605000D02*
D03*
Y4362000D02*
D03*
X3655000D02*
D03*
X3705000D02*
D03*
X3755000D02*
D03*
X3805000D02*
D03*
X3855000D02*
D03*
X3905000D02*
D03*
X3955000D02*
D03*
X4005000D02*
D03*
X4055000D02*
D03*
X4105000D02*
D03*
X4155000D02*
D03*
X4205000D02*
D03*
X4255000D02*
D03*
X4305000D02*
D03*
X4355000D02*
D03*
D11*
X3412000Y5305000D02*
D03*
Y5255000D02*
D03*
Y5205000D02*
D03*
Y5155000D02*
D03*
Y5105000D02*
D03*
Y5055000D02*
D03*
Y5005000D02*
D03*
Y4955000D02*
D03*
Y4905000D02*
D03*
Y4855000D02*
D03*
Y4805000D02*
D03*
Y4755000D02*
D03*
Y4705000D02*
D03*
Y4655000D02*
D03*
Y4605000D02*
D03*
Y4555000D02*
D03*
X4548000D02*
D03*
Y4605000D02*
D03*
Y4655000D02*
D03*
Y4705000D02*
D03*
Y4755000D02*
D03*
Y4805000D02*
D03*
Y4855000D02*
D03*
Y4905000D02*
D03*
Y4955000D02*
D03*
Y5005000D02*
D03*
Y5055000D02*
D03*
Y5105000D02*
D03*
Y5155000D02*
D03*
Y5205000D02*
D03*
Y5255000D02*
D03*
Y5305000D02*
D03*
D12*
X5708200Y5753201D02*
D03*
X6091200D02*
D03*
D13*
X5749700Y5869700D02*
D03*
X5799700D02*
D03*
X5849701D02*
D03*
X5899700D02*
D03*
X5949700D02*
D03*
X5999700D02*
D03*
X6049700D02*
D03*
Y5636701D02*
D03*
X5999700D02*
D03*
X5949700D02*
D03*
X5899700D02*
D03*
X5849701D02*
D03*
X5799700D02*
D03*
X5749700D02*
D03*
D14*
X5098851Y5829100D02*
D03*
X5033851D02*
D03*
X4968851D02*
D03*
X4903851D02*
D03*
Y5624100D02*
D03*
X4968851D02*
D03*
X5033851D02*
D03*
X5098851D02*
D03*
D15*
X5490000Y9180000D02*
D03*
X4290000Y9180000D02*
D03*
X5790000Y7380000D02*
D03*
Y7680000D02*
D03*
Y7980000D02*
D03*
Y8280000D02*
D03*
X5790000Y8580000D02*
D03*
X5790000Y8880000D02*
D03*
X6090001Y9180000D02*
D03*
X4890000Y7980000D02*
D03*
X6090001Y7080000D02*
D03*
Y7680000D02*
D03*
X5490000D02*
D03*
X5190000D02*
D03*
X4890000D02*
D03*
X4590000D02*
D03*
X6090001Y8580000D02*
D03*
X5490000D02*
D03*
X5190000D02*
D03*
X4890000D02*
D03*
X4590000D02*
D03*
Y8880000D02*
D03*
X4290000Y7380000D02*
D03*
Y7680000D02*
D03*
Y8580000D02*
D03*
X5190000Y9180000D02*
D03*
X5790000Y7080000D02*
D03*
X5490000D02*
D03*
X5190000D02*
D03*
X4890000D02*
D03*
X4590000D02*
D03*
X3990000Y9180000D02*
D03*
Y7380000D02*
D03*
Y7980000D02*
D03*
Y8280000D02*
D03*
X6090001Y7380000D02*
D03*
X5490000D02*
D03*
X5190000D02*
D03*
X4890000D02*
D03*
X4590000D02*
D03*
X3990000Y7680000D02*
D03*
X6090001Y7980000D02*
D03*
X5490000D02*
D03*
X4290000D02*
D03*
X6090001Y8280000D02*
D03*
X5490000D02*
D03*
X5190000D02*
D03*
X4590000D02*
D03*
X4290000D02*
D03*
X6090001Y8880000D02*
D03*
X5490000D02*
D03*
X5190000D02*
D03*
X4890000D02*
D03*
X3990000D02*
D03*
X4890000Y9180000D02*
D03*
X4590000D02*
D03*
D16*
X3990000Y7080000D02*
D03*
D17*
X3617000Y6585000D02*
D03*
X3363000D02*
D03*
X3109000D02*
D03*
X2855000Y6585001D02*
D03*
X2601001Y6585000D02*
D03*
X2347000D02*
D03*
X2093000D02*
D03*
X3871000D02*
D03*
X4125000D02*
D03*
X4379000D02*
D03*
Y9675000D02*
D03*
X4125000D02*
D03*
X3871000D02*
D03*
X2093000D02*
D03*
X2347000D02*
D03*
X2601000D02*
D03*
X2855000Y9675000D02*
D03*
X3109000Y9675000D02*
D03*
X3363000D02*
D03*
X3617000D02*
D03*
X5903000Y6585000D02*
D03*
X5649000D02*
D03*
Y9675000D02*
D03*
X5903000D02*
D03*
D18*
X6585000Y7114000D02*
D03*
Y7368000D02*
D03*
Y9146000D02*
D03*
Y8892000D02*
D03*
D19*
X5785000Y1300000D02*
D03*
X5675000D02*
D03*
X5565000D02*
D03*
X5455000D02*
D03*
X5345000D02*
D03*
X5235000D02*
D03*
X5125000D02*
D03*
X5015000D02*
D03*
X6015000D02*
D03*
X5895000D02*
D03*
D20*
X6200000Y490000D02*
D03*
X4780000D02*
D03*
D21*
X400000Y8400000D02*
D03*
X760000D02*
D03*
D22*
X820000Y7939999D02*
D03*
X360000D02*
D03*
D23*
X1367500Y8230000D02*
D03*
X1072500D02*
D03*
D24*
X1314300Y7939999D02*
D03*
X1085700D02*
D03*
X3654301Y3780000D02*
D03*
X3425701D02*
D03*
X4594301D02*
D03*
X4365701D02*
D03*
X1964301Y3270000D02*
D03*
X1735701D02*
D03*
D25*
X1330000Y6865698D02*
D03*
Y7094298D02*
D03*
X2710001Y3955700D02*
D03*
Y4184300D02*
D03*
D26*
X1145000Y7090000D02*
D03*
X955000D02*
D03*
X1145000Y6850000D02*
D03*
X955000D02*
D03*
X1715000Y4660000D02*
D03*
X1905000D02*
D03*
X5115001Y4420000D02*
D03*
X4925001D02*
D03*
X1040001Y3280000D02*
D03*
X1230001D02*
D03*
D27*
X5065001Y5210000D02*
D03*
X4915001D02*
D03*
X1705000Y4870000D02*
D03*
X1855000D02*
D03*
X5650000Y3180000D02*
D03*
X5500000D02*
D03*
X5650000Y3360000D02*
D03*
X5500000D02*
D03*
X3655001Y3990000D02*
D03*
X3505001D02*
D03*
X4355000D02*
D03*
X4505000D02*
D03*
X4915001Y4880000D02*
D03*
X5065001D02*
D03*
X5065001Y4690000D02*
D03*
X4915001D02*
D03*
X4915001Y4200000D02*
D03*
X5065001D02*
D03*
X2964999Y5190000D02*
D03*
X2814999D02*
D03*
X2505000D02*
D03*
X2655000D02*
D03*
X2505000Y5930000D02*
D03*
X2655000D02*
D03*
X3525001Y6050000D02*
D03*
X3675001D02*
D03*
X3675001Y5870000D02*
D03*
X3525001D02*
D03*
X4195001Y6050000D02*
D03*
X4045001D02*
D03*
X4195001Y5870000D02*
D03*
X4045001D02*
D03*
X4925000Y5960000D02*
D03*
X5075000D02*
D03*
X5905000Y6000000D02*
D03*
X5755000D02*
D03*
X5750001Y5510000D02*
D03*
X5900001D02*
D03*
X1885001Y3480000D02*
D03*
X1735001D02*
D03*
X1185001Y3500000D02*
D03*
X1035001D02*
D03*
X4515000Y1160000D02*
D03*
X4665000D02*
D03*
X3605001Y2760000D02*
D03*
X3755001D02*
D03*
Y1990000D02*
D03*
X3605001D02*
D03*
X4665000Y960000D02*
D03*
X4515000D02*
D03*
D28*
X939501Y4337499D02*
D03*
X1066501D02*
D03*
X1193501D02*
D03*
X1320501D02*
D03*
X939501Y4882499D02*
D03*
X1066501D02*
D03*
X1193501D02*
D03*
X1320501D02*
D03*
X6460500Y4582500D02*
D03*
X6333500D02*
D03*
X6206500D02*
D03*
X6079500D02*
D03*
X6460500Y4037500D02*
D03*
X6333500D02*
D03*
X6206500D02*
D03*
X6079500D02*
D03*
D29*
X1320001Y3955000D02*
D03*
Y4145000D02*
D03*
X1060001Y3955000D02*
D03*
Y4145000D02*
D03*
X2470001Y4204300D02*
D03*
Y4014300D02*
D03*
X6080000Y4965000D02*
D03*
Y4775000D02*
D03*
X6330000Y4965000D02*
D03*
Y4775000D02*
D03*
D30*
X6026680Y3270000D02*
D03*
X5813320Y3176020D02*
D03*
Y3363980D02*
D03*
D31*
X5995000Y2910000D02*
D03*
X5525000D02*
D03*
D32*
X2920001Y4214300D02*
D03*
Y4064300D02*
D03*
X2960001Y4910001D02*
D03*
Y4760001D02*
D03*
X2400001Y4435001D02*
D03*
Y4585001D02*
D03*
Y4900001D02*
D03*
Y4750001D02*
D03*
X5240000Y5825000D02*
D03*
Y5675000D02*
D03*
X6290000Y1165000D02*
D03*
Y1015000D02*
D03*
D33*
X2690001Y4465001D02*
D03*
Y4875001D02*
D03*
D34*
X2825001Y5400000D02*
D03*
X2275001D02*
D03*
Y5720000D02*
D03*
X2825001D02*
D03*
D35*
X1229998Y1158000D02*
D03*
X1483998D02*
D03*
X1737998D02*
D03*
X1991998D02*
D03*
X2245998D02*
D03*
X2499998D02*
D03*
X1229998Y2708000D02*
D03*
X1483998D02*
D03*
X1737998D02*
D03*
X1991998D02*
D03*
X2245998D02*
D03*
X2499998D02*
D03*
D36*
X3985001Y3214999D02*
D03*
X4895001D02*
D03*
X3985001Y2764999D02*
D03*
X4895001D02*
D03*
X3985001Y2445000D02*
D03*
X4895001D02*
D03*
X3985001Y1995000D02*
D03*
X4895001D02*
D03*
D37*
X5235000Y1300000D02*
Y1425637D01*
X5220000Y1440637D02*
X5235000Y1425637D01*
X5220000Y1440637D02*
Y1450000D01*
X5070000Y1460000D02*
X5125000Y1405000D01*
Y1300000D02*
Y1405000D01*
X4670000Y1460000D02*
X5070000D01*
X5613428Y4965000D02*
X6080000D01*
X5228428Y4580000D02*
X5613428Y4965000D01*
X3880000Y6310000D02*
Y6576000D01*
X4255000Y5631477D02*
X4303523Y5680000D01*
X4135730D02*
X4142351Y5673380D01*
X4205000Y5498000D02*
Y5632187D01*
X4142351Y5673380D02*
X4163807D01*
X4205000Y5632187D01*
X4130000Y6330000D02*
Y6580000D01*
Y6330000D02*
X4145000Y6315000D01*
X4195000D01*
X4380000Y6310000D02*
Y6576000D01*
X3620000Y6340000D02*
Y6582001D01*
X3592754Y6312754D02*
X3620000Y6340000D01*
X3552754Y6312754D02*
X3592754D01*
X3655000Y4605000D02*
X3776620Y4726620D01*
Y4843380D01*
X3770000Y4850000D02*
X3776620Y4843380D01*
X3260000Y6310000D02*
X3327821D01*
X3360000Y6342179D01*
Y6582000D01*
X2710001Y4184300D02*
X2740000Y4214300D01*
X5600000Y5250000D02*
Y5640000D01*
X4700000Y5093403D02*
Y5100000D01*
X4661597Y5055000D02*
X4700000Y5093403D01*
X5450000Y5340000D02*
Y5753201D01*
X5080000Y4970000D02*
X5450000Y5340000D01*
X3360000Y6582000D02*
X3363000Y6585000D01*
X3705000Y5498000D02*
Y5645637D01*
X3680000Y5670637D02*
X3705000Y5645637D01*
X3680000Y5670637D02*
Y5680000D01*
X3605000Y5498000D02*
Y5635000D01*
X3750000Y4970000D02*
X3870000D01*
X3460000Y6950000D02*
X3710000D01*
X3871000Y6789000D01*
Y6585000D02*
Y6789000D01*
Y6585000D02*
X3880000Y6576000D01*
X3550000Y6310000D02*
X3552754Y6312754D01*
X3677300Y4807300D02*
Y4897300D01*
X3750000Y4970000D01*
X3525000Y4655000D02*
X3677300Y4807300D01*
X3412000Y4655000D02*
X3525000D01*
X3412000Y4605000D02*
X3655000D01*
X3413300Y5003700D02*
X3546300D01*
X3550000Y5000000D01*
X3617000Y6585000D02*
X3620000Y6582001D01*
X6289079Y1175921D02*
Y1240921D01*
X6015000Y1300000D02*
X6230000D01*
X6289079Y1240921D01*
Y1175921D02*
X6291779Y1173221D01*
X4910000Y4695001D02*
X4915001Y4690000D01*
X4906780Y4698221D02*
X4910000Y4695001D01*
X4850000Y4870000D02*
X4915001D01*
X5137300Y4787300D02*
X5600000Y5250000D01*
X3760000Y5629613D02*
X3803700Y5585913D01*
X3740000Y6050000D02*
X3760000Y6030000D01*
Y5629613D02*
Y6030000D01*
X2730000Y3400000D02*
X3603700Y4273700D01*
Y4360700D02*
X3605000Y4362000D01*
X3603700Y4273700D02*
Y4360700D01*
X2730000Y2580000D02*
Y3400000D01*
X5450000Y5753201D02*
X5708200D01*
X5450000D02*
Y5870000D01*
X4255000Y5498000D02*
Y5631477D01*
X4546700Y5203700D02*
X4548000Y5205000D01*
X4413700Y5203700D02*
X4546700D01*
X4410000Y5200000D02*
X4413700Y5203700D01*
X4350000Y5350000D02*
X4355000Y5355000D01*
Y5498000D01*
X4725000Y5005000D02*
X4820000Y5100000D01*
X4548000Y5055000D02*
X4661597D01*
X4548000Y5005000D02*
X4725000D01*
X5500000Y3360000D02*
Y3469999D01*
X4548000Y4422000D02*
X5500000Y3469999D01*
X4548000Y4422000D02*
Y4555000D01*
X4930000Y4970000D02*
X5080000D01*
X4927300Y4787300D02*
X5137300D01*
X4857144Y4580000D02*
X5228428D01*
X4633444Y4803700D02*
X4857144Y4580000D01*
X4910000Y4695001D02*
Y4770000D01*
X4927300Y4787300D01*
X4915001Y4955001D02*
X4930000Y4970000D01*
X6010000Y1305000D02*
X6015000Y1300000D01*
X1325001Y3950000D02*
X1930000D01*
X1905000Y4660000D02*
Y4810000D01*
X1855000Y4860000D02*
X1905000Y4810000D01*
X3830000Y3740000D02*
X4230000Y3340000D01*
X3830000Y3740000D02*
Y4240000D01*
X4230000Y1900000D02*
Y3340000D01*
X5526001Y2220000D02*
Y2909000D01*
X3250000Y4830000D02*
X3259363D01*
X3284363Y4855000D01*
X3412000D01*
X3150386Y4875121D02*
X3180265Y4905000D01*
X3412000D01*
X3253700Y4753700D02*
X3410700D01*
X3020000Y4520000D02*
X3253700Y4753700D01*
X1510000Y4460000D02*
X1522360Y4472361D01*
X1562361D01*
X1715000Y4625000D01*
Y4660000D01*
X3905000Y3835000D02*
X4380000Y3360000D01*
Y1990000D02*
X4810000Y1560000D01*
X4380000Y1990000D02*
Y3360000D01*
X3410000Y5306300D02*
Y5370000D01*
Y5306300D02*
X3411300Y5305000D01*
X3412000D01*
X3150386Y4830386D02*
Y4875121D01*
X3150000Y4830000D02*
X3150386Y4830386D01*
X2877301Y5632699D02*
X3305000Y5205000D01*
X2877301Y5632699D02*
Y5667700D01*
X3305000Y5205000D02*
X3412000D01*
X2825001Y5720000D02*
Y5749241D01*
Y5720000D02*
X2877301Y5667700D01*
X4915001Y4880000D02*
Y4955001D01*
Y4870000D02*
Y4880000D01*
X3980000Y3930000D02*
X4590000Y3320000D01*
Y2060000D02*
Y3320000D01*
X3980000Y3930000D02*
Y4230000D01*
X3905000Y3835000D02*
Y4362000D01*
X4548000Y4955000D02*
X4765000D01*
X4850000Y4870000D01*
X4646300Y4903700D02*
X4851779Y4698221D01*
X4549300Y4903700D02*
X4646300D01*
X2681541Y5863459D02*
X2743460Y5801541D01*
X2772701D02*
X2825001Y5749241D01*
X2743460Y5801541D02*
X2772701D01*
X3100000Y4220000D02*
Y4490000D01*
X3313700Y4703700D01*
X3410700D01*
X3412000Y5005000D02*
X3413300Y5003700D01*
X3210000Y4110000D02*
Y4470000D01*
X2499998Y3399998D02*
X3210000Y4110000D01*
X2499998Y2708000D02*
Y3399998D01*
X3210000Y4470000D02*
X3295000Y4555000D01*
X3412000D01*
X3753700Y4566513D02*
X3795840Y4608653D01*
X3753700Y4363300D02*
Y4566513D01*
X3795840Y4608653D02*
X3838653D01*
X2715001Y4875001D02*
X2919999Y5080000D01*
X3270000D02*
X3295000Y5105000D01*
X2919999Y5080000D02*
X3270000D01*
X2970001Y4910001D02*
X3040000Y4980000D01*
X3250000D01*
X2960001Y4910001D02*
X2970001D01*
X3250000Y4980000D02*
X3323700Y5053700D01*
X2946780Y4696780D02*
X2960000Y4710000D01*
X2946779Y4696780D02*
X2946780D01*
X2960000Y4710000D02*
Y4760000D01*
X2960001Y4760001D01*
X2690001Y4465001D02*
X2715001D01*
X2946779Y4696780D01*
X2660001Y4435001D02*
X2690001Y4465001D01*
X4230000Y1900000D02*
X4670000Y1460000D01*
X3836476Y4497114D02*
Y4506476D01*
X4810000Y1560000D02*
X5430000D01*
X5561779Y1428221D01*
X5750000Y1670000D02*
X6010000Y1410000D01*
X4590000Y2060000D02*
X4980000Y1670000D01*
X5750000D01*
X6010000Y1305000D02*
Y1410000D01*
X3956300Y4253700D02*
X3980000Y4230000D01*
X3830000Y4240000D02*
X3855000Y4265000D01*
X3956300Y4253700D02*
Y4360700D01*
X3855000Y4265000D02*
Y4362000D01*
X3955000D02*
X3956300Y4360700D01*
X5340000Y1305000D02*
Y1450000D01*
Y1305000D02*
X5345000Y1300000D01*
X3806300Y4363300D02*
Y4466937D01*
X3836476Y4497114D01*
X3805000Y4362000D02*
X3806300Y4363300D01*
X3753700D02*
X3755000Y4362000D01*
X3840000Y2760000D02*
Y2890000D01*
X5670000Y1305000D02*
Y1450000D01*
Y1305000D02*
X5675000Y1300000D01*
X5561779Y1303221D02*
Y1428221D01*
X3800000Y1860000D02*
X3840000Y1900000D01*
Y1995000D02*
X3985001D01*
X3770001D02*
X3840000D01*
Y1900000D02*
Y1995000D01*
X5561779Y1303221D02*
X5565000Y1300000D01*
X3840000Y2760000D02*
X3980001D01*
X3755001D02*
X3840000D01*
X3705000Y4195000D02*
Y4362000D01*
X2306838Y2510000D02*
X2660000D01*
X2251814Y2565024D02*
Y2702184D01*
X2245998Y2708000D02*
X2251814Y2702184D01*
Y2565024D02*
X2306838Y2510000D01*
X2660000D02*
X2730000Y2580000D01*
X1991998Y1318002D02*
X2533996Y1860000D01*
X3800000D01*
X4851779Y4698221D02*
X4906780D01*
X4549300Y4803700D02*
X4633444D01*
X4548000Y4805000D02*
X4549300Y4803700D01*
X4675000Y4605000D02*
X4851780Y4428221D01*
X4548000Y4605000D02*
X4675000D01*
X4851780Y4428221D02*
X4916780D01*
X3803700Y5499300D02*
Y5585913D01*
Y5499300D02*
X3805000Y5498000D01*
X6023970Y2938969D02*
Y3267289D01*
X6026680Y3270000D01*
X5995000Y2910000D02*
X6023970Y2938969D01*
X2964999Y5182300D02*
Y5190000D01*
Y5182300D02*
X2992300Y5155000D01*
X3412000D01*
X2690001Y4875001D02*
X2715001D01*
X4548000Y5305000D02*
X4655000D01*
X4916780Y4428221D02*
X4925001Y4420000D01*
X5115001Y4260000D02*
Y4420000D01*
X5065001Y4210000D02*
X5115001Y4260000D01*
X5065001Y4200000D02*
Y4210000D01*
X3020000Y4310288D02*
Y4520000D01*
X2957301Y4241600D02*
Y4247589D01*
X2920001Y4214300D02*
X2930001D01*
X2957301Y4241600D01*
X3410700Y4703700D02*
X3412000Y4705000D01*
X4255000Y4232500D02*
Y4362000D01*
X4355000Y4235000D02*
Y4362000D01*
X3675001Y6050000D02*
X3740000D01*
X4548000Y4905000D02*
X4549300Y4903700D01*
X6010000Y2236001D02*
Y2895001D01*
X5995000Y2910000D02*
X6010000Y2895001D01*
Y2236001D02*
X6026001Y2220000D01*
X5653980Y3363980D02*
X5813320D01*
X5650000Y3360000D02*
X5653980Y3363980D01*
X5650000Y3180000D02*
Y3360000D01*
X3323700Y5053700D02*
X3410700D01*
X3295000Y5105000D02*
X3412000D01*
X2825001Y5370759D02*
Y5400000D01*
X2655000Y5190000D02*
X2681541Y5216541D01*
Y5256541D02*
X2743460Y5318459D01*
X2772701D01*
X2825001Y5370759D01*
X2681541Y5216541D02*
Y5256541D01*
X2400001Y4585001D02*
Y4750001D01*
X3410700Y5053700D02*
X3412000Y5055000D01*
X1855000Y4860000D02*
Y4870000D01*
X2655000Y5930000D02*
X2681541Y5903459D01*
Y5863459D02*
Y5903459D01*
X2655000Y5190000D02*
X2814999D01*
X2665001Y4900001D02*
X2690001Y4875001D01*
X2400001Y4900001D02*
X2665001D01*
X5366245Y1160000D02*
X5427700Y1221455D01*
Y1272700D01*
X5455000Y1300000D01*
X4665000Y1160000D02*
X5366245D01*
X1991998Y1158000D02*
Y1318002D01*
X1229998Y2708000D02*
Y3279997D01*
X1230001Y3280000D01*
X1035001Y3285000D02*
X1040001Y3280000D01*
X1035001Y3285000D02*
Y3500000D01*
X3410700Y4753700D02*
X3412000Y4755000D01*
X2400001Y4435001D02*
X2660001D01*
D38*
X5902200Y5827774D02*
X5919974Y5810000D01*
X6081005D01*
X6180000Y5908995D01*
X4630000Y5790000D02*
X4700000D01*
X4056717D02*
X4630000D01*
Y5870000D01*
X4045001Y5801716D02*
Y5870000D01*
Y5801716D02*
X4056717Y5790000D01*
Y5960000D02*
X4680000D01*
X4700000Y5790000D02*
X4865900Y5624100D01*
X4680000Y5960000D02*
X4770000Y6050000D01*
X6140152Y5749024D02*
X6169176Y5720000D01*
X6095377Y5749024D02*
X6140152D01*
X6169176Y5720000D02*
X6180000D01*
X6091200Y5753201D02*
X6095377Y5749024D01*
X5784426Y5740000D02*
X5910000D01*
X5947200Y5639201D02*
Y5702800D01*
X5910000Y5740000D02*
X5947200Y5702800D01*
X4007500Y5677500D02*
X4010000Y5680000D01*
X4005000Y5498000D02*
X4007500Y5500500D01*
Y5677500D01*
X3905363Y5591973D02*
X3930000Y5616610D01*
Y5820000D01*
X3980000Y5870000D01*
X4055000Y5350000D02*
Y5498000D01*
X4680000Y5960000D02*
X4968851Y5671150D01*
X6049700Y5869700D02*
X6052265Y5872265D01*
X5958713Y5961287D02*
X5999700Y5920300D01*
Y5869700D02*
Y5920300D01*
X6052265Y5960870D02*
X6054830Y5963435D01*
X6052265Y5872265D02*
Y5960870D01*
X5935001Y5961287D02*
X5958713D01*
X5932107Y5964180D02*
X5935001Y5961287D01*
X5849701Y5869700D02*
Y5934701D01*
X5905000Y5990000D01*
Y6000000D01*
X5899700Y5869700D02*
X5902200Y5867201D01*
Y5827774D02*
Y5867201D01*
X5879627Y5696201D02*
X5897201Y5678627D01*
X5802200D02*
X5819774Y5696201D01*
X5879627D01*
X5752200Y5707774D02*
X5784426Y5740000D01*
X3414500Y4802500D02*
X3547500D01*
X3550000Y4800000D01*
X3412000Y4805000D02*
X3414500Y4802500D01*
X5900001Y5520000D02*
X5949700Y5569700D01*
Y5636701D01*
X5900001Y5510000D02*
Y5520000D01*
X5752200Y5639201D02*
Y5707774D01*
X5749700Y5636701D02*
X5752200Y5639201D01*
X5897201D02*
Y5678627D01*
X5799701Y5636701D02*
X5802200Y5639201D01*
Y5678627D01*
X5897201Y5639201D02*
X5899700Y5636701D01*
X4045001Y5971716D02*
X4056717Y5960000D01*
X4968851Y5771149D02*
X5033851Y5706149D01*
Y5624100D02*
Y5706149D01*
X4968851Y5771149D02*
Y5829100D01*
X5102950Y5825000D02*
X5235000D01*
X5749551Y5869850D02*
X5749700Y5869700D01*
X5600150Y5869850D02*
X5749551D01*
X5600000Y5870000D02*
X5600150Y5869850D01*
X4105000Y4555000D02*
X4250000Y4700000D01*
X4105000Y4362000D02*
Y4555000D01*
X4055000Y4362000D02*
Y4695000D01*
X4050000Y4700000D02*
X4055000Y4695000D01*
X1320001Y3955000D02*
X1325001Y3950000D01*
X5947200Y5639201D02*
X5949700Y5636701D01*
X4936568Y5891716D02*
X4970000Y5858284D01*
X4925000Y5960000D02*
X4936568Y5948432D01*
Y5891716D02*
Y5948432D01*
X4970000Y5830249D02*
Y5858284D01*
X4968851Y5829100D02*
X4970000Y5830249D01*
X5098851Y5829100D02*
X5102950Y5825000D01*
X4865900Y5624100D02*
X4903851D01*
X4968851D02*
Y5671150D01*
X3855000Y5498000D02*
Y5595000D01*
X3840000Y5610000D02*
Y5920000D01*
Y5610000D02*
X3855000Y5595000D01*
X3905000Y5498000D02*
X3905363Y5498363D01*
Y5591973D01*
X3840000Y5920000D02*
X3970000Y6050000D01*
X3980000Y5870000D02*
X4045001D01*
X3970000Y6050000D02*
X4045001D01*
X4045001Y6050000D01*
Y5971716D02*
Y6050000D01*
D39*
X5245000Y5820000D02*
X5330000D01*
X5240000Y5825000D02*
X5245000Y5820000D01*
X6860000Y6460000D02*
X6860001Y6460001D01*
X4355000Y4200000D02*
Y4235000D01*
X2989546Y4109546D02*
X3100000Y4220000D01*
X3525001Y5715000D02*
X3605000Y5635000D01*
X5330000Y5820000D02*
Y6220000D01*
X5847610Y3176020D02*
X5880000Y3208409D01*
Y3270000D01*
X5813320Y3176020D02*
X5847610D01*
X5330000Y5510000D02*
Y5820000D01*
X5240000Y5420000D02*
X5330000Y5510000D01*
X4916747Y5376747D02*
X4960000Y5420000D01*
X5240000D01*
X4655000Y5305000D02*
X4732279D01*
X5551704Y5060000D02*
X5621704Y5130000D01*
X3655001Y4145001D02*
X3705000Y4195000D01*
X2957301Y4247589D02*
X3020000Y4310288D01*
X4255000Y4125000D02*
Y4232500D01*
D40*
X4300000Y6220000D02*
X4925000D01*
X4195001D02*
X4300000D01*
X4925000D02*
X5330000D01*
X3330000D02*
X4195001D01*
X5800000Y5040000D02*
Y5130000D01*
X5900001Y5510000D02*
X6350000D01*
X6860000Y6460000D02*
Y7510000D01*
Y6220000D02*
Y6460000D01*
X6860001Y6460001D02*
X7140000D01*
X5330000Y6220000D02*
X5905000D01*
X3330000Y5930000D02*
Y6220000D01*
X4355000Y4120000D02*
Y4200000D01*
Y4000000D02*
Y4120000D01*
X4560000D01*
X4800000Y3880000D01*
X1675740Y4234260D02*
X1780000Y4130000D01*
X2040000D01*
X1673827Y4286173D02*
X1675740Y4284260D01*
Y4234260D02*
Y4284260D01*
X2040000Y3880000D02*
Y4130000D01*
Y4204300D01*
X6350000Y5235147D02*
Y5510000D01*
Y6220000D01*
X6860000D01*
X6244853Y5130000D02*
X6350000Y5235147D01*
X5800000Y5130000D02*
X6244853D01*
X5905000Y6220000D02*
X6350000D01*
X5240000Y5583992D02*
Y5675000D01*
X3330000Y5930000D02*
X3390000Y5870000D01*
X2120000Y6220000D02*
X3330000D01*
X3436080Y6050000D02*
X3525001D01*
X3390000Y5870000D02*
X3525001D01*
X3680000Y5770000D02*
Y5865001D01*
X6895147Y6072002D02*
X7145000D01*
X6860000Y6107149D02*
Y6220000D01*
Y6107149D02*
X6895147Y6072002D01*
X1330000Y6865698D02*
X1524301D01*
X1530000Y6860000D01*
X3654301Y3969300D02*
X3665001Y3980000D01*
X1704999Y4870000D02*
X1705000Y4870000D01*
X1500000Y4870000D02*
X1704999D01*
X1500000Y4870000D02*
X1500000Y4870000D01*
X6460000Y4460000D02*
Y4582000D01*
X6460500Y4582500D01*
X6260000Y4420000D02*
X6420000D01*
X6460000Y4460000D01*
X6210000Y4470000D02*
X6260000Y4420000D01*
X6210000Y4470000D02*
Y4579000D01*
X6206500Y4582500D02*
X6210000Y4579000D01*
X939501Y4337499D02*
Y4464853D01*
X974648Y4500000D01*
X1158353D01*
X1193501Y4337499D02*
Y4464853D01*
X1158353Y4500000D02*
X1193501Y4464853D01*
X5400000Y3180000D02*
X5500000D01*
X1185001Y3500000D02*
X1290000D01*
X1885001Y3480000D02*
X1980000D01*
X2100000Y3270000D02*
X2100000Y3270000D01*
X1964301Y3270000D02*
X2100000D01*
X5750000Y6005001D02*
X5755000Y6000000D01*
X5750000Y6005001D02*
Y6100000D01*
X5075000Y5960000D02*
X5170000D01*
X3600000Y1995001D02*
Y2090000D01*
Y1995001D02*
X3605001Y1990000D01*
X3600000Y2754998D02*
X3605001Y2760000D01*
X3600000Y2660000D02*
Y2754998D01*
X3675001Y5870000D02*
X3680000Y5865001D01*
X5065001Y5103438D02*
Y5210000D01*
X5063892Y5102329D02*
X5065001Y5103438D01*
X4594301Y3780000D02*
X4730000D01*
X4800000Y3880000D02*
X4892700D01*
X3400000Y3930000D02*
X3440000Y3970000D01*
X3495001D01*
X3505001Y3980000D01*
Y3990000D01*
X3290000Y3780000D02*
X3425701D01*
X4905000Y5228154D02*
X4915001Y5218153D01*
X4836405Y5228154D02*
X4905000D01*
X4759558Y5305000D02*
X4836405Y5228154D01*
X4915001Y5210000D02*
Y5218153D01*
X4732279Y5305000D02*
X4759558D01*
X5621704Y5130000D02*
X5800000D01*
X3525001Y5715000D02*
Y5870000D01*
X6730000Y1710000D02*
X6900000D01*
X6360000D02*
X6730000D01*
X6250000Y1600000D02*
X6360000Y1710000D01*
X6765147Y2920000D02*
X6890000D01*
X6730000Y2884853D02*
X6765147Y2920000D01*
X6730000Y1710000D02*
Y2884853D01*
X6250000Y1450000D02*
Y1600000D01*
X6890000Y2920000D02*
X6900000Y2910000D01*
X4350000Y1060000D02*
X4515000D01*
Y1160000D01*
Y960000D02*
Y1060000D01*
X2040000Y6140000D02*
X2120000Y6220000D01*
X2040000Y3880000D02*
X2320000Y3600000D01*
X2040000Y4204300D02*
X2470001D01*
X2040000D02*
Y6140000D01*
X3550000Y3600000D02*
Y3660699D01*
X3654301Y3765000D01*
X2320000Y3600000D02*
X2500000D01*
X6860000Y7510000D02*
X6956001Y7606001D01*
X7150000D01*
X502501Y7219999D02*
X632499Y7090000D01*
X955000D01*
X1152849Y6857849D02*
X1322151D01*
X1145000Y6850000D02*
X1152849Y6857849D01*
X1322151D02*
X1330000Y6865698D01*
X1145000Y6850000D02*
Y7090000D01*
X4255000Y3890701D02*
Y4125000D01*
Y3890701D02*
X4310701Y3835000D01*
X4325701D01*
X3655001Y3990000D02*
Y4145001D01*
X1735701Y3270000D02*
Y3459300D01*
X1737998Y2708000D02*
Y3267703D01*
X4325701Y3835000D02*
X4365701Y3795000D01*
Y3780000D02*
Y3795000D01*
X3660000Y3985001D02*
X3665001Y3980000D01*
X3654301Y3780000D02*
Y3969300D01*
D41*
X4195001Y6050000D02*
Y6220000D01*
X4300000Y6052700D02*
Y6220000D01*
X4297300Y6050000D02*
X4300000Y6052700D01*
X4195001Y5870000D02*
X4297300D01*
X5145000Y4915000D02*
X5210000Y4980000D01*
X5090001Y4915000D02*
X5145000D01*
X5065001Y4690000D02*
X5181704D01*
X5551704Y5060000D01*
X5065001Y4890000D02*
X5090001Y4915000D01*
X5065001Y4880000D02*
Y4890000D01*
X4195001Y5870000D02*
X4195001Y5870000D01*
X5905000Y6000000D02*
Y6220000D01*
X4925000Y5960000D02*
Y6220000D01*
D42*
X1670000Y4290000D02*
X1673827Y4286173D01*
X5525000Y2908000D02*
X5526001Y2909000D01*
X5495000Y2878000D02*
X5525000Y2908000D01*
Y2910000D01*
Y2835000D02*
Y2908000D01*
X6330000Y4775000D02*
X6331750Y4773250D01*
X4916747Y5211746D02*
Y5306747D01*
X4915001Y5210000D02*
X4916747Y5211746D01*
X3654301Y3765000D02*
Y3780000D01*
X5471005Y2805000D02*
X5495000D01*
X5430000Y2763995D02*
X5471005Y2805000D01*
X5495000D02*
X5525000Y2835000D01*
X5430000Y2640000D02*
Y2763995D01*
X6079750Y4769750D02*
X6080000Y4770000D01*
X6079500Y4582500D02*
X6079750Y4582750D01*
X6331750Y4584250D02*
X6333500Y4582500D01*
D43*
X6080000Y4775000D02*
X6330000D01*
X1320001Y4145000D02*
X1320501Y4145500D01*
X1060001Y4145000D02*
X1320001D01*
X1060001D02*
X1066501Y4151500D01*
Y4337499D01*
X4916747Y5306747D02*
Y5376747D01*
X1483998Y2506704D02*
Y2708000D01*
X1480000Y2502706D02*
X1483998Y2506704D01*
X1480000Y2500000D02*
Y2502706D01*
X6079750Y4582750D02*
Y4769750D01*
X1320501Y4145500D02*
Y4337499D01*
X6331750Y4584250D02*
Y4773250D01*
D44*
X1060000Y3954999D02*
X1060001Y3955000D01*
X1060000Y3830000D02*
Y3954999D01*
X1735701Y3270000D02*
X1735701Y3270000D01*
X1500000Y3270000D02*
X1735701D01*
D45*
X360294Y7480000D02*
X380000D01*
X290000Y6570294D02*
X360294Y6500000D01*
X290000Y7409706D02*
X360294Y7480000D01*
Y6500000D02*
X900000D01*
X290000Y6570294D02*
Y7409706D01*
X900000Y6500000D02*
X1050000D01*
D46*
X760000Y8400000D02*
X770000Y8390000D01*
X800000D01*
D47*
X6897500Y4460000D02*
Y4710000D01*
X502501Y4210000D02*
Y4460000D01*
X6725000Y4037500D02*
X6897500Y4210000D01*
X6460500Y4037500D02*
X6725000D01*
X6333500D02*
X6460500D01*
X6206500D02*
X6333500D01*
X6079500D02*
X6206500D01*
X675000Y4882499D02*
X939501D01*
X502501Y4710000D02*
X675000Y4882499D01*
X1193501D02*
X1320501D01*
X1066501D02*
X1193501D01*
X939501D02*
X1066501D01*
D48*
X7140000Y7222001D02*
D03*
Y6968001D02*
D03*
Y6714001D02*
D03*
Y6460001D02*
D03*
X7145000Y5310002D02*
D03*
Y5564002D02*
D03*
Y5818002D02*
D03*
Y6072002D02*
D03*
X7150000Y8368001D02*
D03*
Y8114001D02*
D03*
Y7860001D02*
D03*
Y7606001D02*
D03*
D49*
X5990000Y980000D02*
D03*
X4990000D02*
D03*
D50*
X502501Y6719999D02*
D03*
Y4210000D02*
D03*
X6897500Y4710000D02*
D03*
X6900000Y2910000D02*
D03*
Y1710000D02*
D03*
D51*
X502501Y6969999D02*
D03*
Y7219999D02*
D03*
Y4710000D02*
D03*
Y4460000D02*
D03*
X6897500Y4210000D02*
D03*
Y4460000D02*
D03*
X6900000Y2410000D02*
D03*
Y2660000D02*
D03*
Y1210000D02*
D03*
Y1460000D02*
D03*
D52*
X7185000Y3560000D02*
D03*
X6455000D02*
D03*
D53*
X6820000Y3430000D02*
D03*
X6980000D02*
D03*
X6660000D02*
D03*
X6900000Y3690000D02*
D03*
X6740000D02*
D03*
D54*
X5526001Y2220000D02*
D03*
D55*
X6026001D02*
D03*
D56*
X2120000Y7302000D02*
D03*
Y7556000D02*
D03*
Y7810000D02*
D03*
Y8064000D02*
D03*
Y8318000D02*
D03*
Y8572000D02*
D03*
Y8826000D02*
D03*
D57*
X390000Y400000D02*
D03*
X6990000Y9600000D02*
D03*
Y400000D02*
D03*
X390000Y9600000D02*
D03*
D58*
X5220000Y1450000D02*
D03*
X5800000Y5040000D02*
D03*
X3970000Y6310000D02*
D03*
X3880000D02*
D03*
X4630000Y5870000D02*
D03*
X4533231D02*
D03*
X4303523Y5680000D02*
D03*
X4220000Y5720000D02*
D03*
X4135730Y5680000D02*
D03*
X4195000Y6315000D02*
D03*
X4380000Y6310000D02*
D03*
X4387300Y5870000D02*
D03*
X4297300D02*
D03*
X4387300Y6050000D02*
D03*
X4297300D02*
D03*
X3770000Y4850000D02*
D03*
X3260000Y6310000D02*
D03*
X3170000D02*
D03*
X4675503Y6054497D02*
D03*
X4770000Y6050000D02*
D03*
X3960000Y5350000D02*
D03*
X4760000Y5170000D02*
D03*
X6180000Y5720000D02*
D03*
Y5908995D02*
D03*
Y5810000D02*
D03*
X5527179Y5583992D02*
D03*
X5600000Y5640000D02*
D03*
X5240000Y5583992D02*
D03*
X4700000Y5100000D02*
D03*
X4010000Y5680000D02*
D03*
X4055000Y5350000D02*
D03*
X4260000D02*
D03*
X6054830Y5963435D02*
D03*
X3436080Y6050000D02*
D03*
X3680000Y5680000D02*
D03*
Y5770000D02*
D03*
X4290000Y6310000D02*
D03*
X3370000Y6950000D02*
D03*
X3870000Y4970000D02*
D03*
X3460000Y6950000D02*
D03*
X3550000Y6310000D02*
D03*
X3960000Y4970000D02*
D03*
X3860000Y4850000D02*
D03*
X3550000Y5000000D02*
D03*
Y4900000D02*
D03*
Y4800000D02*
D03*
X3460000Y6310000D02*
D03*
X6290000Y3450000D02*
D03*
X1530000Y6860000D02*
D03*
Y6960000D02*
D03*
X5210000Y4980000D02*
D03*
X5266222Y5050278D02*
D03*
X6490000Y6070002D02*
D03*
X5783773Y4086629D02*
D03*
X5080000Y2655000D02*
D03*
X1530000Y7160000D02*
D03*
X1610000Y6640000D02*
D03*
X5880000Y3270000D02*
D03*
X5400000Y3180000D02*
D03*
X1290000Y3500000D02*
D03*
X1980000Y3480000D02*
D03*
X2100000Y3270000D02*
D03*
X5530000Y5930000D02*
D03*
X5750000Y6100000D02*
D03*
X5170000Y5960000D02*
D03*
X3600000Y2090000D02*
D03*
Y2660000D02*
D03*
X5063892Y5102329D02*
D03*
X4730000Y3780000D02*
D03*
X4892700Y3880000D02*
D03*
Y3970000D02*
D03*
X3400000Y3930000D02*
D03*
X3290000Y3780000D02*
D03*
X5760000Y1450000D02*
D03*
X5430000D02*
D03*
X1930000Y3860000D02*
D03*
X5450000Y5870000D02*
D03*
X3930000Y4530000D02*
D03*
X4150000Y4700000D02*
D03*
X4320000Y5200000D02*
D03*
X3840000Y2980000D02*
D03*
X4410000Y5200000D02*
D03*
X4350000Y5350000D02*
D03*
X4820000Y5100000D02*
D03*
X3410000Y5460000D02*
D03*
X5710000Y5040000D02*
D03*
X6250000Y1450000D02*
D03*
X6340000D02*
D03*
X4260000Y1060000D02*
D03*
X4350000D02*
D03*
X1930000Y3950000D02*
D03*
X3550000Y3500000D02*
D03*
X2500000Y3700000D02*
D03*
X3550000Y3600000D02*
D03*
X2500000D02*
D03*
X5340000Y1450000D02*
D03*
X3250000Y4830000D02*
D03*
X3410000Y5370000D02*
D03*
X3150000Y4830000D02*
D03*
X1480000Y2500000D02*
D03*
X5600000Y5870000D02*
D03*
X4250000Y4700000D02*
D03*
X4050000D02*
D03*
X3838653Y4608653D02*
D03*
X3836476Y4506476D02*
D03*
X3840000Y2890000D02*
D03*
X5670000Y1450000D02*
D03*
D59*
X1670000Y4290000D02*
D03*
X1900000Y6350000D02*
D03*
Y6150000D02*
D03*
Y5950000D02*
D03*
Y5750000D02*
D03*
Y5550000D02*
D03*
X6400000Y2820000D02*
D03*
X6650000Y850000D02*
D03*
X1500000Y4870000D02*
D03*
X1900000Y5350000D02*
D03*
X1060000Y3830000D02*
D03*
X1500000Y8450000D02*
D03*
Y8250000D02*
D03*
Y8050000D02*
D03*
Y7850000D02*
D03*
X150000D02*
D03*
Y8050000D02*
D03*
Y8250000D02*
D03*
Y8450000D02*
D03*
X2580000Y6050000D02*
D03*
X2940000Y5900000D02*
D03*
X2800000Y6050000D02*
D03*
X2350000D02*
D03*
X2210000Y5050000D02*
D03*
Y4850000D02*
D03*
Y4650000D02*
D03*
Y4450000D02*
D03*
X2200000Y5950000D02*
D03*
X480000Y5360000D02*
D03*
X320000D02*
D03*
X1250000Y6470000D02*
D03*
X1810000Y4290000D02*
D03*
X1500000Y3270000D02*
D03*
Y3150000D02*
D03*
X5310000Y2640000D02*
D03*
X5430000D02*
D03*
X1050000Y6500000D02*
D03*
X900000D02*
D03*
X1500000Y4600000D02*
D03*
Y4460000D02*
D03*
%TF.MD5,9f9a68729f68f1e96efb2e083a7654b8*%
M02*
