%TF.GenerationSoftware,Altium Limited,Altium Designer,22.7.1 (60)*%
G04 Layer_Physical_Order=2*
G04 Layer_Color=16711680*
%FSLAX45Y45*%
%MOMM*%
%TF.SameCoordinates,C4916FE7-F214-4651-8B13-81D0A890374D*%
%TF.FilePolarity,Positive*%
%TF.FileFunction,Copper,L2,Bot,Signal*%
%TF.Part,Single*%
G01*
G75*
%TA.AperFunction,SMDPad,CuDef*%
%ADD23R,1.16000X2.72000*%
%ADD24R,1.40000X1.70000*%
%ADD25R,1.70000X1.40000*%
%ADD26R,1.00000X1.70000*%
%ADD27R,0.80000X1.00000*%
%TA.AperFunction,Conductor*%
%ADD37C,0.25400*%
%ADD38C,0.20000*%
%ADD39C,0.40000*%
%ADD40C,0.60000*%
%ADD41C,0.30000*%
%ADD42C,0.70000*%
%ADD43C,0.50000*%
%ADD44C,0.90000*%
%ADD45C,1.20000*%
%ADD46C,1.40000*%
%TA.AperFunction,ComponentPad*%
%ADD48O,1.80000X1.60000*%
%ADD49C,0.80000*%
%ADD50R,1.50800X1.50800*%
%ADD51C,1.50800*%
%ADD52O,1.50000X4.00000*%
%ADD53C,1.20000*%
%ADD54R,1.30000X1.30000*%
%ADD55C,1.30000*%
%ADD56O,2.30000X1.80000*%
%TA.AperFunction,ViaPad*%
%ADD57C,5.00000*%
%ADD58C,0.60000*%
%ADD59C,0.90000*%
%TA.AperFunction,SMDPad,CuDef*%
%ADD60R,3.50000X3.60000*%
%ADD61R,4.00000X4.00000*%
%ADD62R,0.48000X1.40000*%
%ADD63R,0.56000X1.52500*%
G04:AMPARAMS|DCode=64|XSize=1.34mm|YSize=0.59mm|CornerRadius=0.07375mm|HoleSize=0mm|Usage=FLASHONLY|Rotation=270.000|XOffset=0mm|YOffset=0mm|HoleType=Round|Shape=RoundedRectangle|*
%AMROUNDEDRECTD64*
21,1,1.34000,0.44250,0,0,270.0*
21,1,1.19250,0.59000,0,0,270.0*
1,1,0.14750,-0.22125,-0.59625*
1,1,0.14750,-0.22125,0.59625*
1,1,0.14750,0.22125,0.59625*
1,1,0.14750,0.22125,-0.59625*
%
%ADD64ROUNDEDRECTD64*%
%ADD65R,2.70000X2.05000*%
G04:AMPARAMS|DCode=66|XSize=2.2mm|YSize=3.8mm|CornerRadius=0.55mm|HoleSize=0mm|Usage=FLASHONLY|Rotation=270.000|XOffset=0mm|YOffset=0mm|HoleType=Round|Shape=RoundedRectangle|*
%AMROUNDEDRECTD66*
21,1,2.20000,2.70000,0,0,270.0*
21,1,1.10000,3.80000,0,0,270.0*
1,1,1.10000,-1.35000,-0.55000*
1,1,1.10000,-1.35000,0.55000*
1,1,1.10000,1.35000,0.55000*
1,1,1.10000,1.35000,-0.55000*
%
%ADD66ROUNDEDRECTD66*%
G04:AMPARAMS|DCode=67|XSize=2.3mm|YSize=2.5mm|CornerRadius=0.575mm|HoleSize=0mm|Usage=FLASHONLY|Rotation=0.000|XOffset=0mm|YOffset=0mm|HoleType=Round|Shape=RoundedRectangle|*
%AMROUNDEDRECTD67*
21,1,2.30000,1.35000,0,0,0.0*
21,1,1.15000,2.50000,0,0,0.0*
1,1,1.15000,0.57500,-0.67500*
1,1,1.15000,-0.57500,-0.67500*
1,1,1.15000,-0.57500,0.67500*
1,1,1.15000,0.57500,0.67500*
%
%ADD67ROUNDEDRECTD67*%
G04:AMPARAMS|DCode=68|XSize=1.21mm|YSize=0.59mm|CornerRadius=0.1475mm|HoleSize=0mm|Usage=FLASHONLY|Rotation=270.000|XOffset=0mm|YOffset=0mm|HoleType=Round|Shape=RoundedRectangle|*
%AMROUNDEDRECTD68*
21,1,1.21000,0.29500,0,0,270.0*
21,1,0.91500,0.59000,0,0,270.0*
1,1,0.29500,-0.14750,-0.45750*
1,1,0.29500,-0.14750,0.45750*
1,1,0.29500,0.14750,0.45750*
1,1,0.29500,0.14750,-0.45750*
%
%ADD68ROUNDEDRECTD68*%
%ADD69R,3.27000X1.15000*%
%ADD70R,1.50000X0.40000*%
%ADD71R,1.21000X0.73000*%
%TA.AperFunction,Conductor*%
%ADD72C,0.28107*%
%ADD73C,0.80000*%
G36*
X7150000Y9899999D02*
X7150000Y9900000D01*
X7164774Y9900000D01*
X7193753Y9894235D01*
X7221052Y9882928D01*
X7245619Y9866513D01*
X7266513Y9845620D01*
X7282928Y9821052D01*
X7294235Y9793753D01*
X7300000Y9764774D01*
X7299999Y9750000D01*
X7300000Y250000D01*
X7299999Y250000D01*
X7300000Y235226D01*
X7294235Y206246D01*
X7282928Y178948D01*
X7266512Y154380D01*
X7245619Y133487D01*
X7221051Y117072D01*
X7193753Y105764D01*
X7164773Y100000D01*
X7150000Y100000D01*
X250000D01*
X250000Y100000D01*
X235226Y100000D01*
X206246Y105765D01*
X178948Y117072D01*
X154380Y133487D01*
X133487Y154380D01*
X117072Y178948D01*
X105764Y206246D01*
X100000Y235226D01*
X100000Y250000D01*
Y1106314D01*
X111733Y1111174D01*
X1066454Y156454D01*
X1086433Y143104D01*
X1110000Y138416D01*
X6480000Y138417D01*
X6503567Y143105D01*
X6523546Y156454D01*
X6626491Y259399D01*
X6639840Y279378D01*
X6644528Y302945D01*
Y457436D01*
X6758222Y571130D01*
X6767909Y562856D01*
X6754457Y544341D01*
X6734777Y505717D01*
X6721381Y464490D01*
X6714600Y421675D01*
Y378325D01*
X6721381Y335510D01*
X6734777Y294283D01*
X6754457Y255659D01*
X6779937Y220589D01*
X6810589Y189937D01*
X6845659Y164457D01*
X6884283Y144777D01*
X6925510Y131381D01*
X6968325Y124600D01*
X7011675D01*
X7054490Y131381D01*
X7095717Y144777D01*
X7134341Y164457D01*
X7169411Y189937D01*
X7200063Y220589D01*
X7225543Y255659D01*
X7245223Y294283D01*
X7258619Y335510D01*
X7265400Y378325D01*
Y421675D01*
X7258619Y464490D01*
X7245223Y505717D01*
X7225543Y544341D01*
X7200063Y579411D01*
X7169411Y610063D01*
X7134341Y635543D01*
X7095717Y655223D01*
X7054490Y668619D01*
X7011675Y675400D01*
X6968325D01*
X6925510Y668619D01*
X6884283Y655223D01*
X6845659Y635543D01*
X6827144Y622091D01*
X6818870Y631778D01*
X7093546Y906454D01*
X7106896Y926433D01*
X7111583Y950000D01*
Y3088995D01*
X7106896Y3112562D01*
X7093546Y3132541D01*
X7052541Y3173546D01*
X7032562Y3186896D01*
X7008995Y3191583D01*
X6611005D01*
X6587438Y3186896D01*
X6567459Y3173546D01*
X6526454Y3132541D01*
X6513105Y3112562D01*
X6508417Y3088995D01*
Y2745509D01*
X6464492Y2701583D01*
X5797541D01*
X5796290Y2721010D01*
Y2729150D01*
X5796760Y2733390D01*
X5797789Y2738783D01*
X5799208Y2743929D01*
X5801018Y2748869D01*
X5803230Y2753639D01*
X5805866Y2758282D01*
X5808954Y2762826D01*
X5811617Y2766153D01*
X5979566Y2934102D01*
X6110000D01*
X6119911Y2936074D01*
X6128312Y2941688D01*
X6135000Y2948375D01*
X6161688Y2921688D01*
X6170090Y2916074D01*
X6180000Y2914102D01*
X6320000D01*
X6329911Y2916074D01*
X6338312Y2921688D01*
X6368312Y2951688D01*
X6373926Y2960089D01*
X6375898Y2970000D01*
Y3129273D01*
X6390727Y3144102D01*
X6450000D01*
X6459911Y3146074D01*
X6468312Y3151688D01*
X6490660Y3174036D01*
X6510000D01*
X6527073Y3176283D01*
X6542982Y3182873D01*
X6556643Y3193356D01*
X6567127Y3207018D01*
X6573716Y3222927D01*
X6574947Y3232275D01*
X6656862Y3314190D01*
X6659164Y3314116D01*
X6660000Y3314254D01*
X6660836Y3314116D01*
X6663935Y3314216D01*
X6664321Y3314306D01*
X6664714Y3314253D01*
X6667915Y3314453D01*
X6668752Y3314674D01*
X6669614Y3314615D01*
X6672714Y3315015D01*
X6673497Y3315279D01*
X6674321Y3315274D01*
X6677421Y3315874D01*
X6677884Y3316063D01*
X6678385Y3316080D01*
X6681385Y3316780D01*
X6682130Y3317117D01*
X6682943Y3317195D01*
X6685943Y3318095D01*
X6686637Y3318464D01*
X6687414Y3318585D01*
X6690414Y3319685D01*
X6690874Y3319965D01*
X6691402Y3320070D01*
X6694302Y3321270D01*
X6694765Y3321580D01*
X6695306Y3321711D01*
X6698106Y3323011D01*
X6698711Y3323453D01*
X6699428Y3323671D01*
X6702228Y3325171D01*
X6702939Y3325756D01*
X6703798Y3326085D01*
X6706498Y3327785D01*
X6706915Y3328179D01*
X6707442Y3328408D01*
X6710042Y3330208D01*
X6710446Y3330626D01*
X6710969Y3330881D01*
X6713469Y3332780D01*
X6714042Y3333428D01*
X6714794Y3333857D01*
X6717094Y3335858D01*
X6717475Y3336351D01*
X6718002Y3336686D01*
X6720302Y3338886D01*
X6720637Y3339364D01*
X6721115Y3339699D01*
X6723315Y3341999D01*
X6723649Y3342525D01*
X6724142Y3342906D01*
X6726142Y3345206D01*
X6726570Y3345956D01*
X6727217Y3346528D01*
X6729118Y3349028D01*
X6729374Y3349554D01*
X6729794Y3349960D01*
X6731594Y3352560D01*
X6731821Y3353085D01*
X6732215Y3353501D01*
X6732667Y3354219D01*
X6740000Y3356301D01*
X6747333Y3354219D01*
X6747785Y3353502D01*
X6748178Y3353086D01*
X6748406Y3352560D01*
X6750206Y3349960D01*
X6750625Y3349555D01*
X6750881Y3349030D01*
X6752781Y3346530D01*
X6753428Y3345957D01*
X6753857Y3345206D01*
X6755857Y3342906D01*
X6756351Y3342525D01*
X6756686Y3341998D01*
X6758886Y3339698D01*
X6759363Y3339364D01*
X6759698Y3338886D01*
X6761998Y3336686D01*
X6762524Y3336351D01*
X6762906Y3335858D01*
X6765206Y3333858D01*
X6765957Y3333428D01*
X6766531Y3332781D01*
X6769031Y3330881D01*
X6769554Y3330626D01*
X6769958Y3330208D01*
X6772558Y3328408D01*
X6773084Y3328179D01*
X6773501Y3327785D01*
X6776201Y3326085D01*
X6777061Y3325756D01*
X6777771Y3325172D01*
X6780571Y3323672D01*
X6781288Y3323453D01*
X6781894Y3323010D01*
X6784695Y3321710D01*
X6785235Y3321579D01*
X6785697Y3321271D01*
X6788597Y3320071D01*
X6789125Y3319966D01*
X6789586Y3319685D01*
X6792586Y3318585D01*
X6793363Y3318464D01*
X6794057Y3318095D01*
X6797057Y3317195D01*
X6797870Y3317117D01*
X6798615Y3316780D01*
X6801615Y3316080D01*
X6802115Y3316063D01*
X6802579Y3315874D01*
X6805679Y3315274D01*
X6806504Y3315278D01*
X6807285Y3315015D01*
X6810385Y3314615D01*
X6811249Y3314674D01*
X6812085Y3314453D01*
X6815285Y3314253D01*
X6815678Y3314306D01*
X6816064Y3314216D01*
X6819164Y3314116D01*
X6820000Y3314254D01*
X6820835Y3314116D01*
X6823936Y3314216D01*
X6824322Y3314306D01*
X6824715Y3314253D01*
X6827914Y3314453D01*
X6828752Y3314674D01*
X6829614Y3314615D01*
X6832714Y3315015D01*
X6833496Y3315278D01*
X6834321Y3315274D01*
X6837420Y3315874D01*
X6837884Y3316063D01*
X6838385Y3316080D01*
X6841385Y3316780D01*
X6842130Y3317117D01*
X6842943Y3317195D01*
X6845943Y3318095D01*
X6846637Y3318464D01*
X6847414Y3318585D01*
X6850414Y3319685D01*
X6850874Y3319966D01*
X6851403Y3320071D01*
X6854303Y3321271D01*
X6854765Y3321579D01*
X6855305Y3321710D01*
X6858105Y3323010D01*
X6858711Y3323453D01*
X6859429Y3323672D01*
X6862229Y3325172D01*
X6862939Y3325756D01*
X6863798Y3326085D01*
X6866498Y3327785D01*
X6866915Y3328179D01*
X6867442Y3328408D01*
X6870042Y3330208D01*
X6870446Y3330626D01*
X6870969Y3330881D01*
X6873469Y3332780D01*
X6874042Y3333428D01*
X6874793Y3333857D01*
X6877093Y3335858D01*
X6877475Y3336351D01*
X6878001Y3336686D01*
X6880301Y3338886D01*
X6880636Y3339364D01*
X6881114Y3339698D01*
X6883314Y3341998D01*
X6883649Y3342525D01*
X6884142Y3342906D01*
X6886142Y3345206D01*
X6886571Y3345957D01*
X6887218Y3346530D01*
X6889119Y3349030D01*
X6889374Y3349555D01*
X6889794Y3349960D01*
X6891594Y3352560D01*
X6891821Y3353085D01*
X6892215Y3353501D01*
X6893915Y3356202D01*
X6894244Y3357060D01*
X6894827Y3357770D01*
X6896327Y3360569D01*
X6896546Y3361288D01*
X6896990Y3361895D01*
X6898289Y3364695D01*
X6898421Y3365235D01*
X6898730Y3365698D01*
X6899930Y3368599D01*
X6900034Y3369126D01*
X6900314Y3369584D01*
X6901414Y3372584D01*
X6901536Y3373363D01*
X6901905Y3374059D01*
X6902805Y3377059D01*
X6902883Y3377872D01*
X6903220Y3378615D01*
X6903920Y3381615D01*
X6903936Y3382115D01*
X6904125Y3382577D01*
X6904725Y3385678D01*
X6904721Y3386504D01*
X6904985Y3387288D01*
X6905385Y3390388D01*
X6905326Y3391249D01*
X6905547Y3392083D01*
X6905747Y3395283D01*
X6905694Y3395679D01*
X6905784Y3396067D01*
X6905884Y3399167D01*
X6905815Y3399585D01*
X6905897Y3400000D01*
Y3460000D01*
X6905814Y3460416D01*
X6905884Y3460834D01*
X6905784Y3463933D01*
X6905694Y3464321D01*
X6905747Y3464717D01*
X6905547Y3467917D01*
X6905326Y3468751D01*
X6905385Y3469612D01*
X6904985Y3472712D01*
X6904721Y3473496D01*
X6904725Y3474322D01*
X6904125Y3477423D01*
X6903936Y3477885D01*
X6903920Y3478385D01*
X6903220Y3481385D01*
X6902883Y3482128D01*
X6902805Y3482941D01*
X6901905Y3485941D01*
X6901536Y3486637D01*
X6901414Y3487416D01*
X6900314Y3490416D01*
X6900034Y3490874D01*
X6899930Y3491401D01*
X6898730Y3494301D01*
X6898421Y3494764D01*
X6898289Y3495305D01*
X6896990Y3498105D01*
X6896546Y3498712D01*
X6896327Y3499431D01*
X6894827Y3502230D01*
X6894244Y3502940D01*
X6893915Y3503798D01*
X6892215Y3506498D01*
X6891821Y3506914D01*
X6891594Y3507440D01*
X6891469Y3507620D01*
X6894257Y3516402D01*
X6897964Y3520320D01*
X6941142D01*
X6956536Y3523382D01*
X6969586Y3532102D01*
X7035497Y3598014D01*
X7044218Y3611064D01*
X7047280Y3626458D01*
Y3749442D01*
X7044218Y3764836D01*
X7036325Y3776649D01*
X7047091Y3787415D01*
X7055811Y3800466D01*
X7058873Y3815860D01*
Y3879262D01*
X7055811Y3894656D01*
X7047091Y3907706D01*
X7002258Y3952539D01*
X6989208Y3961259D01*
X6973814Y3964321D01*
X6452999D01*
X6437605Y3961259D01*
X6424555Y3952539D01*
X6298956Y3826940D01*
X5847336D01*
X5840400Y3828319D01*
Y3840400D01*
X5646289D01*
Y3894600D01*
X5700400D01*
Y4045400D01*
X5569600D01*
Y3970063D01*
X5567268Y3967732D01*
X5557234Y3952714D01*
X5553710Y3935000D01*
X5553711Y3934999D01*
Y3688433D01*
X5553710Y3688432D01*
X5557234Y3670717D01*
X5567268Y3655700D01*
X5590699Y3632269D01*
X5590700Y3632268D01*
X5605717Y3622234D01*
X5623431Y3618711D01*
X5740000D01*
X5744472Y3619600D01*
X5840400D01*
Y3696681D01*
X5847335Y3698060D01*
X6335677D01*
X6342831Y3699483D01*
X6354281Y3689155D01*
X6353734Y3685000D01*
Y3435000D01*
X6357184Y3408790D01*
X6367301Y3384367D01*
X6383394Y3363394D01*
X6402677Y3348598D01*
X6402150Y3342429D01*
X6399177Y3335897D01*
X6370724D01*
X6338313Y3368310D01*
X6338312Y3368310D01*
X6308313Y3398312D01*
X6308312Y3398312D01*
X6303074Y3401812D01*
X6299911Y3403926D01*
X6290001Y3405898D01*
X6180000D01*
X6170090Y3403926D01*
X6161688Y3398312D01*
X6138598Y3375222D01*
X6125898Y3380483D01*
Y3500000D01*
X6123926Y3509911D01*
X6118312Y3518312D01*
X6088312Y3548312D01*
X6079911Y3553926D01*
X6070000Y3555898D01*
X5969999D01*
X5960089Y3553926D01*
X5951687Y3548312D01*
X5951686Y3548312D01*
X5929861Y3526485D01*
X5850000D01*
X5840400Y3534364D01*
Y3580400D01*
X5639600D01*
Y3489600D01*
Y3424600D01*
X5735528D01*
X5740000Y3423710D01*
X5819560D01*
X5828384Y3417814D01*
X5850000Y3413515D01*
X5914102D01*
Y2999566D01*
X5852133Y2937597D01*
X5840400Y2942457D01*
Y3060400D01*
X5639600D01*
Y2969600D01*
Y2904600D01*
X5802543D01*
X5807403Y2892867D01*
X5746152Y2831616D01*
X5742825Y2828953D01*
X5738281Y2825865D01*
X5733639Y2823229D01*
X5728869Y2821018D01*
X5723929Y2819208D01*
X5718784Y2817789D01*
X5713390Y2816760D01*
X5709148Y2816290D01*
X5250400D01*
Y2845400D01*
X5231290D01*
Y3061567D01*
X5231290Y3061569D01*
X5227766Y3079283D01*
X5217732Y3094300D01*
X5217731Y3094301D01*
X5134300Y3177732D01*
X5119283Y3187766D01*
X5115400Y3188538D01*
Y3320400D01*
X4914601D01*
Y3258298D01*
X4908051Y3254181D01*
X4901901Y3253037D01*
X4858847Y3296091D01*
Y3820312D01*
X4859866Y3821731D01*
X4871026Y3827783D01*
X4871547Y3827723D01*
X4876540Y3826729D01*
X4881680Y3824600D01*
X4887243D01*
X4892700Y3823515D01*
X4914601D01*
Y3749600D01*
Y3684600D01*
Y3619600D01*
Y3554600D01*
Y3489600D01*
Y3424600D01*
Y3359600D01*
X5115400D01*
Y3424600D01*
Y3489600D01*
Y3554600D01*
Y3619600D01*
Y3684600D01*
Y3749600D01*
Y3840400D01*
X5026876D01*
X5022016Y3852133D01*
X5839941Y4670058D01*
X5839941Y4670059D01*
X5852186Y4688384D01*
X5856486Y4710000D01*
X5856485Y4710002D01*
Y4880000D01*
Y5040000D01*
X5855400Y5045457D01*
Y5051020D01*
X5853271Y5056160D01*
X5852186Y5061616D01*
X5849095Y5066242D01*
X5846966Y5071382D01*
X5843033Y5075315D01*
X5839941Y5079941D01*
X5835315Y5083033D01*
X5831382Y5086966D01*
X5826242Y5089095D01*
X5821616Y5092186D01*
X5816160Y5093271D01*
X5811020Y5095400D01*
X5805457D01*
X5800000Y5096485D01*
X5794544Y5095400D01*
X5788980D01*
X5783840Y5093271D01*
X5778384Y5092186D01*
X5773759Y5089095D01*
X5768619Y5086966D01*
X5764685Y5083033D01*
X5760059Y5079941D01*
X5756968Y5075315D01*
X5753034Y5071382D01*
X5750905Y5066242D01*
X5747815Y5061616D01*
X5746729Y5056160D01*
X5744600Y5051020D01*
Y5045457D01*
X5743515Y5040000D01*
Y4960936D01*
X5742428Y4954781D01*
X5740738Y4949710D01*
X5738779Y4946070D01*
X5736597Y4943403D01*
X5733929Y4941221D01*
X5730290Y4939262D01*
X5725220Y4937572D01*
X5719064Y4936485D01*
X5307005D01*
X5279988Y4960147D01*
X5265400Y4974736D01*
Y4991020D01*
X5256966Y5011381D01*
X5241381Y5026966D01*
X5221020Y5035400D01*
X5198980D01*
X5178619Y5026966D01*
X5163034Y5011381D01*
X5154600Y4991020D01*
Y4968980D01*
X5163034Y4948618D01*
X5178619Y4933034D01*
X5198980Y4924600D01*
X5199029D01*
X5224336Y4899292D01*
X5237501Y4885194D01*
X5244716Y4876445D01*
X5246548Y4873889D01*
X5246644Y4873733D01*
X5249697Y4858384D01*
X5261941Y4840059D01*
X5280266Y4827814D01*
X5301882Y4823515D01*
X5719064D01*
X5725219Y4822428D01*
X5730290Y4820738D01*
X5733930Y4818779D01*
X5736597Y4816596D01*
X5738779Y4813929D01*
X5740738Y4810290D01*
X5742428Y4805219D01*
X5743515Y4799064D01*
Y4733397D01*
X4946603Y3936485D01*
X4892700D01*
X4887243Y3935400D01*
X4881680D01*
X4876540Y3933271D01*
X4871547Y3932278D01*
X4871026Y3932217D01*
X4859866Y3938269D01*
X4858847Y3939689D01*
Y5060499D01*
X4866966Y5068619D01*
X4875400Y5088980D01*
Y5111020D01*
X4866966Y5131381D01*
X4851381Y5146966D01*
X4831020Y5155400D01*
X4808980D01*
X4788619Y5146966D01*
X4773034Y5131381D01*
X4766873Y5116508D01*
X4753127D01*
X4746966Y5131381D01*
X4731381Y5146966D01*
X4711020Y5155400D01*
X4688980D01*
X4668619Y5146966D01*
X4653034Y5131381D01*
X4644600Y5111020D01*
Y5090174D01*
X4629831Y5075406D01*
X4621411Y5062803D01*
X4618454Y5047937D01*
Y3162700D01*
X4621411Y3147834D01*
X4629831Y3135231D01*
X4842531Y2922531D01*
X4855134Y2914111D01*
X4870000Y2911153D01*
X4914601D01*
Y2904600D01*
X5115400D01*
Y2969600D01*
Y3049112D01*
X5127134Y3053972D01*
X5138711Y3042395D01*
Y2845400D01*
X5119600D01*
Y2694600D01*
X5250400D01*
Y2723711D01*
X5695287D01*
X5698021Y2723228D01*
X5700090Y2722538D01*
X5701129Y2721979D01*
X5701596Y2721596D01*
X5701979Y2721129D01*
X5702539Y2720090D01*
X5703228Y2718021D01*
X5703711Y2715287D01*
Y2706224D01*
X5703682Y2703832D01*
X5703562Y2701583D01*
X5464135D01*
X5457173Y2705602D01*
X5439269Y2710400D01*
X5420732D01*
X5402827Y2705602D01*
X5386773Y2696334D01*
X5373666Y2683227D01*
X5364398Y2667173D01*
X5359600Y2649269D01*
Y2630732D01*
X5364398Y2612827D01*
X5373666Y2596773D01*
X5386773Y2583666D01*
X5402827Y2574398D01*
X5420732Y2569600D01*
X5439269D01*
X5457173Y2574398D01*
X5464135Y2578417D01*
X6490000D01*
X6513567Y2583105D01*
X6533546Y2596454D01*
X6613546Y2676454D01*
X6626896Y2696433D01*
X6631583Y2720000D01*
Y3063486D01*
X6636514Y3068417D01*
X6983486D01*
X6988417Y3063486D01*
Y3010800D01*
X6799200D01*
Y2809200D01*
X6988417D01*
Y2732096D01*
X6975717Y2726836D01*
X6961892Y2740660D01*
X6938907Y2753930D01*
X6913270Y2760800D01*
X6886729D01*
X6861093Y2753930D01*
X6838107Y2740660D01*
X6819340Y2721892D01*
X6806069Y2698907D01*
X6799200Y2673270D01*
Y2646730D01*
X6806069Y2621093D01*
X6806101Y2621038D01*
X6723909Y2538847D01*
X5067535D01*
X4578847Y3027535D01*
Y4410000D01*
X4575890Y4424866D01*
X4567469Y4437468D01*
X4305400Y4699537D01*
Y4711020D01*
X4296966Y4731381D01*
X4281381Y4746966D01*
X4261020Y4755400D01*
X4238980D01*
X4218618Y4746966D01*
X4203034Y4731381D01*
X4194600Y4711020D01*
Y4688980D01*
X4203034Y4668619D01*
X4218618Y4653034D01*
X4238980Y4644600D01*
X4250463D01*
X4501154Y4393909D01*
Y3011444D01*
X4504111Y2996578D01*
X4512531Y2983976D01*
X5023976Y2472532D01*
X5036578Y2464111D01*
X5051444Y2461154D01*
X6740000D01*
X6754866Y2464111D01*
X6767469Y2472532D01*
X6861038Y2566101D01*
X6861093Y2566070D01*
X6886729Y2559200D01*
X6913270D01*
X6938907Y2566070D01*
X6961892Y2579340D01*
X6975717Y2593164D01*
X6988417Y2587904D01*
Y1810800D01*
X6799200D01*
Y1632328D01*
X6792173Y1629418D01*
X6786500Y1628116D01*
X6774866Y1635890D01*
X6760000Y1638847D01*
X5726091D01*
X4458847Y2906090D01*
Y4290000D01*
X4455889Y4304866D01*
X4447469Y4317469D01*
X4096642Y4668295D01*
X4096966Y4668619D01*
X4105400Y4688980D01*
Y4711020D01*
X4096966Y4731381D01*
X4081381Y4746966D01*
X4061020Y4755400D01*
X4038980D01*
X4018619Y4746966D01*
X4003034Y4731381D01*
X3994600Y4711020D01*
Y4688980D01*
X4003034Y4668619D01*
X4017774Y4653879D01*
Y4653380D01*
X4020731Y4638514D01*
X4029152Y4625911D01*
X4381154Y4273909D01*
Y2890000D01*
X4384111Y2875134D01*
X4392531Y2862531D01*
X5682531Y1572531D01*
X5695134Y1564111D01*
X5710000Y1561154D01*
X6743909D01*
X6806101Y1498962D01*
X6806069Y1498907D01*
X6799200Y1473270D01*
Y1446729D01*
X6806069Y1421093D01*
X6819340Y1398107D01*
X6838107Y1379340D01*
X6861093Y1366069D01*
X6886729Y1359200D01*
X6913270D01*
X6938907Y1366069D01*
X6961892Y1379340D01*
X6975717Y1393164D01*
X6988417Y1387904D01*
Y975509D01*
X6539399Y526491D01*
X6526049Y506512D01*
X6521362Y482945D01*
Y328454D01*
X6454491Y261583D01*
X1135509Y261583D01*
X191583Y1205509D01*
X191583Y4845952D01*
X192972Y4853819D01*
X195162Y4860391D01*
X197821Y4865329D01*
X200904Y4869096D01*
X204671Y4872179D01*
X209610Y4874838D01*
X216181Y4877028D01*
X224048Y4878417D01*
X1120000D01*
X1143567Y4883105D01*
X1163546Y4896454D01*
X1389509Y5122417D01*
X1544102D01*
Y5100000D01*
X1546074Y5090089D01*
X1551688Y5081688D01*
X1591687Y5041688D01*
X1600089Y5036074D01*
X1610000Y5034102D01*
X1679272D01*
X1694102Y5019273D01*
X1694102Y4799114D01*
X1682369Y4794253D01*
X1678308Y4798313D01*
X1672989Y4801867D01*
X1669908Y4803926D01*
X1669908Y4803926D01*
X1669906Y4803927D01*
X1664479Y4805006D01*
X1659998Y4805897D01*
X1630000Y4805898D01*
X1620089Y4803927D01*
X1611688Y4798313D01*
X1591687Y4778312D01*
X1586074Y4769910D01*
X1584102Y4760000D01*
Y4580727D01*
X1577775Y4574400D01*
X1576300D01*
Y4572925D01*
X1571687Y4568312D01*
X1566074Y4559911D01*
X1564129Y4550137D01*
X1504001D01*
X1481707Y4547202D01*
X1460932Y4538597D01*
X1443093Y4524908D01*
X1429404Y4507069D01*
X1420799Y4486294D01*
X1417864Y4464000D01*
X1420799Y4441707D01*
X1429404Y4420932D01*
X1438417Y4409186D01*
Y3304135D01*
X1434398Y3297173D01*
X1429600Y3279269D01*
Y3260732D01*
X1434398Y3242827D01*
X1443666Y3226773D01*
X1456773Y3213666D01*
X1472827Y3204398D01*
X1490732Y3199600D01*
X1509269D01*
X1527173Y3204398D01*
X1543227Y3213666D01*
X1556334Y3226773D01*
X1565602Y3242827D01*
X1566350Y3245617D01*
X1566896Y3246433D01*
X1567837Y3251167D01*
X1570400Y3260732D01*
Y3264051D01*
X1571583Y3270000D01*
Y3275412D01*
X1566896Y3298979D01*
X1561583Y3306929D01*
Y4343257D01*
X1574244Y4353957D01*
X1576300Y4353600D01*
X1583863Y4344033D01*
Y4290000D01*
X1586798Y4267706D01*
X1595403Y4246932D01*
X1609092Y4229092D01*
X1626932Y4215404D01*
X1647706Y4206798D01*
X1670000Y4203863D01*
X1692294Y4206798D01*
X1713068Y4215404D01*
X1730908Y4229092D01*
X1744596Y4246932D01*
X1753202Y4267706D01*
X1756137Y4290000D01*
Y4349512D01*
X1760225Y4353601D01*
X1767100D01*
Y4360476D01*
X1778312Y4371687D01*
X1783926Y4380089D01*
X1785897Y4390000D01*
X1785897Y4530000D01*
X1783926Y4539911D01*
X1782929Y4541402D01*
X1789718Y4554102D01*
X1850000D01*
X1859911Y4556074D01*
X1868312Y4561688D01*
X1868313Y4561688D01*
X1888311Y4581687D01*
X1888312Y4581687D01*
X1893926Y4590089D01*
X1895897Y4600000D01*
X1895897Y5050000D01*
X1893926Y5059911D01*
X1888312Y5068312D01*
X1868312Y5088312D01*
X1859910Y5093926D01*
X1850000Y5095898D01*
X1796598Y5095897D01*
X1785897Y5106598D01*
Y5290000D01*
X1783926Y5299911D01*
X1778312Y5308312D01*
X1758313Y5328311D01*
X1758313Y5328312D01*
X1749911Y5333926D01*
X1740001Y5335897D01*
X1605156Y5335898D01*
X1599895Y5348598D01*
X1779127Y5527829D01*
X1788056Y5541193D01*
X1791191Y5556956D01*
Y6362426D01*
X1788056Y6378189D01*
X1779127Y6391553D01*
X1630340Y6540339D01*
X1616977Y6549269D01*
X1601213Y6552404D01*
X1386549D01*
X1351100Y6587853D01*
Y6750400D01*
X1294547D01*
Y6776738D01*
X1291589Y6791604D01*
X1283169Y6804206D01*
X1280687Y6806688D01*
Y6885297D01*
X1287746Y6893900D01*
X1349856D01*
X1359314Y6884442D01*
Y6793797D01*
X1362430Y6778131D01*
X1371304Y6764851D01*
X1384584Y6755977D01*
X1400250Y6752861D01*
X1429750D01*
X1445416Y6755977D01*
X1458697Y6764851D01*
X1467571Y6778131D01*
X1470687Y6793797D01*
Y6825241D01*
X1481470Y6828191D01*
X1483387Y6828266D01*
X1498619Y6813034D01*
X1518980Y6804600D01*
X1530463D01*
X2202532Y6132532D01*
X2215134Y6124111D01*
X2230000Y6121154D01*
X2813909D01*
X3071153Y5863910D01*
Y4870000D01*
X3074110Y4855134D01*
X3082531Y4842532D01*
X3094600Y4830463D01*
Y4818980D01*
X3103034Y4798619D01*
X3118619Y4783034D01*
X3138980Y4774600D01*
X3161020D01*
X3181381Y4783034D01*
X3191703Y4793356D01*
X3200000Y4797209D01*
X3208297Y4793356D01*
X3218619Y4783034D01*
X3238980Y4774600D01*
X3261020D01*
X3281382Y4783034D01*
X3296966Y4798619D01*
X3305400Y4818980D01*
Y4841020D01*
X3296966Y4861381D01*
X3288847Y4869501D01*
Y5920000D01*
X3285890Y5934866D01*
X3277469Y5947469D01*
X2887469Y6337469D01*
X2874866Y6345890D01*
X2860000Y6348847D01*
X2256090D01*
X1858846Y6746091D01*
Y7470000D01*
X1855889Y7484866D01*
X1847468Y7497469D01*
X1793169Y7551768D01*
X1780566Y7560189D01*
X1765700Y7563146D01*
X1740400D01*
Y7619700D01*
X1519600D01*
Y7563146D01*
X1404300D01*
X1389434Y7560189D01*
X1376831Y7551768D01*
X1245463Y7420400D01*
X1149600D01*
Y7349154D01*
X993022D01*
X992294Y7349456D01*
X970000Y7352391D01*
X551678D01*
X529385Y7349456D01*
X508610Y7340850D01*
X490770Y7327162D01*
X482642Y7319033D01*
X463593Y7313929D01*
X440608Y7300659D01*
X421841Y7281891D01*
X408570Y7258906D01*
X401701Y7233269D01*
Y7206728D01*
X408570Y7181092D01*
X421841Y7158106D01*
X440608Y7139339D01*
X463593Y7126068D01*
X489230Y7119199D01*
X515771D01*
X541408Y7126068D01*
X564393Y7139339D01*
X583161Y7158106D01*
X595869Y7180117D01*
X970000D01*
X992294Y7183052D01*
X993022Y7183354D01*
X1081953D01*
Y7067143D01*
X1084910Y7052277D01*
X1093331Y7039674D01*
X1159764Y6973241D01*
X1161880Y6965046D01*
X1159764Y6956851D01*
X1093331Y6890418D01*
X1084910Y6877815D01*
X1081953Y6862949D01*
Y6746554D01*
X781100D01*
Y6745898D01*
X760000D01*
X750089Y6743926D01*
X741688Y6738312D01*
X711688Y6708312D01*
X706074Y6699911D01*
X704102Y6690000D01*
Y6400000D01*
X706074Y6390089D01*
X711688Y6381688D01*
X734102Y6359273D01*
Y6190000D01*
X736074Y6180089D01*
X741688Y6171688D01*
X771688Y6141688D01*
X780089Y6136074D01*
X790000Y6134103D01*
X1150000D01*
X1159911Y6136074D01*
X1168312Y6141688D01*
X1198312Y6171688D01*
X1203926Y6180089D01*
X1205898Y6190000D01*
Y6210000D01*
Y6430000D01*
X1203926Y6439911D01*
X1198312Y6448312D01*
X1175898Y6470727D01*
Y6529600D01*
X1292847D01*
X1340361Y6482086D01*
X1353724Y6473157D01*
X1369487Y6470021D01*
X1584152D01*
X1708809Y6345364D01*
Y5574018D01*
X1460873Y5326083D01*
X1451944Y5312719D01*
X1448809Y5296956D01*
Y5245584D01*
X1364000D01*
X1340433Y5240896D01*
X1320454Y5227546D01*
X1094491Y5001583D01*
X1012343D01*
X1008491Y5014283D01*
X1018353Y5020873D01*
X1035927Y5038447D01*
X1044856Y5051811D01*
X1047992Y5067574D01*
Y5080054D01*
X1102200D01*
Y5284102D01*
X1220000Y5284102D01*
X1229910Y5286074D01*
X1238312Y5291687D01*
X1268312Y5321688D01*
X1273926Y5330089D01*
X1275897Y5340000D01*
Y5659273D01*
X1290727Y5674102D01*
X1619995D01*
X1629906Y5676074D01*
X1638308Y5681688D01*
X1668312Y5711692D01*
X1673926Y5720094D01*
X1675897Y5730005D01*
Y6020000D01*
X1673926Y6029911D01*
X1668312Y6038313D01*
X1638312Y6068312D01*
X1629911Y6073926D01*
X1620000Y6075898D01*
X820000Y6075897D01*
X810090Y6073926D01*
X801688Y6068312D01*
X771688Y6038312D01*
X766074Y6029911D01*
X764102Y6020000D01*
Y5760000D01*
X764463Y5758185D01*
X764363Y5756335D01*
X765440Y5753272D01*
X766074Y5750089D01*
X767102Y5748550D01*
X767717Y5746803D01*
X769884Y5744386D01*
X771688Y5741687D01*
X773227Y5740659D01*
X774463Y5739281D01*
X779910Y5735196D01*
X775677Y5722496D01*
X745375D01*
X732587Y5719952D01*
X721746Y5712708D01*
X714502Y5701867D01*
X711958Y5689079D01*
Y5668300D01*
X575898D01*
Y5740000D01*
X573926Y5749911D01*
X572900Y5751446D01*
Y5753354D01*
X571625D01*
X568312Y5758312D01*
X475898Y5850727D01*
Y6390000D01*
X473926Y6399910D01*
X468313Y6408312D01*
X438312Y6438312D01*
X429910Y6443926D01*
X420000Y6445898D01*
X186485D01*
Y7396603D01*
X453397Y7663515D01*
X1932602D01*
X1990602Y7605515D01*
X1982570Y7586125D01*
X1978604Y7556000D01*
X1982570Y7525874D01*
X1994198Y7497802D01*
X2012695Y7473696D01*
X2036802Y7455198D01*
X2064874Y7443570D01*
X2094999Y7439604D01*
X2145000D01*
X2175125Y7443570D01*
X2203198Y7455198D01*
X2227304Y7473696D01*
X2245801Y7497802D01*
X2257429Y7525874D01*
X2261395Y7556000D01*
X2257429Y7586125D01*
X2245801Y7614198D01*
X2227304Y7638304D01*
X2203198Y7656801D01*
X2175125Y7668429D01*
X2145000Y7672395D01*
X2094999D01*
X2084826Y7671056D01*
X2072068Y7683814D01*
X2078000Y7695842D01*
X2094999Y7693604D01*
X2145000D01*
X2175125Y7697570D01*
X2203198Y7709198D01*
X2227304Y7727696D01*
X2245801Y7751802D01*
X2253817Y7771153D01*
X2303910D01*
X3311153Y6763909D01*
Y6351376D01*
X3298453Y6349894D01*
X3291382Y6356966D01*
X3271020Y6365400D01*
X3248980D01*
X3228619Y6356966D01*
X3213034Y6341382D01*
X3204600Y6321020D01*
Y6298980D01*
X3213034Y6278619D01*
X3228619Y6263034D01*
X3248980Y6254600D01*
X3271020D01*
X3291382Y6263034D01*
X3298453Y6270106D01*
X3311153Y6268624D01*
Y5800000D01*
X3314110Y5785134D01*
X3322531Y5772532D01*
X3442531Y5652531D01*
X3455134Y5644111D01*
X3470000Y5641154D01*
X3640499D01*
X3648619Y5633034D01*
X3668980Y5624600D01*
X3691020D01*
X3711381Y5633034D01*
X3718454Y5640106D01*
X3731154Y5634846D01*
Y4889501D01*
X3723034Y4881381D01*
X3714600Y4861020D01*
Y4838980D01*
X3723034Y4818619D01*
X3738619Y4803034D01*
X3758980Y4794600D01*
X3781020D01*
X3801382Y4803034D01*
X3816966Y4818619D01*
X3825400Y4838980D01*
Y4861020D01*
X3816966Y4881381D01*
X3808847Y4889501D01*
Y4939683D01*
X3821547Y4942209D01*
X3823034Y4938619D01*
X3838618Y4923034D01*
X3858980Y4914600D01*
X3881020D01*
X3901381Y4923034D01*
X3916966Y4938619D01*
X3925400Y4958980D01*
Y4981020D01*
X3916966Y5001381D01*
X3913846Y5004501D01*
Y6265499D01*
X3926966Y6278619D01*
X3935400Y6298980D01*
Y6321020D01*
X3926966Y6341382D01*
X3911382Y6356966D01*
X3891020Y6365400D01*
X3868980D01*
X3848619Y6356966D01*
X3833034Y6341382D01*
X3824600Y6321020D01*
Y6298980D01*
X3833034Y6278619D01*
X3836153Y6275500D01*
Y5014501D01*
X3823034Y5001381D01*
X3821547Y4997791D01*
X3808847Y5000317D01*
Y6162187D01*
X3805890Y6177053D01*
X3797469Y6189655D01*
X3666182Y6320942D01*
X3665045Y6322363D01*
X3663507Y6324626D01*
X3662214Y6326904D01*
X3661137Y6329226D01*
X3660256Y6331630D01*
X3659560Y6334154D01*
X3659047Y6336847D01*
X3658847Y6338649D01*
Y7000000D01*
X3655890Y7014866D01*
X3647469Y7027469D01*
X2359050Y8315887D01*
X2346447Y8324308D01*
X2331582Y8327265D01*
X2260176D01*
X2257429Y8348125D01*
X2245801Y8376198D01*
X2227304Y8400304D01*
X2203198Y8418801D01*
X2175125Y8430429D01*
X2145000Y8434395D01*
X2094999D01*
X2064874Y8430429D01*
X2036802Y8418801D01*
X2012695Y8400304D01*
X1994198Y8376198D01*
X1982570Y8348125D01*
X1978604Y8318000D01*
X1982570Y8287874D01*
X1994198Y8259802D01*
X2012695Y8235696D01*
X2036802Y8217198D01*
X2064874Y8205570D01*
X2094999Y8201604D01*
X2145000D01*
X2175125Y8205570D01*
X2203198Y8217198D01*
X2227304Y8235696D01*
X2237951Y8249572D01*
X2315491D01*
X3581154Y6983909D01*
Y6368490D01*
X3570594Y6361434D01*
X3561020Y6365400D01*
X3538980D01*
X3518619Y6356966D01*
X3503034Y6341382D01*
X3494600Y6321020D01*
Y6298980D01*
X3503034Y6278619D01*
X3518619Y6263034D01*
X3538980Y6254600D01*
X3561020D01*
X3581381Y6263034D01*
X3591688Y6273340D01*
X3593537D01*
X3595343Y6273140D01*
X3598033Y6272627D01*
X3600557Y6271931D01*
X3602960Y6271050D01*
X3605285Y6269972D01*
X3607560Y6268680D01*
X3609824Y6267142D01*
X3611244Y6266005D01*
X3731154Y6146096D01*
Y5725154D01*
X3718454Y5719894D01*
X3711381Y5726966D01*
X3691020Y5735400D01*
X3668980D01*
X3648619Y5726966D01*
X3640499Y5718847D01*
X3486091D01*
X3388846Y5816091D01*
Y6310000D01*
Y6780000D01*
X3385889Y6794866D01*
X3377468Y6807469D01*
X2347469Y7837468D01*
X2334866Y7845889D01*
X2320000Y7848846D01*
X2253817D01*
X2245801Y7868198D01*
X2227304Y7892304D01*
X2203198Y7910801D01*
X2175125Y7922429D01*
X2145000Y7926395D01*
X2094999D01*
X2064874Y7922429D01*
X2036802Y7910801D01*
X2012695Y7892304D01*
X1994198Y7868198D01*
X1982570Y7840125D01*
X1978604Y7810000D01*
X1982120Y7783287D01*
X1975056Y7775479D01*
X1971505Y7773401D01*
X1955999Y7776486D01*
X1955998Y7776485D01*
X430001D01*
X430000Y7776486D01*
X408384Y7772186D01*
X390059Y7759941D01*
X390058Y7759941D01*
X111733Y7481616D01*
X100000Y7486476D01*
Y9749999D01*
X100001Y9749999D01*
X100000Y9749999D01*
X100000Y9764772D01*
X105764Y9793752D01*
X117071Y9821051D01*
X133486Y9845619D01*
X154380Y9866512D01*
X178948Y9882928D01*
X206246Y9894235D01*
X235226Y9900000D01*
X250000Y9900000D01*
X7149999Y9900000D01*
X7150000Y9899999D01*
D02*
G37*
G36*
X3632700Y6342847D02*
X3632880Y6337842D01*
X3633418Y6332985D01*
X3634317Y6328277D01*
X3635574Y6323718D01*
X3637190Y6319307D01*
X3639166Y6315046D01*
X3641501Y6310933D01*
X3644195Y6306969D01*
X3647248Y6303153D01*
X3650661Y6299487D01*
X3632700Y6281526D01*
X3629034Y6284939D01*
X3625218Y6287992D01*
X3621254Y6290686D01*
X3617141Y6293021D01*
X3612880Y6294997D01*
X3608469Y6296613D01*
X3603910Y6297870D01*
X3599202Y6298768D01*
X3594345Y6299307D01*
X3589340Y6299487D01*
X3581900Y6324887D01*
X3586726Y6325141D01*
X3591044Y6325903D01*
X3594854Y6327173D01*
X3598156Y6328951D01*
X3600950Y6331237D01*
X3603236Y6334031D01*
X3605014Y6337333D01*
X3606284Y6341143D01*
X3607046Y6345461D01*
X3607300Y6350287D01*
X3632700Y6342847D01*
D02*
G37*
G36*
X3362700Y6310000D02*
X3337300Y6271900D01*
X3337046Y6276726D01*
X3336284Y6281044D01*
X3335014Y6284854D01*
X3333236Y6288156D01*
X3330950Y6290950D01*
X3328156Y6293236D01*
X3324854Y6295014D01*
X3321044Y6296284D01*
X3316726Y6297046D01*
X3311900Y6297300D01*
Y6322700D01*
X3316726Y6322954D01*
X3321044Y6323716D01*
X3324854Y6324986D01*
X3328156Y6326764D01*
X3330950Y6329050D01*
X3333236Y6331844D01*
X3335014Y6335146D01*
X3336284Y6338956D01*
X3337046Y6343274D01*
X3337300Y6348100D01*
X3362700Y6310000D01*
D02*
G37*
G36*
X1150000Y6690000D02*
Y6460000D01*
X1180000Y6430000D01*
Y6210000D01*
Y6190000D01*
X1150000Y6160000D01*
X790000D01*
X760000Y6190000D01*
Y6370000D01*
X730000Y6400000D01*
Y6690000D01*
X760000Y6720000D01*
X1120000D01*
X1150000Y6690000D01*
D02*
G37*
G36*
X450000Y6390000D02*
Y5840000D01*
X550000Y5740000D01*
Y5500000D01*
X520000Y5470000D01*
X150000D01*
X130000Y5490000D01*
Y6390000D01*
X160000Y6420000D01*
X420000D01*
X450000Y6390000D01*
D02*
G37*
G36*
X1650000Y6020000D02*
Y5730005D01*
X1619995Y5700000D01*
X1280000D01*
X1250000Y5670000D01*
Y5340000D01*
X1220000Y5310000D01*
X1080000Y5310000D01*
X1050000Y5340000D01*
Y5520000D01*
X1020000Y5550000D01*
X850000D01*
X830000Y5570000D01*
X830000Y5730004D01*
X790000Y5760000D01*
Y6020000D01*
X820000Y6050000D01*
X1620000Y6050000D01*
X1650000Y6020000D01*
D02*
G37*
G36*
X711958Y5569829D02*
X714502Y5557041D01*
X721746Y5546199D01*
X732587Y5538956D01*
X745375Y5536412D01*
X789625D01*
X802413Y5538956D01*
X805240Y5540845D01*
X814732Y5545262D01*
X823981Y5539394D01*
X831688Y5531687D01*
X840090Y5526073D01*
X850000Y5524102D01*
X1009273D01*
X1024102Y5509273D01*
Y5340000D01*
X1026074Y5330089D01*
X1031688Y5321688D01*
X1031688Y5321687D01*
X1040788Y5312587D01*
X1035928Y5300854D01*
X955780D01*
X951800Y5301645D01*
X941636D01*
X918192Y5325089D01*
Y5376954D01*
X918042Y5377706D01*
Y5451079D01*
X915498Y5463867D01*
X908254Y5474708D01*
X897413Y5481952D01*
X884625Y5484496D01*
X840375D01*
X827587Y5481952D01*
X824892Y5480151D01*
X815000Y5475525D01*
X805108Y5480151D01*
X802413Y5481952D01*
X789625Y5484496D01*
X745375D01*
X732587Y5481952D01*
X721746Y5474708D01*
X714502Y5463867D01*
X711958Y5451079D01*
Y5331829D01*
X714502Y5319041D01*
X718168Y5313554D01*
X712284Y5300854D01*
X682801D01*
Y5122046D01*
X671067Y5117186D01*
X604053Y5184200D01*
X590690Y5193129D01*
X574926Y5196265D01*
X572900D01*
Y5283354D01*
X252100D01*
Y5027554D01*
X572900D01*
Y5082253D01*
X584634Y5087113D01*
X650873Y5020873D01*
X660736Y5014283D01*
X656883Y5001583D01*
X224048D01*
X216181Y5002972D01*
X209609Y5005162D01*
X204671Y5007821D01*
X200904Y5010904D01*
X197821Y5014671D01*
X195162Y5019610D01*
X192972Y5026181D01*
X191583Y5034048D01*
Y5444102D01*
X520000D01*
X529911Y5446074D01*
X538312Y5451688D01*
X568312Y5481688D01*
X573926Y5490089D01*
X575898Y5500000D01*
Y5590607D01*
X711958D01*
Y5569829D01*
D02*
G37*
G36*
X5259645Y4943538D02*
X5293682Y4913729D01*
X5297073Y4911658D01*
X5299813Y4910415D01*
X5301901Y4910000D01*
X5271882Y4879981D01*
X5271467Y4882069D01*
X5270224Y4884809D01*
X5268154Y4888201D01*
X5265255Y4892244D01*
X5256974Y4902286D01*
X5238344Y4922237D01*
X5230478Y4930191D01*
X5251691Y4951404D01*
X5259645Y4943538D01*
D02*
G37*
G36*
X1519600Y7428900D02*
X1740400D01*
Y7477027D01*
X1753100Y7481963D01*
X1781153Y7453910D01*
Y6730000D01*
X1784110Y6715134D01*
X1792531Y6702531D01*
X2212531Y6282532D01*
X2225134Y6274111D01*
X2240000Y6271154D01*
X2843909D01*
X3211154Y5903909D01*
Y4869501D01*
X3208297Y4866644D01*
X3200000Y4862791D01*
X3191703Y4866644D01*
X3181381Y4876966D01*
X3161020Y4885400D01*
X3149537D01*
X3148846Y4886091D01*
Y5880000D01*
X3145889Y5894866D01*
X3137468Y5907469D01*
X2857469Y6187469D01*
X2844866Y6195890D01*
X2830000Y6198847D01*
X2246091D01*
X1585400Y6859537D01*
Y6871020D01*
X1576966Y6891381D01*
X1561381Y6906966D01*
X1541020Y6915400D01*
X1518980D01*
X1498619Y6906966D01*
X1483034Y6891381D01*
X1482623Y6890389D01*
X1469415Y6891690D01*
X1467571Y6900963D01*
X1458697Y6914244D01*
X1445416Y6923118D01*
X1429750Y6926234D01*
X1427244D01*
X1426935Y6926695D01*
X1393416Y6960215D01*
X1391471Y6961514D01*
X1389861Y6977864D01*
X1409670Y6997673D01*
X1410667Y6999165D01*
X1415362Y7003860D01*
X1429750D01*
X1445416Y7006976D01*
X1458697Y7015850D01*
X1467571Y7029131D01*
X1470687Y7044797D01*
Y7136297D01*
X1467571Y7151963D01*
X1458697Y7165243D01*
X1445416Y7174117D01*
X1429750Y7177234D01*
X1400250D01*
X1384584Y7174117D01*
X1371304Y7165243D01*
X1362430Y7151963D01*
X1359314Y7136297D01*
Y7057686D01*
X1354733Y7053105D01*
X1353736Y7051613D01*
X1338315Y7036192D01*
X1287748D01*
X1280687Y7044797D01*
Y7136297D01*
X1277570Y7151963D01*
X1268696Y7165243D01*
X1263847Y7168484D01*
Y7199600D01*
X1300400D01*
Y7365463D01*
X1420391Y7485453D01*
X1519600D01*
Y7428900D01*
D02*
G37*
G36*
X165700Y5031700D02*
X167800Y5019800D01*
X171300Y5009300D01*
X176200Y5000200D01*
X182500Y4992500D01*
X190200Y4986200D01*
X199300Y4981300D01*
X209800Y4977800D01*
X221700Y4975700D01*
X235000Y4975000D01*
Y4905000D01*
X221700Y4904300D01*
X209800Y4902200D01*
X199300Y4898700D01*
X190200Y4893800D01*
X182500Y4887500D01*
X176200Y4879800D01*
X171300Y4870700D01*
X167800Y4860200D01*
X165700Y4848300D01*
X165000Y4835000D01*
X130000Y4940000D01*
X165000Y5045000D01*
X165700Y5031700D01*
D02*
G37*
G36*
X5830000Y4880000D02*
X5770000Y4790000D01*
X5769400Y4801400D01*
X5767600Y4811600D01*
X5764600Y4820600D01*
X5760400Y4828400D01*
X5755000Y4835000D01*
X5748400Y4840400D01*
X5740600Y4844600D01*
X5731600Y4847600D01*
X5721400Y4849400D01*
X5710000Y4850000D01*
Y4910000D01*
X5721400Y4910600D01*
X5731600Y4912400D01*
X5740600Y4915400D01*
X5748400Y4919600D01*
X5755000Y4925000D01*
X5760400Y4931600D01*
X5764600Y4939400D01*
X5767600Y4948400D01*
X5769400Y4958600D01*
X5770000Y4970000D01*
X5830000Y4880000D01*
D02*
G37*
G36*
X1740000Y5309999D02*
X1760000Y5290000D01*
Y5089998D01*
X1779998Y5070000D01*
X1850000Y5070000D01*
X1870000Y5050000D01*
X1869999Y4600000D01*
X1850000Y4580000D01*
X1740000D01*
X1719999Y4600000D01*
X1720000Y5030000D01*
X1690000Y5060000D01*
X1610000D01*
X1570000Y5100000D01*
Y5290000D01*
X1590000Y5310000D01*
X1740000Y5309999D01*
D02*
G37*
G36*
X1659997Y4780000D02*
X1680000Y4760000D01*
Y4570000D01*
X1700000Y4550000D01*
X1740000D01*
X1760000Y4530000D01*
X1760000Y4390000D01*
X1730000Y4360000D01*
X1610000D01*
X1590000Y4380000D01*
Y4550000D01*
X1610000Y4570000D01*
Y4760000D01*
X1630000Y4780000D01*
X1659997Y4780000D01*
D02*
G37*
G36*
X6903100Y3779900D02*
X6906300Y3779700D01*
X6909400Y3779300D01*
X6912500Y3778700D01*
X6915500Y3778000D01*
X6918500Y3777100D01*
X6921500Y3776000D01*
X6924400Y3774800D01*
X6927200Y3773500D01*
X6930000Y3772000D01*
X6932700Y3770300D01*
X6935300Y3768500D01*
X6937800Y3766600D01*
X6940100Y3764600D01*
X6942400Y3762400D01*
X6944600Y3760100D01*
X6946600Y3757800D01*
X6948500Y3755300D01*
X6950300Y3752700D01*
X6952000Y3750000D01*
X6953500Y3747200D01*
X6954800Y3744400D01*
X6956000Y3741500D01*
X6957100Y3738500D01*
X6958000Y3735500D01*
X6958700Y3732500D01*
X6959300Y3729400D01*
X6959700Y3726300D01*
X6959900Y3723100D01*
X6960000Y3720000D01*
Y3660000D01*
X6959900Y3656900D01*
X6959700Y3653700D01*
X6959300Y3650600D01*
X6958700Y3647500D01*
X6958000Y3644500D01*
X6957100Y3641500D01*
X6956000Y3638500D01*
X6954800Y3635600D01*
X6953500Y3632800D01*
X6952000Y3630000D01*
X6950300Y3627300D01*
X6948500Y3624700D01*
X6946600Y3622200D01*
X6944600Y3619900D01*
X6942400Y3617600D01*
X6940100Y3615400D01*
X6937800Y3613400D01*
X6935300Y3611500D01*
X6932700Y3609700D01*
X6930000Y3608000D01*
X6927200Y3606500D01*
X6924400Y3605200D01*
X6921500Y3604000D01*
X6918500Y3602900D01*
X6915500Y3602000D01*
X6912500Y3601300D01*
X6909400Y3600700D01*
X6906300Y3600300D01*
X6903100Y3600100D01*
X6900000Y3600000D01*
X6896900Y3600100D01*
X6893700Y3600300D01*
X6890600Y3600700D01*
X6887500Y3601300D01*
X6884500Y3602000D01*
X6881500Y3602900D01*
X6878500Y3604000D01*
X6875600Y3605200D01*
X6872800Y3606500D01*
X6870000Y3608000D01*
X6867300Y3609700D01*
X6864700Y3611500D01*
X6862200Y3613400D01*
X6859900Y3615400D01*
X6857600Y3617600D01*
X6855400Y3619900D01*
X6853400Y3622200D01*
X6851500Y3624700D01*
X6849700Y3627300D01*
X6848000Y3630000D01*
X6846500Y3632800D01*
X6845200Y3635600D01*
X6844000Y3638500D01*
X6842900Y3641500D01*
X6842000Y3644500D01*
X6841300Y3647500D01*
X6840700Y3650600D01*
X6840300Y3653700D01*
X6840100Y3656900D01*
X6840000Y3660000D01*
Y3720000D01*
X6840100Y3723100D01*
X6840300Y3726300D01*
X6840700Y3729400D01*
X6841300Y3732500D01*
X6842000Y3735500D01*
X6842900Y3738500D01*
X6844000Y3741500D01*
X6845200Y3744400D01*
X6846500Y3747200D01*
X6848000Y3750000D01*
X6849700Y3752700D01*
X6851500Y3755300D01*
X6853400Y3757800D01*
X6855400Y3760100D01*
X6857600Y3762400D01*
X6859900Y3764600D01*
X6862200Y3766600D01*
X6864700Y3768500D01*
X6867300Y3770300D01*
X6870000Y3772000D01*
X6872800Y3773500D01*
X6875600Y3774800D01*
X6878500Y3776000D01*
X6881500Y3777100D01*
X6884500Y3778000D01*
X6887500Y3778700D01*
X6890600Y3779300D01*
X6893700Y3779700D01*
X6896900Y3779900D01*
X6900000Y3780000D01*
X6903100Y3779900D01*
D02*
G37*
G36*
X6743100D02*
X6746300Y3779700D01*
X6749400Y3779300D01*
X6752500Y3778700D01*
X6755500Y3778000D01*
X6758500Y3777100D01*
X6761500Y3776000D01*
X6764400Y3774800D01*
X6767200Y3773500D01*
X6770000Y3772000D01*
X6772700Y3770300D01*
X6775300Y3768500D01*
X6777800Y3766600D01*
X6780100Y3764600D01*
X6782400Y3762400D01*
X6784600Y3760100D01*
X6786600Y3757800D01*
X6788500Y3755300D01*
X6790300Y3752700D01*
X6792000Y3750000D01*
X6793500Y3747200D01*
X6794800Y3744400D01*
X6796000Y3741500D01*
X6797100Y3738500D01*
X6798000Y3735500D01*
X6798700Y3732500D01*
X6799300Y3729400D01*
X6799700Y3726300D01*
X6799900Y3723100D01*
X6800000Y3720000D01*
Y3660000D01*
X6799900Y3656900D01*
X6799700Y3653700D01*
X6799300Y3650600D01*
X6798700Y3647500D01*
X6798000Y3644500D01*
X6797100Y3641500D01*
X6796000Y3638500D01*
X6794800Y3635600D01*
X6793500Y3632800D01*
X6792000Y3630000D01*
X6790300Y3627300D01*
X6788500Y3624700D01*
X6786600Y3622200D01*
X6784600Y3619900D01*
X6782400Y3617600D01*
X6780100Y3615400D01*
X6777800Y3613400D01*
X6775300Y3611500D01*
X6772700Y3609700D01*
X6770000Y3608000D01*
X6767200Y3606500D01*
X6764400Y3605200D01*
X6761500Y3604000D01*
X6758500Y3602900D01*
X6755500Y3602000D01*
X6752500Y3601300D01*
X6749400Y3600700D01*
X6746300Y3600300D01*
X6743100Y3600100D01*
X6740000Y3600000D01*
X6736900Y3600100D01*
X6733700Y3600300D01*
X6730600Y3600700D01*
X6727500Y3601300D01*
X6724500Y3602000D01*
X6721500Y3602900D01*
X6718500Y3604000D01*
X6715600Y3605200D01*
X6712800Y3606500D01*
X6710000Y3608000D01*
X6707300Y3609700D01*
X6704700Y3611500D01*
X6702200Y3613400D01*
X6699900Y3615400D01*
X6697600Y3617600D01*
X6695400Y3619900D01*
X6693400Y3622200D01*
X6691500Y3624700D01*
X6689700Y3627300D01*
X6688000Y3630000D01*
X6686500Y3632800D01*
X6685200Y3635600D01*
X6684000Y3638500D01*
X6682900Y3641500D01*
X6682000Y3644500D01*
X6681300Y3647500D01*
X6680700Y3650600D01*
X6680300Y3653700D01*
X6680100Y3656900D01*
X6680000Y3660000D01*
Y3720000D01*
X6680100Y3723100D01*
X6680300Y3726300D01*
X6680700Y3729400D01*
X6681300Y3732500D01*
X6682000Y3735500D01*
X6682900Y3738500D01*
X6684000Y3741500D01*
X6685200Y3744400D01*
X6686500Y3747200D01*
X6688000Y3750000D01*
X6689700Y3752700D01*
X6691500Y3755300D01*
X6693400Y3757800D01*
X6695400Y3760100D01*
X6697600Y3762400D01*
X6699900Y3764600D01*
X6702200Y3766600D01*
X6704700Y3768500D01*
X6707300Y3770300D01*
X6710000Y3772000D01*
X6712800Y3773500D01*
X6715600Y3774800D01*
X6718500Y3776000D01*
X6721500Y3777100D01*
X6724500Y3778000D01*
X6727500Y3778700D01*
X6730600Y3779300D01*
X6733700Y3779700D01*
X6736900Y3779900D01*
X6740000Y3780000D01*
X6743100Y3779900D01*
D02*
G37*
G36*
X6823100Y3519900D02*
X6826300Y3519700D01*
X6829400Y3519300D01*
X6832500Y3518700D01*
X6835500Y3518000D01*
X6838500Y3517100D01*
X6841500Y3516000D01*
X6844400Y3514800D01*
X6847200Y3513500D01*
X6850000Y3512000D01*
X6852700Y3510300D01*
X6855300Y3508500D01*
X6857800Y3506600D01*
X6860100Y3504600D01*
X6862400Y3502400D01*
X6864600Y3500100D01*
X6866600Y3497800D01*
X6868500Y3495300D01*
X6870300Y3492700D01*
X6872000Y3490000D01*
X6873500Y3487200D01*
X6874800Y3484400D01*
X6876000Y3481500D01*
X6877100Y3478500D01*
X6878000Y3475500D01*
X6878700Y3472500D01*
X6879300Y3469400D01*
X6879700Y3466300D01*
X6879900Y3463100D01*
X6880000Y3460000D01*
Y3400000D01*
X6879900Y3396900D01*
X6879700Y3393700D01*
X6879300Y3390600D01*
X6878700Y3387500D01*
X6878000Y3384500D01*
X6877100Y3381500D01*
X6876000Y3378500D01*
X6874800Y3375600D01*
X6873500Y3372800D01*
X6872000Y3370000D01*
X6870300Y3367300D01*
X6868500Y3364700D01*
X6866600Y3362200D01*
X6864600Y3359900D01*
X6862400Y3357600D01*
X6860100Y3355400D01*
X6857800Y3353400D01*
X6855300Y3351500D01*
X6852700Y3349700D01*
X6850000Y3348000D01*
X6847200Y3346500D01*
X6844400Y3345200D01*
X6841500Y3344000D01*
X6838500Y3342900D01*
X6835500Y3342000D01*
X6832500Y3341300D01*
X6829400Y3340700D01*
X6826300Y3340300D01*
X6823100Y3340100D01*
X6820000Y3340000D01*
X6816900Y3340100D01*
X6813700Y3340300D01*
X6810600Y3340700D01*
X6807500Y3341300D01*
X6804500Y3342000D01*
X6801500Y3342900D01*
X6798500Y3344000D01*
X6795600Y3345200D01*
X6792800Y3346500D01*
X6790000Y3348000D01*
X6787300Y3349700D01*
X6784700Y3351500D01*
X6782200Y3353400D01*
X6779900Y3355400D01*
X6777600Y3357600D01*
X6775400Y3359900D01*
X6773400Y3362200D01*
X6771500Y3364700D01*
X6769700Y3367300D01*
X6768000Y3370000D01*
X6766500Y3372800D01*
X6765200Y3375600D01*
X6764000Y3378500D01*
X6762900Y3381500D01*
X6762000Y3384500D01*
X6761300Y3387500D01*
X6760700Y3390600D01*
X6760300Y3393700D01*
X6760100Y3396900D01*
X6760000Y3400000D01*
Y3460000D01*
X6760100Y3463100D01*
X6760300Y3466300D01*
X6760700Y3469400D01*
X6761300Y3472500D01*
X6762000Y3475500D01*
X6762900Y3478500D01*
X6764000Y3481500D01*
X6765200Y3484400D01*
X6766500Y3487200D01*
X6768000Y3490000D01*
X6769700Y3492700D01*
X6771500Y3495300D01*
X6773400Y3497800D01*
X6775400Y3500100D01*
X6777600Y3502400D01*
X6779900Y3504600D01*
X6782200Y3506600D01*
X6784700Y3508500D01*
X6787300Y3510300D01*
X6790000Y3512000D01*
X6792800Y3513500D01*
X6795600Y3514800D01*
X6798500Y3516000D01*
X6801500Y3517100D01*
X6804500Y3518000D01*
X6807500Y3518700D01*
X6810600Y3519300D01*
X6813700Y3519700D01*
X6816900Y3519900D01*
X6820000Y3520000D01*
X6823100Y3519900D01*
D02*
G37*
G36*
X6663100D02*
X6666300Y3519700D01*
X6669400Y3519300D01*
X6672500Y3518700D01*
X6675500Y3518000D01*
X6678500Y3517100D01*
X6681500Y3516000D01*
X6684400Y3514800D01*
X6687200Y3513500D01*
X6690000Y3512000D01*
X6692700Y3510300D01*
X6695300Y3508500D01*
X6697800Y3506600D01*
X6700100Y3504600D01*
X6702400Y3502400D01*
X6704600Y3500100D01*
X6706600Y3497800D01*
X6708500Y3495300D01*
X6710300Y3492700D01*
X6712000Y3490000D01*
X6713500Y3487200D01*
X6714800Y3484400D01*
X6716000Y3481500D01*
X6717100Y3478500D01*
X6718000Y3475500D01*
X6718700Y3472500D01*
X6719300Y3469400D01*
X6719700Y3466300D01*
X6719900Y3463100D01*
X6720000Y3460000D01*
Y3400000D01*
X6719900Y3396900D01*
X6719700Y3393700D01*
X6719300Y3390600D01*
X6718700Y3387500D01*
X6718000Y3384500D01*
X6717100Y3381500D01*
X6716000Y3378500D01*
X6714800Y3375600D01*
X6713500Y3372800D01*
X6712000Y3370000D01*
X6710300Y3367300D01*
X6708500Y3364700D01*
X6706600Y3362200D01*
X6704600Y3359900D01*
X6702400Y3357600D01*
X6700100Y3355400D01*
X6697800Y3353400D01*
X6695300Y3351500D01*
X6692700Y3349700D01*
X6690000Y3348000D01*
X6687200Y3346500D01*
X6684400Y3345200D01*
X6681500Y3344000D01*
X6678500Y3342900D01*
X6675500Y3342000D01*
X6672500Y3341300D01*
X6669400Y3340700D01*
X6666300Y3340300D01*
X6663100Y3340100D01*
X6660000Y3340000D01*
X6656900Y3340100D01*
X6653700Y3340300D01*
X6650600Y3340700D01*
X6647500Y3341300D01*
X6644500Y3342000D01*
X6641500Y3342900D01*
X6638500Y3344000D01*
X6635600Y3345200D01*
X6632800Y3346500D01*
X6630000Y3348000D01*
X6627300Y3349700D01*
X6624700Y3351500D01*
X6622200Y3353400D01*
X6619900Y3355400D01*
X6617600Y3357600D01*
X6615400Y3359900D01*
X6613400Y3362200D01*
X6611500Y3364700D01*
X6609700Y3367300D01*
X6608000Y3370000D01*
X6606500Y3372800D01*
X6605200Y3375600D01*
X6604000Y3378500D01*
X6602900Y3381500D01*
X6602000Y3384500D01*
X6601300Y3387500D01*
X6600700Y3390600D01*
X6600300Y3393700D01*
X6600100Y3396900D01*
X6600000Y3400000D01*
Y3460000D01*
X6600100Y3463100D01*
X6600300Y3466300D01*
X6600700Y3469400D01*
X6601300Y3472500D01*
X6602000Y3475500D01*
X6602900Y3478500D01*
X6604000Y3481500D01*
X6605200Y3484400D01*
X6606500Y3487200D01*
X6608000Y3490000D01*
X6609700Y3492700D01*
X6611500Y3495300D01*
X6613400Y3497800D01*
X6615400Y3500100D01*
X6617600Y3502400D01*
X6619900Y3504600D01*
X6622200Y3506600D01*
X6624700Y3508500D01*
X6627300Y3510300D01*
X6630000Y3512000D01*
X6632800Y3513500D01*
X6635600Y3514800D01*
X6638500Y3516000D01*
X6641500Y3517100D01*
X6644500Y3518000D01*
X6647500Y3518700D01*
X6650600Y3519300D01*
X6653700Y3519700D01*
X6656900Y3519900D01*
X6660000Y3520000D01*
X6663100Y3519900D01*
D02*
G37*
G36*
X4773034Y5068619D02*
X4781154Y5060499D01*
Y3280000D01*
X4784111Y3265134D01*
X4792531Y3252532D01*
X4862532Y3182531D01*
X4875135Y3174110D01*
X4890000Y3171153D01*
X4914601D01*
Y3099600D01*
Y2988846D01*
X4886091D01*
X4696147Y3178790D01*
Y5031847D01*
X4708900Y5044600D01*
X4711020D01*
X4731381Y5053034D01*
X4746966Y5068619D01*
X4753127Y5083492D01*
X4766873D01*
X4773034Y5068619D01*
D02*
G37*
G36*
X6100000Y3500000D02*
Y3140000D01*
X6124503Y3115496D01*
Y2974503D01*
X6110000Y2960000D01*
X5970000D01*
X5940000Y2990000D01*
Y3500000D01*
X5969999Y3530000D01*
X6070000D01*
X6100000Y3500000D01*
D02*
G37*
G36*
X6320000Y3349998D02*
X6359996Y3310000D01*
X6450000Y3310000D01*
X6480000Y3280000D01*
Y3200000D01*
X6450000Y3170000D01*
X6380000D01*
X6350000Y3140000D01*
Y2970000D01*
X6320000Y2940000D01*
X6180000D01*
X6150401Y2969599D01*
Y3139700D01*
X6150000D01*
Y3350000D01*
X6180000Y3380000D01*
X6290000D01*
X6320000Y3349998D01*
D02*
G37*
G36*
X5798284Y2790000D02*
X5792910Y2784226D01*
X5788102Y2778218D01*
X5783859Y2771975D01*
X5780182Y2765498D01*
X5777071Y2758787D01*
X5774526Y2751841D01*
X5772546Y2744662D01*
X5771131Y2737247D01*
X5770283Y2729599D01*
X5770105Y2724637D01*
X5773859Y2666332D01*
X5774764Y2664733D01*
X5725236D01*
X5726141Y2666332D01*
X5726951Y2669219D01*
X5727666Y2673396D01*
X5728285Y2678862D01*
X5729571Y2702992D01*
X5729720Y2715332D01*
X5729600Y2717600D01*
X5728400Y2724400D01*
X5726400Y2730400D01*
X5723600Y2735600D01*
X5720000Y2740000D01*
X5715600Y2743600D01*
X5710400Y2746400D01*
X5704400Y2748400D01*
X5697600Y2749600D01*
X5690000Y2750000D01*
X5701716Y2790000D01*
X5709599Y2790283D01*
X5717247Y2791131D01*
X5724662Y2792546D01*
X5731841Y2794526D01*
X5738787Y2797071D01*
X5745498Y2800182D01*
X5751975Y2803859D01*
X5758218Y2808102D01*
X5764226Y2812910D01*
X5770000Y2818284D01*
X5798284Y2790000D01*
D02*
G37*
%LPC*%
G36*
X7011675Y9875400D02*
X6968325D01*
X6925510Y9868619D01*
X6884283Y9855223D01*
X6845659Y9835543D01*
X6810589Y9810063D01*
X6779937Y9779411D01*
X6754457Y9744341D01*
X6734777Y9705717D01*
X6721381Y9664490D01*
X6714600Y9621675D01*
Y9578326D01*
X6721381Y9535511D01*
X6734777Y9494283D01*
X6754457Y9455659D01*
X6779937Y9420589D01*
X6810589Y9389937D01*
X6845659Y9364457D01*
X6884283Y9344777D01*
X6925510Y9331381D01*
X6968325Y9324600D01*
X7011675D01*
X7054490Y9331381D01*
X7095717Y9344777D01*
X7134341Y9364457D01*
X7169411Y9389937D01*
X7200063Y9420589D01*
X7225543Y9455659D01*
X7245223Y9494283D01*
X7258619Y9535511D01*
X7265400Y9578326D01*
Y9621675D01*
X7258619Y9664490D01*
X7245223Y9705717D01*
X7225543Y9744341D01*
X7200063Y9779411D01*
X7169411Y9810063D01*
X7134341Y9835543D01*
X7095717Y9855223D01*
X7054490Y9868619D01*
X7011675Y9875400D01*
D02*
G37*
G36*
X411675D02*
X368325D01*
X325510Y9868619D01*
X284283Y9855223D01*
X245659Y9835543D01*
X210589Y9810063D01*
X179937Y9779411D01*
X154457Y9744341D01*
X134777Y9705717D01*
X121381Y9664490D01*
X114600Y9621675D01*
Y9578326D01*
X121381Y9535511D01*
X134777Y9494283D01*
X154457Y9455659D01*
X179937Y9420589D01*
X210589Y9389937D01*
X245659Y9364457D01*
X284283Y9344777D01*
X325510Y9331381D01*
X368325Y9324600D01*
X411675D01*
X454490Y9331381D01*
X495717Y9344777D01*
X534341Y9364457D01*
X569411Y9389937D01*
X600063Y9420589D01*
X625543Y9455659D01*
X645223Y9494283D01*
X658619Y9535511D01*
X665400Y9578326D01*
Y9621675D01*
X658619Y9664490D01*
X645223Y9705717D01*
X625543Y9744341D01*
X600063Y9779411D01*
X569411Y9810063D01*
X534341Y9835543D01*
X495717Y9855223D01*
X454490Y9868619D01*
X411675Y9875400D01*
D02*
G37*
G36*
X7160000Y8474310D02*
X7140000D01*
X7112485Y8470688D01*
X7086845Y8460068D01*
X7064828Y8443173D01*
X7047933Y8421156D01*
X7042006Y8406848D01*
X6858001D01*
X6843135Y8403890D01*
X6830532Y8395470D01*
X4572531Y6137469D01*
X4564111Y6124866D01*
X4561153Y6110000D01*
Y5902179D01*
X4564111Y5887313D01*
X4572531Y5874710D01*
X4574600Y5872642D01*
Y5858980D01*
X4583034Y5838618D01*
X4598618Y5823034D01*
X4618980Y5814600D01*
X4641020D01*
X4661381Y5823034D01*
X4676966Y5838618D01*
X4685400Y5858980D01*
Y5881020D01*
X4676966Y5901381D01*
X4661381Y5916966D01*
X4641020Y5925400D01*
X4638846D01*
Y6093909D01*
X6874092Y8329155D01*
X7042006D01*
X7047933Y8314846D01*
X7064828Y8292829D01*
X7086845Y8275934D01*
X7112485Y8265314D01*
X7140000Y8261692D01*
X7160000D01*
X7187515Y8265314D01*
X7213154Y8275934D01*
X7235172Y8292829D01*
X7252067Y8314846D01*
X7262687Y8340486D01*
X7266309Y8368001D01*
X7262687Y8395516D01*
X7252067Y8421156D01*
X7235172Y8443173D01*
X7213154Y8460068D01*
X7187515Y8470688D01*
X7160000Y8474310D01*
D02*
G37*
G36*
Y7966310D02*
X7140000D01*
X7112485Y7962688D01*
X7086845Y7952068D01*
X7064828Y7935173D01*
X7047933Y7913156D01*
X7042006Y7898848D01*
X6613963D01*
X6599098Y7895890D01*
X6586495Y7887470D01*
X4797570Y6098545D01*
X4781020Y6105400D01*
X4758980D01*
X4738619Y6096966D01*
X4723034Y6081382D01*
X4714600Y6061020D01*
Y6038980D01*
X4723034Y6018619D01*
X4738619Y6003034D01*
X4758980Y5994600D01*
X4781020D01*
X4801382Y6003034D01*
X4816649Y6018301D01*
X4824601Y6019883D01*
X4837204Y6028304D01*
X6630054Y7821155D01*
X7042006D01*
X7047933Y7806846D01*
X7064828Y7784829D01*
X7086845Y7767934D01*
X7112485Y7757314D01*
X7140000Y7753692D01*
X7160000D01*
X7187515Y7757314D01*
X7213154Y7767934D01*
X7235172Y7784829D01*
X7252067Y7806846D01*
X7262687Y7832486D01*
X7266309Y7860001D01*
X7262687Y7887516D01*
X7252067Y7913156D01*
X7235172Y7935173D01*
X7213154Y7952068D01*
X7187515Y7962688D01*
X7160000Y7966310D01*
D02*
G37*
G36*
Y7712310D02*
X7140000D01*
X7112485Y7708688D01*
X7086845Y7698068D01*
X7064828Y7681173D01*
X7047933Y7659156D01*
X7037313Y7633516D01*
X7033691Y7606001D01*
X7037313Y7578486D01*
X7047933Y7552846D01*
X7064828Y7530829D01*
X7086845Y7513934D01*
X7112485Y7503314D01*
X7140000Y7499692D01*
X7160000D01*
X7187515Y7503314D01*
X7213154Y7513934D01*
X7235172Y7530829D01*
X7252067Y7552846D01*
X7262687Y7578486D01*
X7266309Y7606001D01*
X7262687Y7633516D01*
X7252067Y7659156D01*
X7235172Y7681173D01*
X7213154Y7698068D01*
X7187515Y7708688D01*
X7160000Y7712310D01*
D02*
G37*
G36*
X7150000Y7328311D02*
X7130000D01*
X7102485Y7324688D01*
X7076845Y7314068D01*
X7054828Y7297173D01*
X7037933Y7275156D01*
X7032007Y7260848D01*
X6532001D01*
X6517136Y7257891D01*
X6504533Y7249470D01*
X5422531Y6167468D01*
X5414111Y6154866D01*
X5411154Y6140000D01*
Y5909501D01*
X5403034Y5901381D01*
X5394600Y5881020D01*
Y5858980D01*
X5403034Y5838618D01*
X5418619Y5823034D01*
X5438980Y5814600D01*
X5461020D01*
X5481381Y5823034D01*
X5496966Y5838618D01*
X5505400Y5858980D01*
Y5881020D01*
X5496966Y5901381D01*
X5488847Y5909501D01*
Y6123909D01*
X6548092Y7183155D01*
X7032007D01*
X7037933Y7168846D01*
X7054828Y7146829D01*
X7076845Y7129935D01*
X7102485Y7119314D01*
X7130000Y7115692D01*
X7150000D01*
X7177515Y7119314D01*
X7203155Y7129935D01*
X7225172Y7146829D01*
X7242067Y7168846D01*
X7252687Y7194487D01*
X7256309Y7222001D01*
X7252687Y7249516D01*
X7242067Y7275156D01*
X7225172Y7297173D01*
X7203155Y7314068D01*
X7177515Y7324688D01*
X7150000Y7328311D01*
D02*
G37*
G36*
X2145000Y8180395D02*
X2094999D01*
X2064874Y8176429D01*
X2036802Y8164801D01*
X2012695Y8146304D01*
X1994198Y8122198D01*
X1982570Y8094125D01*
X1978604Y8064000D01*
X1982570Y8033874D01*
X1994198Y8005802D01*
X2012695Y7981696D01*
X2036802Y7963198D01*
X2064874Y7951570D01*
X2094999Y7947604D01*
X2145000D01*
X2175125Y7951570D01*
X2203198Y7963198D01*
X2227304Y7981696D01*
X2245801Y8005802D01*
X2252160Y8021153D01*
X2383910D01*
X3418358Y6986705D01*
X3413034Y6981382D01*
X3404600Y6961020D01*
Y6938980D01*
X3413034Y6918619D01*
X3428618Y6903034D01*
X3448980Y6894600D01*
X3471020D01*
X3491381Y6903034D01*
X3506966Y6918619D01*
X3515400Y6938980D01*
Y6961020D01*
X3506966Y6981382D01*
X3498846Y6989501D01*
Y7000000D01*
X3495889Y7014866D01*
X3487469Y7027469D01*
X2427469Y8087468D01*
X2414866Y8095889D01*
X2400000Y8098846D01*
X2255474D01*
X2245801Y8122198D01*
X2227304Y8146304D01*
X2203198Y8164801D01*
X2175125Y8176429D01*
X2145000Y8180395D01*
D02*
G37*
G36*
X515771Y7070799D02*
X489230D01*
X463593Y7063929D01*
X440608Y7050659D01*
X421841Y7031891D01*
X408570Y7008906D01*
X401701Y6983269D01*
Y6956728D01*
X408570Y6931092D01*
X421841Y6908106D01*
X440608Y6889339D01*
X463593Y6876068D01*
X489230Y6869199D01*
X515771D01*
X541408Y6876068D01*
X564393Y6889339D01*
X583161Y6908106D01*
X596431Y6931092D01*
X603301Y6956728D01*
Y6983269D01*
X596431Y7008906D01*
X583161Y7031891D01*
X564393Y7050659D01*
X541408Y7063929D01*
X515771Y7070799D01*
D02*
G37*
G36*
X7150000Y6820311D02*
X7130000D01*
X7102485Y6816688D01*
X7076845Y6806068D01*
X7054828Y6789173D01*
X7037933Y6767156D01*
X7032007Y6752848D01*
X6244001D01*
X6229135Y6749891D01*
X6216533Y6741470D01*
X5602531Y6127468D01*
X5594110Y6114866D01*
X5591153Y6100000D01*
Y5925453D01*
X5591100Y5925400D01*
X5588980D01*
X5568619Y5916966D01*
X5553034Y5901381D01*
X5544600Y5881020D01*
Y5858980D01*
X5553034Y5838618D01*
X5561153Y5830499D01*
Y5679501D01*
X5553034Y5671381D01*
X5544600Y5651020D01*
Y5628980D01*
X5553034Y5608618D01*
X5568619Y5593034D01*
X5588980Y5584600D01*
X5611020D01*
X5631381Y5593034D01*
X5646966Y5608618D01*
X5655400Y5628980D01*
Y5651020D01*
X5646966Y5671381D01*
X5638846Y5679501D01*
Y5830499D01*
X5646966Y5838618D01*
X5655400Y5858980D01*
Y5879825D01*
X5657468Y5881894D01*
X5665889Y5894497D01*
X5668846Y5909363D01*
Y6083909D01*
X6260092Y6675155D01*
X7032007D01*
X7037933Y6660846D01*
X7054828Y6638829D01*
X7076845Y6621935D01*
X7102485Y6611314D01*
X7130000Y6607692D01*
X7150000D01*
X7177515Y6611314D01*
X7203155Y6621935D01*
X7225172Y6638829D01*
X7242067Y6660846D01*
X7252687Y6686487D01*
X7256309Y6714001D01*
X7252687Y6741516D01*
X7242067Y6767156D01*
X7225172Y6789173D01*
X7203155Y6806068D01*
X7177515Y6816688D01*
X7150000Y6820311D01*
D02*
G37*
G36*
X2145000Y8942395D02*
X2094999D01*
X2064874Y8938429D01*
X2036802Y8926801D01*
X2012695Y8908304D01*
X1994198Y8884198D01*
X1982570Y8856125D01*
X1978604Y8826000D01*
X1982570Y8795874D01*
X1994198Y8767802D01*
X2012695Y8743696D01*
X2036802Y8725198D01*
X2064874Y8713570D01*
X2094999Y8709604D01*
X2145000D01*
X2175125Y8713570D01*
X2203198Y8725198D01*
X2227304Y8743696D01*
X2245801Y8767802D01*
X2253817Y8787153D01*
X2277910D01*
X4421153Y6643910D01*
Y6365154D01*
X4417704Y6362264D01*
X4408453Y6358179D01*
X4391020Y6365400D01*
X4368980D01*
X4348618Y6356966D01*
X4333034Y6341381D01*
X4324600Y6321020D01*
Y6298980D01*
X4333034Y6278618D01*
X4348618Y6263034D01*
X4368980Y6254600D01*
X4391020D01*
X4408453Y6261821D01*
X4417704Y6257736D01*
X4421153Y6254845D01*
Y5786090D01*
X4360386Y5725323D01*
X4336548D01*
X4334905Y5726966D01*
X4314543Y5735400D01*
X4292503D01*
X4272142Y5726966D01*
X4256557Y5711382D01*
X4248123Y5691020D01*
Y5668980D01*
X4256557Y5648619D01*
X4272142Y5633034D01*
X4292503Y5624600D01*
X4314543D01*
X4334905Y5633034D01*
X4349501Y5647630D01*
X4376477D01*
X4391342Y5650587D01*
X4403945Y5659008D01*
X4487468Y5742531D01*
X4495889Y5755134D01*
X4498846Y5770000D01*
Y6310000D01*
Y6660001D01*
X4495889Y6674867D01*
X4487468Y6687469D01*
X2321469Y8853468D01*
X2308866Y8861889D01*
X2294000Y8864846D01*
X2253817D01*
X2245801Y8884198D01*
X2227304Y8908304D01*
X2203198Y8926801D01*
X2175125Y8938429D01*
X2145000Y8942395D01*
D02*
G37*
G36*
X7150000Y6566311D02*
X7130000D01*
X7102485Y6562688D01*
X7076845Y6552068D01*
X7054828Y6535173D01*
X7037933Y6513156D01*
X7027313Y6487516D01*
X7023691Y6460001D01*
X7027313Y6432487D01*
X7037933Y6406846D01*
X7054828Y6384829D01*
X7076845Y6367935D01*
X7102485Y6357314D01*
X7130000Y6353692D01*
X7150000D01*
X7177515Y6357314D01*
X7203155Y6367935D01*
X7225172Y6384829D01*
X7242067Y6406846D01*
X7252687Y6432487D01*
X7256309Y6460001D01*
X7252687Y6487516D01*
X7242067Y6513156D01*
X7225172Y6535173D01*
X7203155Y6552068D01*
X7177515Y6562688D01*
X7150000Y6566311D01*
D02*
G37*
G36*
X2145000Y8688395D02*
X2094999D01*
X2064874Y8684429D01*
X2036802Y8672801D01*
X2012695Y8654304D01*
X1994198Y8630198D01*
X1982570Y8602125D01*
X1978604Y8572000D01*
X1982570Y8541874D01*
X1994198Y8513802D01*
X2012695Y8489696D01*
X2036802Y8471198D01*
X2064874Y8459570D01*
X2094999Y8455604D01*
X2145000D01*
X2175125Y8459570D01*
X2203198Y8471198D01*
X2227304Y8489696D01*
X2245801Y8513802D01*
X2247562Y8518054D01*
X2277009D01*
X4091154Y6703910D01*
Y6315000D01*
Y5713771D01*
X4088764Y5711382D01*
X4080497Y5691423D01*
X4080287Y5690999D01*
X4067630Y5684746D01*
X4065400Y5686236D01*
Y5691020D01*
X4056966Y5711382D01*
X4041382Y5726966D01*
X4021020Y5735400D01*
X3998980D01*
X3978619Y5726966D01*
X3963034Y5711382D01*
X3954600Y5691020D01*
Y5668980D01*
X3963034Y5648619D01*
X3978619Y5633034D01*
X3998980Y5624600D01*
X4014356D01*
X4154478Y5484478D01*
X4162986Y5478793D01*
X4159136Y5466093D01*
X4130000D01*
X4116188Y5463346D01*
X4104478Y5455522D01*
X4054356Y5405400D01*
X4043980D01*
X4023619Y5396966D01*
X4008034Y5381381D01*
X3999600Y5361020D01*
Y5338980D01*
X4008034Y5318619D01*
X4023619Y5303034D01*
X4043980Y5294600D01*
X4066020D01*
X4086381Y5303034D01*
X4101966Y5318619D01*
X4110400Y5338980D01*
Y5359356D01*
X4144951Y5393907D01*
X4298966D01*
X4303826Y5382173D01*
X4303034Y5381381D01*
X4294600Y5361020D01*
Y5338980D01*
X4303034Y5318619D01*
X4318618Y5303034D01*
X4338980Y5294600D01*
X4361020D01*
X4381381Y5303034D01*
X4389501Y5311153D01*
X4476136D01*
X4477387Y5298453D01*
X4464497Y5295889D01*
X4451894Y5287469D01*
X4419826Y5255400D01*
X4398980D01*
X4378619Y5246966D01*
X4363034Y5231381D01*
X4354600Y5211020D01*
Y5188980D01*
X4363034Y5168619D01*
X4378619Y5153034D01*
X4398980Y5144600D01*
X4421020D01*
X4441382Y5153034D01*
X4456966Y5168619D01*
X4465400Y5188980D01*
Y5191100D01*
X4495454Y5221153D01*
X7052821D01*
X7067687Y5224110D01*
X7070953Y5226293D01*
X7081845Y5217935D01*
X7107485Y5207315D01*
X7135000Y5203693D01*
X7155000D01*
X7182515Y5207315D01*
X7208154Y5217935D01*
X7230172Y5234830D01*
X7247067Y5256847D01*
X7257687Y5282487D01*
X7261309Y5310002D01*
X7257687Y5337517D01*
X7247067Y5363157D01*
X7230172Y5385174D01*
X7208154Y5402069D01*
X7182515Y5412689D01*
X7155000Y5416311D01*
X7135000D01*
X7107485Y5412689D01*
X7081845Y5402069D01*
X7059828Y5385174D01*
X7042933Y5363157D01*
X7032313Y5337517D01*
X7028691Y5310002D01*
X7028902Y5308395D01*
X7020528Y5298846D01*
X6645224D01*
X6643974Y5311546D01*
X6656864Y5314111D01*
X6669466Y5322531D01*
X7076767Y5729832D01*
X7081845Y5725935D01*
X7107485Y5715315D01*
X7135000Y5711693D01*
X7155000D01*
X7182515Y5715315D01*
X7208154Y5725935D01*
X7230172Y5742830D01*
X7247067Y5764847D01*
X7257687Y5790487D01*
X7261309Y5818002D01*
X7257687Y5845517D01*
X7247067Y5871157D01*
X7230172Y5893174D01*
X7208154Y5910069D01*
X7182515Y5920689D01*
X7155000Y5924311D01*
X7135000D01*
X7107485Y5920689D01*
X7081845Y5910069D01*
X7059828Y5893174D01*
X7042933Y5871157D01*
X7032313Y5845517D01*
X7028691Y5818002D01*
X7031759Y5794698D01*
X6625907Y5388846D01*
X5924987D01*
X5921134Y5401546D01*
X5925522Y5404478D01*
X6185644Y5664600D01*
X6191020D01*
X6211382Y5673034D01*
X6226966Y5688619D01*
X6235400Y5708980D01*
Y5731020D01*
X6226966Y5751381D01*
X6211382Y5766966D01*
X6191020Y5775400D01*
X6168980D01*
X6148619Y5766966D01*
X6133034Y5751381D01*
X6124600Y5731020D01*
Y5708980D01*
X6125577Y5706621D01*
X5885050Y5466093D01*
X5801869D01*
X5798020Y5478793D01*
X5806527Y5484478D01*
X6175644Y5853595D01*
X6191020D01*
X6211382Y5862029D01*
X6226966Y5877613D01*
X6235400Y5897975D01*
Y5920015D01*
X6226966Y5940376D01*
X6211382Y5955961D01*
X6191020Y5964395D01*
X6168980D01*
X6148619Y5955961D01*
X6133034Y5940376D01*
X6124600Y5920015D01*
Y5904639D01*
X5766055Y5546093D01*
X4194950D01*
X4129144Y5611900D01*
X4134404Y5624600D01*
X4146750D01*
X4167112Y5633034D01*
X4182696Y5648619D01*
X4191130Y5668980D01*
Y5691020D01*
X4182696Y5711382D01*
X4168847Y5725231D01*
Y6254439D01*
X4179406Y6261495D01*
X4183980Y6259600D01*
X4206020D01*
X4226381Y6268034D01*
X4241966Y6283619D01*
X4250400Y6303980D01*
Y6326020D01*
X4241966Y6346382D01*
X4226381Y6361966D01*
X4206020Y6370400D01*
X4183980D01*
X4179406Y6368505D01*
X4168847Y6375561D01*
Y6720000D01*
X4165890Y6734866D01*
X4157469Y6747469D01*
X2320568Y8584369D01*
X2307966Y8592790D01*
X2293100Y8595747D01*
X2258269D01*
X2257429Y8602125D01*
X2245801Y8630198D01*
X2227304Y8654304D01*
X2203198Y8672801D01*
X2175125Y8684429D01*
X2145000Y8688395D01*
D02*
G37*
G36*
X7155000Y6178311D02*
X7135000D01*
X7107485Y6174689D01*
X7081845Y6164069D01*
X7059828Y6147174D01*
X7043953Y6126486D01*
X6805400D01*
Y6145401D01*
X6674600D01*
Y5994601D01*
X6805400D01*
Y6013516D01*
X7047025D01*
X7059828Y5996830D01*
X7081845Y5979935D01*
X7107485Y5969315D01*
X7135000Y5965693D01*
X7155000D01*
X7182515Y5969315D01*
X7208154Y5979935D01*
X7230172Y5996830D01*
X7247067Y6018847D01*
X7257687Y6044487D01*
X7261309Y6072002D01*
X7257687Y6099517D01*
X7247067Y6125157D01*
X7230172Y6147174D01*
X7208154Y6164069D01*
X7182515Y6174689D01*
X7155000Y6178311D01*
D02*
G37*
G36*
X4308320Y6105400D02*
X4286280D01*
X4265919Y6096966D01*
X4250334Y6081382D01*
X4241900Y6061020D01*
Y6038980D01*
X4250334Y6018619D01*
X4256109Y6012844D01*
Y5907156D01*
X4250334Y5901381D01*
X4241900Y5881020D01*
Y5858980D01*
X4250334Y5838618D01*
X4265919Y5823034D01*
X4286280Y5814600D01*
X4308320D01*
X4328682Y5823034D01*
X4344266Y5838618D01*
X4352700Y5858980D01*
Y5881020D01*
X4344266Y5901381D01*
X4338492Y5907156D01*
Y6012844D01*
X4344266Y6018619D01*
X4352700Y6038980D01*
Y6061020D01*
X4344266Y6081382D01*
X4328682Y6096966D01*
X4308320Y6105400D01*
D02*
G37*
G36*
X6998300Y4810800D02*
X6796700D01*
Y4609200D01*
X6998300D01*
Y4810800D01*
D02*
G37*
G36*
X515771D02*
X489230D01*
X463593Y4803931D01*
X440608Y4790660D01*
X421841Y4771893D01*
X408570Y4748907D01*
X401701Y4723271D01*
Y4696730D01*
X408570Y4671093D01*
X421841Y4648108D01*
X440608Y4629340D01*
X463593Y4616070D01*
X489230Y4609200D01*
X515771D01*
X541408Y4616070D01*
X564393Y4629340D01*
X583161Y4648108D01*
X596431Y4671093D01*
X603301Y4696730D01*
Y4723271D01*
X596431Y4748907D01*
X583161Y4771893D01*
X564393Y4790660D01*
X541408Y4803931D01*
X515771Y4810800D01*
D02*
G37*
G36*
X6910771Y4560800D02*
X6884230D01*
X6858593Y4553931D01*
X6835608Y4540660D01*
X6816840Y4521893D01*
X6803570Y4498907D01*
X6796700Y4473271D01*
Y4446730D01*
X6803570Y4421093D01*
X6816840Y4398108D01*
X6835608Y4379340D01*
X6858593Y4366070D01*
X6884230Y4359200D01*
X6910771D01*
X6936407Y4366070D01*
X6959392Y4379340D01*
X6978160Y4398108D01*
X6991431Y4421093D01*
X6998300Y4446730D01*
Y4473271D01*
X6991431Y4498907D01*
X6978160Y4521893D01*
X6959392Y4540660D01*
X6936407Y4553931D01*
X6910771Y4560800D01*
D02*
G37*
G36*
X515771D02*
X489230D01*
X463593Y4553931D01*
X440608Y4540660D01*
X421841Y4521893D01*
X408570Y4498907D01*
X401701Y4473271D01*
Y4446730D01*
X408570Y4421093D01*
X421841Y4398108D01*
X440608Y4379340D01*
X463593Y4366070D01*
X489230Y4359200D01*
X515771D01*
X541408Y4366070D01*
X564393Y4379340D01*
X583161Y4398108D01*
X596431Y4421093D01*
X603301Y4446730D01*
Y4473271D01*
X596431Y4498907D01*
X583161Y4521893D01*
X564393Y4540660D01*
X541408Y4553931D01*
X515771Y4560800D01*
D02*
G37*
G36*
X3421020Y5425400D02*
X3398980D01*
X3378619Y5416966D01*
X3363034Y5401381D01*
X3354600Y5381020D01*
Y5358980D01*
X3363034Y5338618D01*
X3363711Y5337942D01*
Y4639174D01*
X3050826Y4326290D01*
X2000001D01*
X2000000Y4326290D01*
X1982286Y4322766D01*
X1967268Y4312732D01*
X1967268Y4312731D01*
X1797268Y4142732D01*
X1787234Y4127714D01*
X1783710Y4110000D01*
X1783710Y4109999D01*
Y2554714D01*
X1783228Y2551979D01*
X1782538Y2549910D01*
X1781979Y2548871D01*
X1781596Y2548404D01*
X1781129Y2548021D01*
X1780089Y2547462D01*
X1778021Y2546772D01*
X1775287Y2546290D01*
X1512058D01*
X1511382Y2546966D01*
X1491020Y2555400D01*
X1468980D01*
X1448619Y2546966D01*
X1433034Y2531382D01*
X1424600Y2511020D01*
Y2488980D01*
X1433034Y2468619D01*
X1448619Y2453034D01*
X1468980Y2444600D01*
X1491020D01*
X1511382Y2453034D01*
X1512058Y2453711D01*
X1789150D01*
X1793389Y2453240D01*
X1798783Y2452211D01*
X1803929Y2450792D01*
X1808869Y2448982D01*
X1813638Y2446771D01*
X1818282Y2444135D01*
X1822826Y2441046D01*
X1826153Y2438384D01*
X3467268Y797269D01*
X3467268Y797268D01*
X3482286Y787234D01*
X3500000Y783710D01*
X3500001Y783711D01*
X5995826D01*
X6084600Y694936D01*
Y344600D01*
X6485400D01*
Y755400D01*
X6371100D01*
Y970400D01*
X6327087D01*
Y994600D01*
X6330400D01*
Y1145400D01*
X6316387D01*
Y1174600D01*
X6330400D01*
Y1325400D01*
X6199601D01*
Y1325400D01*
X6188485Y1329226D01*
Y1388100D01*
X6217900D01*
Y1393515D01*
X6250000D01*
X6255456Y1394600D01*
X6261020D01*
X6266160Y1396729D01*
X6271616Y1397814D01*
X6276241Y1400905D01*
X6281381Y1403034D01*
X6285315Y1406967D01*
X6289941Y1410059D01*
X6293032Y1414685D01*
X6296966Y1418618D01*
X6299095Y1423758D01*
X6302186Y1428384D01*
X6303271Y1433840D01*
X6305400Y1438980D01*
Y1444543D01*
X6306485Y1450000D01*
X6305400Y1455456D01*
Y1461020D01*
X6303271Y1466160D01*
X6302186Y1471616D01*
X6299095Y1476241D01*
X6296966Y1481381D01*
X6293032Y1485315D01*
X6289941Y1489941D01*
X6285315Y1493032D01*
X6281381Y1496966D01*
X6276241Y1499095D01*
X6271616Y1502185D01*
X6266160Y1503271D01*
X6261020Y1505400D01*
X6255456D01*
X6250000Y1506485D01*
X6217900D01*
Y1511900D01*
X6046100D01*
Y1388100D01*
X6075515D01*
Y1275397D01*
X6036603Y1236485D01*
X3993397D01*
X3386485Y1843397D01*
Y3519064D01*
X3387572Y3525219D01*
X3389262Y3530290D01*
X3391221Y3533929D01*
X3393403Y3536596D01*
X3396071Y3538779D01*
X3399710Y3540738D01*
X3404780Y3542428D01*
X3410936Y3543515D01*
X3550000D01*
X3555456Y3544600D01*
X3561020D01*
X3566160Y3546729D01*
X3571616Y3547814D01*
X3576242Y3550905D01*
X3578453Y3551821D01*
X3587704Y3547736D01*
X3591154Y3544846D01*
Y3040000D01*
X3594111Y3025134D01*
X3602532Y3012531D01*
X3752531Y2862531D01*
X3765134Y2854111D01*
X3780000Y2851154D01*
X3800499D01*
X3808619Y2843034D01*
X3828980Y2834600D01*
X3851020D01*
X3871382Y2843034D01*
X3886966Y2858619D01*
X3895400Y2878980D01*
Y2901020D01*
X3886966Y2921382D01*
X3871382Y2936966D01*
X3851020Y2945400D01*
X3828980D01*
X3808619Y2936966D01*
X3800499Y2928847D01*
X3796091D01*
X3668847Y3056091D01*
Y4950000D01*
X3665890Y4964866D01*
X3657469Y4977468D01*
X3614089Y5020848D01*
X3601486Y5029269D01*
X3597514Y5030059D01*
X3596966Y5031381D01*
X3581381Y5046966D01*
X3561020Y5055400D01*
X3538980D01*
X3518619Y5046966D01*
X3503034Y5031381D01*
X3494600Y5011020D01*
Y4988980D01*
X3503034Y4968618D01*
X3518619Y4953034D01*
X3538980Y4944600D01*
X3561020D01*
X3574768Y4950295D01*
X3591154Y4933909D01*
Y4853787D01*
X3578453Y4848179D01*
X3561020Y4855400D01*
X3538980D01*
X3518619Y4846966D01*
X3503034Y4831381D01*
X3494600Y4811020D01*
Y4788980D01*
X3503034Y4768619D01*
X3511154Y4760499D01*
Y4556091D01*
X2943909Y3988846D01*
X1969501D01*
X1961381Y3996966D01*
X1941020Y4005400D01*
X1918980D01*
X1898619Y3996966D01*
X1888989Y3987337D01*
X1876289Y3992597D01*
Y4090826D01*
X2019174Y4233711D01*
X3069999D01*
X3070000Y4233710D01*
X3087714Y4237234D01*
X3102732Y4247268D01*
X3442731Y4587268D01*
X3442732Y4587268D01*
X3452766Y4602286D01*
X3456290Y4620000D01*
X3456290Y4620001D01*
Y5337942D01*
X3456966Y5338618D01*
X3465400Y5358980D01*
Y5381020D01*
X3456966Y5401381D01*
X3441381Y5416966D01*
X3421020Y5425400D01*
D02*
G37*
G36*
X6910771Y4310800D02*
X6884230D01*
X6858593Y4303931D01*
X6835608Y4290660D01*
X6816840Y4271893D01*
X6803570Y4248907D01*
X6796700Y4223271D01*
Y4196730D01*
X6803570Y4171093D01*
X6816840Y4148108D01*
X6835608Y4129340D01*
X6858593Y4116070D01*
X6884230Y4109200D01*
X6910771D01*
X6936407Y4116070D01*
X6959392Y4129340D01*
X6978160Y4148108D01*
X6991431Y4171093D01*
X6998300Y4196730D01*
Y4223271D01*
X6991431Y4248907D01*
X6978160Y4271893D01*
X6959392Y4290660D01*
X6936407Y4303931D01*
X6910771Y4310800D01*
D02*
G37*
G36*
X603301D02*
X401701D01*
Y4109200D01*
X603301D01*
Y4310800D01*
D02*
G37*
G36*
X7185000Y3786266D02*
X7158790Y3782816D01*
X7134367Y3772699D01*
X7113394Y3756606D01*
X7097301Y3735633D01*
X7087184Y3711210D01*
X7083734Y3685000D01*
Y3435000D01*
X7087184Y3408790D01*
X7097301Y3384367D01*
X7113394Y3363394D01*
X7134367Y3347301D01*
X7158790Y3337184D01*
X7185000Y3333734D01*
X7211210Y3337184D01*
X7235633Y3347301D01*
X7256606Y3363394D01*
X7272699Y3384367D01*
X7282816Y3408790D01*
X7286266Y3435000D01*
Y3685000D01*
X7282816Y3711210D01*
X7272699Y3735633D01*
X7256606Y3756606D01*
X7235633Y3772699D01*
X7211210Y3782816D01*
X7185000Y3786266D01*
D02*
G37*
G36*
X5840400Y3385400D02*
X5639600D01*
Y3294600D01*
Y3229600D01*
Y3164600D01*
X5840400D01*
Y3229600D01*
Y3294600D01*
Y3385400D01*
D02*
G37*
G36*
X6037902Y2310400D02*
X6014099D01*
X5991108Y2304239D01*
X5970494Y2292338D01*
X5953663Y2275507D01*
X5941761Y2254893D01*
X5935601Y2231901D01*
Y2208098D01*
X5941761Y2185107D01*
X5953663Y2164493D01*
X5970494Y2147662D01*
X5991108Y2135761D01*
X6014099Y2129600D01*
X6037902D01*
X6060894Y2135761D01*
X6081508Y2147662D01*
X6098339Y2164493D01*
X6110240Y2185107D01*
X6116401Y2208098D01*
Y2231901D01*
X6110240Y2254893D01*
X6098339Y2275507D01*
X6081508Y2292338D01*
X6060894Y2304239D01*
X6037902Y2310400D01*
D02*
G37*
G36*
X5616401D02*
X5435601D01*
Y2129600D01*
X5616401D01*
Y2310400D01*
D02*
G37*
G36*
X3849673Y4664053D02*
X3827633D01*
X3807271Y4655619D01*
X3791687Y4640034D01*
X3783253Y4619672D01*
Y4597633D01*
X3791687Y4577271D01*
X3802743Y4566215D01*
X3804625Y4555991D01*
X3802009Y4550356D01*
X3789510Y4537858D01*
X3781076Y4517496D01*
Y4495457D01*
X3789510Y4475095D01*
X3805095Y4459511D01*
X3825456Y4451076D01*
X3843987D01*
X4101154Y4193910D01*
Y2070000D01*
X4104111Y2055134D01*
X4112532Y2042531D01*
X4562531Y1592531D01*
X4575134Y1584111D01*
X4590000Y1581154D01*
X5153909D01*
X5284600Y1450463D01*
Y1438980D01*
X5293034Y1418618D01*
X5308619Y1403034D01*
X5328980Y1394600D01*
X5351020D01*
X5371381Y1403034D01*
X5386966Y1418618D01*
X5395400Y1438980D01*
Y1461020D01*
X5386966Y1481381D01*
X5371381Y1496966D01*
X5351020Y1505400D01*
X5339537D01*
X5197468Y1647469D01*
X5184866Y1655889D01*
X5170000Y1658847D01*
X4606091D01*
X4178847Y2086091D01*
Y4210000D01*
X4175890Y4224866D01*
X4167469Y4237469D01*
X3891876Y4513061D01*
Y4517496D01*
X3883442Y4537858D01*
X3872386Y4548914D01*
X3870504Y4559138D01*
X3873120Y4564773D01*
X3879501Y4571153D01*
X3943910D01*
X4251154Y4263909D01*
Y2200000D01*
X4254111Y2185134D01*
X4262531Y2172531D01*
X4642531Y1792531D01*
X4655134Y1784110D01*
X4670000Y1781153D01*
X5213909D01*
X5572531Y1422531D01*
X5585134Y1414110D01*
X5600000Y1411153D01*
X5630499D01*
X5638619Y1403034D01*
X5658980Y1394600D01*
X5681020D01*
X5701382Y1403034D01*
X5716966Y1418618D01*
X5725400Y1438980D01*
Y1461020D01*
X5716966Y1481381D01*
X5701382Y1496966D01*
X5681020Y1505400D01*
X5658980D01*
X5638619Y1496966D01*
X5630499Y1488846D01*
X5616091D01*
X5257469Y1847468D01*
X5244866Y1855889D01*
X5230000Y1858846D01*
X4686091D01*
X4328847Y2216091D01*
Y4280000D01*
X4325889Y4294866D01*
X4317469Y4307469D01*
X3987469Y4637468D01*
X3974866Y4645889D01*
X3960000Y4648846D01*
X3876806D01*
X3870034Y4655619D01*
X3849673Y4664053D01*
D02*
G37*
G36*
X6553900Y1511900D02*
X6382100D01*
Y1388100D01*
X6416613D01*
Y1325575D01*
X6416438Y1325400D01*
X6349600D01*
Y1174600D01*
X6480400D01*
Y1244018D01*
X6504336Y1267954D01*
X6515475Y1284625D01*
X6519387Y1304290D01*
Y1388100D01*
X6553900D01*
Y1511900D01*
D02*
G37*
G36*
X4895400Y755400D02*
X4494600D01*
Y344600D01*
X4895400D01*
Y755400D01*
D02*
G37*
G36*
X411675Y675400D02*
X368325D01*
X325510Y668619D01*
X284283Y655223D01*
X245659Y635543D01*
X210589Y610063D01*
X179937Y579411D01*
X154457Y544341D01*
X134777Y505717D01*
X121381Y464490D01*
X114600Y421675D01*
Y378325D01*
X121381Y335510D01*
X134777Y294283D01*
X154457Y255659D01*
X179937Y220589D01*
X210589Y189937D01*
X245659Y164457D01*
X284283Y144777D01*
X325510Y131381D01*
X368325Y124600D01*
X411675D01*
X454490Y131381D01*
X495717Y144777D01*
X534341Y164457D01*
X569411Y189937D01*
X600063Y220589D01*
X625543Y255659D01*
X645223Y294283D01*
X658619Y335510D01*
X665400Y378325D01*
Y421675D01*
X658619Y464490D01*
X645223Y505717D01*
X625543Y544341D01*
X600063Y579411D01*
X569411Y610063D01*
X534341Y635543D01*
X495717Y655223D01*
X454490Y668619D01*
X411675Y675400D01*
D02*
G37*
%LPD*%
G36*
X4472700Y6310000D02*
X4447300Y6271900D01*
X4447046Y6276726D01*
X4446284Y6281044D01*
X4445014Y6284854D01*
X4443236Y6288156D01*
X4440950Y6290950D01*
X4438156Y6293236D01*
X4434854Y6295014D01*
X4431044Y6296284D01*
X4426726Y6297046D01*
X4421900Y6297300D01*
Y6322700D01*
X4426726Y6322954D01*
X4431044Y6323716D01*
X4434854Y6324986D01*
X4438156Y6326764D01*
X4440950Y6329050D01*
X4443236Y6331844D01*
X4445014Y6335146D01*
X4446284Y6338956D01*
X4447046Y6343274D01*
X4447300Y6348100D01*
X4472700Y6310000D01*
D02*
G37*
G36*
X4142954Y6348274D02*
X4143716Y6343956D01*
X4144986Y6340146D01*
X4146764Y6336844D01*
X4149050Y6334050D01*
X4151844Y6331764D01*
X4155146Y6329986D01*
X4158956Y6328716D01*
X4163274Y6327954D01*
X4168100Y6327700D01*
Y6302300D01*
X4163274Y6302046D01*
X4158956Y6301284D01*
X4155146Y6300014D01*
X4151844Y6298236D01*
X4149050Y6295950D01*
X4146764Y6293156D01*
X4144986Y6289854D01*
X4143716Y6286044D01*
X4142954Y6281726D01*
X4142700Y6276900D01*
X4117300Y6315000D01*
X4142700Y6353100D01*
X4142954Y6348274D01*
D02*
G37*
G36*
X3591154Y4510153D02*
Y3655154D01*
X3587704Y3652264D01*
X3578453Y3648179D01*
X3576242Y3649095D01*
X3571616Y3652185D01*
X3566160Y3653271D01*
X3561020Y3655400D01*
X3555456D01*
X3550000Y3656485D01*
X2500000D01*
X2494544Y3655400D01*
X2488980D01*
X2483840Y3653271D01*
X2478384Y3652185D01*
X2473759Y3649095D01*
X2468619Y3646966D01*
X2464685Y3643032D01*
X2460059Y3639941D01*
X2456968Y3635315D01*
X2453034Y3631381D01*
X2450905Y3626241D01*
X2447815Y3621616D01*
X2446729Y3616160D01*
X2444600Y3611020D01*
Y3605456D01*
X2443515Y3600000D01*
X2444600Y3594543D01*
Y3588980D01*
X2446729Y3583840D01*
X2447815Y3578384D01*
X2450905Y3573758D01*
X2453034Y3568618D01*
X2456968Y3564685D01*
X2460059Y3560059D01*
X2464685Y3556967D01*
X2468619Y3553034D01*
X2473759Y3550905D01*
X2478384Y3547814D01*
X2483840Y3546729D01*
X2488980Y3544600D01*
X2494544D01*
X2500000Y3543515D01*
X3249064D01*
X3255219Y3542428D01*
X3260290Y3540738D01*
X3263929Y3538779D01*
X3266596Y3536596D01*
X3268779Y3533929D01*
X3270738Y3530290D01*
X3272428Y3525220D01*
X3273515Y3519064D01*
Y1820001D01*
X3273514Y1820000D01*
X3277814Y1798384D01*
X3290059Y1780059D01*
X3930058Y1140059D01*
X3930059Y1140059D01*
X3948384Y1127814D01*
X3970000Y1123514D01*
X3970001Y1123515D01*
X4293515D01*
Y1060000D01*
X4294600Y1054543D01*
Y1048980D01*
X4296729Y1043840D01*
X4297814Y1038384D01*
X4300905Y1033758D01*
X4303034Y1028618D01*
X4306968Y1024685D01*
X4310059Y1020059D01*
X4314685Y1016967D01*
X4318618Y1013034D01*
X4323758Y1010905D01*
X4328384Y1007814D01*
X4333840Y1006729D01*
X4338980Y1004600D01*
X4344544D01*
X4350000Y1003515D01*
X4355456Y1004600D01*
X4361020D01*
X4366160Y1006729D01*
X4371616Y1007814D01*
X4376241Y1010905D01*
X4381381Y1013034D01*
X4385315Y1016967D01*
X4389941Y1020059D01*
X4393032Y1024685D01*
X4396966Y1028618D01*
X4399095Y1033758D01*
X4402186Y1038384D01*
X4403271Y1043840D01*
X4405400Y1048980D01*
Y1054543D01*
X4406485Y1060000D01*
Y1123515D01*
X6059999D01*
X6060000Y1123514D01*
X6081616Y1127814D01*
X6099941Y1140059D01*
X6171940Y1212058D01*
X6171941Y1212059D01*
X6184185Y1230384D01*
X6186900Y1244031D01*
X6199600Y1242780D01*
Y1174600D01*
X6213613D01*
Y1145400D01*
X6199600D01*
Y994600D01*
X6224313D01*
Y970400D01*
X6180300D01*
Y755400D01*
X6155063D01*
X6047731Y862732D01*
X6035903Y870635D01*
X6035147Y882043D01*
X6035863Y884774D01*
X6054717Y895659D01*
X6074341Y915283D01*
X6088217Y939317D01*
X6095400Y966124D01*
Y993876D01*
X6088217Y1020683D01*
X6074341Y1044717D01*
X6054717Y1064341D01*
X6030683Y1078217D01*
X6003876Y1085400D01*
X5976124D01*
X5949317Y1078217D01*
X5925283Y1064341D01*
X5905659Y1044717D01*
X5891783Y1020683D01*
X5884600Y993876D01*
Y966124D01*
X5891783Y939317D01*
X5905659Y915283D01*
X5925283Y895659D01*
X5936834Y888990D01*
X5933431Y876290D01*
X5046569D01*
X5043166Y888990D01*
X5054717Y895659D01*
X5074341Y915283D01*
X5088217Y939317D01*
X5095400Y966124D01*
Y993876D01*
X5088217Y1020683D01*
X5074341Y1044717D01*
X5054717Y1064341D01*
X5030683Y1078217D01*
X5003876Y1085400D01*
X4976124D01*
X4949317Y1078217D01*
X4925283Y1064341D01*
X4905659Y1044717D01*
X4891783Y1020683D01*
X4884600Y993876D01*
Y966124D01*
X4891783Y939317D01*
X4905659Y915283D01*
X4925283Y895659D01*
X4936834Y888990D01*
X4933431Y876290D01*
X3519174D01*
X1891615Y2503848D01*
X1888953Y2507175D01*
X1885865Y2511719D01*
X1883229Y2516362D01*
X1881018Y2521131D01*
X1879208Y2526071D01*
X1877789Y2531216D01*
X1876760Y2536610D01*
X1876289Y2540852D01*
Y3907403D01*
X1888989Y3912663D01*
X1898619Y3903034D01*
X1918980Y3894600D01*
X1941020D01*
X1961381Y3903034D01*
X1969501Y3911153D01*
X2960000D01*
X2974866Y3914111D01*
X2987468Y3922531D01*
X3577469Y4512531D01*
X3578454Y4514005D01*
X3591154Y4510153D01*
D02*
G37*
G36*
X3420000Y3570000D02*
X3408600Y3569400D01*
X3398400Y3567600D01*
X3389400Y3564600D01*
X3381600Y3560400D01*
X3375000Y3555000D01*
X3369600Y3548400D01*
X3365400Y3540600D01*
X3362400Y3531600D01*
X3360600Y3521400D01*
X3360000Y3510000D01*
X3300000D01*
X3299400Y3521400D01*
X3297600Y3531600D01*
X3294600Y3540600D01*
X3290400Y3548400D01*
X3285000Y3555000D01*
X3278400Y3560400D01*
X3270600Y3564600D01*
X3261600Y3567600D01*
X3251400Y3569400D01*
X3240000Y3570000D01*
X3330000Y3630000D01*
X3420000Y3570000D01*
D02*
G37*
G36*
X1850000Y2548284D02*
X1850283Y2540401D01*
X1851131Y2532753D01*
X1852545Y2525339D01*
X1854525Y2518159D01*
X1857071Y2511213D01*
X1860182Y2504502D01*
X1863859Y2498025D01*
X1868102Y2491782D01*
X1872910Y2485774D01*
X1878284Y2480000D01*
X1850000Y2451716D01*
X1844226Y2457090D01*
X1838218Y2461898D01*
X1831975Y2466141D01*
X1825498Y2469818D01*
X1818787Y2472929D01*
X1811841Y2475475D01*
X1804661Y2477455D01*
X1797247Y2478869D01*
X1789599Y2479717D01*
X1781716Y2480000D01*
X1770000Y2520000D01*
X1777600Y2520400D01*
X1784400Y2521600D01*
X1790400Y2523600D01*
X1795600Y2526400D01*
X1800000Y2530000D01*
X1803600Y2534400D01*
X1806400Y2539600D01*
X1808400Y2545600D01*
X1809600Y2552400D01*
X1810000Y2560000D01*
X1850000Y2548284D01*
D02*
G37*
D23*
X1430000Y5480454D02*
D03*
X1135000D02*
D03*
X345000Y5910454D02*
D03*
X640000D02*
D03*
Y6260454D02*
D03*
X345000D02*
D03*
D24*
X778200Y5190454D02*
D03*
X1006800D02*
D03*
X1484300Y6640000D02*
D03*
X1255700D02*
D03*
X1900300Y5184000D02*
D03*
X1671700D02*
D03*
Y4464000D02*
D03*
X1900300D02*
D03*
X6275700Y860000D02*
D03*
X6504300D02*
D03*
D25*
X1630000Y7524300D02*
D03*
Y7295700D02*
D03*
X6040001Y3044300D02*
D03*
Y2815700D02*
D03*
X6240001Y3044300D02*
D03*
Y2815700D02*
D03*
D26*
X1225000Y7310000D02*
D03*
X1415000D02*
D03*
X6225001Y3270000D02*
D03*
X6035001D02*
D03*
D27*
X6740000Y6070001D02*
D03*
X6590000D02*
D03*
X5785000Y3970000D02*
D03*
X5635000D02*
D03*
X6175000Y3470000D02*
D03*
X6025000D02*
D03*
X5185000Y2770000D02*
D03*
X5035000D02*
D03*
X6415000Y1250000D02*
D03*
X6265000D02*
D03*
X6415000Y1070000D02*
D03*
X6265000D02*
D03*
D37*
X5170000Y1620000D02*
X5340000Y1450000D01*
X4590000Y1620000D02*
X5170000D01*
X3875000Y6305000D02*
X3880000Y6310000D01*
X3875000Y4975000D02*
Y6305000D01*
X4600000Y5902179D02*
X4630000Y5872179D01*
Y5870000D02*
Y5872179D01*
X4600000Y5902179D02*
Y6110000D01*
X4130000Y5694129D02*
Y6315000D01*
X4303523Y5686477D02*
X4376477D01*
X4460000Y5770000D01*
X4130000Y5694129D02*
X4135730Y5688399D01*
X4130000Y6315000D02*
X4195000D01*
X4380000Y6310000D02*
X4460000D01*
Y6660001D01*
Y5770000D02*
Y6310000D01*
X2294000Y8826000D02*
X4460000Y6660001D01*
X3770000Y4850000D02*
Y6162187D01*
X3620000Y6312187D02*
X3770000Y6162187D01*
X3350000Y6310000D02*
Y6780000D01*
Y5800000D02*
Y6310000D01*
X3260000D02*
X3350000D01*
X2320000Y7810000D02*
X3350000Y6780000D01*
X2120000Y7810000D02*
X2320000D01*
X3260000Y6310000D02*
X3265907Y6315907D01*
X3350000Y5800000D02*
X3470000Y5680000D01*
X4809735Y6055773D02*
X6613963Y7860001D01*
X4775773Y6055773D02*
X4809735D01*
X4770000Y6050000D02*
X4775773Y6055773D01*
X4600000Y6110000D02*
X6858001Y8368001D01*
X7052821Y5260000D02*
X7102823Y5310002D01*
X4419363Y5200000D02*
X4479363Y5260000D01*
X7052821D01*
X7102823Y5310002D02*
X7145000D01*
X4350000Y5350000D02*
X6641998D01*
X7110000Y5818002D01*
X5600000Y5640000D02*
Y5879363D01*
X4700000Y5090637D02*
Y5100000D01*
X4657300Y5047937D02*
X4700000Y5090637D01*
X4410000Y5200000D02*
X4419363D01*
X5450000Y5880000D02*
Y6140000D01*
X6532001Y7222001D02*
X7140000D01*
X5450000Y6140000D02*
X6532001Y7222001D01*
X6613963Y7860001D02*
X7150000D01*
X6858001Y8368001D02*
X7150000D01*
X2860000Y6310000D02*
X3250000Y5920000D01*
X1404300Y7524300D02*
X1765700D01*
X3250000Y4830000D02*
Y5920000D01*
X3470000Y5680000D02*
X3680000D01*
X2124000Y8060000D02*
X2400000D01*
X3460000Y6950000D02*
Y7000000D01*
X2400000Y8060000D02*
X3460000Y7000000D01*
X3870000Y4970000D02*
X3875000Y4975000D01*
X3552187Y6312187D02*
X3620000D01*
X3550000Y6310000D02*
X3552187Y6312187D01*
X3620000D02*
Y7000000D01*
X2331582Y8288419D02*
X3620000Y7000000D01*
X3586620Y4993380D02*
X3630000Y4950000D01*
Y3040000D02*
Y4950000D01*
X3550000Y5000000D02*
X3556620Y4993380D01*
X3586620D01*
X3550000Y4540000D02*
Y4800000D01*
X2293100Y8556901D02*
X4130000Y6720000D01*
Y6315000D02*
Y6720000D01*
X2149581Y8288419D02*
X2331582D01*
X5630000Y5909363D02*
Y6100000D01*
X5600000Y5879363D02*
X5630000Y5909363D01*
Y6100000D02*
X6244001Y6714001D01*
X7110000Y5818002D02*
X7145000D01*
X1530000Y6860000D02*
X2230000Y6160000D01*
X1530000Y6860000D02*
X1530000D01*
X6244001Y6714001D02*
X7140000D01*
X1120800Y6708454D02*
Y6862949D01*
X1076000Y6663654D02*
X1120800Y6708454D01*
X970000Y6663654D02*
X1076000D01*
X1225000Y7090547D02*
Y7310000D01*
X4540000Y3011444D02*
Y4410000D01*
X5051444Y2500000D02*
X6740000D01*
X4540000Y3011444D02*
X5051444Y2500000D01*
X2230000Y6160000D02*
X2830000D01*
X3110000Y5880000D01*
X1820000Y6730000D02*
X2240000Y6310000D01*
X2860000D01*
X3110000Y4870000D02*
Y5880000D01*
X4250000Y4700000D02*
X4540000Y4410000D01*
X4820000Y3280000D02*
X4890000Y3210000D01*
X4820000Y3280000D02*
Y5100000D01*
X4657300Y3162700D02*
Y5047937D01*
Y3162700D02*
X4870000Y2950000D01*
X3840000Y4610000D02*
X3960000D01*
X4290000Y4280000D01*
Y2200000D02*
Y4280000D01*
X4420000Y2890000D02*
Y4290000D01*
X4056620Y4653380D02*
Y4693380D01*
Y4653380D02*
X4420000Y4290000D01*
X4050000Y4700000D02*
X4056620Y4693380D01*
X2960000Y3950000D02*
X3550000Y4540000D01*
X3630000Y3040000D02*
X3780000Y2890000D01*
X4420000Y2890000D02*
X5710000Y1600000D01*
X4290000Y2200000D02*
X4670000Y1820000D01*
X1930000Y3950000D02*
X2960000D01*
X6740000Y2500000D02*
X6900000Y2660000D01*
X1190597Y6932746D02*
X1365947D01*
X1399467Y6855081D02*
Y6899226D01*
Y6855081D02*
X1415001Y6839546D01*
X1365947Y6932746D02*
X1399467Y6899226D01*
X1120800Y6862949D02*
X1190597Y6932746D01*
X1765700Y7524300D02*
X1820000Y7470000D01*
Y6730000D02*
Y7470000D01*
X1225000Y7345000D02*
X1404300Y7524300D01*
X1225001Y6807437D02*
X1255700Y6776738D01*
Y6640000D02*
Y6776738D01*
X1225001Y6807437D02*
Y6839546D01*
X970000Y7266254D02*
X1076000D01*
X1120800Y7221454D01*
Y7067143D02*
Y7221454D01*
Y7067143D02*
X1190597Y6997346D01*
X1354406D01*
X1382201Y7025141D01*
Y7025636D02*
X1415001Y7058436D01*
X1382201Y7025141D02*
Y7025636D01*
X1415001Y7058436D02*
Y7090546D01*
X412500Y5625454D02*
X416500Y5629454D01*
X767500D01*
X3110000Y4870000D02*
X3150000Y4830000D01*
X5230000Y1820000D02*
X5600000Y1450000D01*
X4670000Y1820000D02*
X5230000D01*
X4140000Y2070000D02*
X4590000Y1620000D01*
X5710000Y1600000D02*
X6760000D01*
X6900000Y1460000D01*
X5600000Y1450000D02*
X5670000D01*
X3780000Y2890000D02*
X3840000D01*
X2120000Y8064000D02*
X2124000Y8060000D01*
X4890000Y3210000D02*
X5015000D01*
X4870000Y2950000D02*
X5015000D01*
X3838653Y4608653D02*
X3840000Y4610000D01*
X3836476Y4506476D02*
X3843524D01*
X4140000Y4210000D01*
Y2070000D02*
Y4210000D01*
X2135099Y8556901D02*
X2293100D01*
X2120000Y8826000D02*
X2294000D01*
X2120000Y8572000D02*
X2135099Y8556901D01*
X2120000Y8318000D02*
X2149581Y8288419D01*
X6265000Y1070000D02*
X6275700Y1059300D01*
X6265000Y1070000D02*
X6265000Y1070000D01*
D38*
X5900000Y5430000D02*
X6180000Y5710000D01*
X4180000Y5510000D02*
X5781005D01*
X6180000Y5908995D01*
Y5710000D02*
Y5720000D01*
X4130000Y5430000D02*
X5900000D01*
X4055000Y5355000D02*
X4130000Y5430000D01*
X4055000Y5350000D02*
Y5355000D01*
X4010000Y5680000D02*
X4180000Y5510000D01*
D39*
X1480000Y2500000D02*
X1830000D01*
X3500000Y830000D02*
X6015000D01*
X1830000Y2500000D02*
X3500000Y830000D01*
X1830000Y2500000D02*
Y4110000D01*
X2000000Y4280000D01*
X5600000Y3935000D02*
X5635000Y3970000D01*
X5600000Y3688432D02*
Y3935000D01*
Y3688432D02*
X5623431Y3665000D01*
X5740000D01*
X6015000Y830000D02*
X6275700Y569300D01*
X2000000Y4280000D02*
X3070000D01*
X3410000Y4620000D01*
X5750000Y2640000D02*
Y2770000D01*
X5185000D02*
X5750000D01*
X6025001Y3044300D02*
X6040001D01*
X5955701Y2975000D02*
X6025001Y3044300D01*
X5955000Y2975000D02*
X5955701D01*
X5750000Y2770000D02*
X5955000Y2975000D01*
X767500Y5201154D02*
Y5391454D01*
Y5201154D02*
X778200Y5190454D01*
X3410000Y4620000D02*
Y5370000D01*
X5101569Y3145000D02*
X5185000Y3061569D01*
X5015000Y3145000D02*
X5101569D01*
X5185000Y2770000D02*
Y3061569D01*
X5740000Y3470000D02*
X5850000D01*
D40*
X5800000Y4880000D02*
Y5040000D01*
X430000Y7720000D02*
X1955999D01*
X2119999Y7556000D01*
X6175000Y3470000D02*
X6270000D01*
X6290000Y3450000D01*
X6741001Y6070001D02*
X7145000D01*
X6740000Y6069000D02*
X6741001Y6070001D01*
X6490001D02*
X6590000D01*
X6490000Y6070002D02*
X6490001Y6070001D01*
X3970000Y1180000D02*
X6060000D01*
X3330000Y1820000D02*
X3970000Y1180000D01*
X6060000D02*
X6132000Y1252000D01*
X5301882Y4880000D02*
X5800000D01*
X5783773Y3971227D02*
Y4086629D01*
X5743773Y3971227D02*
X5745000Y3970000D01*
X5035000Y2760000D02*
X5045000Y2750000D01*
Y2685000D02*
Y2750000D01*
Y2685000D02*
X5080000Y2650000D01*
X5035000Y2760000D02*
Y2770000D01*
X6415000Y964300D02*
Y1070000D01*
Y964300D02*
X6509300Y870000D01*
Y855000D02*
Y870000D01*
Y855000D02*
X6645000D01*
X6650000Y850000D01*
X1484300Y6640000D02*
X1610000D01*
X4892700Y3880000D02*
X4970000D01*
X5800000Y4710000D01*
Y4880000D01*
X6132000Y1450000D02*
X6250000D01*
X6132000Y1252000D02*
Y1450000D01*
X2500000Y3600000D02*
X3330000D01*
Y1820000D02*
Y3600000D01*
X3550000D01*
X4350000Y1060000D02*
Y1160000D01*
X130000Y6420000D02*
X145000Y6405000D01*
X130000Y6420000D02*
Y7420000D01*
X430000Y7720000D01*
X5850000Y3470000D02*
X6025000D01*
D41*
X4297300Y5870000D02*
Y6050000D01*
X5210000Y4971882D02*
X5301882Y4880000D01*
X5210000Y4971882D02*
Y4980000D01*
X877000Y5308027D02*
X924574Y5260454D01*
X877000Y5308027D02*
Y5376954D01*
X924574Y5260454D02*
X951800D01*
X1006800Y5067574D02*
Y5205454D01*
X951800Y5260454D02*
X1006800Y5205454D01*
X862500Y5391454D02*
X877000Y5376954D01*
X1460000Y5184000D02*
X1490000Y5214000D01*
Y5296956D01*
X1750000Y5556956D01*
X1601213Y6511213D02*
X1750000Y6362426D01*
X1369487Y6511213D02*
X1601213D01*
X1255700Y6625000D02*
Y6640000D01*
Y6625000D02*
X1369487Y6511213D01*
X1750000Y5556956D02*
Y6362426D01*
X1460000Y5180000D02*
Y5184000D01*
X574926Y5155074D02*
X680000Y5050000D01*
X989227D01*
X1006800Y5067574D01*
X412881Y5155074D02*
X574926D01*
X412500Y5155454D02*
X412881Y5155074D01*
D42*
X5750000Y2640000D02*
X6490000D01*
X5430000D02*
X5750000D01*
X6490000D02*
X6570000Y2720000D01*
X1110000Y200000D02*
X6480000Y200000D01*
X130000Y1180000D02*
X130000Y4940000D01*
X130000Y1180000D02*
X1110000Y200000D01*
X255000Y5615000D02*
X402046D01*
X412500Y5625454D01*
X130000Y5490000D02*
X255000Y5615000D01*
X130000Y4940000D02*
Y5490000D01*
Y4940000D02*
X1120000D01*
X6582945Y302945D02*
Y482945D01*
X6480000Y200000D02*
X6582945Y302945D01*
Y482945D02*
X7050000Y950000D01*
Y3088995D01*
X7008995Y3130000D02*
X7050000Y3088995D01*
X6611005Y3130000D02*
X7008995D01*
X1510000Y3270000D02*
Y3275412D01*
X1500000Y3285412D02*
X1510000Y3275412D01*
X1500000Y3285412D02*
Y4460000D01*
X1120000Y4940000D02*
X1364000Y5184000D01*
X6570000Y2720000D02*
Y3088995D01*
X6611005Y3130000D01*
X1460000Y5184000D02*
X1671700D01*
X1364000D02*
X1460000D01*
D43*
X6438710Y1275000D02*
X6468000Y1304290D01*
X6415000Y1250000D02*
Y1260000D01*
X6430000Y1275000D01*
X6468000Y1304290D02*
Y1450000D01*
X6430000Y1275000D02*
X6438710D01*
X6035001Y3049300D02*
X6040001Y3044300D01*
X6646606Y3416606D02*
X6660000Y3430000D01*
X6646606Y3376606D02*
Y3416606D01*
X6510000Y3240000D02*
X6646606Y3376606D01*
X6275700Y569300D02*
X6295000Y550000D01*
X6225001Y3059300D02*
X6240001Y3044300D01*
X6275700Y569300D02*
Y860000D01*
Y1059300D01*
X6265000Y1070000D02*
Y1250000D01*
D44*
X6244301Y2820000D02*
X6400000D01*
X6240001Y2815700D02*
X6244301Y2820000D01*
X6040001Y2815700D02*
X6240001D01*
X1840000Y4290000D02*
X1900000Y4350000D01*
X1810000Y4290000D02*
X1840000D01*
X1900000Y4350000D02*
Y4463700D01*
X1900300Y4464000D01*
X1900000Y5184301D02*
Y5350000D01*
Y5184301D02*
X1900300Y5184000D01*
D45*
X1670000Y4290000D02*
Y4462300D01*
X1504001Y4464000D02*
X1671700D01*
X6980000Y3260000D02*
Y3310000D01*
X6980000Y3310000D02*
X6980000Y3310000D01*
X6980000Y3310000D02*
Y3430000D01*
X970300Y6302201D02*
X992500Y6280000D01*
X505423Y7219999D02*
X551678Y7266254D01*
X970000D01*
D46*
X502501Y7219999D02*
X505423D01*
D48*
X7140000Y7222001D02*
D03*
Y6968001D02*
D03*
Y6714001D02*
D03*
Y6460001D02*
D03*
X7145000Y5310002D02*
D03*
Y5564002D02*
D03*
Y5818002D02*
D03*
Y6072002D02*
D03*
X7150000Y8368001D02*
D03*
Y8114001D02*
D03*
Y7860001D02*
D03*
Y7606001D02*
D03*
D49*
X5990000Y980000D02*
D03*
X4990000D02*
D03*
D50*
X502501Y6719999D02*
D03*
Y4210000D02*
D03*
X6897500Y4710000D02*
D03*
X6900000Y2910000D02*
D03*
Y1710000D02*
D03*
D51*
X502501Y6969999D02*
D03*
Y7219999D02*
D03*
Y4710000D02*
D03*
Y4460000D02*
D03*
X6897500Y4210000D02*
D03*
Y4460000D02*
D03*
X6900000Y2410000D02*
D03*
Y2660000D02*
D03*
Y1210000D02*
D03*
Y1460000D02*
D03*
D52*
X7185000Y3560000D02*
D03*
X6455000D02*
D03*
D53*
X6820000Y3430000D02*
D03*
X6980000D02*
D03*
X6660000D02*
D03*
X6900000Y3690000D02*
D03*
X6740000D02*
D03*
D54*
X5526001Y2220000D02*
D03*
D55*
X6026001D02*
D03*
D56*
X2120000Y7302000D02*
D03*
Y7556000D02*
D03*
Y7810000D02*
D03*
Y8064000D02*
D03*
Y8318000D02*
D03*
Y8572000D02*
D03*
Y8826000D02*
D03*
D57*
X390000Y400000D02*
D03*
X6990000Y9600000D02*
D03*
Y400000D02*
D03*
X390000Y9600000D02*
D03*
D58*
X5220000Y1450000D02*
D03*
X5800000Y5040000D02*
D03*
X3970000Y6310000D02*
D03*
X3880000D02*
D03*
X4630000Y5870000D02*
D03*
X4533231D02*
D03*
X4303523Y5680000D02*
D03*
X4220000Y5720000D02*
D03*
X4135730Y5680000D02*
D03*
X4195000Y6315000D02*
D03*
X4380000Y6310000D02*
D03*
X4387300Y5870000D02*
D03*
X4297300D02*
D03*
X4387300Y6050000D02*
D03*
X4297300D02*
D03*
X3770000Y4850000D02*
D03*
X3260000Y6310000D02*
D03*
X3170000D02*
D03*
X4675503Y6054497D02*
D03*
X4770000Y6050000D02*
D03*
X3960000Y5350000D02*
D03*
X4760000Y5170000D02*
D03*
X6180000Y5720000D02*
D03*
Y5908995D02*
D03*
Y5810000D02*
D03*
X5527179Y5583992D02*
D03*
X5600000Y5640000D02*
D03*
X5240000Y5583992D02*
D03*
X4700000Y5100000D02*
D03*
X4010000Y5680000D02*
D03*
X4055000Y5350000D02*
D03*
X4260000D02*
D03*
X6054830Y5963435D02*
D03*
X3436080Y6050000D02*
D03*
X3680000Y5680000D02*
D03*
Y5770000D02*
D03*
X4290000Y6310000D02*
D03*
X3370000Y6950000D02*
D03*
X3870000Y4970000D02*
D03*
X3460000Y6950000D02*
D03*
X3550000Y6310000D02*
D03*
X3960000Y4970000D02*
D03*
X3860000Y4850000D02*
D03*
X3550000Y5000000D02*
D03*
Y4900000D02*
D03*
Y4800000D02*
D03*
X3460000Y6310000D02*
D03*
X6290000Y3450000D02*
D03*
X1530000Y6860000D02*
D03*
Y6960000D02*
D03*
X5210000Y4980000D02*
D03*
X5266222Y5050278D02*
D03*
X6490000Y6070002D02*
D03*
X5783773Y4086629D02*
D03*
X5080000Y2655000D02*
D03*
X1530000Y7160000D02*
D03*
X1610000Y6640000D02*
D03*
X5880000Y3270000D02*
D03*
X5400000Y3180000D02*
D03*
X1290000Y3500000D02*
D03*
X1980000Y3480000D02*
D03*
X2100000Y3270000D02*
D03*
X5530000Y5930000D02*
D03*
X5750000Y6100000D02*
D03*
X5170000Y5960000D02*
D03*
X3600000Y2090000D02*
D03*
Y2660000D02*
D03*
X5063892Y5102329D02*
D03*
X4730000Y3780000D02*
D03*
X4892700Y3880000D02*
D03*
Y3970000D02*
D03*
X3400000Y3930000D02*
D03*
X3290000Y3780000D02*
D03*
X5760000Y1450000D02*
D03*
X5430000D02*
D03*
X1930000Y3860000D02*
D03*
X5450000Y5870000D02*
D03*
X3930000Y4530000D02*
D03*
X4150000Y4700000D02*
D03*
X4320000Y5200000D02*
D03*
X3840000Y2980000D02*
D03*
X4410000Y5200000D02*
D03*
X4350000Y5350000D02*
D03*
X4820000Y5100000D02*
D03*
X3410000Y5460000D02*
D03*
X5710000Y5040000D02*
D03*
X6250000Y1450000D02*
D03*
X6340000D02*
D03*
X4260000Y1060000D02*
D03*
X4350000D02*
D03*
X1930000Y3950000D02*
D03*
X3550000Y3500000D02*
D03*
X2500000Y3700000D02*
D03*
X3550000Y3600000D02*
D03*
X2500000D02*
D03*
X5340000Y1450000D02*
D03*
X3250000Y4830000D02*
D03*
X3410000Y5370000D02*
D03*
X3150000Y4830000D02*
D03*
X1480000Y2500000D02*
D03*
X5600000Y5870000D02*
D03*
X4250000Y4700000D02*
D03*
X4050000D02*
D03*
X3838653Y4608653D02*
D03*
X3836476Y4506476D02*
D03*
X3840000Y2890000D02*
D03*
X5670000Y1450000D02*
D03*
D59*
X1670000Y4290000D02*
D03*
X1900000Y6350000D02*
D03*
Y6150000D02*
D03*
Y5950000D02*
D03*
Y5750000D02*
D03*
Y5550000D02*
D03*
X6400000Y2820000D02*
D03*
X6650000Y850000D02*
D03*
X1500000Y4870000D02*
D03*
X1900000Y5350000D02*
D03*
X1060000Y3830000D02*
D03*
X1500000Y8450000D02*
D03*
Y8250000D02*
D03*
Y8050000D02*
D03*
Y7850000D02*
D03*
X150000D02*
D03*
Y8050000D02*
D03*
Y8250000D02*
D03*
Y8450000D02*
D03*
X2580000Y6050000D02*
D03*
X2940000Y5900000D02*
D03*
X2800000Y6050000D02*
D03*
X2350000D02*
D03*
X2210000Y5050000D02*
D03*
Y4850000D02*
D03*
Y4650000D02*
D03*
Y4450000D02*
D03*
X2200000Y5950000D02*
D03*
X480000Y5360000D02*
D03*
X320000D02*
D03*
X1250000Y6470000D02*
D03*
X1810000Y4290000D02*
D03*
X1500000Y3270000D02*
D03*
Y3150000D02*
D03*
X5310000Y2640000D02*
D03*
X5430000D02*
D03*
X1050000Y6500000D02*
D03*
X900000D02*
D03*
X1500000Y4600000D02*
D03*
Y4460000D02*
D03*
D60*
X6285000Y550000D02*
D03*
X4695000D02*
D03*
D61*
X5490000D02*
D03*
D62*
X1646000Y4681500D02*
D03*
X1946000D02*
D03*
D63*
X1796000Y4687500D02*
D03*
D64*
X767500Y5629454D02*
D03*
X862500D02*
D03*
X957500D02*
D03*
Y5391454D02*
D03*
X862500D02*
D03*
X767500D02*
D03*
D65*
X412500Y5155454D02*
D03*
Y5625454D02*
D03*
D66*
X982500Y5890000D02*
D03*
Y6280000D02*
D03*
D67*
X1420000Y6330000D02*
D03*
Y5870000D02*
D03*
D68*
X1225000Y7090547D02*
D03*
X1320000D02*
D03*
X1415000D02*
D03*
Y6839547D02*
D03*
X1225000D02*
D03*
D69*
X970000Y6663654D02*
D03*
Y7266254D02*
D03*
D70*
X5015000Y2950000D02*
D03*
Y3015000D02*
D03*
Y3080000D02*
D03*
Y3145000D02*
D03*
Y3210000D02*
D03*
Y3275000D02*
D03*
Y3340000D02*
D03*
Y3405000D02*
D03*
Y3470000D02*
D03*
Y3535000D02*
D03*
Y3600000D02*
D03*
Y3665000D02*
D03*
Y3730000D02*
D03*
Y3795000D02*
D03*
X5740000D02*
D03*
Y3730000D02*
D03*
Y3665000D02*
D03*
Y3600000D02*
D03*
Y3535000D02*
D03*
Y3470000D02*
D03*
Y3405000D02*
D03*
Y3340000D02*
D03*
Y3275000D02*
D03*
Y3210000D02*
D03*
Y3145000D02*
D03*
Y3080000D02*
D03*
Y3015000D02*
D03*
Y2950000D02*
D03*
D71*
X6132000Y1450000D02*
D03*
X6468000D02*
D03*
D72*
X6637839Y3690000D02*
X6740000D01*
X6637839D02*
Y3762263D01*
X6695030Y3819454D01*
X6953755D01*
X6970220Y3835918D01*
Y3859203D01*
X6953755Y3875668D02*
X6970220Y3859203D01*
X6473058Y3875668D02*
X6953755D01*
X6335677Y3738286D02*
X6473058Y3875668D01*
X5837910Y3738286D02*
X6335677D01*
X5835570Y3735946D02*
X5837910Y3738286D01*
X5745947Y3735946D02*
X5835570D01*
X5740000Y3730000D02*
X5745947Y3735946D01*
X5837911Y3786713D02*
X6315618D01*
X6820000Y3430000D02*
Y3562161D01*
X6868544D01*
X6870158Y3560546D01*
X6941142D01*
X7007053Y3626458D01*
Y3749442D01*
X6993334Y3763162D02*
X7007053Y3749442D01*
X6993334Y3763162D02*
Y3790546D01*
X7018647Y3815860D01*
Y3879262D01*
X6973814Y3924095D02*
X7018647Y3879262D01*
X6452999Y3924095D02*
X6973814D01*
X6315618Y3786713D02*
X6452999Y3924095D01*
X5835570Y3789054D02*
X5837911Y3786713D01*
X5745947Y3789054D02*
X5835570D01*
X5740000Y3795000D02*
X5745947Y3789054D01*
D73*
X6480000Y3240000D02*
X6510000D01*
%TF.MD5,592bba3af70e72374e4a2dd9dc567266*%
M02*
