%TF.GenerationSoftware,Altium Limited,Altium Designer,22.7.1 (60)*%
G04 Layer_Color=128*
%FSLAX45Y45*%
%MOMM*%
%TF.SameCoordinates,C4916FE7-F214-4651-8B13-81D0A890374D*%
%TF.FilePolarity,Positive*%
%TF.FileFunction,Paste,Bot*%
%TF.Part,Single*%
G01*
G75*
%TA.AperFunction,SMDPad,CuDef*%
%ADD23R,1.16000X2.72000*%
%ADD24R,1.40000X1.70000*%
%ADD25R,1.70000X1.40000*%
%ADD26R,1.00000X1.70000*%
%ADD27R,0.80000X1.00000*%
%ADD60R,3.50000X3.60000*%
%ADD61R,4.00000X4.00000*%
%ADD62R,0.48000X1.40000*%
%ADD63R,0.56000X1.52500*%
G04:AMPARAMS|DCode=64|XSize=1.34mm|YSize=0.59mm|CornerRadius=0.07375mm|HoleSize=0mm|Usage=FLASHONLY|Rotation=270.000|XOffset=0mm|YOffset=0mm|HoleType=Round|Shape=RoundedRectangle|*
%AMROUNDEDRECTD64*
21,1,1.34000,0.44250,0,0,270.0*
21,1,1.19250,0.59000,0,0,270.0*
1,1,0.14750,-0.22125,-0.59625*
1,1,0.14750,-0.22125,0.59625*
1,1,0.14750,0.22125,0.59625*
1,1,0.14750,0.22125,-0.59625*
%
%ADD64ROUNDEDRECTD64*%
%ADD65R,2.70000X2.05000*%
G04:AMPARAMS|DCode=66|XSize=2.2mm|YSize=3.8mm|CornerRadius=0.55mm|HoleSize=0mm|Usage=FLASHONLY|Rotation=270.000|XOffset=0mm|YOffset=0mm|HoleType=Round|Shape=RoundedRectangle|*
%AMROUNDEDRECTD66*
21,1,2.20000,2.70000,0,0,270.0*
21,1,1.10000,3.80000,0,0,270.0*
1,1,1.10000,-1.35000,-0.55000*
1,1,1.10000,-1.35000,0.55000*
1,1,1.10000,1.35000,0.55000*
1,1,1.10000,1.35000,-0.55000*
%
%ADD66ROUNDEDRECTD66*%
G04:AMPARAMS|DCode=67|XSize=2.3mm|YSize=2.5mm|CornerRadius=0.575mm|HoleSize=0mm|Usage=FLASHONLY|Rotation=0.000|XOffset=0mm|YOffset=0mm|HoleType=Round|Shape=RoundedRectangle|*
%AMROUNDEDRECTD67*
21,1,2.30000,1.35000,0,0,0.0*
21,1,1.15000,2.50000,0,0,0.0*
1,1,1.15000,0.57500,-0.67500*
1,1,1.15000,-0.57500,-0.67500*
1,1,1.15000,-0.57500,0.67500*
1,1,1.15000,0.57500,0.67500*
%
%ADD67ROUNDEDRECTD67*%
G04:AMPARAMS|DCode=68|XSize=1.21mm|YSize=0.59mm|CornerRadius=0.1475mm|HoleSize=0mm|Usage=FLASHONLY|Rotation=270.000|XOffset=0mm|YOffset=0mm|HoleType=Round|Shape=RoundedRectangle|*
%AMROUNDEDRECTD68*
21,1,1.21000,0.29500,0,0,270.0*
21,1,0.91500,0.59000,0,0,270.0*
1,1,0.29500,-0.14750,-0.45750*
1,1,0.29500,-0.14750,0.45750*
1,1,0.29500,0.14750,0.45750*
1,1,0.29500,0.14750,-0.45750*
%
%ADD68ROUNDEDRECTD68*%
%ADD69R,3.27000X1.15000*%
%ADD70R,1.50000X0.40000*%
%ADD71R,1.21000X0.73000*%
G36*
X1758000Y4986250D02*
Y4814250D01*
X1834000D01*
Y4986250D01*
X1758000D01*
D02*
G37*
D23*
X1430000Y5480454D02*
D03*
X1135000D02*
D03*
X345000Y5910454D02*
D03*
X640000D02*
D03*
Y6260454D02*
D03*
X345000D02*
D03*
D24*
X778200Y5190454D02*
D03*
X1006800D02*
D03*
X1484300Y6640000D02*
D03*
X1255700D02*
D03*
X1900300Y5184000D02*
D03*
X1671700D02*
D03*
Y4464000D02*
D03*
X1900300D02*
D03*
X6275700Y860000D02*
D03*
X6504300D02*
D03*
D25*
X1630000Y7524300D02*
D03*
Y7295700D02*
D03*
X6040001Y3044300D02*
D03*
Y2815700D02*
D03*
X6240001Y3044300D02*
D03*
Y2815700D02*
D03*
D26*
X1225000Y7310000D02*
D03*
X1415000D02*
D03*
X6225001Y3270000D02*
D03*
X6035001D02*
D03*
D27*
X6740000Y6070001D02*
D03*
X6590000D02*
D03*
X5785000Y3970000D02*
D03*
X5635000D02*
D03*
X6175000Y3470000D02*
D03*
X6025000D02*
D03*
X5185000Y2770000D02*
D03*
X5035000D02*
D03*
X6415000Y1250000D02*
D03*
X6265000D02*
D03*
X6415000Y1070000D02*
D03*
X6265000D02*
D03*
D60*
X6285000Y550000D02*
D03*
X4695000D02*
D03*
D61*
X5490000D02*
D03*
D62*
X1646000Y4681500D02*
D03*
X1946000D02*
D03*
D63*
X1796000Y4687500D02*
D03*
D64*
X767500Y5629454D02*
D03*
X862500D02*
D03*
X957500D02*
D03*
Y5391454D02*
D03*
X862500D02*
D03*
X767500D02*
D03*
D65*
X412500Y5155454D02*
D03*
Y5625454D02*
D03*
D66*
X982500Y5890000D02*
D03*
Y6280000D02*
D03*
D67*
X1420000Y6330000D02*
D03*
Y5870000D02*
D03*
D68*
X1225000Y7090547D02*
D03*
X1320000D02*
D03*
X1415000D02*
D03*
Y6839547D02*
D03*
X1225000D02*
D03*
D69*
X970000Y6663654D02*
D03*
Y7266254D02*
D03*
D70*
X5015000Y2950000D02*
D03*
Y3015000D02*
D03*
Y3080000D02*
D03*
Y3145000D02*
D03*
Y3210000D02*
D03*
Y3275000D02*
D03*
Y3340000D02*
D03*
Y3405000D02*
D03*
Y3470000D02*
D03*
Y3535000D02*
D03*
Y3600000D02*
D03*
Y3665000D02*
D03*
Y3730000D02*
D03*
Y3795000D02*
D03*
X5740000D02*
D03*
Y3730000D02*
D03*
Y3665000D02*
D03*
Y3600000D02*
D03*
Y3535000D02*
D03*
Y3470000D02*
D03*
Y3405000D02*
D03*
Y3340000D02*
D03*
Y3275000D02*
D03*
Y3210000D02*
D03*
Y3145000D02*
D03*
Y3080000D02*
D03*
Y3015000D02*
D03*
Y2950000D02*
D03*
D71*
X6132000Y1450000D02*
D03*
X6468000D02*
D03*
%TF.MD5,89e84f738d193cb20925f7f2c0395cd2*%
M02*
