%TF.GenerationSoftware,Altium Limited,Altium Designer,22.7.1 (60)*%
G04 Layer_Color=255*
%FSLAX45Y45*%
%MOMM*%
%TF.SameCoordinates,C4916FE7-F214-4651-8B13-81D0A890374D*%
%TF.FilePolarity,Positive*%
%TF.FileFunction,Pads,Top*%
%TF.Part,Single*%
G01*
G75*
%TA.AperFunction,SMDPad,CuDef*%
G04:AMPARAMS|DCode=10|XSize=1.56mm|YSize=0.28mm|CornerRadius=0.07mm|HoleSize=0mm|Usage=FLASHONLY|Rotation=90.000|XOffset=0mm|YOffset=0mm|HoleType=Round|Shape=RoundedRectangle|*
%AMROUNDEDRECTD10*
21,1,1.56000,0.14000,0,0,90.0*
21,1,1.42000,0.28000,0,0,90.0*
1,1,0.14000,0.07000,0.71000*
1,1,0.14000,0.07000,-0.71000*
1,1,0.14000,-0.07000,-0.71000*
1,1,0.14000,-0.07000,0.71000*
%
%ADD10ROUNDEDRECTD10*%
G04:AMPARAMS|DCode=11|XSize=1.56mm|YSize=0.28mm|CornerRadius=0.07mm|HoleSize=0mm|Usage=FLASHONLY|Rotation=180.000|XOffset=0mm|YOffset=0mm|HoleType=Round|Shape=RoundedRectangle|*
%AMROUNDEDRECTD11*
21,1,1.56000,0.14000,0,0,180.0*
21,1,1.42000,0.28000,0,0,180.0*
1,1,0.14000,-0.71000,0.07000*
1,1,0.14000,0.71000,0.07000*
1,1,0.14000,0.71000,-0.07000*
1,1,0.14000,-0.71000,-0.07000*
%
%ADD11ROUNDEDRECTD11*%
%ADD12R,0.59000X0.35000*%
%ADD13R,0.35000X0.59000*%
%ADD14R,0.35000X0.50000*%
G04:AMPARAMS|DCode=15|XSize=2.2mm|YSize=2.2mm|CornerRadius=0.55mm|HoleSize=0mm|Usage=FLASHONLY|Rotation=90.000|XOffset=0mm|YOffset=0mm|HoleType=Round|Shape=RoundedRectangle|*
%AMROUNDEDRECTD15*
21,1,2.20000,1.10000,0,0,90.0*
21,1,1.10000,2.20000,0,0,90.0*
1,1,1.10000,0.55000,0.55000*
1,1,1.10000,0.55000,-0.55000*
1,1,1.10000,-0.55000,-0.55000*
1,1,1.10000,-0.55000,0.55000*
%
%ADD15ROUNDEDRECTD15*%
G04:AMPARAMS|DCode=16|XSize=1.4mm|YSize=2.2mm|CornerRadius=0.35mm|HoleSize=0mm|Usage=FLASHONLY|Rotation=90.000|XOffset=0mm|YOffset=0mm|HoleType=Round|Shape=RoundedRectangle|*
%AMROUNDEDRECTD16*
21,1,1.40000,1.50000,0,0,90.0*
21,1,0.70000,2.20000,0,0,90.0*
1,1,0.70000,0.75000,0.35000*
1,1,0.70000,0.75000,-0.35000*
1,1,0.70000,-0.75000,-0.35000*
1,1,0.70000,-0.75000,0.35000*
%
%ADD16ROUNDEDRECTD16*%
%ADD17R,1.50000X3.00000*%
%ADD18R,3.00000X1.50000*%
%ADD19R,0.80000X1.50000*%
%ADD20R,1.50000X2.00000*%
%ADD21R,2.60000X1.60000*%
G04:AMPARAMS|DCode=22|XSize=2.3mm|YSize=2.5mm|CornerRadius=0.575mm|HoleSize=0mm|Usage=FLASHONLY|Rotation=270.000|XOffset=0mm|YOffset=0mm|HoleType=Round|Shape=RoundedRectangle|*
%AMROUNDEDRECTD22*
21,1,2.30000,1.35000,0,0,270.0*
21,1,1.15000,2.50000,0,0,270.0*
1,1,1.15000,-0.67500,-0.57500*
1,1,1.15000,-0.67500,0.57500*
1,1,1.15000,0.67500,0.57500*
1,1,1.15000,0.67500,-0.57500*
%
%ADD22ROUNDEDRECTD22*%
%ADD23R,1.16000X2.72000*%
%ADD24R,1.40000X1.70000*%
%ADD25R,1.70000X1.40000*%
%ADD26R,1.00000X1.70000*%
%ADD27R,0.80000X1.00000*%
%ADD28R,0.80000X1.45000*%
%ADD29R,1.70000X1.00000*%
%ADD30R,1.21920X0.53340*%
%ADD31R,1.30000X2.80000*%
%ADD32R,1.00000X0.80000*%
%ADD33R,2.40000X1.90000*%
%ADD34R,1.30000X1.90000*%
%ADD35O,1.00000X2.50000*%
%ADD36R,2.10000X1.40000*%
%TA.AperFunction,ComponentPad*%
%ADD48O,1.80000X1.60000*%
%ADD49C,0.80000*%
%ADD50R,1.50800X1.50800*%
%ADD51C,1.50800*%
%ADD52O,1.50000X4.00000*%
%ADD53C,1.20000*%
%ADD54R,1.30000X1.30000*%
%ADD55C,1.30000*%
%ADD56O,2.30000X1.80000*%
%TA.AperFunction,ViaPad*%
%ADD57C,5.00000*%
D10*
X4355000Y5498000D02*
D03*
X4305000D02*
D03*
X4255000D02*
D03*
X4205000D02*
D03*
X4155000D02*
D03*
X4105000D02*
D03*
X4055000D02*
D03*
X4005000D02*
D03*
X3955000D02*
D03*
X3905000D02*
D03*
X3855000D02*
D03*
X3805000D02*
D03*
X3755000D02*
D03*
X3705000D02*
D03*
X3655000D02*
D03*
X3605000D02*
D03*
Y4362000D02*
D03*
X3655000D02*
D03*
X3705000D02*
D03*
X3755000D02*
D03*
X3805000D02*
D03*
X3855000D02*
D03*
X3905000D02*
D03*
X3955000D02*
D03*
X4005000D02*
D03*
X4055000D02*
D03*
X4105000D02*
D03*
X4155000D02*
D03*
X4205000D02*
D03*
X4255000D02*
D03*
X4305000D02*
D03*
X4355000D02*
D03*
D11*
X3412000Y5305000D02*
D03*
Y5255000D02*
D03*
Y5205000D02*
D03*
Y5155000D02*
D03*
Y5105000D02*
D03*
Y5055000D02*
D03*
Y5005000D02*
D03*
Y4955000D02*
D03*
Y4905000D02*
D03*
Y4855000D02*
D03*
Y4805000D02*
D03*
Y4755000D02*
D03*
Y4705000D02*
D03*
Y4655000D02*
D03*
Y4605000D02*
D03*
Y4555000D02*
D03*
X4548000D02*
D03*
Y4605000D02*
D03*
Y4655000D02*
D03*
Y4705000D02*
D03*
Y4755000D02*
D03*
Y4805000D02*
D03*
Y4855000D02*
D03*
Y4905000D02*
D03*
Y4955000D02*
D03*
Y5005000D02*
D03*
Y5055000D02*
D03*
Y5105000D02*
D03*
Y5155000D02*
D03*
Y5205000D02*
D03*
Y5255000D02*
D03*
Y5305000D02*
D03*
D12*
X5708200Y5753201D02*
D03*
X6091200D02*
D03*
D13*
X5749700Y5869700D02*
D03*
X5799700D02*
D03*
X5849701D02*
D03*
X5899700D02*
D03*
X5949700D02*
D03*
X5999700D02*
D03*
X6049700D02*
D03*
Y5636701D02*
D03*
X5999700D02*
D03*
X5949700D02*
D03*
X5899700D02*
D03*
X5849701D02*
D03*
X5799700D02*
D03*
X5749700D02*
D03*
D14*
X5098851Y5829100D02*
D03*
X5033851D02*
D03*
X4968851D02*
D03*
X4903851D02*
D03*
Y5624100D02*
D03*
X4968851D02*
D03*
X5033851D02*
D03*
X5098851D02*
D03*
D15*
X5490000Y9180000D02*
D03*
X4290000Y9180000D02*
D03*
X5790000Y7380000D02*
D03*
Y7680000D02*
D03*
Y7980000D02*
D03*
Y8280000D02*
D03*
X5790000Y8580000D02*
D03*
X5790000Y8880000D02*
D03*
X6090001Y9180000D02*
D03*
X4890000Y7980000D02*
D03*
X6090001Y7080000D02*
D03*
Y7680000D02*
D03*
X5490000D02*
D03*
X5190000D02*
D03*
X4890000D02*
D03*
X4590000D02*
D03*
X6090001Y8580000D02*
D03*
X5490000D02*
D03*
X5190000D02*
D03*
X4890000D02*
D03*
X4590000D02*
D03*
Y8880000D02*
D03*
X4290000Y7380000D02*
D03*
Y7680000D02*
D03*
Y8580000D02*
D03*
X5190000Y9180000D02*
D03*
X5790000Y7080000D02*
D03*
X5490000D02*
D03*
X5190000D02*
D03*
X4890000D02*
D03*
X4590000D02*
D03*
X3990000Y9180000D02*
D03*
Y7380000D02*
D03*
Y7980000D02*
D03*
Y8280000D02*
D03*
X6090001Y7380000D02*
D03*
X5490000D02*
D03*
X5190000D02*
D03*
X4890000D02*
D03*
X4590000D02*
D03*
X3990000Y7680000D02*
D03*
X6090001Y7980000D02*
D03*
X5490000D02*
D03*
X4290000D02*
D03*
X6090001Y8280000D02*
D03*
X5490000D02*
D03*
X5190000D02*
D03*
X4590000D02*
D03*
X4290000D02*
D03*
X6090001Y8880000D02*
D03*
X5490000D02*
D03*
X5190000D02*
D03*
X4890000D02*
D03*
X3990000D02*
D03*
X4890000Y9180000D02*
D03*
X4590000D02*
D03*
D16*
X3990000Y7080000D02*
D03*
D17*
X3617000Y6585000D02*
D03*
X3363000D02*
D03*
X3109000D02*
D03*
X2855000Y6585001D02*
D03*
X2601001Y6585000D02*
D03*
X2347000D02*
D03*
X2093000D02*
D03*
X3871000D02*
D03*
X4125000D02*
D03*
X4379000D02*
D03*
Y9675000D02*
D03*
X4125000D02*
D03*
X3871000D02*
D03*
X2093000D02*
D03*
X2347000D02*
D03*
X2601000D02*
D03*
X2855000Y9675000D02*
D03*
X3109000Y9675000D02*
D03*
X3363000D02*
D03*
X3617000D02*
D03*
X5903000Y6585000D02*
D03*
X5649000D02*
D03*
Y9675000D02*
D03*
X5903000D02*
D03*
D18*
X6585000Y7114000D02*
D03*
Y7368000D02*
D03*
Y9146000D02*
D03*
Y8892000D02*
D03*
D19*
X5785000Y1300000D02*
D03*
X5675000D02*
D03*
X5565000D02*
D03*
X5455000D02*
D03*
X5345000D02*
D03*
X5235000D02*
D03*
X5125000D02*
D03*
X5015000D02*
D03*
X6015000D02*
D03*
X5895000D02*
D03*
D20*
X6200000Y490000D02*
D03*
X4780000D02*
D03*
D21*
X400000Y8400000D02*
D03*
X760000D02*
D03*
D22*
X820000Y7939999D02*
D03*
X360000D02*
D03*
D23*
X1367500Y8230000D02*
D03*
X1072500D02*
D03*
D24*
X1314300Y7939999D02*
D03*
X1085700D02*
D03*
X3654301Y3780000D02*
D03*
X3425701D02*
D03*
X4594301D02*
D03*
X4365701D02*
D03*
X1964301Y3270000D02*
D03*
X1735701D02*
D03*
D25*
X1330000Y6865698D02*
D03*
Y7094298D02*
D03*
X2710001Y3955700D02*
D03*
Y4184300D02*
D03*
D26*
X1145000Y7090000D02*
D03*
X955000D02*
D03*
X1145000Y6850000D02*
D03*
X955000D02*
D03*
X1715000Y4660000D02*
D03*
X1905000D02*
D03*
X5115001Y4420000D02*
D03*
X4925001D02*
D03*
X1040001Y3280000D02*
D03*
X1230001D02*
D03*
D27*
X5065001Y5210000D02*
D03*
X4915001D02*
D03*
X1705000Y4870000D02*
D03*
X1855000D02*
D03*
X5650000Y3180000D02*
D03*
X5500000D02*
D03*
X5650000Y3360000D02*
D03*
X5500000D02*
D03*
X3655001Y3990000D02*
D03*
X3505001D02*
D03*
X4355000D02*
D03*
X4505000D02*
D03*
X4915001Y4880000D02*
D03*
X5065001D02*
D03*
X5065001Y4690000D02*
D03*
X4915001D02*
D03*
X4915001Y4200000D02*
D03*
X5065001D02*
D03*
X2964999Y5190000D02*
D03*
X2814999D02*
D03*
X2505000D02*
D03*
X2655000D02*
D03*
X2505000Y5930000D02*
D03*
X2655000D02*
D03*
X3525001Y6050000D02*
D03*
X3675001D02*
D03*
X3675001Y5870000D02*
D03*
X3525001D02*
D03*
X4195001Y6050000D02*
D03*
X4045001D02*
D03*
X4195001Y5870000D02*
D03*
X4045001D02*
D03*
X4925000Y5960000D02*
D03*
X5075000D02*
D03*
X5905000Y6000000D02*
D03*
X5755000D02*
D03*
X5750001Y5510000D02*
D03*
X5900001D02*
D03*
X1885001Y3480000D02*
D03*
X1735001D02*
D03*
X1185001Y3500000D02*
D03*
X1035001D02*
D03*
X4515000Y1160000D02*
D03*
X4665000D02*
D03*
X3605001Y2760000D02*
D03*
X3755001D02*
D03*
Y1990000D02*
D03*
X3605001D02*
D03*
X4665000Y960000D02*
D03*
X4515000D02*
D03*
D28*
X939501Y4337499D02*
D03*
X1066501D02*
D03*
X1193501D02*
D03*
X1320501D02*
D03*
X939501Y4882499D02*
D03*
X1066501D02*
D03*
X1193501D02*
D03*
X1320501D02*
D03*
X6460500Y4582500D02*
D03*
X6333500D02*
D03*
X6206500D02*
D03*
X6079500D02*
D03*
X6460500Y4037500D02*
D03*
X6333500D02*
D03*
X6206500D02*
D03*
X6079500D02*
D03*
D29*
X1320001Y3955000D02*
D03*
Y4145000D02*
D03*
X1060001Y3955000D02*
D03*
Y4145000D02*
D03*
X2470001Y4204300D02*
D03*
Y4014300D02*
D03*
X6080000Y4965000D02*
D03*
Y4775000D02*
D03*
X6330000Y4965000D02*
D03*
Y4775000D02*
D03*
D30*
X6026680Y3270000D02*
D03*
X5813320Y3176020D02*
D03*
Y3363980D02*
D03*
D31*
X5995000Y2910000D02*
D03*
X5525000D02*
D03*
D32*
X2920001Y4214300D02*
D03*
Y4064300D02*
D03*
X2960001Y4910001D02*
D03*
Y4760001D02*
D03*
X2400001Y4435001D02*
D03*
Y4585001D02*
D03*
Y4900001D02*
D03*
Y4750001D02*
D03*
X5240000Y5825000D02*
D03*
Y5675000D02*
D03*
X6290000Y1165000D02*
D03*
Y1015000D02*
D03*
D33*
X2690001Y4465001D02*
D03*
Y4875001D02*
D03*
D34*
X2825001Y5400000D02*
D03*
X2275001D02*
D03*
Y5720000D02*
D03*
X2825001D02*
D03*
D35*
X1229998Y1158000D02*
D03*
X1483998D02*
D03*
X1737998D02*
D03*
X1991998D02*
D03*
X2245998D02*
D03*
X2499998D02*
D03*
X1229998Y2708000D02*
D03*
X1483998D02*
D03*
X1737998D02*
D03*
X1991998D02*
D03*
X2245998D02*
D03*
X2499998D02*
D03*
D36*
X3985001Y3214999D02*
D03*
X4895001D02*
D03*
X3985001Y2764999D02*
D03*
X4895001D02*
D03*
X3985001Y2445000D02*
D03*
X4895001D02*
D03*
X3985001Y1995000D02*
D03*
X4895001D02*
D03*
D48*
X7140000Y7222001D02*
D03*
Y6968001D02*
D03*
Y6714001D02*
D03*
Y6460001D02*
D03*
X7145000Y5310002D02*
D03*
Y5564002D02*
D03*
Y5818002D02*
D03*
Y6072002D02*
D03*
X7150000Y8368001D02*
D03*
Y8114001D02*
D03*
Y7860001D02*
D03*
Y7606001D02*
D03*
D49*
X5990000Y980000D02*
D03*
X4990000D02*
D03*
D50*
X502501Y6719999D02*
D03*
Y4210000D02*
D03*
X6897500Y4710000D02*
D03*
X6900000Y2910000D02*
D03*
Y1710000D02*
D03*
D51*
X502501Y6969999D02*
D03*
Y7219999D02*
D03*
Y4710000D02*
D03*
Y4460000D02*
D03*
X6897500Y4210000D02*
D03*
Y4460000D02*
D03*
X6900000Y2410000D02*
D03*
Y2660000D02*
D03*
Y1210000D02*
D03*
Y1460000D02*
D03*
D52*
X7185000Y3560000D02*
D03*
X6455000D02*
D03*
D53*
X6820000Y3430000D02*
D03*
X6980000D02*
D03*
X6660000D02*
D03*
X6900000Y3690000D02*
D03*
X6740000D02*
D03*
D54*
X5526001Y2220000D02*
D03*
D55*
X6026001D02*
D03*
D56*
X2120000Y7302000D02*
D03*
Y7556000D02*
D03*
Y7810000D02*
D03*
Y8064000D02*
D03*
Y8318000D02*
D03*
Y8572000D02*
D03*
Y8826000D02*
D03*
D57*
X390000Y400000D02*
D03*
X6990000Y9600000D02*
D03*
Y400000D02*
D03*
X390000Y9600000D02*
D03*
%TF.MD5,03cad05c76af0666e173084d398c240c*%
M02*
