%TF.GenerationSoftware,Altium Limited,Altium Designer,22.7.1 (60)*%
G04 Layer_Color=0*
%FSLAX45Y45*%
%MOMM*%
%TF.SameCoordinates,C4916FE7-F214-4651-8B13-81D0A890374D*%
%TF.FilePolarity,Positive*%
%TF.FileFunction,Plated,1,2,PTH,Drill*%
%TF.Part,Single*%
G01*
G75*
%TA.AperFunction,ComponentDrill*%
%ADD131C,1.20000*%
%ADD132C,1.00000*%
%ADD133O,0.70000X2.45000*%
%ADD134C,0.70000*%
%ADD135C,0.80000*%
%TA.AperFunction,OtherDrill,Free Pad (3.9mm,4mm)*%
%ADD136C,3.00000*%
%TA.AperFunction,OtherDrill,Free Pad (69.9mm,96mm)*%
%ADD137C,3.00000*%
%TA.AperFunction,OtherDrill,Free Pad (69.9mm,4mm)*%
%ADD138C,3.00000*%
%TA.AperFunction,OtherDrill,Free Pad (3.9mm,96mm)*%
%ADD139C,3.00000*%
%TA.AperFunction,ViaDrill,NotFilled*%
%ADD140C,0.30000*%
%ADD141C,0.45000*%
D131*
X7140000Y7222001D02*
D03*
Y6968001D02*
D03*
Y6714001D02*
D03*
Y6460001D02*
D03*
X7145000Y5310002D02*
D03*
Y5564002D02*
D03*
Y5818002D02*
D03*
Y6072002D02*
D03*
X7150000Y8368001D02*
D03*
Y8114001D02*
D03*
Y7860001D02*
D03*
Y7606001D02*
D03*
D132*
X502501Y6719999D02*
D03*
Y6969999D02*
D03*
Y7219999D02*
D03*
Y4710000D02*
D03*
Y4460000D02*
D03*
Y4210000D02*
D03*
X6897500D02*
D03*
Y4460000D02*
D03*
Y4710000D02*
D03*
X6900000Y2410000D02*
D03*
Y2660000D02*
D03*
Y2910000D02*
D03*
Y1210000D02*
D03*
Y1460000D02*
D03*
Y1710000D02*
D03*
X2120000Y7302000D02*
D03*
Y7556000D02*
D03*
Y7810000D02*
D03*
Y8064000D02*
D03*
Y8318000D02*
D03*
Y8572000D02*
D03*
Y8826000D02*
D03*
D133*
X7185000Y3560000D02*
D03*
X6455000D02*
D03*
D134*
X6820000Y3430000D02*
D03*
X6980000D02*
D03*
X6660000D02*
D03*
X6900000Y3690000D02*
D03*
X6740000D02*
D03*
D135*
X5526001Y2220000D02*
D03*
X6026001D02*
D03*
D136*
X390000Y400000D02*
D03*
D137*
X6990000Y9600000D02*
D03*
D138*
Y400000D02*
D03*
D139*
X390000Y9600000D02*
D03*
D140*
X5220000Y1450000D02*
D03*
X5800000Y5040000D02*
D03*
X3970000Y6310000D02*
D03*
X3880000D02*
D03*
X4630000Y5870000D02*
D03*
X4533231D02*
D03*
X4303523Y5680000D02*
D03*
X4220000Y5720000D02*
D03*
X4135730Y5680000D02*
D03*
X4195000Y6315000D02*
D03*
X4380000Y6310000D02*
D03*
X4387300Y5870000D02*
D03*
X4297300D02*
D03*
X4387300Y6050000D02*
D03*
X4297300D02*
D03*
X3770000Y4850000D02*
D03*
X3260000Y6310000D02*
D03*
X3170000D02*
D03*
X4675503Y6054497D02*
D03*
X4770000Y6050000D02*
D03*
X3960000Y5350000D02*
D03*
X4760000Y5170000D02*
D03*
X6180000Y5720000D02*
D03*
Y5908995D02*
D03*
Y5810000D02*
D03*
X5527179Y5583992D02*
D03*
X5600000Y5640000D02*
D03*
X5240000Y5583992D02*
D03*
X4700000Y5100000D02*
D03*
X4010000Y5680000D02*
D03*
X4055000Y5350000D02*
D03*
X4260000D02*
D03*
X6054830Y5963435D02*
D03*
X3436080Y6050000D02*
D03*
X3680000Y5680000D02*
D03*
Y5770000D02*
D03*
X4290000Y6310000D02*
D03*
X3370000Y6950000D02*
D03*
X3870000Y4970000D02*
D03*
X3460000Y6950000D02*
D03*
X3550000Y6310000D02*
D03*
X3960000Y4970000D02*
D03*
X3860000Y4850000D02*
D03*
X3550000Y5000000D02*
D03*
Y4900000D02*
D03*
Y4800000D02*
D03*
X3460000Y6310000D02*
D03*
X6290000Y3450000D02*
D03*
X1530000Y6860000D02*
D03*
Y6960000D02*
D03*
X5210000Y4980000D02*
D03*
X5266222Y5050278D02*
D03*
X6490000Y6070002D02*
D03*
X5783773Y4086629D02*
D03*
X5080000Y2655000D02*
D03*
X1530000Y7160000D02*
D03*
X1610000Y6640000D02*
D03*
X5880000Y3270000D02*
D03*
X5400000Y3180000D02*
D03*
X1290000Y3500000D02*
D03*
X1980000Y3480000D02*
D03*
X2100000Y3270000D02*
D03*
X5530000Y5930000D02*
D03*
X5750000Y6100000D02*
D03*
X5170000Y5960000D02*
D03*
X3600000Y2090000D02*
D03*
Y2660000D02*
D03*
X5063892Y5102329D02*
D03*
X4730000Y3780000D02*
D03*
X4892700Y3880000D02*
D03*
Y3970000D02*
D03*
X3400000Y3930000D02*
D03*
X3290000Y3780000D02*
D03*
X5760000Y1450000D02*
D03*
X5430000D02*
D03*
X1930000Y3860000D02*
D03*
X5450000Y5870000D02*
D03*
X3930000Y4530000D02*
D03*
X4150000Y4700000D02*
D03*
X4320000Y5200000D02*
D03*
X3840000Y2980000D02*
D03*
X4410000Y5200000D02*
D03*
X4350000Y5350000D02*
D03*
X4820000Y5100000D02*
D03*
X3410000Y5460000D02*
D03*
X5710000Y5040000D02*
D03*
X6250000Y1450000D02*
D03*
X6340000D02*
D03*
X4260000Y1060000D02*
D03*
X4350000D02*
D03*
X1930000Y3950000D02*
D03*
X3550000Y3500000D02*
D03*
X2500000Y3700000D02*
D03*
X3550000Y3600000D02*
D03*
X2500000D02*
D03*
X5340000Y1450000D02*
D03*
X3250000Y4830000D02*
D03*
X3410000Y5370000D02*
D03*
X3150000Y4830000D02*
D03*
X1480000Y2500000D02*
D03*
X5600000Y5870000D02*
D03*
X4250000Y4700000D02*
D03*
X4050000D02*
D03*
X3838653Y4608653D02*
D03*
X3836476Y4506476D02*
D03*
X3840000Y2890000D02*
D03*
X5670000Y1450000D02*
D03*
D141*
X1670000Y4290000D02*
D03*
X1900000Y6350000D02*
D03*
Y6150000D02*
D03*
Y5950000D02*
D03*
Y5750000D02*
D03*
Y5550000D02*
D03*
X6400000Y2820000D02*
D03*
X6650000Y850000D02*
D03*
X1500000Y4870000D02*
D03*
X1900000Y5350000D02*
D03*
X1060000Y3830000D02*
D03*
X1500000Y8450000D02*
D03*
Y8250000D02*
D03*
Y8050000D02*
D03*
Y7850000D02*
D03*
X150000D02*
D03*
Y8050000D02*
D03*
Y8250000D02*
D03*
Y8450000D02*
D03*
X2580000Y6050000D02*
D03*
X2940000Y5900000D02*
D03*
X2800000Y6050000D02*
D03*
X2350000D02*
D03*
X2210000Y5050000D02*
D03*
Y4850000D02*
D03*
Y4650000D02*
D03*
Y4450000D02*
D03*
X2200000Y5950000D02*
D03*
X480000Y5360000D02*
D03*
X320000D02*
D03*
X1250000Y6470000D02*
D03*
X1810000Y4290000D02*
D03*
X1500000Y3270000D02*
D03*
Y3150000D02*
D03*
X5310000Y2640000D02*
D03*
X5430000D02*
D03*
X1050000Y6500000D02*
D03*
X900000D02*
D03*
X1500000Y4600000D02*
D03*
Y4460000D02*
D03*
%TF.MD5,21c121cafae8c6f2f1ff14b17edb1503*%
M02*
