%TF.GenerationSoftware,Altium Limited,Altium Designer,22.7.1 (60)*%
G04 Layer_Color=16711935*
%FSLAX45Y45*%
%MOMM*%
%TF.SameCoordinates,C4916FE7-F214-4651-8B13-81D0A890374D*%
%TF.FilePolarity,Negative*%
%TF.FileFunction,Soldermask,Bot*%
%TF.Part,Single*%
G01*
G75*
%TA.AperFunction,SMDPad,CuDef*%
%ADD78R,3.57600X3.67600*%
%ADD79R,4.07600X4.07600*%
%ADD80R,0.55600X1.47600*%
%ADD81R,0.87600X1.07600*%
G04:AMPARAMS|DCode=82|XSize=1.416mm|YSize=0.666mm|CornerRadius=0.11175mm|HoleSize=0mm|Usage=FLASHONLY|Rotation=270.000|XOffset=0mm|YOffset=0mm|HoleType=Round|Shape=RoundedRectangle|*
%AMROUNDEDRECTD82*
21,1,1.41600,0.44250,0,0,270.0*
21,1,1.19250,0.66600,0,0,270.0*
1,1,0.22350,-0.22125,-0.59625*
1,1,0.22350,-0.22125,0.59625*
1,1,0.22350,0.22125,0.59625*
1,1,0.22350,0.22125,-0.59625*
%
%ADD82ROUNDEDRECTD82*%
%ADD83R,1.23600X2.79600*%
%ADD84R,1.47600X1.77600*%
%ADD85R,2.77600X2.12600*%
G04:AMPARAMS|DCode=86|XSize=2.276mm|YSize=3.876mm|CornerRadius=0.588mm|HoleSize=0mm|Usage=FLASHONLY|Rotation=270.000|XOffset=0mm|YOffset=0mm|HoleType=Round|Shape=RoundedRectangle|*
%AMROUNDEDRECTD86*
21,1,2.27600,2.70000,0,0,270.0*
21,1,1.10000,3.87600,0,0,270.0*
1,1,1.17600,-1.35000,-0.55000*
1,1,1.17600,-1.35000,0.55000*
1,1,1.17600,1.35000,0.55000*
1,1,1.17600,1.35000,-0.55000*
%
%ADD86ROUNDEDRECTD86*%
G04:AMPARAMS|DCode=87|XSize=2.376mm|YSize=2.576mm|CornerRadius=0.613mm|HoleSize=0mm|Usage=FLASHONLY|Rotation=0.000|XOffset=0mm|YOffset=0mm|HoleType=Round|Shape=RoundedRectangle|*
%AMROUNDEDRECTD87*
21,1,2.37600,1.35000,0,0,0.0*
21,1,1.15000,2.57600,0,0,0.0*
1,1,1.22600,0.57500,-0.67500*
1,1,1.22600,-0.57500,-0.67500*
1,1,1.22600,-0.57500,0.67500*
1,1,1.22600,0.57500,0.67500*
%
%ADD87ROUNDEDRECTD87*%
G04:AMPARAMS|DCode=88|XSize=1.286mm|YSize=0.666mm|CornerRadius=0.1855mm|HoleSize=0mm|Usage=FLASHONLY|Rotation=270.000|XOffset=0mm|YOffset=0mm|HoleType=Round|Shape=RoundedRectangle|*
%AMROUNDEDRECTD88*
21,1,1.28600,0.29500,0,0,270.0*
21,1,0.91500,0.66600,0,0,270.0*
1,1,0.37100,-0.14750,-0.45750*
1,1,0.37100,-0.14750,0.45750*
1,1,0.37100,0.14750,0.45750*
1,1,0.37100,0.14750,-0.45750*
%
%ADD88ROUNDEDRECTD88*%
%ADD89R,3.34600X1.22600*%
%ADD90R,1.07600X1.77600*%
%ADD91R,1.77600X1.47600*%
%ADD92R,1.57600X0.47600*%
%ADD93R,1.28600X0.80600*%
%TA.AperFunction,ComponentPad*%
%ADD94O,1.87600X1.67600*%
%ADD95C,0.87600*%
%ADD96R,1.58400X1.58400*%
%ADD97C,1.58400*%
%ADD98O,1.57600X4.07600*%
%ADD99R,1.37600X1.37600*%
%ADD100C,1.37600*%
%ADD101O,2.37600X1.87600*%
%TA.AperFunction,ViaPad*%
%ADD102C,5.07600*%
G36*
X1866000Y5004500D02*
Y4796000D01*
X1834000Y4764000D01*
Y4601500D01*
X1758000D01*
Y4764000D01*
X1726000Y4796000D01*
Y5004500D01*
X1768000Y5046500D01*
X1824000D01*
X1866000Y5004500D01*
D02*
G37*
G36*
X6903700Y3789900D02*
X6907300Y3789600D01*
X6911000Y3789100D01*
X6914600Y3788500D01*
X6918100Y3787600D01*
X6921600Y3786600D01*
X6925100Y3785400D01*
X6928500Y3783900D01*
X6931800Y3782400D01*
X6935000Y3780600D01*
X6938100Y3778700D01*
X6941100Y3776600D01*
X6944100Y3774400D01*
X6946800Y3772000D01*
X6949500Y3769500D01*
X6952000Y3766800D01*
X6954400Y3764100D01*
X6956600Y3761100D01*
X6958700Y3758100D01*
X6960600Y3755000D01*
X6962400Y3751800D01*
X6963900Y3748500D01*
X6965400Y3745100D01*
X6966600Y3741600D01*
X6967600Y3738100D01*
X6968500Y3734600D01*
X6969100Y3731000D01*
X6969600Y3727300D01*
X6969900Y3723700D01*
X6970000Y3720000D01*
Y3660000D01*
X6969900Y3656300D01*
X6969600Y3652700D01*
X6969100Y3649000D01*
X6968500Y3645400D01*
X6967600Y3641900D01*
X6966600Y3638400D01*
X6965400Y3634900D01*
X6963900Y3631500D01*
X6962400Y3628200D01*
X6960600Y3625000D01*
X6958700Y3621900D01*
X6956600Y3618900D01*
X6954400Y3615900D01*
X6952000Y3613200D01*
X6949500Y3610500D01*
X6946800Y3608000D01*
X6944100Y3605600D01*
X6941100Y3603400D01*
X6938100Y3601300D01*
X6935000Y3599400D01*
X6931800Y3597600D01*
X6928500Y3596100D01*
X6925100Y3594600D01*
X6921600Y3593400D01*
X6918100Y3592400D01*
X6914600Y3591500D01*
X6911000Y3590900D01*
X6907300Y3590400D01*
X6903700Y3590100D01*
X6900000Y3590000D01*
X6896300Y3590100D01*
X6892700Y3590400D01*
X6889000Y3590900D01*
X6885400Y3591500D01*
X6881900Y3592400D01*
X6878400Y3593400D01*
X6874900Y3594600D01*
X6871500Y3596100D01*
X6868200Y3597600D01*
X6865000Y3599400D01*
X6861900Y3601300D01*
X6858900Y3603400D01*
X6855900Y3605600D01*
X6853200Y3608000D01*
X6850500Y3610500D01*
X6848000Y3613200D01*
X6845600Y3615900D01*
X6843400Y3618900D01*
X6841300Y3621900D01*
X6839400Y3625000D01*
X6837600Y3628200D01*
X6836100Y3631500D01*
X6834600Y3634900D01*
X6833400Y3638400D01*
X6832400Y3641900D01*
X6831500Y3645400D01*
X6830900Y3649000D01*
X6830400Y3652700D01*
X6830100Y3656300D01*
X6830000Y3660000D01*
Y3720000D01*
X6830100Y3723700D01*
X6830400Y3727300D01*
X6830900Y3731000D01*
X6831500Y3734600D01*
X6832400Y3738100D01*
X6833400Y3741600D01*
X6834600Y3745100D01*
X6836100Y3748500D01*
X6837600Y3751800D01*
X6839400Y3755000D01*
X6841300Y3758100D01*
X6843400Y3761100D01*
X6845600Y3764100D01*
X6848000Y3766800D01*
X6850500Y3769500D01*
X6853200Y3772000D01*
X6855900Y3774400D01*
X6858900Y3776600D01*
X6861900Y3778700D01*
X6865000Y3780600D01*
X6868200Y3782400D01*
X6871500Y3783900D01*
X6874900Y3785400D01*
X6878400Y3786600D01*
X6881900Y3787600D01*
X6885400Y3788500D01*
X6889000Y3789100D01*
X6892700Y3789600D01*
X6896300Y3789900D01*
X6900000Y3790000D01*
X6903700Y3789900D01*
D02*
G37*
G36*
X6743700D02*
X6747300Y3789600D01*
X6751000Y3789100D01*
X6754600Y3788500D01*
X6758100Y3787600D01*
X6761600Y3786600D01*
X6765100Y3785400D01*
X6768500Y3783900D01*
X6771800Y3782400D01*
X6775000Y3780600D01*
X6778100Y3778700D01*
X6781100Y3776600D01*
X6784100Y3774400D01*
X6786800Y3772000D01*
X6789500Y3769500D01*
X6792000Y3766800D01*
X6794400Y3764100D01*
X6796600Y3761100D01*
X6798700Y3758100D01*
X6800600Y3755000D01*
X6802400Y3751800D01*
X6803900Y3748500D01*
X6805400Y3745100D01*
X6806600Y3741600D01*
X6807600Y3738100D01*
X6808500Y3734600D01*
X6809100Y3731000D01*
X6809600Y3727300D01*
X6809900Y3723700D01*
X6810000Y3720000D01*
Y3660000D01*
X6809900Y3656300D01*
X6809600Y3652700D01*
X6809100Y3649000D01*
X6808500Y3645400D01*
X6807600Y3641900D01*
X6806600Y3638400D01*
X6805400Y3634900D01*
X6803900Y3631500D01*
X6802400Y3628200D01*
X6800600Y3625000D01*
X6798700Y3621900D01*
X6796600Y3618900D01*
X6794400Y3615900D01*
X6792000Y3613200D01*
X6789500Y3610500D01*
X6786800Y3608000D01*
X6784100Y3605600D01*
X6781100Y3603400D01*
X6778100Y3601300D01*
X6775000Y3599400D01*
X6771800Y3597600D01*
X6768500Y3596100D01*
X6765100Y3594600D01*
X6761600Y3593400D01*
X6758100Y3592400D01*
X6754600Y3591500D01*
X6751000Y3590900D01*
X6747300Y3590400D01*
X6743700Y3590100D01*
X6740000Y3590000D01*
X6736300Y3590100D01*
X6732700Y3590400D01*
X6729000Y3590900D01*
X6725400Y3591500D01*
X6721900Y3592400D01*
X6718400Y3593400D01*
X6714900Y3594600D01*
X6711500Y3596100D01*
X6708200Y3597600D01*
X6705000Y3599400D01*
X6701900Y3601300D01*
X6698900Y3603400D01*
X6695900Y3605600D01*
X6693200Y3608000D01*
X6690500Y3610500D01*
X6688000Y3613200D01*
X6685600Y3615900D01*
X6683400Y3618900D01*
X6681300Y3621900D01*
X6679400Y3625000D01*
X6677600Y3628200D01*
X6676100Y3631500D01*
X6674600Y3634900D01*
X6673400Y3638400D01*
X6672400Y3641900D01*
X6671500Y3645400D01*
X6670900Y3649000D01*
X6670400Y3652700D01*
X6670100Y3656300D01*
X6670000Y3660000D01*
Y3720000D01*
X6670100Y3723700D01*
X6670400Y3727300D01*
X6670900Y3731000D01*
X6671500Y3734600D01*
X6672400Y3738100D01*
X6673400Y3741600D01*
X6674600Y3745100D01*
X6676100Y3748500D01*
X6677600Y3751800D01*
X6679400Y3755000D01*
X6681300Y3758100D01*
X6683400Y3761100D01*
X6685600Y3764100D01*
X6688000Y3766800D01*
X6690500Y3769500D01*
X6693200Y3772000D01*
X6695900Y3774400D01*
X6698900Y3776600D01*
X6701900Y3778700D01*
X6705000Y3780600D01*
X6708200Y3782400D01*
X6711500Y3783900D01*
X6714900Y3785400D01*
X6718400Y3786600D01*
X6721900Y3787600D01*
X6725400Y3788500D01*
X6729000Y3789100D01*
X6732700Y3789600D01*
X6736300Y3789900D01*
X6740000Y3790000D01*
X6743700Y3789900D01*
D02*
G37*
G36*
X6983700Y3529900D02*
X6987300Y3529600D01*
X6991000Y3529100D01*
X6994600Y3528500D01*
X6998100Y3527600D01*
X7001600Y3526600D01*
X7005100Y3525400D01*
X7008500Y3523900D01*
X7011800Y3522400D01*
X7015000Y3520600D01*
X7018100Y3518700D01*
X7021100Y3516600D01*
X7024100Y3514400D01*
X7026800Y3512000D01*
X7029500Y3509500D01*
X7032000Y3506800D01*
X7034400Y3504100D01*
X7036600Y3501100D01*
X7038700Y3498100D01*
X7040600Y3495000D01*
X7042400Y3491800D01*
X7043900Y3488500D01*
X7045400Y3485100D01*
X7046600Y3481600D01*
X7047600Y3478100D01*
X7048500Y3474600D01*
X7049100Y3471000D01*
X7049600Y3467300D01*
X7049900Y3463700D01*
X7050000Y3460000D01*
Y3400000D01*
X7049900Y3396300D01*
X7049600Y3392700D01*
X7049100Y3389000D01*
X7048500Y3385400D01*
X7047600Y3381900D01*
X7046600Y3378400D01*
X7045400Y3374900D01*
X7043900Y3371500D01*
X7042400Y3368200D01*
X7040600Y3365000D01*
X7038700Y3361900D01*
X7036600Y3358900D01*
X7034400Y3355900D01*
X7032000Y3353200D01*
X7029500Y3350500D01*
X7026800Y3348000D01*
X7024100Y3345600D01*
X7021100Y3343400D01*
X7018100Y3341300D01*
X7015000Y3339400D01*
X7011800Y3337600D01*
X7008500Y3336100D01*
X7005100Y3334600D01*
X7001600Y3333400D01*
X6998100Y3332400D01*
X6994600Y3331500D01*
X6991000Y3330900D01*
X6987300Y3330400D01*
X6983700Y3330100D01*
X6980000Y3330000D01*
X6976300Y3330100D01*
X6972700Y3330400D01*
X6969000Y3330900D01*
X6965400Y3331500D01*
X6961900Y3332400D01*
X6958400Y3333400D01*
X6954900Y3334600D01*
X6951500Y3336100D01*
X6948200Y3337600D01*
X6945000Y3339400D01*
X6941900Y3341300D01*
X6938900Y3343400D01*
X6935900Y3345600D01*
X6933200Y3348000D01*
X6930500Y3350500D01*
X6928000Y3353200D01*
X6925600Y3355900D01*
X6923400Y3358900D01*
X6921300Y3361900D01*
X6919400Y3365000D01*
X6917600Y3368200D01*
X6916100Y3371500D01*
X6914600Y3374900D01*
X6913400Y3378400D01*
X6912400Y3381900D01*
X6911500Y3385400D01*
X6910900Y3389000D01*
X6910400Y3392700D01*
X6910100Y3396300D01*
X6910000Y3400000D01*
Y3460000D01*
X6910100Y3463700D01*
X6910400Y3467300D01*
X6910900Y3471000D01*
X6911500Y3474600D01*
X6912400Y3478100D01*
X6913400Y3481600D01*
X6914600Y3485100D01*
X6916100Y3488500D01*
X6917600Y3491800D01*
X6919400Y3495000D01*
X6921300Y3498100D01*
X6923400Y3501100D01*
X6925600Y3504100D01*
X6928000Y3506800D01*
X6930500Y3509500D01*
X6933200Y3512000D01*
X6935900Y3514400D01*
X6938900Y3516600D01*
X6941900Y3518700D01*
X6945000Y3520600D01*
X6948200Y3522400D01*
X6951500Y3523900D01*
X6954900Y3525400D01*
X6958400Y3526600D01*
X6961900Y3527600D01*
X6965400Y3528500D01*
X6969000Y3529100D01*
X6972700Y3529600D01*
X6976300Y3529900D01*
X6980000Y3530000D01*
X6983700Y3529900D01*
D02*
G37*
G36*
X6823700D02*
X6827300Y3529600D01*
X6831000Y3529100D01*
X6834600Y3528500D01*
X6838100Y3527600D01*
X6841600Y3526600D01*
X6845100Y3525400D01*
X6848500Y3523900D01*
X6851800Y3522400D01*
X6855000Y3520600D01*
X6858100Y3518700D01*
X6861100Y3516600D01*
X6864100Y3514400D01*
X6866800Y3512000D01*
X6869500Y3509500D01*
X6872000Y3506800D01*
X6874400Y3504100D01*
X6876600Y3501100D01*
X6878700Y3498100D01*
X6880600Y3495000D01*
X6882400Y3491800D01*
X6883900Y3488500D01*
X6885400Y3485100D01*
X6886600Y3481600D01*
X6887600Y3478100D01*
X6888500Y3474600D01*
X6889100Y3471000D01*
X6889600Y3467300D01*
X6889900Y3463700D01*
X6890000Y3460000D01*
Y3400000D01*
X6889900Y3396300D01*
X6889600Y3392700D01*
X6889100Y3389000D01*
X6888500Y3385400D01*
X6887600Y3381900D01*
X6886600Y3378400D01*
X6885400Y3374900D01*
X6883900Y3371500D01*
X6882400Y3368200D01*
X6880600Y3365000D01*
X6878700Y3361900D01*
X6876600Y3358900D01*
X6874400Y3355900D01*
X6872000Y3353200D01*
X6869500Y3350500D01*
X6866800Y3348000D01*
X6864100Y3345600D01*
X6861100Y3343400D01*
X6858100Y3341300D01*
X6855000Y3339400D01*
X6851800Y3337600D01*
X6848500Y3336100D01*
X6845100Y3334600D01*
X6841600Y3333400D01*
X6838100Y3332400D01*
X6834600Y3331500D01*
X6831000Y3330900D01*
X6827300Y3330400D01*
X6823700Y3330100D01*
X6820000Y3330000D01*
X6816300Y3330100D01*
X6812700Y3330400D01*
X6809000Y3330900D01*
X6805400Y3331500D01*
X6801900Y3332400D01*
X6798400Y3333400D01*
X6794900Y3334600D01*
X6791500Y3336100D01*
X6788200Y3337600D01*
X6785000Y3339400D01*
X6781900Y3341300D01*
X6778900Y3343400D01*
X6775900Y3345600D01*
X6773200Y3348000D01*
X6770500Y3350500D01*
X6768000Y3353200D01*
X6765600Y3355900D01*
X6763400Y3358900D01*
X6761300Y3361900D01*
X6759400Y3365000D01*
X6757600Y3368200D01*
X6756100Y3371500D01*
X6754600Y3374900D01*
X6753400Y3378400D01*
X6752400Y3381900D01*
X6751500Y3385400D01*
X6750900Y3389000D01*
X6750400Y3392700D01*
X6750100Y3396300D01*
X6750000Y3400000D01*
Y3460000D01*
X6750100Y3463700D01*
X6750400Y3467300D01*
X6750900Y3471000D01*
X6751500Y3474600D01*
X6752400Y3478100D01*
X6753400Y3481600D01*
X6754600Y3485100D01*
X6756100Y3488500D01*
X6757600Y3491800D01*
X6759400Y3495000D01*
X6761300Y3498100D01*
X6763400Y3501100D01*
X6765600Y3504100D01*
X6768000Y3506800D01*
X6770500Y3509500D01*
X6773200Y3512000D01*
X6775900Y3514400D01*
X6778900Y3516600D01*
X6781900Y3518700D01*
X6785000Y3520600D01*
X6788200Y3522400D01*
X6791500Y3523900D01*
X6794900Y3525400D01*
X6798400Y3526600D01*
X6801900Y3527600D01*
X6805400Y3528500D01*
X6809000Y3529100D01*
X6812700Y3529600D01*
X6816300Y3529900D01*
X6820000Y3530000D01*
X6823700Y3529900D01*
D02*
G37*
G36*
X6663700D02*
X6667300Y3529600D01*
X6671000Y3529100D01*
X6674600Y3528500D01*
X6678100Y3527600D01*
X6681600Y3526600D01*
X6685100Y3525400D01*
X6688500Y3523900D01*
X6691800Y3522400D01*
X6695000Y3520600D01*
X6698100Y3518700D01*
X6701100Y3516600D01*
X6704100Y3514400D01*
X6706800Y3512000D01*
X6709500Y3509500D01*
X6712000Y3506800D01*
X6714400Y3504100D01*
X6716600Y3501100D01*
X6718700Y3498100D01*
X6720600Y3495000D01*
X6722400Y3491800D01*
X6723900Y3488500D01*
X6725400Y3485100D01*
X6726600Y3481600D01*
X6727600Y3478100D01*
X6728500Y3474600D01*
X6729100Y3471000D01*
X6729600Y3467300D01*
X6729900Y3463700D01*
X6730000Y3460000D01*
Y3400000D01*
X6729900Y3396300D01*
X6729600Y3392700D01*
X6729100Y3389000D01*
X6728500Y3385400D01*
X6727600Y3381900D01*
X6726600Y3378400D01*
X6725400Y3374900D01*
X6723900Y3371500D01*
X6722400Y3368200D01*
X6720600Y3365000D01*
X6718700Y3361900D01*
X6716600Y3358900D01*
X6714400Y3355900D01*
X6712000Y3353200D01*
X6709500Y3350500D01*
X6706800Y3348000D01*
X6704100Y3345600D01*
X6701100Y3343400D01*
X6698100Y3341300D01*
X6695000Y3339400D01*
X6691800Y3337600D01*
X6688500Y3336100D01*
X6685100Y3334600D01*
X6681600Y3333400D01*
X6678100Y3332400D01*
X6674600Y3331500D01*
X6671000Y3330900D01*
X6667300Y3330400D01*
X6663700Y3330100D01*
X6660000Y3330000D01*
X6656300Y3330100D01*
X6652700Y3330400D01*
X6649000Y3330900D01*
X6645400Y3331500D01*
X6641900Y3332400D01*
X6638400Y3333400D01*
X6634900Y3334600D01*
X6631500Y3336100D01*
X6628200Y3337600D01*
X6625000Y3339400D01*
X6621900Y3341300D01*
X6618900Y3343400D01*
X6615900Y3345600D01*
X6613200Y3348000D01*
X6610500Y3350500D01*
X6608000Y3353200D01*
X6605600Y3355900D01*
X6603400Y3358900D01*
X6601300Y3361900D01*
X6599400Y3365000D01*
X6597600Y3368200D01*
X6596100Y3371500D01*
X6594600Y3374900D01*
X6593400Y3378400D01*
X6592400Y3381900D01*
X6591500Y3385400D01*
X6590900Y3389000D01*
X6590400Y3392700D01*
X6590100Y3396300D01*
X6590000Y3400000D01*
Y3460000D01*
X6590100Y3463700D01*
X6590400Y3467300D01*
X6590900Y3471000D01*
X6591500Y3474600D01*
X6592400Y3478100D01*
X6593400Y3481600D01*
X6594600Y3485100D01*
X6596100Y3488500D01*
X6597600Y3491800D01*
X6599400Y3495000D01*
X6601300Y3498100D01*
X6603400Y3501100D01*
X6605600Y3504100D01*
X6608000Y3506800D01*
X6610500Y3509500D01*
X6613200Y3512000D01*
X6615900Y3514400D01*
X6618900Y3516600D01*
X6621900Y3518700D01*
X6625000Y3520600D01*
X6628200Y3522400D01*
X6631500Y3523900D01*
X6634900Y3525400D01*
X6638400Y3526600D01*
X6641900Y3527600D01*
X6645400Y3528500D01*
X6649000Y3529100D01*
X6652700Y3529600D01*
X6656300Y3529900D01*
X6660000Y3530000D01*
X6663700Y3529900D01*
D02*
G37*
D78*
X6285000Y550000D02*
D03*
X4695000D02*
D03*
D79*
X5490000D02*
D03*
D80*
X1646000Y4681500D02*
D03*
X1946000D02*
D03*
D81*
X6740000Y6070001D02*
D03*
X6590000D02*
D03*
X5785000Y3970000D02*
D03*
X5635000D02*
D03*
X6175000Y3470000D02*
D03*
X6025000D02*
D03*
X5185000Y2770000D02*
D03*
X5035000D02*
D03*
X6415000Y1250000D02*
D03*
X6265000D02*
D03*
X6415000Y1070000D02*
D03*
X6265000D02*
D03*
D82*
X767500Y5629454D02*
D03*
X862500D02*
D03*
X957500D02*
D03*
Y5391454D02*
D03*
X862500D02*
D03*
X767500D02*
D03*
D83*
X1430000Y5480454D02*
D03*
X1135000D02*
D03*
X345000Y5910454D02*
D03*
X640000D02*
D03*
Y6260454D02*
D03*
X345000D02*
D03*
D84*
X778200Y5190454D02*
D03*
X1006800D02*
D03*
X1484300Y6640000D02*
D03*
X1255700D02*
D03*
X1900300Y5184000D02*
D03*
X1671700D02*
D03*
Y4464000D02*
D03*
X1900300D02*
D03*
X6275700Y860000D02*
D03*
X6504300D02*
D03*
D85*
X412500Y5155454D02*
D03*
Y5625454D02*
D03*
D86*
X982500Y5890000D02*
D03*
Y6280000D02*
D03*
D87*
X1420000Y6330000D02*
D03*
Y5870000D02*
D03*
D88*
X1225000Y7090547D02*
D03*
X1320000D02*
D03*
X1415000D02*
D03*
Y6839547D02*
D03*
X1225000D02*
D03*
D89*
X970000Y6663654D02*
D03*
Y7266254D02*
D03*
D90*
X1225000Y7310000D02*
D03*
X1415000D02*
D03*
X6225001Y3270000D02*
D03*
X6035001D02*
D03*
D91*
X1630000Y7524300D02*
D03*
Y7295700D02*
D03*
X6040001Y3044300D02*
D03*
Y2815700D02*
D03*
X6240001Y3044300D02*
D03*
Y2815700D02*
D03*
D92*
X5015000Y2950000D02*
D03*
Y3015000D02*
D03*
Y3080000D02*
D03*
Y3145000D02*
D03*
Y3210000D02*
D03*
Y3275000D02*
D03*
Y3340000D02*
D03*
Y3405000D02*
D03*
Y3470000D02*
D03*
Y3535000D02*
D03*
Y3600000D02*
D03*
Y3665000D02*
D03*
Y3730000D02*
D03*
Y3795000D02*
D03*
X5740000D02*
D03*
Y3730000D02*
D03*
Y3665000D02*
D03*
Y3600000D02*
D03*
Y3535000D02*
D03*
Y3470000D02*
D03*
Y3405000D02*
D03*
Y3340000D02*
D03*
Y3275000D02*
D03*
Y3210000D02*
D03*
Y3145000D02*
D03*
Y3080000D02*
D03*
Y3015000D02*
D03*
Y2950000D02*
D03*
D93*
X6132000Y1450000D02*
D03*
X6468000D02*
D03*
D94*
X7140000Y7222001D02*
D03*
Y6968001D02*
D03*
Y6714001D02*
D03*
Y6460001D02*
D03*
X7145000Y5310002D02*
D03*
Y5564002D02*
D03*
Y5818002D02*
D03*
Y6072002D02*
D03*
X7150000Y8368001D02*
D03*
Y8114001D02*
D03*
Y7860001D02*
D03*
Y7606001D02*
D03*
D95*
X5990000Y980000D02*
D03*
X4990000D02*
D03*
D96*
X502501Y6719999D02*
D03*
Y4210000D02*
D03*
X6897500Y4710000D02*
D03*
X6900000Y2910000D02*
D03*
Y1710000D02*
D03*
D97*
X502501Y6969999D02*
D03*
Y7219999D02*
D03*
Y4710000D02*
D03*
Y4460000D02*
D03*
X6897500Y4210000D02*
D03*
Y4460000D02*
D03*
X6900000Y2410000D02*
D03*
Y2660000D02*
D03*
Y1210000D02*
D03*
Y1460000D02*
D03*
D98*
X7185000Y3560000D02*
D03*
X6455000D02*
D03*
D99*
X5526001Y2220000D02*
D03*
D100*
X6026001D02*
D03*
D101*
X2120000Y7302000D02*
D03*
Y7556000D02*
D03*
Y7810000D02*
D03*
Y8064000D02*
D03*
Y8318000D02*
D03*
Y8572000D02*
D03*
Y8826000D02*
D03*
D102*
X390000Y400000D02*
D03*
X6990000Y9600000D02*
D03*
Y400000D02*
D03*
X390000Y9600000D02*
D03*
%TF.MD5,c17adab7fed25bf9b4f25ceacabfde37*%
M02*
